<?xml version="1.0" encoding="utf-8"?>
<!-- Generator: Adobe Illustrator 28.0.0, SVG Export Plug-In . SVG Version: 6.00 Build 0)  -->
<svg version="1.1" id="Layer_1" xmlns="http://www.w3.org/2000/svg" xmlns:xlink="http://www.w3.org/1999/xlink" x="0px" y="0px"
	 viewBox="0 0 71.4 37.9" style="enable-background:new 0 0 71.4 37.9;" xml:space="preserve">
<style type="text/css">
	.st0{fill:#FFFFFF;}
	.st1{fill:#E2DEE2;}
	.st2{fill:#969696;}
	.st3{fill:#FFA500;}
</style>
<rect y="0" class="st0" width="71.4" height="37.9"/>
<g>
	<path class="st1" d="M21.2,10.1h24.3c0.5,0,0.8,0.3,0.8,0.8l0,0c0,0.4-0.4,0.8-0.8,0.8H21.2c-0.5,0-0.8-0.3-0.8-0.8l0,0
		C20.3,10.4,20.7,10.1,21.2,10.1z"/>
	<path class="st1" d="M24.9,12.7h20.5c0.5,0,0.8,0.3,0.8,0.8l0,0c0,0.4-0.4,0.8-0.8,0.8H24.9c-0.5,0-0.8-0.3-0.8-0.8l0,0
		C24.1,13,24.5,12.7,24.9,12.7z"/>
	<circle class="st2" cx="16.2" cy="10.9" r="1.1"/>
	<path class="st1" d="M24.9,15.3h17.8c0.5,0,0.8,0.3,0.8,0.8l0,0c0,0.4-0.4,0.8-0.8,0.8H24.9c-0.5,0-0.8-0.3-0.8-0.8l0,0
		C24.1,15.7,24.5,15.3,24.9,15.3z"/>
</g>
<g>
	<path class="st1" d="M21.2,21.4h24.3c0.5,0,0.8,0.3,0.8,0.8l0,0c0,0.4-0.4,0.8-0.8,0.8H21.2c-0.5,0-0.8-0.3-0.8-0.8l0,0
		C20.3,21.7,20.7,21.4,21.2,21.4z"/>
	<path class="st1" d="M24.9,24h20.5c0.5,0,0.8,0.3,0.8,0.8l0,0c0,0.4-0.4,0.8-0.8,0.8H24.9c-0.5,0-0.8-0.3-0.8-0.8l0,0
		C24.1,24.3,24.5,24,24.9,24z"/>
	<circle class="st2" cx="16.2" cy="22.1" r="1.1"/>
	<path class="st1" d="M24.9,26.6h17.8c0.5,0,0.8,0.3,0.8,0.8l0,0c0,0.4-0.4,0.8-0.8,0.8H24.9c-0.5,0-0.8-0.3-0.8-0.8l0,0
		C24.1,26.9,24.5,26.6,24.9,26.6z"/>
</g>
<g>
	<path class="st1" d="M21.3,32.7h24.3c0.5,0,0.8,0.3,0.8,0.8l0,0c0,0.4-0.4,0.8-0.8,0.8H21.3c-0.5,0-0.8-0.3-0.8-0.8l0,0
		C20.5,33,20.9,32.7,21.3,32.7z"/>
	<path class="st1" d="M25.1,35.3h20.5c0.5,0,0.8,0.3,0.8,0.8l0,0c0,0.4-0.4,0.8-0.8,0.8H25.1c-0.5,0-0.8-0.3-0.8-0.8l0,0
		C24.3,35.6,24.7,35.3,25.1,35.3z"/>
	<circle class="st2" cx="16.3" cy="33.4" r="1.1"/>
</g>
<g>
	<path class="st3" d="M45.6,13.4h12.3c2,0,3.7,1.7,3.7,3.7v12.3c0,2-1.7,3.7-3.7,3.7H45.6c-2,0-3.7-1.7-3.7-3.7V17.1
		C41.9,15,43.5,13.4,45.6,13.4z"/>
	<circle class="st0" cx="46.8" cy="28.2" r="2.5"/>
	<path class="st0" d="M44.3,23.3c4.1,0,7.4,3.3,7.4,7.4h2.5c0-5.5-4.4-9.9-9.9-9.9V23.3z"/>
	<path class="st0" d="M44.3,18.3c6.8,0,12.3,5.5,12.3,12.3h2.5c0-8.2-6.6-14.8-14.8-14.8V18.3z"/>
</g>
</svg>
