<?xml version="1.0" encoding="utf-8"?>
<!-- Generator: Adobe Illustrator 28.0.0, SVG Export Plug-In . SVG Version: 6.00 Build 0)  -->
<svg version="1.1" id="Layer_1" xmlns="http://www.w3.org/2000/svg" xmlns:xlink="http://www.w3.org/1999/xlink" x="0px" y="0px"
	 viewBox="0 0 71.4 37.9" style="enable-background:new 0 0 71.4 37.9;" xml:space="preserve">
<style type="text/css">
	.st0{fill:#FFFFFF;}
	.st1{fill:#F2F0F3;}
	.st2{fill:#969696;}
	.st3{fill:#E2DEE2;}
	.st4{fill-rule:evenodd;clip-rule:evenodd;fill:#F2F0F3;}
	.st5{fill-rule:evenodd;clip-rule:evenodd;fill:#66C8E8;}
	.st6{fill-rule:evenodd;clip-rule:evenodd;fill:#559F37;}
	.st7{fill-rule:evenodd;clip-rule:evenodd;fill:#F0CE4C;}
	.st8{opacity:0.149;}
	.st9{fill-rule:evenodd;clip-rule:evenodd;}
</style>
<rect y="0" class="st0" width="71.4" height="37.9"/>
<path class="st1" d="M65,27.4H42.7c-0.8,0-1.5-0.7-1.5-1.5V12c0-0.8,0.7-1.5,1.5-1.5H65c0.8,0,1.5,0.7,1.5,1.5v13.8
	C66.5,26.7,65.8,27.4,65,27.4z"/>
<g>
	<path class="st2" d="M45.8,15.6h16.9c0.3,0,0.6,0.3,0.6,0.8l0,0c0,0.4-0.3,0.8-0.6,0.8H45.8c-0.3,0-0.6-0.3-0.6-0.8l0,0
		C45.2,15.9,45.4,15.6,45.8,15.6z"/>
	<path class="st3" d="M45.8,18.2H60c0.3,0,0.6,0.3,0.6,0.8l0,0c0,0.4-0.3,0.8-0.6,0.8H45.8c-0.3,0-0.6-0.3-0.6-0.8l0,0
		C45.2,18.5,45.5,18.2,45.8,18.2z"/>
	<path class="st3" d="M45.8,20.8h12.4c0.3,0,0.6,0.3,0.6,0.8l0,0c0,0.4-0.3,0.8-0.6,0.8H45.8c-0.3,0-0.6-0.3-0.6-0.8l0,0
		C45.2,21.1,45.5,20.8,45.8,20.8z"/>
</g>
<g>
	<g id="Photo">
		<g>
			<path class="st4" d="M38.6,10.5H6.2c-0.8,0-1.4,0.6-1.4,1.4v14c0,0.8,0.6,1.4,1.4,1.4h32.4c0.8,0,1.4-0.6,1.4-1.4v-14
				C40,11.2,39.3,10.5,38.6,10.5z"/>
		</g>
	</g>
	<g id="Sky">
		<g>
			<rect x="6.3" y="11.9" class="st5" width="32.3" height="14"/>
		</g>
	</g>
	<g id="Grass">
		<g>
			<polygon class="st6" points="31.9,16.5 28,20.3 26.3,18.6 20.3,24.6 20.3,26 38.6,26 38.6,23.2 			"/>
		</g>
	</g>
	<g id="Sun">
		<g>
			<path class="st7" d="M24.2,14c-1,0-1.8,0.8-1.8,1.8c0,1,0.8,1.8,1.8,1.8c1,0,1.8-0.8,1.8-1.8C25.9,14.8,25.1,14,24.2,14z"/>
		</g>
	</g>
	<g id="Shading_2_" class="st8">
		<g>
			<polygon class="st9" points="29.3,19.1 28,20.3 26.3,18.6 33.6,26 			"/>
		</g>
	</g>
	<g id="Grass_00000127029117022266126320000013080794672329722760_">
		<g>
			<polygon class="st6" points="17.8,16.5 14,20.3 12.2,18.6 6.3,24.6 6.3,26 24.5,26 24.5,23.2 			"/>
		</g>
	</g>
	<g id="Shading_00000171702175214149168980000018252606904256230587_" class="st8">
		<g>
			<polygon class="st9" points="10.2,24.3 14.1,20.4 12.8,19.1 			"/>
		</g>
	</g>
</g>
</svg>
