<?xml version="1.0" encoding="UTF-8"?>
<svg id="Layer_1" data-name="Layer 1" xmlns="http://www.w3.org/2000/svg" viewBox="0 0 71.37 37.86">
  <defs>
    <style>
      .cls-1, .cls-2, .cls-3, .cls-4 {
        stroke-width: 0px;
      }

      .cls-2 {
        fill: #f2f0f3;
      }

      .cls-3 {
        fill: #e2dee2;
      }

      .cls-4 {
        fill: #fff;
      }
    </style>
  </defs>
  <rect class="cls-4" width="71.37" height="37.86"/>
  <path class="cls-2" d="m54.33,16.3H17.04v-8.21h37.28v8.21h0Z"/>
  <path class="cls-3" d="m20,9.94h10.65c.45,0,.82.33.82.75h0c0,.42-.37.76-.82.76h-10.65c-.45,0-.82-.33-.82-.75h0c0-.42.37-.76.82-.76Z"/>
  <path class="cls-2" d="m54.33,26.19H17.04v-8.21h37.28v8.21h0Z"/>
  <path class="cls-2" d="m54.33,36.07H17.04v-8.21h37.28v8.21h0Z"/>
  <path class="cls-3" d="m19.98,22.84h20.32c.45,0,.82.33.82.75h0c0,.42-.37.76-.82.76h-20.32c-.45,0-.82-.33-.82-.75h0c0-.42.37-.76.82-.76Z"/>
  <path class="cls-3" d="m19.98,19.82h16.16c.45,0,.82.33.82.75h0c0,.42-.37.76-.82.76h-16.16c-.45,0-.82-.33-.82-.75h0c0-.42.37-.76.82-.76Z"/>
  <path class="cls-3" d="m20,12.95h16.16c.45,0,.82.33.82.75h0c0,.42-.37.76-.82.76h-16.16c-.45,0-.82-.33-.82-.75h0c0-.42.37-.76.82-.76Z"/>
  <path class="cls-3" d="m19.98,29.71h16.16c.45,0,.82.33.82.75h0c0,.42-.37.76-.82.76h-16.16c-.45,0-.82-.33-.82-.75h0c0-.42.37-.76.82-.76Z"/>
  <path class="cls-3" d="m19.98,32.72h10.65c.45,0,.82.33.82.75h0c0,.42-.37.76-.82.76h-10.65c-.45,0-.82-.33-.82-.75h0c0-.42.37-.76.82-.76Z"/>
  <path class="cls-1" d="m52.21,11.81c-.11,0-.21-.04-.28-.11-.07-.1-.24-.11-.33-.04-.1.07-.11.24-.04.33.1.14.26.24.42.28v.03c0,.12.1.24.23.24.15,0,.25-.1.25-.24v-.05c.17-.07.31-.19.37-.33.1-.24.03-.51-.21-.71-.1-.07-.35-.23-.4-.26-.02-.02-.04-.03-.05-.04-.08-.07-.09-.21,0-.26.1-.04.29.05.34.12.04.07.21.14.33.07.12-.06.15-.2.08-.33-.1-.14-.26-.26-.42-.3v-.04c0-.12-.1-.24-.23-.24-.15,0-.25.1-.25.24v.04c-.14.04-.26.14-.33.24-.1.11-.11.28-.1.42.04.17.17.33.37.47.04.03.31.19.38.24.19.14-.06.22-.13.22Z"/>
  <path class="cls-1" d="m52.21,21.69c-.11,0-.21-.04-.28-.11-.07-.1-.24-.11-.33-.04-.1.07-.11.24-.04.33.1.14.26.24.42.28v.03c0,.12.1.24.23.24.15,0,.25-.1.25-.24v-.05c.17-.07.31-.19.37-.33.1-.24.03-.51-.21-.71-.1-.07-.35-.23-.4-.26-.02-.02-.04-.03-.05-.04-.08-.07-.09-.21,0-.26.1-.04.29.05.34.12.04.07.21.14.33.07.12-.06.15-.2.08-.33-.1-.14-.26-.26-.42-.3v-.04c0-.12-.1-.24-.23-.24-.15,0-.25.1-.25.24v.04c-.14.04-.26.14-.33.24-.1.11-.11.28-.1.42.04.17.17.33.37.47.04.03.31.19.38.24.19.14-.06.22-.13.22Z"/>
  <path class="cls-1" d="m50.14,21.69c-.11,0-.21-.04-.28-.11-.07-.1-.24-.11-.33-.04-.1.07-.11.24-.04.33.1.14.26.24.42.28v.03c0,.12.1.24.23.24.15,0,.25-.1.25-.24v-.05c.17-.07.31-.19.37-.33.1-.24.03-.51-.21-.71-.1-.07-.35-.23-.4-.26-.02-.02-.04-.03-.05-.04-.08-.07-.09-.21,0-.26.1-.04.29.05.34.12.04.07.21.14.33.07.12-.06.15-.2.08-.33-.1-.14-.26-.26-.42-.3v-.04c0-.12-.1-.24-.23-.24-.15,0-.25.1-.25.24v.04c-.14.04-.26.14-.33.24-.1.11-.11.28-.1.42.04.17.17.33.37.47.04.03.31.19.38.24.19.14-.06.22-.13.22Z"/>
  <path class="cls-1" d="m52.21,31.58c-.11,0-.21-.04-.28-.11-.07-.1-.24-.11-.33-.04-.1.07-.11.24-.04.33.1.14.26.24.42.28v.03c0,.12.1.24.23.24.15,0,.25-.1.25-.24v-.05c.17-.07.31-.19.37-.33.1-.24.03-.51-.21-.71-.1-.07-.35-.23-.4-.26-.02-.02-.04-.03-.05-.04-.08-.07-.09-.21,0-.26.1-.04.29.05.34.12.04.07.21.14.33.07.12-.06.15-.2.08-.33-.1-.14-.26-.26-.42-.3v-.04c0-.12-.1-.24-.23-.24-.15,0-.25.1-.25.24v.04c-.14.04-.26.14-.33.24-.1.11-.11.28-.1.42.04.17.17.33.37.47.04.03.31.19.38.24.19.14-.06.22-.13.22Z"/>
</svg>