<?xml version="1.0" encoding="UTF-8"?>
<svg id="Layer_1" data-name="Layer 1" xmlns="http://www.w3.org/2000/svg" viewBox="0 0 71.37 37.87">
  <defs>
    <style>
      .cls-1 {
        fill: #f3f3f3;
      }

      .cls-1, .cls-2, .cls-3, .cls-4, .cls-5, .cls-6, .cls-7 {
        stroke-width: 0px;
      }

      .cls-2 {
        fill: #f2f0f3;
      }

      .cls-3 {
        fill: #7aacde;
      }

      .cls-4 {
        fill: #e2dee2;
      }

      .cls-5 {
        fill: #918191;
      }

      .cls-6 {
        fill: #fff;
      }

      .cls-7 {
        fill: #f78e36;
      }
    </style>
  </defs>
  <rect class="cls-6" width="71.37" height="37.86"/>
  <g>
    <path class="cls-2" d="m66.46,37.87H4.91V10.06h61.54v27.8Z"/>
    <path class="cls-3" d="m66.46,11.05H4.91v-4c0-1.58,1.28-2.85,2.85-2.85h55.84c1.58,0,2.85,1.28,2.85,2.85v4Z"/>
    <circle class="cls-6" cx="8.34" cy="7.67" r="1.13"/>
    <circle class="cls-1" cx="12.73" cy="7.67" r="1.13"/>
    <circle class="cls-6" cx="17.13" cy="7.67" r="1.13"/>
  </g>
  <rect class="cls-5" x="41.86" y="18.14" width="14.27" height="1.91" rx=".95" ry=".95"/>
  <path class="cls-4" d="m35.53,34.01H10.82c-.74,0-1.34-.92-1.34-2.05v-14.77c0-1.13.6-2.05,1.34-2.05h24.71c.74,0,1.34.92,1.34,2.05v14.77c0,1.13-.6,2.05-1.34,2.05Z"/>
  <g>
    <path class="cls-7" d="m19.51,20.94c-.21-.21-.54-.21-.75,0l-3.28,3.28c-.21.21-.21.54,0,.75l3.24,3.24c.1.1.24.16.38.16s.27-.05.38-.16c.21-.21.21-.54,0-.75l-2.87-2.87,2.91-2.91c.21-.21.21-.54,0-.75h0Z"/>
    <path class="cls-7" d="m30.87,24.22l-3.28-3.28c-.21-.21-.54-.21-.75,0-.21.21-.21.54,0,.75l2.91,2.91-2.87,2.87c-.21.21-.21.54,0,.75.1.1.24.16.38.16s.27-.05.38-.16l3.24-3.24c.21-.21.21-.54,0-.75h0Z"/>
    <path class="cls-7" d="m25.31,18.97c-.27-.1-.58.03-.68.31l-3.88,10.23c-.1.27.03.58.31.68.06.02.13.03.19.03.21,0,.42-.13.5-.34l3.88-10.23c.1-.27-.03-.58-.31-.68h0Z"/>
  </g>
  <rect class="cls-5" x="41.86" y="22.83" width="17.22" height="1.91" rx=".95" ry=".95"/>
  <rect class="cls-5" x="41.86" y="27.52" width="12.61" height="1.91" rx=".95" ry=".95"/>
</svg>