<?xml version="1.0" encoding="utf-8"?>
<!-- Generator: Adobe Illustrator 28.0.0, SVG Export Plug-In . SVG Version: 6.00 Build 0)  -->
<svg version="1.1" id="Layer_1" xmlns="http://www.w3.org/2000/svg" xmlns:xlink="http://www.w3.org/1999/xlink" x="0px" y="0px"
	 viewBox="0 0 71.4 37.9" style="enable-background:new 0 0 71.4 37.9;" xml:space="preserve">
<style type="text/css">
	.st0{fill:#FFFFFF;}
	.st1{opacity:0.102;}
	.st2{fill-rule:evenodd;clip-rule:evenodd;}
	.st3{fill-rule:evenodd;clip-rule:evenodd;fill:#F5F5F5;}
	.st4{fill-rule:evenodd;clip-rule:evenodd;fill:#EE592F;}
	.st5{opacity:0.349;}
	.st6{fill:#969696;}
	.st7{fill:#E2DEE2;}
	.st8{fill:#EE592F;}
</style>
<rect y="0" class="st0" width="71.4" height="37.9"/>
<g id="Calendar_Shadow_00000015313261886780658200000006501454908922581377_" class="st1">
	<g>
		<path class="st2" d="M23,32.7h-3.2c-0.3,0-0.6,0.3-0.6,0.6v3.5c0,0.3,0.3,0.6,0.6,0.6H23c0.3,0,0.6-0.3,0.6-0.6v-3.5
			C23.6,33,23.3,32.7,23,32.7z"/>
	</g>
</g>
<g id="Calendar_00000080923774428397766510000004589166421242208153_">
	<g>
		<path class="st3" d="M23,32.7h-3.2c-0.3,0-0.6,0.3-0.6,0.6v3.2c0,0.3,0.3,0.6,0.6,0.6H23c0.3,0,0.6-0.3,0.6-0.6v-3.2
			C23.6,33,23.3,32.7,23,32.7z"/>
	</g>
</g>
<g id="Top_Bar_00000163049889204064698310000015376343012026707368_">
	<g>
		<path class="st4" d="M23,32.7h-3.2c-0.3,0-0.6,0.3-0.6,0.6v0.6h4.3v-0.6C23.6,33,23.3,32.7,23,32.7z"/>
	</g>
</g>
<g id="Dots_00000166649655757407044850000005135174255314683275_" class="st5">
	<g>
		<path class="st2" d="M20,33.1c-0.1,0-0.2,0.1-0.2,0.2s0.1,0.2,0.2,0.2c0.1,0,0.2-0.1,0.2-0.2S20.1,33.1,20,33.1z M22.9,33.1
			c-0.1,0-0.2,0.1-0.2,0.2s0.1,0.2,0.2,0.2s0.2-0.1,0.2-0.2S23,33.1,22.9,33.1z"/>
	</g>
</g>
<g id="Bottom_Shadow_00000101075556344670330920000010646954702935070649_" class="st1">
	<g>
		<rect x="19.3" y="33.9" class="st2" width="4.3" height="0.3"/>
	</g>
</g>
<g>
	<path class="st6" d="M26.8,21.4h24.3c0.5,0,0.8,0.3,0.8,0.8l0,0c0,0.4-0.4,0.8-0.8,0.8H26.8c-0.5,0-0.8-0.3-0.8-0.8l0,0
		C25.9,21.7,26.3,21.4,26.8,21.4z"/>
	<path class="st7" d="M26.8,24h20.5c0.5,0,0.8,0.3,0.8,0.8l0,0c0,0.4-0.4,0.8-0.8,0.8H26.8c-0.5,0-0.8-0.3-0.8-0.8l0,0
		C26,24.3,26.4,24,26.8,24z"/>
	<path class="st7" d="M26.8,26.6h17.8c0.5,0,0.8,0.3,0.8,0.8l0,0c0,0.4-0.4,0.8-0.8,0.8H26.8c-0.5,0-0.8-0.3-0.8-0.8l0,0
		C26,26.9,26.4,26.6,26.8,26.6z"/>
</g>
<g>
	<path class="st6" d="M26.8,10.2h24.3c0.5,0,0.8,0.3,0.8,0.8l0,0c0,0.4-0.4,0.8-0.8,0.8H26.8c-0.5,0-0.8-0.3-0.8-0.8l0,0
		C25.9,10.5,26.3,10.2,26.8,10.2z"/>
	<path class="st7" d="M26.8,12.8h20.5c0.5,0,0.8,0.3,0.8,0.8l0,0c0,0.4-0.4,0.8-0.8,0.8H26.8c-0.5,0-0.8-0.3-0.8-0.8l0,0
		C26,13.1,26.4,12.8,26.8,12.8z"/>
	<path class="st7" d="M26.8,15.4h17.8c0.5,0,0.8,0.3,0.8,0.8l0,0c0,0.4-0.4,0.8-0.8,0.8H26.8c-0.5,0-0.8-0.3-0.8-0.8l0,0
		C26,15.7,26.4,15.4,26.8,15.4z"/>
</g>
<g>
	<path class="st6" d="M26.8,32.7h24.3c0.5,0,0.8,0.3,0.8,0.8l0,0c0,0.4-0.4,0.8-0.8,0.8H26.8c-0.5,0-0.8-0.3-0.8-0.8l0,0
		C25.9,33,26.3,32.7,26.8,32.7z"/>
	<path class="st7" d="M26.8,35.3h20.5c0.5,0,0.8,0.3,0.8,0.8l0,0c0,0.4-0.4,0.8-0.8,0.8H26.8c-0.5,0-0.8-0.3-0.8-0.8l0,0
		C26,35.6,26.4,35.3,26.8,35.3z"/>
</g>
<g>
	<g id="Calendar_Shadow" class="st1">
		<g>
			<path class="st2" d="M23.1,10.3h-3.2c-0.3,0-0.6,0.3-0.6,0.6v3.5c0,0.3,0.3,0.6,0.6,0.6h3.2c0.3,0,0.6-0.3,0.6-0.6v-3.5
				C23.6,10.6,23.4,10.3,23.1,10.3z"/>
		</g>
	</g>
	<g id="Calendar">
		<g>
			<path class="st3" d="M23.1,10.3h-3.2c-0.3,0-0.6,0.3-0.6,0.6v3.2c0,0.3,0.3,0.6,0.6,0.6h3.2c0.3,0,0.6-0.3,0.6-0.6v-3.2
				C23.6,10.6,23.4,10.3,23.1,10.3z"/>
		</g>
	</g>
	<g id="Top_Bar">
		<g>
			<path class="st4" d="M23.1,10.3h-3.2c-0.3,0-0.6,0.3-0.6,0.6v0.6h4.3v-0.6C23.6,10.6,23.4,10.3,23.1,10.3z"/>
		</g>
	</g>
	<g id="Dots" class="st5">
		<g>
			<path class="st2" d="M20,10.7c-0.1,0-0.2,0.1-0.2,0.2c0,0.1,0.1,0.2,0.2,0.2s0.2-0.1,0.2-0.2C20.3,10.8,20.2,10.7,20,10.7z
				 M22.9,10.7c-0.1,0-0.2,0.1-0.2,0.2c0,0.1,0.1,0.2,0.2,0.2s0.2-0.1,0.2-0.2C23.1,10.8,23,10.7,22.9,10.7z"/>
		</g>
	</g>
	<g id="Bottom_Shadow_1_" class="st1">
		<g>
			<rect x="19.3" y="11.5" class="st2" width="4.3" height="0.3"/>
		</g>
	</g>
	<g id="Calendar_Shadow_00000002366145057996956930000012102729288658796704_" class="st1">
		<g>
			<path class="st2" d="M23.1,21.4h-3.2c-0.3,0-0.6,0.3-0.6,0.6v3.5c0,0.3,0.3,0.6,0.6,0.6h3.2c0.3,0,0.6-0.3,0.6-0.6V22
				C23.6,21.7,23.4,21.4,23.1,21.4z"/>
		</g>
	</g>
	<g id="Calendar_00000183946615756949967020000001722011778904383928_">
		<g>
			<path class="st3" d="M23.1,21.4h-3.2c-0.3,0-0.6,0.3-0.6,0.6v3.2c0,0.3,0.3,0.6,0.6,0.6h3.2c0.3,0,0.6-0.3,0.6-0.6V22
				C23.6,21.7,23.4,21.4,23.1,21.4z"/>
		</g>
	</g>
	<g id="Top_Bar_00000082344322542747015780000012764928213406621322_">
		<g>
			<path class="st4" d="M23.1,21.4h-3.2c-0.3,0-0.6,0.3-0.6,0.6v0.6h4.3V22C23.6,21.7,23.4,21.4,23.1,21.4z"/>
		</g>
	</g>
	<g id="Dots_00000121263554286376503150000005072760614793248896_" class="st5">
		<g>
			<path class="st2" d="M20,21.8c-0.1,0-0.2,0.1-0.2,0.2c0,0.1,0.1,0.2,0.2,0.2s0.2-0.1,0.2-0.2C20.3,21.9,20.2,21.8,20,21.8z
				 M22.9,21.8c-0.1,0-0.2,0.1-0.2,0.2c0,0.1,0.1,0.2,0.2,0.2s0.2-0.1,0.2-0.2C23.1,21.9,23,21.8,22.9,21.8z"/>
		</g>
	</g>
	<g id="Bottom_Shadow_00000053524560877497714130000008119005944827702422_" class="st1">
		<g>
			<rect x="19.3" y="22.6" class="st2" width="4.3" height="0.3"/>
		</g>
	</g>
	<g>
		<path class="st8" d="M20.2,35.2V35c0.2,0,0.3,0,0.4-0.1s0.1-0.1,0.2-0.3h0.2v1.9h-0.3v-1.4H20.2z"/>
		<path class="st8" d="M21.5,35.2V35c0.2,0,0.3,0,0.4-0.1c0.1,0,0.1-0.1,0.2-0.3h0.2v1.9H22v-1.4H21.5z"/>
	</g>
	<g>
		<path class="st8" d="M20.2,23.9v-0.2c0.2,0,0.3,0,0.4-0.1s0.1-0.1,0.2-0.3h0.2v1.9h-0.3v-1.4H20.2z"/>
		<path class="st8" d="M21.7,25.1c-0.1-0.1-0.2-0.3-0.2-0.5h0.3c0,0.1,0,0.2,0.1,0.3c0.1,0.1,0.2,0.2,0.3,0.2c0.1,0,0.2,0,0.3-0.1
			c0.1-0.1,0.1-0.2,0.1-0.3c0-0.1,0-0.2-0.1-0.3c-0.1-0.1-0.2-0.1-0.3-0.1c0,0,0,0,0,0c0,0,0,0-0.1,0v-0.2c0,0,0,0,0.1,0
			c0,0,0,0,0.1,0c0.1,0,0.2,0,0.2,0c0.1-0.1,0.2-0.1,0.2-0.3c0-0.1,0-0.2-0.1-0.2c-0.1-0.1-0.1-0.1-0.2-0.1c-0.2,0-0.3,0.1-0.3,0.2
			c0,0.1-0.1,0.1-0.1,0.3h-0.2c0-0.1,0-0.3,0.1-0.4c0.1-0.2,0.3-0.3,0.5-0.3c0.2,0,0.3,0,0.5,0.1c0.1,0.1,0.2,0.2,0.2,0.4
			c0,0.1,0,0.2-0.1,0.3c0,0-0.1,0.1-0.2,0.1c0.1,0,0.2,0.1,0.2,0.2s0.1,0.2,0.1,0.3c0,0.2-0.1,0.3-0.2,0.4c-0.1,0.1-0.3,0.2-0.5,0.2
			C22,25.3,21.8,25.2,21.7,25.1z"/>
	</g>
	<g>
		<path class="st8" d="M20.2,13.6c0.1-0.1,0.2-0.2,0.3-0.3l0.3-0.1c0.1-0.1,0.2-0.1,0.2-0.2c0.1-0.1,0.1-0.2,0.1-0.3
			c0-0.1,0-0.2-0.1-0.3c-0.1-0.1-0.2-0.1-0.3-0.1c-0.2,0-0.3,0.1-0.3,0.2c0,0.1-0.1,0.2-0.1,0.3h-0.2c0-0.2,0-0.3,0.1-0.4
			c0.1-0.2,0.3-0.3,0.6-0.3c0.2,0,0.4,0.1,0.5,0.2c0.1,0.1,0.2,0.3,0.2,0.4c0,0.2-0.1,0.3-0.2,0.4c-0.1,0.1-0.2,0.1-0.3,0.2
			l-0.2,0.1c-0.1,0-0.2,0.1-0.2,0.1c-0.1,0.1-0.1,0.2-0.2,0.3h1.1v0.2h-1.3C20.1,13.9,20.1,13.8,20.2,13.6z"/>
		<path class="st8" d="M22.5,14.1v-0.5h-0.8v-0.2l0.9-1.2h0.2v1.3H23v0.2h-0.3v0.5H22.5z M22.5,13.4v-0.9l-0.6,0.9H22.5z"/>
	</g>
</g>
</svg>
