<?xml version="1.0" encoding="UTF-8"?>
<svg id="Layer_1" data-name="Layer 1" xmlns="http://www.w3.org/2000/svg" viewBox="0 0 71.37 37.86">
  <defs>
    <style>
      .cls-1, .cls-2, .cls-3 {
        stroke-width: 0px;
      }

      .cls-2 {
        fill: #e2dee2;
      }

      .cls-3 {
        fill: #fff;
      }
    </style>
  </defs>
  <rect class="cls-3" width="71.37" height="37.86"/>
  <g>
    <path class="cls-2" d="m24.24,10.1h24.3c.45,0,.82.33.82.75h0c0,.42-.37.76-.82.76h-24.3c-.45,0-.82-.33-.82-.75h0c0-.42.37-.76.82-.76Z"/>
    <path class="cls-2" d="m28.02,12.69h20.51c.45,0,.82.33.82.75h0c0,.42-.37.76-.82.76h-20.51c-.45,0-.82-.33-.82-.75h0c0-.42.37-.76.82-.76Z"/>
    <circle class="cls-1" cx="19.25" cy="10.85" r="1.13"/>
    <path class="cls-2" d="m28.02,15.32h17.82c.45,0,.82.33.82.75h0c0,.42-.37.76-.82.76h-17.82c-.45,0-.82-.33-.82-.75h0c0-.42.37-.76.82-.76Z"/>
  </g>
  <g>
    <path class="cls-2" d="m24.24,21.39h24.3c.45,0,.82.33.82.75h0c0,.42-.37.76-.82.76h-24.3c-.45,0-.82-.33-.82-.75h0c0-.42.37-.76.82-.76Z"/>
    <path class="cls-2" d="m28.02,23.97h20.51c.45,0,.82.33.82.75h0c0,.42-.37.76-.82.76h-20.51c-.45,0-.82-.33-.82-.75h0c0-.42.37-.76.82-.76Z"/>
    <circle class="cls-1" cx="19.25" cy="22.14" r="1.13"/>
    <path class="cls-2" d="m28.02,26.6h17.82c.45,0,.82.33.82.75h0c0,.42-.37.76-.82.76h-17.82c-.45,0-.82-.33-.82-.75h0c0-.42.37-.76.82-.76Z"/>
  </g>
  <g>
    <path class="cls-2" d="m24.4,32.67h24.3c.45,0,.82.33.82.75h0c0,.42-.37.76-.82.76h-24.3c-.45,0-.82-.33-.82-.75h0c0-.42.37-.76.82-.76Z"/>
    <path class="cls-2" d="m28.19,35.26h20.51c.45,0,.82.33.82.75h0c0,.42-.37.76-.82.76h-20.51c-.45,0-.82-.33-.82-.75h0c0-.42.37-.76.82-.76Z"/>
    <circle class="cls-1" cx="19.41" cy="33.42" r="1.13"/>
  </g>
</svg>