<?xml version="1.0" encoding="UTF-8"?>
<svg id="Layer_1" data-name="Layer 1" xmlns="http://www.w3.org/2000/svg" viewBox="0 0 71.37 37.86">
  <defs>
    <style>
      .cls-1 {
        fill: #f2f0f3;
      }

      .cls-1, .cls-2, .cls-3, .cls-4, .cls-5 {
        stroke-width: 0px;
      }

      .cls-2 {
        fill: #c8c8c8;
      }

      .cls-3 {
        fill: #918191;
      }

      .cls-4 {
        fill: #baaebd;
      }

      .cls-5 {
        fill: #fff;
      }
    </style>
  </defs>
  <rect class="cls-5" width="71.37" height="37.86"/>
  <path class="cls-1" d="m25.17,16.3H3.9v-4.63h21.27v4.63h0Z"/>
  <rect class="cls-3" x="3.9" y="8.09" width="14.27" height="1.91" rx=".95" ry=".95"/>
  <path class="cls-1" d="m46.7,16.3h-21.27v-4.63h21.27v4.63h0Z"/>
  <path class="cls-1" d="m68.22,16.3h-21.27v-4.63h21.27v4.63h0Z"/>
  <path class="cls-1" d="m25.17,21.24H3.9v-4.63h21.27v4.63h0Z"/>
  <path class="cls-1" d="m46.7,21.24h-21.27v-4.63h21.27v4.63h0Z"/>
  <path class="cls-1" d="m68.22,21.24h-21.27v-4.63h21.27v4.63h0Z"/>
  <path class="cls-1" d="m25.17,26.19H3.9v-4.63h21.27v4.63h0Z"/>
  <path class="cls-1" d="m46.7,26.19h-21.27v-4.63h21.27v4.63h0Z"/>
  <path class="cls-1" d="m68.22,26.19h-21.27v-4.63h21.27v4.63h0Z"/>
  <path class="cls-1" d="m25.17,31.13H3.9v-4.63h21.27v4.63h0Z"/>
  <path class="cls-1" d="m46.7,31.13h-21.27v-4.63h21.27v4.63h0Z"/>
  <path class="cls-1" d="m68.22,31.13h-21.27v-4.63h21.27v4.63h0Z"/>
  <path class="cls-4" d="m6.34,13.03h9.41c.4,0,.72.43.72.95h0c0,.53-.32.96-.72.96H6.34c-.4,0-.72-.43-.72-.95h0c0-.53.32-.96.72-.96Z"/>
  <path class="cls-4" d="m6.44,17.98h10.65c.45,0,.82.43.82.95h0c0,.53-.37.96-.82.96H6.44c-.45,0-.82-.43-.82-.95h0c0-.53.37-.96.82-.96Z"/>
  <rect class="cls-4" x="5.62" y="22.92" width="14.27" height="1.91" rx=".95" ry=".95"/>
  <path class="cls-4" d="m6.44,27.86h10.65c.45,0,.82.43.82.95h0c0,.53-.37.96-.82.96H6.44c-.45,0-.82-.43-.82-.95h0c0-.53.37-.96.82-.96Z"/>
  <circle class="cls-2" cx="44.2" cy="14.16" r="1.13"/>
  <circle class="cls-2" cx="65.5" cy="13.99" r="1.13"/>
  <circle class="cls-2" cx="44.2" cy="19.02" r="1.13"/>
  <circle class="cls-2" cx="65.5" cy="18.84" r="1.13"/>
  <circle class="cls-2" cx="44.2" cy="23.96" r="1.13"/>
  <circle class="cls-2" cx="65.5" cy="23.79" r="1.13"/>
  <circle class="cls-2" cx="44.2" cy="28.82" r="1.13"/>
  <circle class="cls-2" cx="65.5" cy="28.99" r="1.13"/>
  <circle class="cls-2" cx="40.87" cy="23.87" r="1.13"/>
  <circle class="cls-2" cx="62.34" cy="13.99" r="1.13"/>
  <circle class="cls-2" cx="40.87" cy="18.93" r="1.13"/>
  <circle class="cls-2" cx="37.59" cy="18.84" r="1.13"/>
  <circle class="cls-2" cx="62.34" cy="28.99" r="1.13"/>
  <circle class="cls-2" cx="59.25" cy="28.99" r="1.13"/>
</svg>