<?xml version="1.0" encoding="utf-8"?>
<!-- Generator: Adobe Illustrator 28.0.0, SVG Export Plug-In . SVG Version: 6.00 Build 0)  -->
<svg version="1.1" id="Layer_1" xmlns="http://www.w3.org/2000/svg" xmlns:xlink="http://www.w3.org/1999/xlink" x="0px" y="0px"
	 viewBox="0 0 71.4 37.9" style="enable-background:new 0 0 71.4 37.9;" xml:space="preserve">
<style type="text/css">
	.st0{fill:#FFFFFF;}
	.st1{fill:#F2F0F3;}
	.st2{fill:#7AACDE;}
	.st3{fill:#F3F3F3;}
	.st4{fill:#F4F090;}
	.st5{fill:#D4BD35;}
</style>
<rect y="0" class="st0" width="71.4" height="37.9"/>
<g>
	<path class="st1" d="M66.9,37.9H5.3V20.4h61.5L66.9,37.9L66.9,37.9z"/>
	<path class="st2" d="M66.9,11H5.3V7c0-1.6,1.3-2.8,2.8-2.8H64c1.6,0,2.8,1.3,2.8,2.8L66.9,11L66.9,11z"/>
	<circle class="st0" cx="8.7" cy="7.7" r="1.1"/>
	<circle class="st3" cx="13.1" cy="7.7" r="1.1"/>
	<circle class="st0" cx="17.5" cy="7.7" r="1.1"/>
</g>
<rect x="5.3" y="12.3" class="st4" width="61.5" height="6.8"/>
<path class="st5" d="M7.3,13.7h34.7c0.4,0,0.7,0.3,0.7,0.7l0,0c0,0.4-0.3,0.7-0.7,0.7H7.3c-0.4,0-0.7-0.3-0.7-0.7l0,0
	C6.6,14,6.9,13.7,7.3,13.7z"/>
<path class="st5" d="M7.3,16.2h17c0.4,0,0.7,0.3,0.7,0.7l0,0c0,0.4-0.3,0.7-0.7,0.7h-17c-0.4,0-0.7-0.3-0.7-0.7l0,0
	C6.6,16.5,6.9,16.2,7.3,16.2z"/>
</svg>
