<?xml version="1.0" encoding="UTF-8"?>
<svg id="Layer_1" data-name="Layer 1" xmlns="http://www.w3.org/2000/svg" viewBox="0 0 71.37 37.86">
  <defs>
    <style>
      .cls-1 {
        opacity: .05;
      }

      .cls-2 {
        opacity: .1;
      }

      .cls-3 {
        fill: #444;
      }

      .cls-3, .cls-4, .cls-5, .cls-6, .cls-7, .cls-8, .cls-9, .cls-10, .cls-11, .cls-12 {
        stroke-width: 0px;
      }

      .cls-3, .cls-4, .cls-5, .cls-6, .cls-12 {
        fill-rule: evenodd;
      }

      .cls-4 {
        fill: #d6502a;
      }

      .cls-5, .cls-11 {
        fill: #fff;
      }

      .cls-6 {
        fill: #f0ce4c;
      }

      .cls-7 {
        fill: #f3f3f3;
      }

      .cls-8 {
        fill: #f2f0f3;
      }

      .cls-9 {
        fill: #7aacde;
      }

      .cls-10 {
        fill: #e2dee2;
      }
    </style>
  </defs>
  <rect class="cls-11" width="71.37" height="37.86"/>
  <g>
    <path class="cls-8" d="m66.71,37.86H5.17V10.06h61.54v27.8Z"/>
    <path class="cls-9" d="m66.71,11.04H5.17v-4c0-1.58,1.28-2.85,2.85-2.85h55.84c1.58,0,2.85,1.28,2.85,2.85v4Z"/>
    <circle class="cls-11" cx="8.6" cy="7.66" r="1.13"/>
    <circle class="cls-7" cx="12.99" cy="7.66" r="1.13"/>
    <circle class="cls-11" cx="17.38" cy="7.66" r="1.13"/>
  </g>
  <rect class="cls-11" x="11.21" y="18.38" width="22.45" height="3.1" rx=".96" ry=".96"/>
  <path class="cls-10" d="m12.03,15.37h9.6c.45,0,.82.33.82.75h0c0,.42-.37.76-.82.76h-9.6c-.45,0-.82-.33-.82-.75h0c0-.42.37-.76.82-.76Z"/>
  <rect class="cls-11" x="11.22" y="28.35" width="22.45" height="3.1" rx=".96" ry=".96"/>
  <path class="cls-10" d="m12.04,25.34h9.6c.45,0,.82.33.82.75h0c0,.42-.37.76-.82.76h-9.6c-.45,0-.82-.33-.82-.75h0c0-.42.37-.76.82-.76Z"/>
  <rect class="cls-11" x="37.95" y="18.29" width="22.45" height="3.1" rx=".96" ry=".96"/>
  <path class="cls-10" d="m38.77,15.28h9.6c.45,0,.82.33.82.75h0c0,.42-.37.76-.82.76h-9.6c-.45,0-.82-.33-.82-.75h0c0-.42.37-.76.82-.76Z"/>
  <path class="cls-10" d="m38.77,25.34h9.6c.45,0,.82.33.82.75h0c0,.42-.37.76-.82.76h-9.6c-.45,0-.82-.33-.82-.75h0c0-.42.37-.76.82-.76Z"/>
  <rect class="cls-11" x="38.41" y="28.35" width="3.15" height="3.15" rx="1.01" ry="1.01"/>
  <path class="cls-10" d="m43.13,29.18h4.42c.21,0,.38.33.38.75h0c0,.42-.17.76-.38.76h-4.42c-.21,0-.38-.33-.38-.75h0c0-.42.17-.76.38-.76Z"/>
  <rect class="cls-11" x="51.67" y="28.35" width="3.15" height="3.15" rx="1.01" ry="1.01"/>
  <path class="cls-10" d="m56.38,29.18h4.42c.21,0,.38.33.38.75h0c0,.42-.17.76-.38.76h-4.42c-.21,0-.38-.33-.38-.75h0c0-.42.17-.76.38-.76Z"/>
  <g>
    <g id="Pencil_Shadow" data-name="Pencil Shadow" class="cls-2">
      <path class="cls-12" d="m29.17,29.1h0c-.02.06-.03.11-.03.18,0,.28.22.5.5.5.06,0,.12-.01.17-.03h0s3.82-1.25,3.82-1.25l-3.21-3.21-1.25,3.82Zm14.81-11.67l-2.5-2.5c-.09-.09-.22-.15-.35-.15s-.26.06-.35.15l-10.34,10.34,3.2,3.2,10.34-10.34c.09-.09.15-.22.15-.35s-.06-.26-.15-.35Z"/>
    </g>
    <g id="White">
      <polygon class="cls-5" points="30.14 27.77 30.14 28.63 33.63 27.49 30.42 24.28 29.28 27.77 30.14 27.77"/>
    </g>
    <g id="Pencil">
      <path class="cls-6" d="m42.48,17.93l-2.5-2.5c-.09-.09-.22-.15-.35-.15s-.26.06-.35.15l-8.85,8.85,3.2,3.2,8.85-8.85c.09-.09.15-.22.15-.35s-.06-.26-.15-.35Z"/>
    </g>
    <g id="Eraser">
      <path class="cls-4" d="m43.98,16.43l-2.5-2.5c-.09-.09-.22-.15-.35-.15s-.26.06-.35.15l-1.15,1.15-.71.71,3.2,3.2.35-.35.35-.35,1.15-1.15c.09-.09.15-.22.15-.35s-.06-.26-.15-.35Z"/>
    </g>
    <g id="Tip">
      <path class="cls-3" d="m29.64,27.77c-.28,0-.5.22-.5.5s.22.5.5.5.5-.22.5-.5v-.5h-.5Z"/>
    </g>
    <g id="Shading_1" data-name="Shading 1" class="cls-1">
      <path class="cls-12" d="m29.37,27.48l-.2.62h0c-.02.06-.03.11-.03.18,0,.28.22.5.5.5.06,0,.12-.01.17-.03h0s.62-.2.62-.2l2.12-2.12-1.06-1.06-2.12,2.12Zm12.82-12.82l-10.7,10.7,1.06,1.06,10.7-10.7-1.06-1.06Z"/>
    </g>
    <g id="Shading_2" data-name="Shading 2" class="cls-2">
      <path class="cls-12" d="m43.98,16.43l-.71-.71-10.7,10.7,1.06,1.06,10.35-10.35c.08-.09.14-.21.14-.34s-.06-.26-.15-.35Zm-13.51,12.09l3.16-1.04h0s-1.06-1.06-1.06-1.06l-2.1,2.1Z"/>
    </g>
  </g>
</svg>