<?xml version="1.0" encoding="utf-8"?>
<!-- Generator: Adobe Illustrator 28.0.0, SVG Export Plug-In . SVG Version: 6.00 Build 0)  -->
<svg version="1.1" id="Layer_1" xmlns="http://www.w3.org/2000/svg" xmlns:xlink="http://www.w3.org/1999/xlink" x="0px" y="0px"
	 viewBox="0 0 250 150" style="enable-background:new 0 0 250 150;" xml:space="preserve">
<path d="M125,86.9c-6.6,0-12-5.4-12-12c0-6.6,5.4-12,12-12c6.6,0,12,5.4,12,12C137,81.5,131.6,86.9,125,86.9z M125,68.9
	c-3.3,0-6,2.7-6,6c0,3.3,2.7,6,6,6c3.3,0,6-2.7,6-6C131,71.6,128.3,68.9,125,68.9z"/>
<path d="M125.2,110.9c-5,0-9-4-9-9c0-1-0.5-1.7-1.3-2c-0.9-0.4-1.8-0.2-2.3,0.3c-3.7,3.7-9.4,3.7-12.9,0.2c0,0,0,0-0.1-0.1
	c-1.7-1.7-2.6-3.9-2.6-6.3c0-2.4,0.9-4.7,2.6-6.4c0.7-0.7,0.9-1.6,0.6-2.3c-0.3-0.7-1-1.2-1.8-1.2H98c-5,0-9-4-9-9s4-9,9-9
	c1,0,1.7-0.5,2-1.3c0.4-0.9,0.2-1.8-0.3-2.3c-3.7-3.7-3.7-9.4-0.2-12.9c3.5-3.5,9.2-3.5,12.7,0c0.7,0.7,1.6,0.9,2.3,0.6
	c0.2-0.1,0.4-0.1,0.6-0.2c0.5-0.4,0.9-1,0.9-1.6v-0.5c0-5,4-9,9-9s9,4,9,9c0,1,0.5,1.7,1.2,2c0.8,0.3,1.6,0.2,2.2-0.4
	c1.9-1.9,4.1-2.8,6.5-2.8c0,0,0,0,0,0c2.4,0,4.6,0.9,6.3,2.6c0,0,0,0,0,0v0c3.5,3.5,3.5,9.2,0,12.7c-0.7,0.7-0.9,1.6-0.6,2.3
	c0.1,0.2,0.1,0.4,0.2,0.6c0.4,0.5,1,0.9,1.6,0.9h0.5c5,0,9,4,9,9s-4,9-9,9c-1,0-1.7,0.5-2,1.2c0,0,0,0,0,0c-0.3,0.7-0.2,1.6,0.4,2.2
	c3.7,3.7,3.7,9.4,0.2,12.9c-3.5,3.5-9.2,3.5-12.7,0c-0.7-0.7-1.6-0.9-2.3-0.6c-0.7,0.3-1.2,1-1.2,1.8v0.5
	C134.2,106.9,130.2,110.9,125.2,110.9z M114,93.7c1.1,0,2.1,0.2,3.2,0.7c2.9,1.1,4.9,3.9,5,7.2c0,0,0,0.3,0,0.3c0,1.7,1.3,3,3,3
	s3-1.3,3-3v-0.5c0-3.2,1.9-6,4.8-7.3c3-1.3,6.4-0.7,8.7,1.6c0.8,0.8,1.5,1.1,2.3,1.1c0,0,0,0,0,0c0.8,0,1.6-0.3,2.1-0.9
	c0.6-0.6,0.9-1.3,0.9-2.1c0-0.8-0.3-1.6-0.9-2.1c-2.5-2.5-3.1-6-1.8-9c1.2-2.9,4.1-4.8,7.3-4.8c1.9,0,3.3-1.3,3.3-3s-1.3-3-3-3h-0.5
	c-3.2,0-6-1.9-7.3-4.8c-0.1-0.3-0.2-0.5-0.2-0.8c-1-2.8-0.3-6,1.8-8.2c1.4-1.4,1.4-3.2,0.2-4.4c0,0,0,0,0,0
	c-0.6-0.6-1.3-0.9-2.1-0.9h0c-0.8,0-1.6,0.3-2.1,0.9c-2.5,2.5-6,3.1-9,1.8c-2.9-1.2-4.8-4.1-4.8-7.3c0-1.9-1.3-3.3-3-3.3s-3,1.3-3,3
	v0.5c0,3.2-1.9,6-4.8,7.3c-0.3,0.1-0.5,0.2-0.8,0.2c-2.8,1-6,0.3-8.2-1.8c-1.4-1.4-3.3-1.4-4.4-0.2c-1.2,1.2-1.2,3.1,0,4.2
	c2.5,2.5,3.1,6,1.8,9c-1.1,2.9-3.9,4.9-7.2,5c0,0-0.3,0-0.3,0c-1.7,0-3,1.3-3,3s1.3,3,3,3h0.5c3.2,0,6,1.9,7.3,4.8
	c1.3,3,0.7,6.4-1.6,8.7c-0.8,0.8-1.1,1.5-1.1,2.3c0,0.8,0.3,1.6,0.9,2.1h0c0,0,0,0,0,0c1.2,1.1,3.1,1.1,4.2,0
	C109.9,94.5,112,93.7,114,93.7z M147.2,83.9L147.2,83.9L147.2,83.9z"/>
</svg>
