<?xml version="1.0" encoding="utf-8"?>
<!-- Generator: Adobe Illustrator 28.0.0, SVG Export Plug-In . SVG Version: 6.00 Build 0)  -->
<svg version="1.1" id="Layer_1" xmlns="http://www.w3.org/2000/svg" xmlns:xlink="http://www.w3.org/1999/xlink" x="0px" y="0px"
	 viewBox="0 0 71.4 37.9" style="enable-background:new 0 0 71.4 37.9;" xml:space="preserve">
<style type="text/css">
	.st0{fill:#FFFFFF;}
	.st1{fill:#F2F0F3;}
	.st2{fill:#E2DEE2;}
	.st3{fill:#83D9FF;}
	.st4{fill:#5186FF;}
	.st5{fill:#83CA9E;}
	.st6{fill:#51865D;}
	.st7{fill:#BD9DD4;}
	.st8{fill:#693694;}
	.st9{opacity:0.102;}
	.st10{fill-rule:evenodd;clip-rule:evenodd;}
	.st11{fill-rule:evenodd;clip-rule:evenodd;fill:#66C8E8;}
	.st12{fill-rule:evenodd;clip-rule:evenodd;fill:#C8FFFF;}
</style>
<rect y="0" class="st0" width="71.4" height="37.9"/>
<path class="st1" d="M47.5,16.3H10.2V8.1h37.3L47.5,16.3L47.5,16.3L47.5,16.3z"/>
<path class="st2" d="M20.8,11.6h10.7c0.5,0,0.8,0.3,0.8,0.8l0,0c0,0.4-0.4,0.8-0.8,0.8H20.8c-0.5,0-0.8-0.3-0.8-0.8l0,0
	C20,12,20.4,11.6,20.8,11.6z"/>
<path class="st1" d="M47.5,26.2H10.2V18h37.3L47.5,26.2L47.5,26.2L47.5,26.2z"/>
<path class="st1" d="M47.5,36.1H10.2v-8.2h37.3L47.5,36.1L47.5,36.1L47.5,36.1z"/>
<path class="st2" d="M20.8,21.2h16.2c0.4,0,0.8,0.3,0.8,0.8l0,0c0,0.4-0.4,0.8-0.8,0.8H20.8c-0.5,0-0.8-0.3-0.8-0.8l0,0
	C20,21.6,20.3,21.2,20.8,21.2z"/>
<path class="st2" d="M20.8,31.2h10.6c0.5,0,0.8,0.3,0.8,0.8l0,0c0,0.4-0.4,0.8-0.8,0.8H20.8c-0.5,0-0.8-0.3-0.8-0.8l0,0
	C20,31.6,20.3,31.2,20.8,31.2z"/>
<path class="st3" d="M18,12.4c0,0.8-0.3,1.6-0.9,2.1l0,0c-0.5,0.5-1.2,0.8-2,0.8s-1.5-0.3-2-0.8c-0.5-0.5-0.9-1.3-0.9-2.1
	c0-1.6,1.3-2.9,2.9-2.9S18,10.8,18,12.4z"/>
<path class="st4" d="M17.2,14.4L17.2,14.4c-0.5,0.5-1.2,0.8-2,0.8s-1.5-0.3-2-0.8c0-0.2,0.1-0.3,0.3-0.4c0.2-0.2,0.5-0.3,0.7-0.3
	h2.2c0.3,0,0.5,0.1,0.7,0.3C17,14.1,17.1,14.3,17.2,14.4L17.2,14.4z"/>
<path class="st0" d="M15.9,12.8l-0.5,0.3c-0.2,0.1-0.4,0.1-0.6,0l-0.5-0.3c-0.2-0.1-0.3-0.3-0.3-0.5V11c0-0.4,0.3-0.7,0.7-0.7h0.8
	c0.4,0,0.7,0.3,0.7,0.7v1.4C16.2,12.5,16.1,12.7,15.9,12.8L15.9,12.8z"/>
<path class="st5" d="M18,22c0,0.8-0.3,1.5-0.9,2.1l0,0c-0.5,0.5-1.2,0.8-2,0.8s-1.5-0.3-2-0.8c-0.5-0.5-0.9-1.3-0.9-2.1
	c0-1.6,1.3-2.9,2.9-2.9S18,20.4,18,22z"/>
<path class="st6" d="M17.2,24.1L17.2,24.1c-0.5,0.5-1.2,0.8-2,0.8s-1.5-0.3-2-0.8c0-0.2,0.1-0.3,0.3-0.4c0.2-0.2,0.5-0.3,0.7-0.3
	h2.2c0.3,0,0.5,0.1,0.7,0.3C17,23.8,17.1,23.9,17.2,24.1L17.2,24.1z"/>
<path class="st0" d="M15.9,22.5l-0.5,0.3c-0.2,0.1-0.4,0.1-0.6,0l-0.5-0.3C14.1,22.3,14,22.2,14,22v-1.4c0-0.4,0.3-0.7,0.7-0.7h0.8
	c0.4,0,0.7,0.3,0.7,0.7V22C16.2,22.2,16.1,22.3,15.9,22.5L15.9,22.5z"/>
<path class="st7" d="M18,32c0,0.8-0.3,1.6-0.9,2.1l0,0c-0.5,0.5-1.2,0.8-2,0.8s-1.5-0.3-2-0.8c-0.5-0.5-0.9-1.3-0.9-2.1
	c0-1.6,1.3-2.9,2.9-2.9S18,30.4,18,32z"/>
<path class="st8" d="M17.2,34L17.2,34c-0.5,0.5-1.2,0.8-2,0.8s-1.5-0.3-2-0.8c0-0.2,0.1-0.3,0.3-0.4c0.2-0.2,0.5-0.3,0.7-0.3h2.2
	c0.3,0,0.5,0.1,0.7,0.3C17,33.7,17.1,33.9,17.2,34L17.2,34z"/>
<path class="st0" d="M15.9,32.4l-0.5,0.3c-0.2,0.1-0.4,0.1-0.6,0l-0.5-0.3c-0.2-0.1-0.3-0.3-0.3-0.5v-1.4c0-0.4,0.3-0.7,0.7-0.7h0.8
	c0.4,0,0.7,0.3,0.7,0.7v1.4C16.2,32.1,16.1,32.3,15.9,32.4L15.9,32.4z"/>
<g>
	<g id="Money_Shadow_1_" class="st9">
		<g>
			<circle class="st10" cx="52.7" cy="22.6" r="9.8"/>
		</g>
	</g>
	<g id="Blue_1_">
		<g>
			<ellipse transform="matrix(0.7071 -0.7071 0.7071 0.7071 0.2805 43.5233)" class="st11" cx="52.7" cy="21.4" rx="9.2" ry="9.2"/>
		</g>
	</g>
	<g id="Globe">
		<g>
			<path class="st12" d="M52.7,11.6c-5.4,0-9.8,4.4-9.8,9.8c0,5.4,4.4,9.8,9.8,9.8s9.8-4.4,9.8-9.8C62.5,16,58.1,11.6,52.7,11.6z
				 M61.3,20.8h-3.4c0-1.1-0.2-2.2-0.4-3.2h3C60.9,18.6,61.2,19.7,61.3,20.8z M59.8,16.5h-2.6c-0.4-1.3-0.9-2.4-1.6-3.2
				C57.3,13.9,58.7,15,59.8,16.5z M53.3,12.9c1.1,0.3,2.1,1.7,2.7,3.7h-2.7V12.9z M53.3,17.7h3.1c0.2,1,0.4,2,0.4,3.2h-3.4V17.7z
				 M56.7,22c0,1.2-0.2,2.4-0.5,3.5h-3V22H56.7z M48.7,22h3.4v3.5h-3C48.9,24.4,48.7,23.2,48.7,22z M48.7,20.8
				c0-1.1,0.2-2.2,0.4-3.2h3.1v3.2H48.7z M52.1,12.9v3.7h-2.7C50,14.6,51,13.2,52.1,12.9z M49.8,13.3c-0.7,0.8-1.2,1.9-1.6,3.2h-2.6
				C46.6,15,48.1,13.9,49.8,13.3z M44.9,17.7h3c-0.2,1-0.4,2.1-0.4,3.2h-3.4C44.1,19.7,44.5,18.6,44.9,17.7z M47.5,22
				c0,1.2,0.2,2.4,0.5,3.5h-2.9c-0.6-1-0.9-2.2-1-3.5H47.5z M45.8,26.6h2.5c0.4,1.2,0.9,2.2,1.5,3C48.2,29,46.8,28,45.8,26.6z
				 M49.5,26.6h2.6V30C51,29.6,50.1,28.4,49.5,26.6z M53.3,30v-3.4h2.6C55.3,28.4,54.3,29.6,53.3,30z M55.6,29.6
				c0.6-0.8,1.1-1.8,1.5-3h2.5C58.6,28,57.2,29,55.6,29.6z M60.3,25.5h-2.9c0.3-1.1,0.4-2.2,0.5-3.5h3.4
				C61.2,23.2,60.8,24.4,60.3,25.5z"/>
		</g>
	</g>
</g>
</svg>
