<?xml version="1.0" encoding="UTF-8"?>
<svg id="Layer_1" data-name="Layer 1" xmlns="http://www.w3.org/2000/svg" viewBox="0 0 71.37 37.86">
  <defs>
    <style>
      .cls-1 {
        fill: #f2f0f3;
      }

      .cls-1, .cls-2, .cls-3, .cls-4, .cls-5, .cls-6, .cls-7, .cls-8, .cls-9 {
        stroke-width: 0px;
      }

      .cls-2 {
        fill: #51865d;
      }

      .cls-3 {
        fill: #5186ff;
      }

      .cls-4 {
        fill: #e2dee2;
      }

      .cls-5 {
        fill: #bd9dd4;
      }

      .cls-6 {
        fill: #83ca9e;
      }

      .cls-7 {
        fill: #83d9ff;
      }

      .cls-8 {
        fill: #fff;
      }

      .cls-9 {
        fill: #693694;
      }
    </style>
  </defs>
  <rect class="cls-8" width="71.37" height="37.86"/>
  <path class="cls-1" d="m54.33,16.3H17.04v-8.21h37.28v8.21h0Z"/>
  <path class="cls-4" d="m27.61,9.94h10.65c.45,0,.82.33.82.75h0c0,.42-.37.76-.82.76h-10.65c-.45,0-.82-.33-.82-.75h0c0-.42.37-.76.82-.76Z"/>
  <path class="cls-1" d="m54.33,26.19H17.04v-8.21h37.28v8.21h0Z"/>
  <path class="cls-1" d="m54.33,36.07H17.04v-8.21h37.28v8.21h0Z"/>
  <path class="cls-4" d="m27.58,22.84h20.32c.45,0,.82.33.82.75h0c0,.42-.37.76-.82.76h-20.32c-.45,0-.82-.33-.82-.75h0c0-.42.37-.76.82-.76Z"/>
  <path class="cls-4" d="m27.58,19.82h16.16c.45,0,.82.33.82.75h0c0,.42-.37.76-.82.76h-16.16c-.45,0-.82-.33-.82-.75h0c0-.42.37-.76.82-.76Z"/>
  <path class="cls-4" d="m27.6,12.95h16.16c.45,0,.82.33.82.75h0c0,.42-.37.76-.82.76h-16.16c-.45,0-.82-.33-.82-.75h0c0-.42.37-.76.82-.76Z"/>
  <path class="cls-4" d="m27.58,29.71h16.16c.45,0,.82.33.82.75h0c0,.42-.37.76-.82.76h-16.16c-.45,0-.82-.33-.82-.75h0c0-.42.37-.76.82-.76Z"/>
  <path class="cls-4" d="m27.58,32.72h10.65c.45,0,.82.33.82.75h0c0,.42-.37.76-.82.76h-10.65c-.45,0-.82-.33-.82-.75h0c0-.42.37-.76.82-.76Z"/>
  <path class="cls-7" d="m24.83,12.37c0,.81-.33,1.55-.87,2.08h0c-.53.52-1.25.84-2.05.84s-1.52-.32-2.05-.84c-.54-.53-.87-1.27-.87-2.08,0-1.61,1.31-2.92,2.92-2.92s2.92,1.31,2.92,2.92Z"/>
  <path class="cls-3" d="m23.97,14.45h0c-.53.52-1.25.84-2.05.84s-1.52-.32-2.05-.84c.04-.17.13-.32.27-.44.19-.18.45-.26.71-.26h2.16c.26,0,.51.09.71.26.13.12.23.27.27.44Z"/>
  <path class="cls-8" d="m22.72,12.83l-.5.31c-.19.11-.42.11-.6,0l-.5-.31c-.17-.11-.28-.29-.28-.5v-1.35c0-.37.3-.67.67-.67h.83c.37,0,.67.3.67.67v1.35c0,.2-.11.39-.28.5Z"/>
  <path class="cls-6" d="m24.83,22c0,.81-.33,1.55-.87,2.08h0c-.53.52-1.25.84-2.05.84s-1.52-.32-2.05-.84c-.54-.53-.87-1.27-.87-2.08,0-1.61,1.31-2.92,2.92-2.92s2.92,1.31,2.92,2.92Z"/>
  <path class="cls-2" d="m23.97,24.08h0c-.53.52-1.25.84-2.05.84s-1.52-.32-2.05-.84c.04-.17.13-.32.27-.44.19-.18.45-.26.71-.26h2.16c.26,0,.51.09.71.26.13.12.23.27.27.44Z"/>
  <path class="cls-8" d="m22.72,22.46l-.5.31c-.19.11-.42.11-.6,0l-.5-.31c-.17-.11-.28-.29-.28-.5v-1.35c0-.37.3-.67.67-.67h.83c.37,0,.67.3.67.67v1.35c0,.2-.11.39-.28.5Z"/>
  <path class="cls-5" d="m24.84,31.97c0,.81-.33,1.55-.87,2.08h0c-.53.52-1.25.84-2.05.84s-1.52-.32-2.05-.84c-.54-.53-.87-1.27-.87-2.08,0-1.61,1.31-2.92,2.92-2.92s2.92,1.31,2.92,2.92Z"/>
  <path class="cls-9" d="m23.97,34.04h0c-.53.52-1.25.84-2.05.84s-1.52-.32-2.05-.84c.04-.17.13-.32.27-.44.19-.18.45-.26.71-.26h2.16c.26,0,.51.09.71.26.13.12.23.27.27.44Z"/>
  <path class="cls-8" d="m22.72,32.42l-.5.31c-.19.11-.42.11-.6,0l-.5-.31c-.17-.11-.28-.29-.28-.5v-1.35c0-.37.3-.67.67-.67h.83c.37,0,.67.3.67.67v1.35c0,.2-.11.39-.28.5Z"/>
</svg>