<?xml version="1.0" standalone="no"?>
<!DOCTYPE svg PUBLIC "-//W3C//DTD SVG 1.1//EN" "http://www.w3.org/Graphics/SVG/1.1/DTD/svg11.dtd" >
<svg xmlns="http://www.w3.org/2000/svg">
<metadata></metadata>
<defs>
<font id="archivo_narrowitalic" horiz-adv-x="933" >
<font-face units-per-em="2048" ascent="1638" descent="-410" />
<missing-glyph horiz-adv-x="466" />
<glyph horiz-adv-x="0" />
<glyph horiz-adv-x="682" />
<glyph unicode="&#xd;" horiz-adv-x="0" />
<glyph unicode=" "  horiz-adv-x="466" />
<glyph unicode="&#x09;" horiz-adv-x="466" />
<glyph unicode="&#xa0;" horiz-adv-x="466" />
<glyph unicode="!" horiz-adv-x="466" d="M78 0l31 221h204l-30 -221h-205zM164 350q87 926 98 1055h232q-12 -51 -45.5 -226.5t-82 -433t-75.5 -395.5h-127z" />
<glyph unicode="&#x22;" horiz-adv-x="595" d="M154 1104l43 301h168l-43 -301l-80 -270h-80zM426 1104l43 301h168l-43 -301l-82 -270h-80z" />
<glyph unicode="#" d="M35 367v155h166l69 318h-155v155h190l96 430h156l-96 -430h184l96 430h156l-96 -430h123v-155h-158l-70 -318h146v-155h-180l-82 -367h-156l82 367h-184l-82 -367h-156l82 367h-131zM356 522h185l69 318h-184z" />
<glyph unicode="$" d="M113 471q0 43 4 66h166q-7 -40 -7 -66q0 -129 119 -172l51 360q-31 17 -49 27.5t-46 30t-44.5 35t-36.5 39.5t-31 48t-18.5 56t-7.5 68q0 128 83 212t236 91l31 215h99l-33 -221q123 -23 183 -115t60 -217h-165q0 135 -99 176l-45 -320q28 -14 36.5 -18.5t35 -18 t36.5 -21t32 -23t32 -27.5t26.5 -30t24 -36t16 -40.5t12 -48t3.5 -54.5q0 -152 -93 -237.5t-253 -90.5l-33 -241h-98l35 249q-117 24 -189.5 111t-72.5 213zM379 987q0 -88 92 -149l41 278q-53 -8 -93 -42.5t-40 -86.5zM492 287q71 6 115 49t44 104q0 54 -29.5 93t-84.5 73z " />
<glyph unicode="%" horiz-adv-x="1492" d="M150 938q0 138 24.5 237t69 153t96.5 78t117 24q118 0 176.5 -57t58.5 -191q0 -66 -7 -127.5t-27.5 -130t-53 -118.5t-88.5 -83t-129 -33q-115 0 -176 57.5t-61 190.5zM174 0l1055 1405h145l-1057 -1405h-143zM291 946q0 -66 22 -100.5t74 -34.5q69 0 103 59.5t51 173.5 q12 82 12 130q0 135 -96 135q-69 0 -103 -60t-51 -174q-12 -82 -12 -129zM852 223q0 138 24.5 237t69 153t96.5 78t117 24q118 0 177 -57t59 -191q0 -66 -7 -127.5t-27.5 -130t-53 -118.5t-88.5 -83t-129 -33q-115 0 -176.5 57.5t-61.5 190.5zM993 231q0 -135 97 -135 q68 0 102 59.5t51 174.5q12 82 12 129q0 135 -96 135q-68 0 -102 -59.5t-51 -174.5q-13 -88 -13 -129z" />
<glyph unicode="&#x26;" horiz-adv-x="1120" d="M37 313q0 155 75 261.5t185 146.5v8q-141 86 -141 252q0 140 63 243.5t167 154.5t235 51q181 0 289 -88t108 -238q0 -25 -10 -96h-168q8 49 8 67q0 100 -62.5 150.5t-167.5 50.5q-55 0 -104 -16.5t-90.5 -49.5t-65.5 -91t-24 -134q0 -96 51.5 -146.5t132.5 -50.5h105 l-21 -149h-100q-53 0 -99.5 -14t-89.5 -46.5t-68.5 -95.5t-25.5 -151q0 -104 62 -153.5t174 -49.5q261 0 299 262l55 397h311l-20 -151h-144l-32 -240q-25 -195 -151.5 -308.5t-330.5 -113.5q-186 0 -295.5 90t-109.5 248z" />
<glyph unicode="'" horiz-adv-x="321" d="M154 1104l43 301h168l-43 -301l-80 -270h-80z" />
<glyph unicode="(" horiz-adv-x="559" d="M66 395q0 103 14 195q35 251 156 488t309 427h110q-183 -243 -298 -540.5t-115 -573.5q0 -188 42 -374.5t115 -338.5h-110q-223 312 -223 717z" />
<glyph unicode=")" horiz-adv-x="559" d="M-96 -322q181 243 297 542t116 573q0 187 -43 372t-116 340h110q108 -152 164.5 -336t56.5 -383q0 -80 -14 -196q-35 -251 -155 -486.5t-308 -425.5h-108z" />
<glyph unicode="*" horiz-adv-x="653" d="M133 1055l180 78l-157 77l86 119l137 -106l6 182h139l-43 -180l166 104l53 -119l-178 -77l156 -78l-86 -121l-137 106l-6 -182h-140l43 182l-166 -106z" />
<glyph unicode="+" horiz-adv-x="980" d="M76 436l22 172h316l61 439h170l-61 -439h317l-22 -172h-318l-61 -436h-170l61 436h-315z" />
<glyph unicode="," horiz-adv-x="466" d="M37 -254l104 254h-67l30 221h205l-28 -203l-131 -272h-113z" />
<glyph unicode="-" horiz-adv-x="559" d="M6 453l27 200h516l-27 -200h-516z" />
<glyph unicode="." horiz-adv-x="466" d="M78 0l31 221h204l-30 -221h-205z" />
<glyph unicode="/" horiz-adv-x="466" d="M-96 -100l547 1605h143l-547 -1605h-143z" />
<glyph unicode="0" d="M78 395q0 129 24 307q28 210 71 354t103 225t129.5 115t161.5 34q163 0 246.5 -96.5t83.5 -332.5q0 -116 -25 -299q-23 -169 -56.5 -294.5t-74.5 -208t-94 -133t-111 -71t-130 -20.5q-79 0 -137.5 20.5t-102.5 68t-66 130.5t-22 201zM244 412q0 -139 36.5 -213t125.5 -74 q61 0 108.5 36.5t80.5 107.5t55.5 158t39.5 204q39 308 39 377q0 272 -162 272q-61 0 -108.5 -37t-81 -107t-56 -158t-38.5 -204q-39 -265 -39 -362z" />
<glyph unicode="1" d="M16 0l23 150h334l139 999h-336l14 106q92 9 225 51.5t236 98.5h66l-176 -1255h307l-23 -150h-809z" />
<glyph unicode="2" d="M20 0l5 27q24 166 139 305q45 55 114.5 123t130.5 122.5t126 122.5t111 128.5t76 134t30 145.5q0 71 -38 118.5t-126 47.5q-102 0 -161.5 -75.5t-74.5 -192.5l-10 -84h-174q0 104 27.5 195t80 161.5t136.5 111t190 40.5q150 0 240 -72.5t90 -220.5q0 -111 -44.5 -216 t-120.5 -196t-153.5 -166.5t-169 -163.5t-141.5 -151q-27 -34 -47 -72h551l-25 -172h-762z" />
<glyph unicode="3" d="M49 311q0 40 8 103h170q-8 -47 -8 -92q0 -96 49 -146.5t142 -50.5q108 0 182 82.5t74 243.5q0 102 -56 145t-145 43h-117l21 149h120q98 0 170 80t72 226q0 93 -45 139.5t-117 46.5q-89 0 -150.5 -66.5t-82.5 -205.5h-172q13 192 133 307t281 115q153 0 241 -80.5 t88 -227.5q0 -149 -62.5 -242t-170.5 -151v-8q76 -31 120 -99t44 -171q0 -213 -124 -344.5t-302 -131.5q-177 0 -270 89t-93 247z" />
<glyph unicode="4" d="M23 346l20 152q139 203 270 449t226 483h170q-87 -251 -251.5 -536t-258.5 -398h385l63 442q59 107 125 283h82l-102 -725h143l-21 -150h-143l-49 -346h-168l49 346h-540z" />
<glyph unicode="5" d="M55 336q0 53 8 100h175q-7 -44 -7 -71q0 -111 51 -176.5t132 -65.5q49 0 96 26t86.5 75t63.5 130.5t24 182.5q0 107 -45 166t-123 59q-66 0 -127.5 -44t-103.5 -118l-156 27l158 778h639l-25 -172h-493l-89 -428q118 108 254 108q130 0 208.5 -87t78.5 -253 q0 -277 -127.5 -437.5t-320.5 -160.5q-166 0 -261.5 95.5t-95.5 265.5z" />
<glyph unicode="6" d="M90 403q0 112 21 259q30 216 75.5 366.5t108 238t136.5 125.5t169 38q150 0 222.5 -90.5t72.5 -247.5q0 -64 -8 -119h-170q8 74 8 100q0 207 -133 207q-52 0 -94 -24.5t-72.5 -67.5t-55.5 -111t-42 -146t-33 -181q114 133 266 133q147 0 221 -95t74 -253 q0 -165 -60 -294.5t-157 -197.5t-211 -68q-166 0 -252 99t-86 329zM258 348q0 -102 39.5 -162.5t120.5 -60.5q56 0 102 26t75.5 67t49.5 93t28.5 102t8.5 97q0 102 -42 163.5t-126 61.5q-78 0 -137.5 -55t-89 -142t-29.5 -190z" />
<glyph unicode="7" d="M178 1233l25 172h798l-16 -109q-77 -96 -146 -192.5t-145 -221.5t-134.5 -246t-104.5 -261t-64 -271q-3 -22 -6.5 -53.5t-5.5 -50.5h-199q24 172 85.5 351.5t147 340t168.5 289.5t177 252h-580z" />
<glyph unicode="8" d="M53 299q0 89 23 168t77 148.5t134 105.5q-113 82 -113 246q0 125 47 229t141 169t218 65q155 0 236 -89t81 -231q0 -122 -54 -226.5t-149 -162.5q140 -76 140 -260q0 -99 -27 -185t-79.5 -154t-137.5 -107.5t-193 -39.5q-176 0 -260 88.5t-84 235.5zM227 322 q0 -94 46 -145.5t135 -51.5q114 0 184 87.5t70 233.5q0 94 -46.5 145.5t-136.5 51.5q-119 0 -185.5 -91.5t-66.5 -229.5zM342 981q0 -89 42.5 -138.5t117.5 -49.5q96 0 161.5 83t65.5 218q0 87 -43 136.5t-117 49.5q-104 0 -165.5 -89t-61.5 -210z" />
<glyph unicode="9" d="M96 313q0 64 8 119h170q-8 -74 -8 -100q0 -207 133 -207q52 0 94 24.5t72.5 67.5t55.5 111t42 146t33 181q-114 -133 -266 -133q-147 0 -221 95t-74 253q0 165 60 294.5t157 197.5t211 68q166 0 252 -99.5t86 -329.5q0 -118 -20 -258q-30 -216 -75.5 -366.5t-108.5 -238 t-137 -125.5t-169 -38q-150 0 -222.5 90.5t-72.5 247.5zM309 895q0 -102 42 -163.5t126 -61.5q78 0 137.5 55t89 142t29.5 190q0 102 -39.5 162.5t-120.5 60.5q-56 0 -102 -26t-75.5 -67t-49.5 -93t-28.5 -102t-8.5 -97z" />
<glyph unicode=":" horiz-adv-x="466" d="M74 0l30 221h205l-30 -221h-205zM195 856l30 221h205l-31 -221h-204z" />
<glyph unicode=";" horiz-adv-x="466" d="M37 -254l104 254h-67l30 221h205l-28 -203l-131 -272h-113zM195 856l30 221h205l-31 -221h-204z" />
<glyph unicode="&#x3c;" horiz-adv-x="980" d="M74 410l30 219l861 403l-27 -184l-682 -328l590 -327l-27 -185z" />
<glyph unicode="=" horiz-adv-x="980" d="M45 217l23 170h802l-22 -170h-803zM104 651l25 172h803l-25 -172h-803z" />
<glyph unicode="&#x3e;" horiz-adv-x="980" d="M16 8l27 185l684 327l-592 328l27 184l745 -403l-30 -219z" />
<glyph unicode="?" d="M139 940q2 98 32 186t84 156t137.5 108t185.5 40q147 0 237 -85t90 -223q0 -84 -18 -153.5t-47 -117.5t-64 -89t-72 -75.5t-69 -68t-55.5 -75.5t-30.5 -90l-12 -84h-179l17 114q8 58 31.5 107t53.5 84.5t65 69t68.5 67.5t60.5 72t44 91t17 116q0 32 -6.5 60.5t-22 57.5 t-47.5 46.5t-78 17.5q-47 0 -85.5 -18t-62.5 -45t-42 -63t-27 -68t-14.5 -65.5t-6.5 -49t-1 -23.5h-183zM291 0l33 221h204l-32 -221h-205z" />
<glyph unicode="@" horiz-adv-x="1703" d="M113 397q0 250 60 446t172 324.5t271.5 195.5t358.5 67q163 0 281.5 -33t190.5 -89t114.5 -144.5t57.5 -184t15 -223.5q0 -104 -15 -202.5t-49.5 -191.5t-84.5 -163t-125 -112t-166 -42q-50 0 -90 15t-63 39t-35.5 45.5t-18.5 43.5q-38 -70 -97.5 -106.5t-123.5 -36.5 q-113 0 -180.5 90.5t-67.5 272.5q0 130 22 240t58.5 186t85 129.5t102 78.5t109.5 25q155 0 203 -158l35 135h118q-106 -671 -106 -763q0 -103 94 -103q39 0 81.5 29.5t78.5 83.5q53 79 83.5 199t30.5 264q0 207 -49 321q-103 242 -454 242q-136 0 -251 -30t-214 -98.5 t-167.5 -173t-107.5 -260.5t-39 -354q0 -604 582 -604q82 0 149.5 10.5t93.5 20.5l27 10l-16 -117q-29 -10 -99.5 -23t-136.5 -13q-718 0 -718 712zM674 393q0 -213 139 -213q62 0 111 62.5t74.5 154.5t38 176t12.5 148q0 211 -131 211q-57 0 -101.5 -41t-70.5 -102 t-43 -138t-23 -140t-6 -118z" />
<glyph unicode="A" horiz-adv-x="1120" d="M-74 0l643 1405h232l248 -1405h-187l-53 313h-563l-142 -313h-178zM319 477h463l-104 625q-4 21 -6.5 59.5t-3.5 66.5v29h-9q-37 -110 -57 -155z" />
<glyph unicode="B" horiz-adv-x="1120" d="M70 0l198 1405h494q153 0 245.5 -81t92.5 -216q0 -132 -77 -233t-187 -138l-2 -8q92 -32 147 -112.5t55 -194.5q0 -96 -37 -177t-98.5 -133.5t-139.5 -82t-161 -29.5h-530zM274 164h326q101 0 175.5 69.5t74.5 188.5q0 91 -57.5 153t-155.5 62h-297zM362 801h281 q116 0 189 78t73 182q0 90 -55.5 135t-153.5 45h-272z" />
<glyph unicode="C" horiz-adv-x="1212" d="M104 494q0 83 8.5 168t30 178.5t53 177t81.5 160t112 132t148 88t186 32.5q444 0 444 -502v-33h-186v45q0 324 -260 324q-79 0 -145 -34.5t-109.5 -89t-77 -128t-52 -145t-30 -147t-15 -126t-3.5 -90.5q0 -173 75 -267t214 -94q76 0 138.5 28.5t105.5 78.5t70 112t38 134 h178q-14 -107 -54.5 -199.5t-104.5 -165t-158 -114.5t-207 -42q-227 0 -353.5 129.5t-126.5 389.5z" />
<glyph unicode="D" horiz-adv-x="1212" d="M70 0l198 1405h416q226 0 347.5 -133.5t121.5 -392.5q0 -95 -14.5 -192.5t-43.5 -197.5t-79 -187t-115 -155t-157.5 -107.5t-200.5 -39.5h-473zM274 164h248q85 0 155 32.5t117 89t82 127t54 153t28 159t9 152.5q0 181 -79 272.5t-224 91.5h-240z" />
<glyph unicode="E" horiz-adv-x="1120" d="M70 0l198 1405h867l-25 -164h-686l-62 -440h596l-22 -164h-596l-66 -473h699l-25 -164h-878z" />
<glyph unicode="F" horiz-adv-x="1026" d="M70 0l198 1405h811l-24 -164h-631l-64 -455h558l-23 -163h-557l-88 -623h-180z" />
<glyph unicode="G" horiz-adv-x="1306" d="M102 494q0 83 9 168t31 178.5t55 177t84.5 160t116 132t154 88t193.5 32.5q476 0 476 -504h-187v14q0 324 -291 324q-83 0 -152 -33t-115 -85.5t-81.5 -124t-55 -141.5t-32 -146t-16.5 -130t-4 -100q0 -176 78 -268.5t235 -92.5q82 0 150 28.5t113.5 78t74.5 111.5 t41 135l12 77h-368l22 158h551l-104 -731h-119l-17 156q-140 -181 -372 -181q-227 0 -354.5 129.5t-127.5 389.5z" />
<glyph unicode="H" horiz-adv-x="1212" d="M70 0l198 1405h181l-87 -604h566l86 604h180l-199 -1405h-180l90 637h-565l-90 -637h-180z" />
<glyph unicode="I" horiz-adv-x="466" d="M70 0l198 1405h181l-199 -1405h-180z" />
<glyph unicode="J" horiz-adv-x="839" d="M-2 254q0 36 18 172h179q-19 -139 -19 -145q0 -69 35.5 -104.5t103.5 -35.5q77 0 125 47t60 136l153 1081h181l-152 -1071q-25 -174 -121 -266.5t-250 -92.5q-151 0 -232 71.5t-81 207.5z" />
<glyph unicode="K" horiz-adv-x="1120" d="M70 0l198 1405h181l-105 -731l647 731h215l-501 -567l317 -838h-201l-250 686l-260 -250l-61 -436h-180z" />
<glyph unicode="L" d="M70 0l198 1405h181l-175 -1241h574l-25 -164h-753z" />
<glyph unicode="M" horiz-adv-x="1398" d="M49 0l199 1405h270l117 -922q5 -40 8.5 -108.5t4.5 -116.5l1 -49h8q43 188 78 274l381 922h277l-199 -1405h-180l143 1020l31 176h-8q-46 -135 -64 -176l-424 -1020h-162l-133 1020l-14 176h-8q-17 -143 -21 -176l-143 -1020h-162z" />
<glyph unicode="N" horiz-adv-x="1212" d="M68 0l198 1405h148l399 -883q10 -24 26.5 -71t28.5 -82l11 -35l6 2q14 141 20 186l125 883h162l-199 -1405h-141l-403 895q-12 26 -29 73t-28 81l-11 34l-6 -2q-11 -129 -19 -186l-127 -895h-161z" />
<glyph unicode="O" horiz-adv-x="1306" d="M104 506q0 87 9.5 174.5t32.5 179.5t57 174t86.5 155.5t117.5 126t153.5 83.5t191.5 31q234 0 360.5 -135t126.5 -400q0 -87 -10 -174t-32.5 -179t-57 -173.5t-87 -154.5t-117.5 -125.5t-153.5 -83t-191.5 -30.5q-234 0 -360 134t-126 397zM289 510q0 -184 78 -276.5 t225 -92.5q89 0 162.5 34.5t122.5 95t84.5 134.5t55 161.5t28 167.5t8.5 161q0 182 -79 275.5t-224 93.5q-106 0 -189 -50t-133 -127t-82.5 -180.5t-44.5 -200t-12 -196.5z" />
<glyph unicode="P" horiz-adv-x="1120" d="M70 0l198 1405h482q190 0 288.5 -96t98.5 -260q0 -219 -130.5 -344t-344.5 -125h-330l-82 -580h-180zM356 743h324q116 0 191 74.5t75 198.5q0 103 -54 164t-153 61h-315z" />
<glyph unicode="Q" horiz-adv-x="1306" d="M104 506q0 87 9.5 174.5t32.5 179.5t57 174t86.5 155.5t117.5 126t153.5 83.5t191.5 31q234 0 360.5 -135t126.5 -400q0 -132 -23.5 -262t-73 -256t-139 -224t-208.5 -143l249 -264h-225l-213 229h-16q-234 0 -360 134t-126 397zM289 510q0 -184 78 -276.5t225 -92.5 q89 0 162.5 34.5t122.5 95t84.5 134.5t55 161.5t28 167.5t8.5 161q0 182 -79 275.5t-224 93.5q-106 0 -189 -50t-133 -127t-82.5 -180.5t-44.5 -200t-12 -196.5z" />
<glyph unicode="R" horiz-adv-x="1212" d="M70 0l198 1405h545q193 0 287 -86.5t94 -239.5q0 -154 -79.5 -268t-215.5 -160l188 -651h-190l-180 621h-379l-88 -621h-180zM360 784h363q120 0 201.5 75t81.5 192q0 91 -56.5 140.5t-163.5 49.5h-362z" />
<glyph unicode="S" horiz-adv-x="1120" d="M68 385q0 61 6 94h186q-10 -58 -10 -96q0 -122 72 -182t202 -60q36 0 73 6.5t77 24t70.5 44t50.5 71.5t20 102q0 49 -21 89.5t-56 68.5t-80.5 52.5t-96 47t-101 46t-96 54.5t-80.5 68.5t-56 92t-21 120.5q0 193 114.5 297.5t321.5 104.5q118 0 204 -33t135 -93.5t72 -137 t23 -173.5h-186q0 271 -258 271q-27 0 -53 -3.5t-62 -16.5t-62 -35t-44.5 -63.5t-18.5 -96.5q0 -52 26.5 -93.5t69 -67.5t97.5 -53t112.5 -49t112.5 -55.5t97.5 -72.5t69 -101.5t26.5 -140.5q0 -61 -13 -118.5t-47.5 -117.5t-88.5 -104.5t-142.5 -72.5t-202.5 -28 q-204 0 -323 108t-119 302z" />
<glyph unicode="T" horiz-adv-x="1026" d="M131 1241l25 164h946l-25 -164h-383l-174 -1241h-180l174 1241h-383z" />
<glyph unicode="U" horiz-adv-x="1212" d="M117 354q0 42 35.5 304.5t71.5 504.5l36 242h180q-141 -981 -141 -1026q0 -116 64 -177t182 -61q133 0 218 78.5t107 226.5l136 959h180l-135 -948q-34 -235 -166 -358.5t-344 -123.5q-203 0 -313.5 97.5t-110.5 281.5z" />
<glyph unicode="V" horiz-adv-x="1120" d="M152 1405h186l188 -1208h9l524 1208h180l-627 -1405h-231z" />
<glyph unicode="W" horiz-adv-x="1585" d="M158 1405h182l80 -971q3 -36 5 -98.5t3 -107.5v-44h8q33 127 70 250l295 971h260l35 -971l2 -250h8q45 158 78 250l350 971h168l-524 -1405h-234l-41 1235h-10q-43 -189 -72 -283l-303 -952h-233z" />
<glyph unicode="X" horiz-adv-x="1120" d="M-63 0l552 737l-315 668h205l237 -502q373 500 373 502h203l-500 -666l346 -739h-202l-269 573l-432 -573h-198z" />
<glyph unicode="Y" horiz-adv-x="1120" d="M143 1405h197l256 -651h8l438 651h189l-569 -823l-82 -582h-181l82 582z" />
<glyph unicode="Z" horiz-adv-x="1026" d="M-33 0l6 78l822 1163h-619l25 164h876l-6 -78l-823 -1163h676l-25 -164h-932z" />
<glyph unicode="[" horiz-adv-x="466" d="M-27 -330l254 1835h326l-18 -133h-170l-220 -1569h170l-18 -133h-324z" />
<glyph unicode="\" horiz-adv-x="466" d="M100 1505h144l223 -1605h-145z" />
<glyph unicode="]" horiz-adv-x="466" d="M-86 -330l18 133h168l219 1569h-169l18 133h326l-256 -1835h-324z" />
<glyph unicode="^" horiz-adv-x="788" d="M18 602l390 803h219l168 -803h-185l-116 645l-293 -645h-183z" />
<glyph unicode="_" d="M-92 -254l12 109h932l-14 -109h-930z" />
<glyph unicode="`" horiz-adv-x="559" d="M131 1475l4 6h184l138 -271h-142z" />
<glyph unicode="a" d="M68 375q0 143 24 264.5t64.5 205.5t94 143t112.5 86.5t120 27.5q170 0 224 -174l36 149h134q-125 -870 -125 -895q0 -57 49 -57h65l-16 -117q-47 -33 -115 -33q-144 0 -147 170q-59 -89 -118 -129.5t-130 -40.5q-124 0 -198 100.5t-74 299.5zM240 358q0 -233 151 -233 q55 0 101 46.5t74.5 115.5t47.5 153.5t27 155.5t8 125q0 231 -141 231q-62 0 -111.5 -45.5t-78 -112.5t-47 -151.5t-25 -154.5t-6.5 -130z" />
<glyph unicode="b" d="M47 0l207 1481h168l-72 -527q58 77 115 112.5t127 35.5q124 0 198 -100.5t74 -299.5q0 -143 -24 -264.5t-64.5 -205.5t-94 -143t-112.5 -86.5t-120 -27.5q-175 0 -232 175l-37 -150h-133zM274 356q0 -231 150 -231q62 0 111.5 45.5t78 112.5t47 151.5t25 154.5t6.5 130 q0 233 -151 233q-61 0 -109.5 -46.5t-77 -115.5t-47.5 -154t-26 -154.5t-7 -125.5z" />
<glyph unicode="c" horiz-adv-x="839" d="M63 367q0 85 8 165t25.5 166t50 156t78 127t114 89t153.5 32q307 0 307 -387v-37h-174v35q0 239 -133 239q-54 0 -97 -33.5t-69 -89.5t-45 -118.5t-27.5 -131t-12 -115.5t-3.5 -83q0 -122 39 -189t112 -67q83 0 139.5 78t69.5 190h168q-10 -84 -39 -158t-75 -133 t-113 -93t-146 -34q-157 0 -243.5 98t-86.5 294z" />
<glyph unicode="d" d="M70 375q0 143 24 264.5t64.5 205.5t94 143t112.5 86.5t120 27.5q149 0 215 -144l74 523h168l-207 -1481h-133v145q-105 -170 -260 -170q-124 0 -198 100.5t-74 299.5zM242 358q0 -233 151 -233q61 0 109.5 47t76.5 115.5t47 153.5t26 154.5t7 125.5q0 231 -149 231 q-62 0 -111.5 -45.5t-78 -112.5t-47 -151.5t-25 -154.5t-6.5 -130z" />
<glyph unicode="e" d="M72 367q0 83 8 162t27 164.5t53.5 156.5t83 129t121.5 90.5t163 32.5q332 0 332 -387q0 -122 -16 -226h-592q-6 -65 -6 -108q0 -256 174 -256q88 0 150.5 69.5t76.5 170.5h170q-17 -108 -65.5 -194t-135 -141t-196.5 -55q-169 0 -258.5 97t-89.5 295zM272 639h412 q2 27 2 74q0 239 -158 239q-54 0 -98 -26t-74.5 -72.5t-50.5 -99t-33 -115.5z" />
<glyph unicode="f" horiz-adv-x="466" d="M-182 -348l16 117h90q47 0 75 25.5t34 72.5l139 1061h-94l20 149h95l24 172q6 49 22.5 91t45.5 78.5t75 57.5t105 21q71 0 137 -24l-16 -117h-90q-47 0 -76 -26t-35 -73l-25 -180h187l-21 -149h-186l-139 -1053q-14 -105 -74 -176.5t-172 -71.5q-68 0 -137 25z" />
<glyph unicode="g" d="M14 -49h168q0 -176 162 -176q99 0 155 67t79 209l22 135q-56 -88 -115.5 -129t-134.5 -41q-73 0 -128 32t-85.5 87t-45.5 118.5t-15 135.5q0 177 36 317.5t95.5 224.5t131.5 127.5t150 43.5q176 0 232 -174l35 149h133l-137 -977q-35 -248 -136.5 -360.5t-277.5 -112.5 q-157 0 -240.5 93t-83.5 231zM248 373q0 -207 155 -207q70 0 124.5 64t82 158.5t41 180.5t13.5 152q-3 231 -152 231q-63 0 -112.5 -44.5t-77 -109.5t-45.5 -148.5t-23.5 -150t-5.5 -126.5z" />
<glyph unicode="h" d="M45 0l207 1481h168l-74 -529q98 150 266 150q64 0 111 -20t73 -55.5t38 -76.5t12 -90q0 -29 -29 -244t-57 -416l-29 -200h-168q111 755 111 821q0 131 -123 131q-100 0 -167 -95t-89 -255l-84 -602h-166z" />
<glyph unicode="i" horiz-adv-x="372" d="M33 0l149 1077h168l-151 -1077h-166zM211 1280l27 201h168l-27 -201h-168z" />
<glyph unicode="j" horiz-adv-x="372" d="M-203 -348l17 117h90q47 0 74 25.5t32 72.5l170 1210h168l-168 -1202q-7 -49 -23.5 -91t-45 -78.5t-74 -57.5t-103.5 -21q-68 0 -137 25zM209 1280l29 201h168l-29 -201h-168z" />
<glyph unicode="k" horiz-adv-x="839" d="M39 0l207 1481h168l-125 -883l403 479h201l-381 -442l246 -635h-185l-180 496l-133 -113l-53 -383h-168z" />
<glyph unicode="l" horiz-adv-x="372" d="M33 0l205 1481h168l-207 -1481h-166z" />
<glyph unicode="m" horiz-adv-x="1398" d="M45 0l152 1077h131v-159q10 22 23.5 43t38.5 48t53.5 46.5t71 33t89.5 13.5q98 0 149.5 -52.5t63.5 -136.5q14 29 33 55.5t52.5 60t83.5 53.5t110 20q114 0 165.5 -69t51.5 -173q0 -29 -28.5 -244t-57.5 -416l-29 -200h-168q111 755 111 821q0 131 -107 131 q-92 0 -155 -87t-84 -236l-88 -629h-168q110 755 110 821q0 131 -106 131q-96 0 -160 -95t-86 -255l-84 -602h-168z" />
<glyph unicode="n" d="M45 0l152 1077h131v-159q15 29 35 55.5t54 58.5t85.5 51t111.5 19q64 0 111 -20t73 -55.5t38 -76.5t12 -90q0 -29 -29 -244t-57 -416l-29 -200h-168q111 755 111 821q0 131 -123 131q-100 0 -167 -95t-89 -255l-84 -602h-168z" />
<glyph unicode="o" d="M68 358q0 80 8 158t27 165t53.5 160t83 133t121.5 94t163 34q340 0 340 -387q0 -68 -5.5 -134.5t-20 -141t-36.5 -140t-58 -126t-82 -103.5t-111.5 -69t-142.5 -26q-340 0 -340 383zM242 381q0 -131 39.5 -193.5t126.5 -62.5q51 0 94 25.5t71.5 65.5t50.5 95t34 109 t19.5 113t10 101t2.5 79q0 239 -166 239q-59 0 -106.5 -32t-77 -85.5t-50 -114.5t-30.5 -129.5t-14 -118t-4 -91.5z" />
<glyph unicode="p" d="M-2 -373l203 1450h133v-145q105 170 260 170q124 0 198 -100.5t74 -299.5q0 -143 -24 -264.5t-64.5 -205.5t-94 -143t-112.5 -86.5t-120 -27.5q-149 0 -215 144l-70 -492h-168zM276 356q0 -231 150 -231q62 0 111.5 45.5t78 112.5t47 151.5t25 154.5t6.5 130 q0 233 -151 233q-61 0 -109.5 -46.5t-77 -115.5t-47.5 -154t-26 -154.5t-7 -125.5z" />
<glyph unicode="q" d="M68 375q0 143 24 264.5t64.5 205.5t94 143t112.5 86.5t120 27.5q176 0 232 -174l37 149h133l-201 -1431h-168l66 477q-58 -77 -115 -112.5t-127 -35.5q-124 0 -198 100.5t-74 299.5zM240 358q0 -233 151 -233q61 0 109.5 47t76.5 115.5t47 153.5t26 154.5t7 125.5 q0 231 -149 231q-62 0 -111.5 -45.5t-78 -112.5t-47 -151.5t-25 -154.5t-6.5 -130z" />
<glyph unicode="r" horiz-adv-x="559" d="M33 0l151 1077h131v-172q12 26 18 37.5t20 36.5t24.5 38.5t28 32t35 28t40.5 17t49 7.5q20 0 39.5 -4t28.5 -8l10 -5l-24 -174h-56q-84 0 -152 -76t-87 -212l-88 -623h-168z" />
<glyph unicode="s" horiz-adv-x="839" d="M43 307q0 43 4 66h174q-6 -35 -6 -66q0 -90 51.5 -137t130.5 -47q69 0 112.5 44.5t43.5 108.5q0 49 -22.5 88t-59 66t-80 52t-87 53t-80 61.5t-59 85.5t-22.5 117q0 133 86.5 218t245.5 85q79 0 140 -28t96.5 -76t53 -107t17.5 -127h-174q0 102 -43 146t-108 44 q-50 0 -95 -35.5t-45 -95.5q0 -50 22.5 -87.5t59 -62.5t80 -48t87 -49.5t80 -60t59 -87.5t22.5 -125q0 -154 -93 -241t-253 -87q-143 0 -240.5 91.5t-97.5 240.5z" />
<glyph unicode="t" horiz-adv-x="466" d="M70 154q0 24 26.5 217.5t53.5 374.5l26 182h-92l20 149h93l43 299h176l-51 -299h145l-21 -149h-145q-102 -702 -102 -727q0 -76 75 -76h60l-17 -117q-58 -28 -124 -28q-87 0 -126.5 48.5t-39.5 125.5z" />
<glyph unicode="u" d="M86 217q0 29 29 244t57 415l29 201h168q-111 -755 -111 -821q0 -131 123 -131q100 0 167 95t89 255l84 602h168l-152 -1077h-131v158q-14 -29 -34.5 -55.5t-55 -58t-86 -50.5t-111.5 -19q-64 0 -111 20t-72.5 55.5t-37.5 76.5t-12 90z" />
<glyph unicode="v" horiz-adv-x="839" d="M94 1077h178l111 -833h8l344 833h180l-479 -1077h-182z" />
<glyph unicode="w" horiz-adv-x="1212" d="M88 1077h162l61 -606q17 -164 19 -281h8q28 170 63 281l193 606h201l28 -606q2 -25 2 -281h9q30 158 75 281l228 606h157l-417 -1077h-187q-28 619 -28 700q0 38 2 87.5t4 79.5l2 30h-8q-31 -170 -68 -283l-199 -614h-188z" />
<glyph unicode="x" horiz-adv-x="839" d="M-55 0l391 553l-230 524h195l148 -362l243 362h201l-375 -526l240 -551h-195l-157 389l-265 -389h-196z" />
<glyph unicode="y" horiz-adv-x="839" d="M-45 -356l16 116h58q163 0 245 240l-178 1077h178l123 -860h9l331 860h181l-439 -1022q-33 -76 -63 -134.5t-69 -116t-79.5 -94.5t-90.5 -60t-105 -23q-73 0 -117 17z" />
<glyph unicode="z" horiz-adv-x="839" d="M4 0l6 80l582 848h-432l20 149h668l-6 -78l-584 -849h492l-21 -150h-725z" />
<glyph unicode="{" horiz-adv-x="561" d="M29 504l22 172q64 0 115 30t61 93l58 403q11 75 36 130.5t57.5 88t78 52t90 26t100.5 6.5l-16 -116q-30 0 -57 -6t-54.5 -21t-46 -45.5t-24.5 -73.5q-8 -63 -20.5 -133t-29 -155.5t-24.5 -133.5q-20 -111 -68 -166t-143 -55l-2 -20q81 0 116 -42t35 -124 q0 -96 -24.5 -290.5t-24.5 -217.5q0 -115 144 -115l-17 -117q-50 0 -89.5 5.5t-78 20.5t-63.5 40t-40.5 67t-15.5 99q0 24 7 71q59 404 59 422q0 54 -41.5 79.5t-99.5 25.5z" />
<glyph unicode="|" horiz-adv-x="436" d="M137 -354v1835h162v-1835h-162z" />
<glyph unicode="}" horiz-adv-x="561" d="M-86 -326l16 117q30 0 57 6t54.5 21t46.5 45.5t25 73.5q8 63 20 132t28.5 156t24.5 133q20 111 68 166.5t143 55.5l2 20q-81 0 -116 42t-35 124q0 96 24.5 290.5t24.5 217.5q0 115 -143 115l16 116q64 0 111 -9t89.5 -33t64.5 -71.5t22 -117.5q0 -32 -6 -72 q-60 -404 -60 -422q0 -54 41 -79t100 -25l-22 -172q-64 0 -115 -30t-61 -93l-58 -404q-11 -75 -36 -130.5t-57.5 -88t-78 -52t-90 -26t-100.5 -6.5z" />
<glyph unicode="~" horiz-adv-x="980" d="M45 432l27 189q4 6 11.5 16t33.5 36t54.5 45.5t73 35.5t89.5 16q42 0 88 -19.5t79.5 -43t80 -43t90.5 -19.5q38 0 79 15t70.5 35t57 44t39.5 37t16 19l-27 -189q-4 -6 -11.5 -16t-33.5 -36t-54.5 -45.5t-73 -35.5t-89.5 -16q-67 0 -168 63q-33 20 -53.5 31t-53 21 t-63.5 10q-20 0 -40.5 -4t-38.5 -11t-36.5 -16.5t-34 -19.5t-30.5 -21.5t-26.5 -22t-22 -20.5t-17 -17t-11.5 -12z" />
<glyph unicode="&#xa1;" horiz-adv-x="559" d="M96 -328q36 180 201 1055h127q-92 -973 -96 -1055h-232zM279 856l30 221h205l-31 -221h-204z" />
<glyph unicode="&#xa2;" d="M109 530q0 83 7.5 161t24.5 162.5t48.5 154t75.5 127t110.5 91.5t148.5 38l31 217h100l-32 -224q241 -44 241 -378v-37h-166v35q0 188 -96 229l-115 -811q73 18 123.5 92t61.5 170h159q-14 -110 -58 -201t-124.5 -151.5t-183.5 -65.5l-33 -237h-100l35 243 q-124 24 -191 119.5t-67 265.5zM274 545q0 -204 113 -248l115 813q-57 -14 -100.5 -68.5t-67 -121t-38 -146.5t-18.5 -133.5t-4 -95.5z" />
<glyph unicode="&#xa3;" d="M-2 0l25 162h122l64 461h-148l21 147h147l37 252q59 408 367 408q301 0 301 -287q0 -55 -12 -137h-168q12 71 12 106q0 168 -135 168q-158 0 -191 -225l-41 -285h273l-21 -147h-274l-82 -461h510l-25 -162h-782z" />
<glyph unicode="&#xa4;" d="M-6 326l100 100q-71 123 -71 274q0 149 71 275l-100 100l98 99l86 -89q124 121 289 121q163 0 287 -121l88 89l98 -99l-100 -100q71 -126 71 -275q0 -151 -71 -274l100 -100l-98 -99l-88 88q-124 -118 -287 -118t-287 118l-88 -88zM162 700q0 -151 89 -256.5t216 -105.5 q126 0 214.5 105.5t88.5 256.5q0 152 -88.5 258.5t-214.5 106.5q-127 0 -216 -106.5t-89 -258.5z" />
<glyph unicode="&#xa5;" d="M25 346l18 133h326l20 144h-326l19 133h262l-217 649h195l194 -600h8l357 600h170l-400 -649h262l-18 -133h-326l-20 -144h325l-18 -133h-326l-49 -346h-180l49 346h-325z" />
<glyph unicode="&#xa6;" horiz-adv-x="436" d="M137 -354v778h162v-778h-162zM137 702v779h162v-779h-162z" />
<glyph unicode="&#xa7;" d="M59 -125q0 56 13 86h174q-6 -31 -6 -53q0 -133 129 -133q41 0 73 14.5t49 35t28 47.5t14.5 47t3.5 38q0 50 -22.5 91t-58.5 70t-79.5 55.5t-87 56.5t-79.5 65.5t-58.5 88.5t-22.5 120q0 117 54 204t132 136q-88 88 -88 217q0 169 98.5 269t264.5 100q141 0 217 -69.5 t76 -178.5q0 -56 -13 -86h-174q6 31 6 53q0 133 -129 133q-41 0 -72.5 -14.5t-49 -35t-28.5 -47.5t-14 -47t-3 -38q0 -50 22.5 -91t58.5 -70t79.5 -55.5t86.5 -56.5t79 -65.5t58.5 -88.5t22.5 -120q0 -116 -53.5 -202.5t-132.5 -135.5q88 -88 88 -219q0 -169 -98.5 -269 t-264.5 -100q-141 0 -217 69.5t-76 178.5zM299 567q0 -37 11.5 -70t25.5 -55t43.5 -48t49 -39.5t58.5 -38.5t56 -37q45 31 72.5 86t27.5 124q0 37 -11.5 70t-25.5 55.5t-43.5 48.5t-49 39t-58.5 38.5t-56 37.5q-45 -31 -72.5 -86.5t-27.5 -124.5z" />
<glyph unicode="&#xa8;" horiz-adv-x="559" d="M170 1286l27 195h178l-27 -195h-178zM477 1286l27 195h178l-27 -195h-178z" />
<glyph unicode="&#xa9;" horiz-adv-x="1236" d="M43 702q0 334 154 531t421 197t421.5 -197.5t154.5 -530.5t-154.5 -530t-421.5 -197t-421 197t-154 530zM137 702q0 -289 129 -459.5t352 -170.5t352.5 170.5t129.5 459.5t-129.5 460t-352.5 171t-352 -171t-129 -460zM297 713q0 430 326 430q131 0 209.5 -80.5 t78.5 -233.5h-118q0 102 -45.5 154.5t-124.5 52.5q-205 0 -205 -291v-61q0 -293 205 -293q80 0 127 52.5t47 152.5h114q0 -154 -78 -232.5t-210 -78.5q-326 0 -326 428z" />
<glyph unicode="&#xaa;" horiz-adv-x="620" d="M125 1014q0 120 25 217t66 155.5t90.5 89.5t101.5 31q108 0 141 -118l67 102h60q-86 -592 -86 -608q0 -39 35 -39h43l-11 -80q-32 -23 -77 -23q-108 0 -111 115q-72 -115 -158 -115q-85 0 -135.5 68.5t-50.5 204.5zM252 1001q0 -149 94 -149q43 0 77 45.5t51.5 112.5 t26.5 129t9 110q0 148 -86 148q-49 0 -85 -44t-53.5 -111t-25.5 -127.5t-8 -113.5z" />
<glyph unicode="&#xab;" d="M111 668l342 409h149l-289 -409l172 -410h-145zM420 668l344 409h147l-286 -409l170 -410h-144z" />
<glyph unicode="&#xac;" horiz-adv-x="980" d="M88 737l27 191h811l-72 -525h-172l45 334h-639z" />
<glyph unicode="&#xad;" horiz-adv-x="559" d="M6 453l27 200h516l-27 -200h-516z" />
<glyph unicode="&#xae;" horiz-adv-x="1236" d="M43 702q0 334 154 531t421 197t421.5 -197.5t154.5 -530.5t-154.5 -530t-421.5 -197t-421 197t-154 530zM137 702q0 -289 129 -459.5t352 -170.5t352.5 170.5t129.5 459.5t-129.5 460t-352.5 171t-352 -171t-129 -460zM356 303v823h330q92 0 151.5 -57.5t59.5 -148.5 q0 -71 -36.5 -122t-92.5 -71v-8q14 -6 30.5 -17.5t39.5 -35.5t38 -67.5t15 -98.5q0 -81 13.5 -114t43.5 -44v-35q-25 -10 -59 -10q-117 0 -117 156q0 113 -40.5 161t-92.5 48h-166v-359h-117zM473 770h170q61 0 97 35.5t36 91.5q0 58 -34.5 89.5t-92.5 31.5h-176v-248z" />
<glyph unicode="&#xaf;" horiz-adv-x="559" d="M164 1227l22 147h512l-22 -147h-512z" />
<glyph unicode="&#xb0;" horiz-adv-x="819" d="M154 1153q0 116 80.5 196.5t195.5 80.5q116 0 196.5 -81t80.5 -196t-80.5 -195.5t-196.5 -80.5t-196 80.5t-80 195.5zM262 1153q0 -69 49.5 -118.5t118.5 -49.5t117.5 49.5t48.5 118.5t-48.5 117.5t-117.5 48.5t-118.5 -48.5t-49.5 -117.5z" />
<glyph unicode="&#xb1;" horiz-adv-x="1124" d="M76 0l24 170h803l-24 -170h-803zM164 635l24 172h316l53 377h170l-53 -377h317l-24 -172h-318l-51 -375h-170l51 375h-315z" />
<glyph unicode="&#xb2;" horiz-adv-x="559" d="M78 659l6 33q8 61 42 120t79.5 103.5t97 93.5t94 91.5t71 95.5t28.5 107q0 35 -19 58t-61 23q-50 0 -78.5 -37.5t-36.5 -97.5l-8 -63h-129q1 81 23 144t59.5 100.5t83 56t96.5 18.5q94 0 150.5 -45.5t56.5 -140.5q0 -54 -20 -108t-58.5 -104.5t-75 -89t-88.5 -85.5 q-100 -95 -129 -144h299l-18 -129h-465z" />
<glyph unicode="&#xb3;" horiz-adv-x="559" d="M109 848q0 44 6 78h131q-6 -41 -6 -66q0 -96 86 -96q58 0 95.5 41.5t37.5 122.5q0 96 -99 96h-59l16 117h62q48 0 83.5 40t35.5 113q0 47 -22 71t-56 24q-43 0 -74.5 -33t-40.5 -96l-4 -27h-129l6 37q17 107 84 171t162 64q96 0 150.5 -49.5t54.5 -140.5 q0 -156 -127 -228q86 -49 86 -161q0 -126 -77 -202.5t-183 -76.5t-162.5 53t-56.5 148z" />
<glyph unicode="&#xb4;" horiz-adv-x="559" d="M270 1210l176 271h185l2 -6l-221 -265h-142z" />
<glyph unicode="&#xb5;" horiz-adv-x="1179" d="M143 -354l203 1431h168q-111 -755 -111 -821q0 -131 123 -131q100 0 167 95t89 255l84 602h168l-151 -1077h-131v158q-14 -29 -34.5 -55.5t-55 -58t-86 -50.5t-111.5 -19q-61 0 -107 19l-47 -348h-168z" />
<glyph unicode="&#xb6;" horiz-adv-x="901" d="M90 883q0 118 38.5 217.5t103 165.5t148 102.5t173.5 36.5h428l-18 -125h-99l-229 -1634h-135l229 1634h-108l-230 -1634h-133l123 866q-130 17 -210.5 120t-80.5 251z" />
<glyph unicode="&#xb7;" horiz-adv-x="466" d="M147 590l31 227h207l-31 -227h-207z" />
<glyph unicode="&#xb8;" horiz-adv-x="559" d="M47 -356l14 100h156q40 0 61 13t21 48q0 37 -63 37h-68l53 181h113l-29 -97q150 -11 150 -110q0 -56 -24.5 -95.5t-64 -58.5t-76 -27t-73.5 -8q-90 0 -170 17z" />
<glyph unicode="&#xb9;" horiz-adv-x="559" d="M109 659l16 119h162l75 529h-163l12 88q50 6 121.5 31.5t122.5 56.5h59l-100 -705h149l-16 -119h-438z" />
<glyph unicode="&#xba;" horiz-adv-x="612" d="M119 999q0 66 7.5 130t29 134t55 122t90 86t129.5 34q232 0 232 -264q0 -66 -7.5 -129.5t-29.5 -133t-55.5 -121t-90 -85t-129.5 -33.5q-231 0 -231 260zM248 1016q0 -84 24.5 -125t77.5 -41q46 0 81 32t53.5 77t30 103.5t14.5 100t3 78.5q0 154 -102 154q-46 0 -81 -31 t-53.5 -74.5t-30 -100t-14.5 -97t-3 -76.5z" />
<glyph unicode="&#xbb;" d="M45 258l289 410l-172 409h143l234 -409l-346 -410h-148zM354 258l291 410l-174 409h145l232 -409l-344 -410h-150z" />
<glyph unicode="&#xbc;" horiz-adv-x="1400" d="M59 582l17 118h162l75 529h-163l12 88q50 6 121.5 31.5t122.5 56.5h59l-100 -705h149l-16 -118h-439zM164 -25l1053 1455h126l-1050 -1455h-129zM774 197l12 106q162 232 291 543h127q-52 -142 -136 -297t-144 -236h174l26 187q78 153 103 227h55l-57 -414h82l-17 -116 h-82l-28 -197h-127l28 197h-307z" />
<glyph unicode="&#xbd;" horiz-adv-x="1400" d="M57 582l17 118h162l75 529h-164l13 88q49 6 120.5 31.5t122.5 56.5h60l-101 -705h150l-16 -118h-439zM133 -25l1053 1455h127l-1051 -1455h-129zM791 0l6 33q7 53 33 103.5t63 91.5t79.5 81.5t84 79.5t75.5 78t55 84.5t21 91.5q0 35 -19 58.5t-61 23.5q-49 0 -77.5 -37.5 t-36.5 -97.5l-8 -64h-129q1 81 23 144.5t59.5 100.5t83 56t96.5 19q94 0 150.5 -46t56.5 -141q0 -54 -20 -108t-58.5 -104.5t-75 -89t-88.5 -85.5q-3 -3 -22 -21t-24.5 -23.5l-21.5 -21.5t-24 -25.5t-18.5 -24t-18.5 -27.5h299l-19 -129h-464z" />
<glyph unicode="&#xbe;" horiz-adv-x="1400" d="M88 772q0 44 6 78h131q-6 -41 -6 -66q0 -96 86 -96q58 0 95.5 41.5t37.5 122.5q0 96 -98 96h-59l16 117h61q48 0 83.5 40.5t35.5 113.5q0 47 -21.5 70.5t-56.5 23.5q-43 0 -74 -33t-40 -96l-4 -27h-129l6 37q17 108 83.5 172t161.5 64q96 0 150.5 -50t54.5 -141 q0 -155 -127 -227q86 -49 86 -162q0 -126 -77 -202.5t-183 -76.5t-162.5 53t-56.5 148zM154 -25l1052 1455h127l-1050 -1455h-129zM768 197l12 106q162 232 291 543h127q-52 -142 -136 -297t-144 -236h174l26 187q78 153 103 227h55l-57 -414h81l-16 -116h-82l-28 -197h-127 l28 197h-307z" />
<glyph unicode="&#xbf;" horiz-adv-x="1026" d="M154 -45q0 84 18 153.5t47 117.5t64 89t72 76t69 68.5t55.5 75.5t30.5 90l12 84h178l-16 -115q-8 -58 -31.5 -107t-53.5 -84.5t-65 -69t-68.5 -67.5t-60.5 -71.5t-44 -90.5t-17 -116q0 -32 6.5 -60.5t22 -58t47.5 -47t78 -17.5q47 0 85.5 18t62.5 45t42 63t27 68 t14.5 65.5t6.5 49t1 23.5h183q-2 -98 -32 -186t-84 -156t-137.5 -107.5t-185.5 -39.5q-148 0 -237.5 84.5t-89.5 222.5zM530 856l33 221h205l-33 -221h-205z" />
<glyph unicode="&#xc0;" horiz-adv-x="1120" d="M-74 0l643 1405h232l248 -1405h-187l-53 313h-563l-142 -313h-178zM319 477h463l-104 625q-4 21 -6.5 59.5t-3.5 66.5v29h-9q-37 -110 -57 -155zM504 1802l4 6h182l139 -270h-143z" />
<glyph unicode="&#xc1;" horiz-adv-x="1120" d="M-74 0l643 1405h232l248 -1405h-187l-53 313h-563l-142 -313h-178zM319 477h463l-104 625q-4 21 -6.5 59.5t-3.5 66.5v29h-9q-37 -110 -57 -155zM598 1538l176 270h187l2 -6l-222 -264h-143z" />
<glyph unicode="&#xc2;" horiz-adv-x="1120" d="M-74 0l643 1405h232l248 -1405h-187l-53 313h-563l-142 -313h-178zM319 477h463l-104 625q-4 21 -6.5 59.5t-3.5 66.5v29h-9q-37 -110 -57 -155zM442 1532l215 276h160l135 -276h-157l-68 162l-115 -162h-170z" />
<glyph unicode="&#xc3;" horiz-adv-x="1120" d="M-74 0l643 1405h232l248 -1405h-187l-53 313h-563l-142 -313h-178zM319 477h463l-104 625q-4 21 -6.5 59.5t-3.5 66.5v29h-9q-37 -110 -57 -155zM412 1595q8 51 29.5 97t65 81t99.5 35q47 0 120.5 -31.5t113.5 -31.5q64 0 80 63h118q-12 -82 -63 -147.5t-133 -65.5 q-47 0 -120.5 32t-113.5 32q-64 0 -80 -64h-116z" />
<glyph unicode="&#xc4;" horiz-adv-x="1120" d="M-74 0l643 1405h232l248 -1405h-187l-53 313h-563l-142 -313h-178zM319 477h463l-104 625q-4 21 -6.5 59.5t-3.5 66.5v29h-9q-37 -110 -57 -155zM477 1614l29 194h176l-27 -194h-178zM784 1614l27 194h178l-26 -194h-179z" />
<glyph unicode="&#xc5;" horiz-adv-x="1120" d="M-74 0l643 1405h232l248 -1405h-187l-53 313h-563l-142 -313h-178zM319 477h463l-104 625q-4 21 -6.5 59.5t-3.5 66.5v29h-9q-37 -110 -57 -155zM530 1636q0 86 61.5 143.5t141.5 57.5q76 0 126 -49t50 -123q0 -83 -60.5 -142t-139.5 -59q-77 0 -128 48.5t-51 123.5z M623 1642q0 -39 26 -67.5t66 -28.5q42 0 73 32.5t31 80.5q0 39 -26.5 67.5t-65.5 28.5q-43 0 -73.5 -32t-30.5 -81z" />
<glyph unicode="&#xc6;" horiz-adv-x="1679" d="M-88 0l766 1405h1022l-25 -164h-751l37 -440h563l-23 -164h-528l41 -473h524l-25 -164h-673l-27 313h-551l-162 -313h-188zM348 477h453l-49 600l-9 156h-8q-48 -109 -73 -156z" />
<glyph unicode="&#xc7;" horiz-adv-x="1212" d="M104 494q0 83 8.5 168t30 178.5t53 177t81.5 160t112 132t148 88t186 32.5q444 0 444 -502v-33h-186v45q0 324 -260 324q-79 0 -145 -34.5t-109.5 -89t-77 -128t-52 -145t-30 -147t-15 -126t-3.5 -90.5q0 -173 75 -267t214 -94q76 0 138.5 28.5t105.5 78.5t70 112t38 134 h178q-14 -107 -54.5 -199.5t-104.5 -165t-158 -114.5t-207 -42h-11l-16 -49q152 -11 152 -110q0 -56 -24.5 -95.5t-64 -58.5t-76.5 -27t-75 -8q-90 0 -170 17l14 100h156q41 0 62.5 13.5t21.5 47.5q0 37 -64 37h-67l41 144q-171 32 -265 158.5t-94 349.5z" />
<glyph unicode="&#xc8;" horiz-adv-x="1120" d="M70 0l198 1405h867l-25 -164h-686l-62 -440h596l-22 -164h-596l-66 -473h699l-25 -164h-878zM483 1802l4 6h185l139 -270h-143z" />
<glyph unicode="&#xc9;" horiz-adv-x="1120" d="M70 0l198 1405h867l-25 -164h-686l-62 -440h596l-22 -164h-596l-66 -473h699l-25 -164h-878zM580 1538l176 270h184l2 -6l-219 -264h-143z" />
<glyph unicode="&#xca;" horiz-adv-x="1120" d="M70 0l198 1405h867l-25 -164h-686l-62 -440h596l-22 -164h-596l-66 -473h699l-25 -164h-878zM424 1532l215 276h160l135 -276h-158l-67 162l-115 -162h-170z" />
<glyph unicode="&#xcb;" horiz-adv-x="1120" d="M70 0l198 1405h867l-25 -164h-686l-62 -440h596l-22 -164h-596l-66 -473h699l-25 -164h-878zM459 1614l26 194h179l-27 -194h-178zM766 1614l27 194h178l-27 -194h-178z" />
<glyph unicode="&#xcc;" horiz-adv-x="466" d="M70 0l198 1405h181l-199 -1405h-180zM174 1802l4 6h184l140 -270h-144z" />
<glyph unicode="&#xcd;" horiz-adv-x="466" d="M70 0l198 1405h181l-199 -1405h-180zM270 1538l176 270h187l2 -6l-221 -264h-144z" />
<glyph unicode="&#xce;" horiz-adv-x="466" d="M70 0l198 1405h181l-199 -1405h-180zM115 1532l215 276h159l136 -276h-158l-68 162l-114 -162h-170z" />
<glyph unicode="&#xcf;" horiz-adv-x="466" d="M70 0l198 1405h181l-199 -1405h-180zM150 1614l26 194h178l-26 -194h-178zM457 1614l26 194h179l-27 -194h-178z" />
<glyph unicode="&#xd0;" horiz-adv-x="1212" d="M29 662l18 131h133l88 612h416q226 0 347.5 -133.5t121.5 -392.5q0 -95 -14.5 -192.5t-43.5 -197.5t-79 -187t-115 -155t-157.5 -107.5t-200.5 -39.5h-473l92 662h-133zM274 164h248q85 0 155 32.5t117 89t82 127t54 153t28 159t9 152.5q0 181 -79 272.5t-224 91.5h-240 l-64 -448h322l-18 -131h-322z" />
<glyph unicode="&#xd1;" horiz-adv-x="1212" d="M68 0l198 1405h148l399 -883q10 -24 26.5 -71t28.5 -82l11 -35l6 2q14 141 20 186l125 883h162l-199 -1405h-141l-403 895q-12 26 -29 73t-28 81l-11 34l-6 -2q-11 -129 -19 -186l-127 -895h-161zM453 1595q8 51 29.5 97t65 81t99.5 35q47 0 120.5 -31.5t113.5 -31.5 q64 0 80 63h118q-12 -82 -63 -147.5t-133 -65.5q-47 0 -120.5 32t-113.5 32q-64 0 -80 -64h-116z" />
<glyph unicode="&#xd2;" horiz-adv-x="1306" d="M104 506q0 87 9.5 174.5t32.5 179.5t57 174t86.5 155.5t117.5 126t153.5 83.5t191.5 31q234 0 360.5 -135t126.5 -400q0 -87 -10 -174t-32.5 -179t-57 -173.5t-87 -154.5t-117.5 -125.5t-153.5 -83t-191.5 -30.5q-234 0 -360 134t-126 397zM289 510q0 -184 78 -276.5 t225 -92.5q89 0 162.5 34.5t122.5 95t84.5 134.5t55 161.5t28 167.5t8.5 161q0 182 -79 275.5t-224 93.5q-106 0 -189 -50t-133 -127t-82.5 -180.5t-44.5 -200t-12 -196.5zM592 1802l4 6h184l138 -270h-142z" />
<glyph unicode="&#xd3;" horiz-adv-x="1306" d="M104 506q0 87 9.5 174.5t32.5 179.5t57 174t86.5 155.5t117.5 126t153.5 83.5t191.5 31q234 0 360.5 -135t126.5 -400q0 -87 -10 -174t-32.5 -179t-57 -173.5t-87 -154.5t-117.5 -125.5t-153.5 -83t-191.5 -30.5q-234 0 -360 134t-126 397zM289 510q0 -184 78 -276.5 t225 -92.5q89 0 162.5 34.5t122.5 95t84.5 134.5t55 161.5t28 167.5t8.5 161q0 182 -79 275.5t-224 93.5q-106 0 -189 -50t-133 -127t-82.5 -180.5t-44.5 -200t-12 -196.5zM688 1538l176 270h185l2 -6l-222 -264h-141z" />
<glyph unicode="&#xd4;" horiz-adv-x="1306" d="M104 506q0 87 9.5 174.5t32.5 179.5t57 174t86.5 155.5t117.5 126t153.5 83.5t191.5 31q234 0 360.5 -135t126.5 -400q0 -87 -10 -174t-32.5 -179t-57 -173.5t-87 -154.5t-117.5 -125.5t-153.5 -83t-191.5 -30.5q-234 0 -360 134t-126 397zM289 510q0 -184 78 -276.5 t225 -92.5q89 0 162.5 34.5t122.5 95t84.5 134.5t55 161.5t28 167.5t8.5 161q0 182 -79 275.5t-224 93.5q-106 0 -189 -50t-133 -127t-82.5 -180.5t-44.5 -200t-12 -196.5zM532 1532l216 276h159l135 -276h-157l-68 162l-115 -162h-170z" />
<glyph unicode="&#xd5;" horiz-adv-x="1306" d="M104 506q0 87 9.5 174.5t32.5 179.5t57 174t86.5 155.5t117.5 126t153.5 83.5t191.5 31q234 0 360.5 -135t126.5 -400q0 -87 -10 -174t-32.5 -179t-57 -173.5t-87 -154.5t-117.5 -125.5t-153.5 -83t-191.5 -30.5q-234 0 -360 134t-126 397zM289 510q0 -184 78 -276.5 t225 -92.5q89 0 162.5 34.5t122.5 95t84.5 134.5t55 161.5t28 167.5t8.5 161q0 182 -79 275.5t-224 93.5q-106 0 -189 -50t-133 -127t-82.5 -180.5t-44.5 -200t-12 -196.5zM500 1595q8 51 29.5 97t65 81t99.5 35q47 0 121.5 -31.5t114.5 -31.5q62 0 78 63h118 q-12 -82 -63 -147.5t-131 -65.5q-48 0 -122 32t-114 32q-61 0 -80 -64h-116z" />
<glyph unicode="&#xd6;" horiz-adv-x="1306" d="M104 506q0 87 9.5 174.5t32.5 179.5t57 174t86.5 155.5t117.5 126t153.5 83.5t191.5 31q234 0 360.5 -135t126.5 -400q0 -87 -10 -174t-32.5 -179t-57 -173.5t-87 -154.5t-117.5 -125.5t-153.5 -83t-191.5 -30.5q-234 0 -360 134t-126 397zM289 510q0 -184 78 -276.5 t225 -92.5q89 0 162.5 34.5t122.5 95t84.5 134.5t55 161.5t28 167.5t8.5 161q0 182 -79 275.5t-224 93.5q-106 0 -189 -50t-133 -127t-82.5 -180.5t-44.5 -200t-12 -196.5zM567 1614l27 194h178l-27 -194h-178zM874 1614l27 194h178l-26 -194h-179z" />
<glyph unicode="&#xd7;" horiz-adv-x="980" d="M33 213l356 309l-268 312l129 120l272 -311l357 311q87 -108 96 -120l-359 -312l271 -309l-129 -121q-31 35 -86 97t-100.5 113.5t-84.5 96.5l-358 -307q-22 29 -96 121z" />
<glyph unicode="&#xd8;" horiz-adv-x="1306" d="M102 -76l123 191q-121 133 -121 391q0 87 9.5 174.5t32.5 179.5t57 174t86.5 155.5t117.5 126t153.5 83.5t191.5 31q168 0 278 -70l78 121h131l-123 -191q123 -138 123 -395q0 -87 -10 -174t-32.5 -179t-57 -173.5t-87 -154.5t-117.5 -125.5t-153.5 -83t-191.5 -30.5 q-166 0 -281 68l-76 -119h-131zM289 510q0 -139 45 -227l598 925q-71 56 -182 56q-106 0 -189 -50t-133 -127t-82.5 -180.5t-44.5 -200t-12 -196.5zM408 195q72 -54 184 -54q89 0 162.5 34.5t122.5 95t84.5 134.5t55 161.5t28 167.5t8.5 161q0 139 -47 225z" />
<glyph unicode="&#xd9;" horiz-adv-x="1212" d="M117 354q0 42 35.5 304.5t71.5 504.5l36 242h180q-141 -981 -141 -1026q0 -116 64 -177t182 -61q133 0 218 78.5t107 226.5l136 959h180l-135 -948q-34 -235 -166 -358.5t-344 -123.5q-203 0 -313.5 97.5t-110.5 281.5zM539 1802l4 6h182l139 -270h-141z" />
<glyph unicode="&#xda;" horiz-adv-x="1212" d="M117 354q0 42 35.5 304.5t71.5 504.5l36 242h180q-141 -981 -141 -1026q0 -116 64 -177t182 -61q133 0 218 78.5t107 226.5l136 959h180l-135 -948q-34 -235 -166 -358.5t-344 -123.5q-203 0 -313.5 97.5t-110.5 281.5zM635 1538l176 270h184l2 -6l-221 -264h-141z" />
<glyph unicode="&#xdb;" horiz-adv-x="1212" d="M117 354q0 42 35.5 304.5t71.5 504.5l36 242h180q-141 -981 -141 -1026q0 -116 64 -177t182 -61q133 0 218 78.5t107 226.5l136 959h180l-135 -948q-34 -235 -166 -358.5t-344 -123.5q-203 0 -313.5 97.5t-110.5 281.5zM477 1532l215 276h162l133 -276h-158l-65 162 l-117 -162h-170z" />
<glyph unicode="&#xdc;" horiz-adv-x="1212" d="M117 354q0 42 35.5 304.5t71.5 504.5l36 242h180q-141 -981 -141 -1026q0 -116 64 -177t182 -61q133 0 218 78.5t107 226.5l136 959h180l-135 -948q-34 -235 -166 -358.5t-344 -123.5q-203 0 -313.5 97.5t-110.5 281.5zM512 1614l29 194h178l-29 -194h-178zM819 1614 l29 194h176l-27 -194h-178z" />
<glyph unicode="&#xdd;" horiz-adv-x="1120" d="M143 1405h197l256 -651h8l438 651h189l-569 -823l-82 -582h-181l82 582zM604 1538l176 270h187l2 -6l-221 -264h-144z" />
<glyph unicode="&#xde;" horiz-adv-x="1120" d="M70 0l198 1405h181l-39 -277h301q190 0 288.5 -93.5t98.5 -256.5q0 -220 -134 -349.5t-350 -129.5h-321l-43 -299h-180zM315 463h318q119 0 196.5 77.5t77.5 204.5q0 103 -53.5 161.5t-153.5 58.5h-313z" />
<glyph unicode="&#xdf;" horiz-adv-x="1026" d="M37 0l145 1057q31 227 156.5 337.5t304.5 110.5q162 0 259 -84t97 -233q0 -121 -68 -230.5t-175 -148.5v-8q86 -34 138 -119t52 -190q0 -91 -35 -180t-94.5 -158t-145 -111.5t-179.5 -42.5h-175l21 152h137q115 0 206 98.5t91 230.5q0 101 -60.5 168.5t-156.5 67.5h-137 l20 149h121q108 0 187 90.5t79 208.5q0 89 -49 140t-143 51q-111 0 -186 -76t-95 -219l-149 -1061h-166z" />
<glyph unicode="&#xe0;" d="M68 375q0 143 24 264.5t64.5 205.5t94 143t112.5 86.5t120 27.5q170 0 224 -174l36 149h134q-125 -870 -125 -895q0 -57 49 -57h65l-16 -117q-47 -33 -115 -33q-144 0 -147 170q-59 -89 -118 -129.5t-130 -40.5q-124 0 -198 100.5t-74 299.5zM240 358q0 -233 151 -233 q55 0 101 46.5t74.5 115.5t47.5 153.5t27 155.5t8 125q0 231 -141 231q-62 0 -111.5 -45.5t-78 -112.5t-47 -151.5t-25 -154.5t-6.5 -130zM356 1475l4 6h185l137 -271h-141z" />
<glyph unicode="&#xe1;" d="M68 375q0 143 24 264.5t64.5 205.5t94 143t112.5 86.5t120 27.5q170 0 224 -174l36 149h134q-125 -870 -125 -895q0 -57 49 -57h65l-16 -117q-47 -33 -115 -33q-144 0 -147 170q-59 -89 -118 -129.5t-130 -40.5q-124 0 -198 100.5t-74 299.5zM240 358q0 -233 151 -233 q55 0 101 46.5t74.5 115.5t47.5 153.5t27 155.5t8 125q0 231 -141 231q-62 0 -111.5 -45.5t-78 -112.5t-47 -151.5t-25 -154.5t-6.5 -130zM453 1210l176 271h184l2 -6l-219 -265h-143z" />
<glyph unicode="&#xe2;" d="M68 375q0 143 24 264.5t64.5 205.5t94 143t112.5 86.5t120 27.5q170 0 224 -174l36 149h134q-125 -870 -125 -895q0 -57 49 -57h65l-16 -117q-47 -33 -115 -33q-144 0 -147 170q-59 -89 -118 -129.5t-130 -40.5q-124 0 -198 100.5t-74 299.5zM240 358q0 -233 151 -233 q55 0 101 46.5t74.5 115.5t47.5 153.5t27 155.5t8 125q0 231 -141 231q-62 0 -111.5 -45.5t-78 -112.5t-47 -151.5t-25 -154.5t-6.5 -130zM297 1204l215 277h160l135 -277h-158l-67 162l-115 -162h-170z" />
<glyph unicode="&#xe3;" d="M68 375q0 143 24 264.5t64.5 205.5t94 143t112.5 86.5t120 27.5q170 0 224 -174l36 149h134q-125 -870 -125 -895q0 -57 49 -57h65l-16 -117q-47 -33 -115 -33q-144 0 -147 170q-59 -89 -118 -129.5t-130 -40.5q-124 0 -198 100.5t-74 299.5zM240 358q0 -233 151 -233 q55 0 101 46.5t74.5 115.5t47.5 153.5t27 155.5t8 125q0 231 -141 231q-62 0 -111.5 -45.5t-78 -112.5t-47 -151.5t-25 -154.5t-6.5 -130zM264 1268q14 80 60 141q55 72 137 72q11 0 23 -1.5t20.5 -3t21.5 -6t18 -6t20 -7.5t18 -7q76 -33 112 -33q64 0 78 64h121 q-12 -81 -64 -147t-133 -66q-48 0 -121 31.5t-112 31.5q-64 0 -80 -63h-119z" />
<glyph unicode="&#xe4;" d="M68 375q0 143 24 264.5t64.5 205.5t94 143t112.5 86.5t120 27.5q170 0 224 -174l36 149h134q-125 -870 -125 -895q0 -57 49 -57h65l-16 -117q-47 -33 -115 -33q-144 0 -147 170q-59 -89 -118 -129.5t-130 -40.5q-124 0 -198 100.5t-74 299.5zM240 358q0 -233 151 -233 q55 0 101 46.5t74.5 115.5t47.5 153.5t27 155.5t8 125q0 231 -141 231q-62 0 -111.5 -45.5t-78 -112.5t-47 -151.5t-25 -154.5t-6.5 -130zM332 1286l26 195h179l-27 -195h-178zM639 1286l27 195h178l-27 -195h-178z" />
<glyph unicode="&#xe5;" d="M68 375q0 143 24 264.5t64.5 205.5t94 143t112.5 86.5t120 27.5q170 0 224 -174l36 149h134q-125 -870 -125 -895q0 -57 49 -57h65l-16 -117q-47 -33 -115 -33q-144 0 -147 170q-59 -89 -118 -129.5t-130 -40.5q-124 0 -198 100.5t-74 299.5zM240 358q0 -233 151 -233 q55 0 101 46.5t74.5 115.5t47.5 153.5t27 155.5t8 125q0 231 -141 231q-62 0 -111.5 -45.5t-78 -112.5t-47 -151.5t-25 -154.5t-6.5 -130zM385 1309q0 86 61 143t142 57q75 0 125.5 -49.5t50.5 -122.5q0 -83 -61 -141.5t-142 -58.5q-75 0 -125.5 48.5t-50.5 123.5zM475 1315 q0 -39 26.5 -67.5t65.5 -28.5q44 0 75.5 32t31.5 80q0 39 -26.5 67.5t-65.5 28.5q-45 0 -76 -31.5t-31 -80.5z" />
<glyph unicode="&#xe6;" horiz-adv-x="1492" d="M53 231q0 99 32 172t84.5 117.5t132 72t163 37t188.5 9.5l21 139q4 32 4 47q0 61 -34 94t-116 33q-90 0 -137 -53.5t-55 -140.5h-166q0 157 107.5 250.5t273.5 93.5q190 0 260 -115q112 115 276 115q332 0 332 -387q0 -122 -16 -226h-592q-6 -64 -6 -108q0 -256 174 -256 q88 0 150.5 69.5t76.5 170.5h170q-17 -108 -65.5 -194t-135 -141t-196.5 -55q-227 0 -307 168q-60 -78 -149.5 -123t-182.5 -45q-287 0 -287 256zM231 264q0 -74 31.5 -106.5t95.5 -32.5q87 0 163.5 66t94.5 184l17 114q-76 0 -133 -5t-110 -19.5t-86 -39t-53 -65t-20 -96.5 zM831 639h412q2 27 2 74q0 239 -158 239q-54 0 -98 -26t-74.5 -72.5t-50.5 -99t-33 -115.5z" />
<glyph unicode="&#xe7;" horiz-adv-x="839" d="M63 367q0 85 8 165t25.5 166t50 156t78 127t114 89t153.5 32q307 0 307 -387v-37h-174v35q0 239 -133 239q-54 0 -97 -33.5t-69 -89.5t-45 -118.5t-27.5 -131t-12 -115.5t-3.5 -83q0 -122 39 -189t112 -67q83 0 139.5 78t69.5 190h168q-10 -83 -38 -155.5t-71.5 -131 t-107.5 -93.5t-141 -38l-15 -49q150 -11 150 -110q0 -56 -24.5 -95.5t-64 -58.5t-76 -27t-73.5 -8q-90 0 -170 17l15 100h155q40 0 61 13t21 48q0 37 -63 37h-68l43 144q-113 27 -174.5 122.5t-61.5 258.5z" />
<glyph unicode="&#xe8;" d="M72 367q0 83 8 162t27 164.5t53.5 156.5t83 129t121.5 90.5t163 32.5q332 0 332 -387q0 -122 -16 -226h-592q-6 -65 -6 -108q0 -256 174 -256q88 0 150.5 69.5t76.5 170.5h170q-17 -108 -65.5 -194t-135 -141t-196.5 -55q-169 0 -258.5 97t-89.5 295zM272 639h412 q2 27 2 74q0 239 -158 239q-54 0 -98 -26t-74.5 -72.5t-50.5 -99t-33 -115.5zM358 1475l4 6h185l137 -271h-141z" />
<glyph unicode="&#xe9;" d="M72 367q0 83 8 162t27 164.5t53.5 156.5t83 129t121.5 90.5t163 32.5q332 0 332 -387q0 -122 -16 -226h-592q-6 -65 -6 -108q0 -256 174 -256q88 0 150.5 69.5t76.5 170.5h170q-17 -108 -65.5 -194t-135 -141t-196.5 -55q-169 0 -258.5 97t-89.5 295zM272 639h412 q2 27 2 74q0 239 -158 239q-54 0 -98 -26t-74.5 -72.5t-50.5 -99t-33 -115.5zM455 1210l176 271h184l2 -6l-219 -265h-143z" />
<glyph unicode="&#xea;" d="M72 367q0 83 8 162t27 164.5t53.5 156.5t83 129t121.5 90.5t163 32.5q332 0 332 -387q0 -122 -16 -226h-592q-6 -65 -6 -108q0 -256 174 -256q88 0 150.5 69.5t76.5 170.5h170q-17 -108 -65.5 -194t-135 -141t-196.5 -55q-169 0 -258.5 97t-89.5 295zM272 639h412 q2 27 2 74q0 239 -158 239q-54 0 -98 -26t-74.5 -72.5t-50.5 -99t-33 -115.5zM299 1204l215 277h160l135 -277h-158l-67 162l-115 -162h-170z" />
<glyph unicode="&#xeb;" d="M72 367q0 83 8 162t27 164.5t53.5 156.5t83 129t121.5 90.5t163 32.5q332 0 332 -387q0 -122 -16 -226h-592q-6 -65 -6 -108q0 -256 174 -256q88 0 150.5 69.5t76.5 170.5h170q-17 -108 -65.5 -194t-135 -141t-196.5 -55q-169 0 -258.5 97t-89.5 295zM272 639h412 q2 27 2 74q0 239 -158 239q-54 0 -98 -26t-74.5 -72.5t-50.5 -99t-33 -115.5zM334 1286l26 195h179l-27 -195h-178zM641 1286l27 195h178l-27 -195h-178z" />
<glyph unicode="&#xec;" horiz-adv-x="466" d="M78 0l149 1077h168l-151 -1077h-166zM127 1475l2 6h184l140 -271h-144z" />
<glyph unicode="&#xed;" horiz-adv-x="466" d="M78 0l149 1077h168l-151 -1077h-166zM221 1210l176 271h187l2 -6l-221 -265h-144z" />
<glyph unicode="&#xee;" horiz-adv-x="466" d="M66 1204l215 277h159l135 -277h-157l-68 162l-114 -162h-170zM78 0l149 1077h168l-151 -1077h-166z" />
<glyph unicode="&#xef;" horiz-adv-x="466" d="M78 0l149 1077h168l-151 -1077h-166zM100 1286l27 195h178l-26 -195h-179zM408 1286l26 195h178l-26 -195h-178z" />
<glyph unicode="&#xf0;" d="M72 362q0 152 25 277.5t67 210t98.5 142.5t118 84t127.5 26q56 0 119 -25q-27 70 -90 172l-244 -20l16 123l148 12q-56 78 -80 109l4 8h180q59 -72 78 -101l244 23l-19 -123l-147 -14q151 -251 151 -547q0 -368 -125 -556t-329 -188q-342 0 -342 387zM246 381 q0 -131 39.5 -193.5t126.5 -62.5q51 0 94 25.5t71.5 65.5t50.5 95t34 109t19.5 113t10 101t2.5 79q0 239 -166 239q-59 0 -106.5 -32t-77 -85.5t-50 -114.5t-30.5 -129.5t-14 -118t-4 -91.5z" />
<glyph unicode="&#xf1;" d="M45 0l152 1077h131v-159q15 29 35 55.5t54 58.5t85.5 51t111.5 19q64 0 111 -20t73 -55.5t38 -76.5t12 -90q0 -29 -29 -244t-57 -416l-29 -200h-168q111 755 111 821q0 131 -123 131q-100 0 -167 -95t-89 -255l-84 -602h-168zM256 1268q14 81 59 141q55 72 138 72 q11 0 23 -1.5t20.5 -3t20.5 -5.5t18 -6.5t20 -7.5t18 -7q76 -33 113 -33q64 0 80 64h119q-12 -82 -63.5 -147.5t-133.5 -65.5q-47 0 -120 31.5t-113 31.5q-64 0 -80 -63h-119z" />
<glyph unicode="&#xf2;" d="M68 358q0 80 8 158t27 165t53.5 160t83 133t121.5 94t163 34q340 0 340 -387q0 -68 -5.5 -134.5t-20 -141t-36.5 -140t-58 -126t-82 -103.5t-111.5 -69t-142.5 -26q-340 0 -340 383zM242 381q0 -131 39.5 -193.5t126.5 -62.5q51 0 94 25.5t71.5 65.5t50.5 95t34 109 t19.5 113t10 101t2.5 79q0 239 -166 239q-59 0 -106.5 -32t-77 -85.5t-50 -114.5t-30.5 -129.5t-14 -118t-4 -91.5zM356 1475l4 6h185l137 -271h-141z" />
<glyph unicode="&#xf3;" d="M68 358q0 80 8 158t27 165t53.5 160t83 133t121.5 94t163 34q340 0 340 -387q0 -68 -5.5 -134.5t-20 -141t-36.5 -140t-58 -126t-82 -103.5t-111.5 -69t-142.5 -26q-340 0 -340 383zM242 381q0 -131 39.5 -193.5t126.5 -62.5q51 0 94 25.5t71.5 65.5t50.5 95t34 109 t19.5 113t10 101t2.5 79q0 239 -166 239q-59 0 -106.5 -32t-77 -85.5t-50 -114.5t-30.5 -129.5t-14 -118t-4 -91.5zM453 1210l176 271h184l2 -6l-219 -265h-143z" />
<glyph unicode="&#xf4;" d="M68 358q0 80 8 158t27 165t53.5 160t83 133t121.5 94t163 34q340 0 340 -387q0 -68 -5.5 -134.5t-20 -141t-36.5 -140t-58 -126t-82 -103.5t-111.5 -69t-142.5 -26q-340 0 -340 383zM242 381q0 -131 39.5 -193.5t126.5 -62.5q51 0 94 25.5t71.5 65.5t50.5 95t34 109 t19.5 113t10 101t2.5 79q0 239 -166 239q-59 0 -106.5 -32t-77 -85.5t-50 -114.5t-30.5 -129.5t-14 -118t-4 -91.5zM297 1204l215 277h160l135 -277h-158l-67 162l-115 -162h-170z" />
<glyph unicode="&#xf5;" d="M68 358q0 80 8 158t27 165t53.5 160t83 133t121.5 94t163 34q340 0 340 -387q0 -68 -5.5 -134.5t-20 -141t-36.5 -140t-58 -126t-82 -103.5t-111.5 -69t-142.5 -26q-340 0 -340 383zM242 381q0 -131 39.5 -193.5t126.5 -62.5q51 0 94 25.5t71.5 65.5t50.5 95t34 109 t19.5 113t10 101t2.5 79q0 239 -166 239q-59 0 -106.5 -32t-77 -85.5t-50 -114.5t-30.5 -129.5t-14 -118t-4 -91.5zM264 1268q14 80 60 141q55 72 137 72q11 0 23 -1.5t20.5 -3t21.5 -6t18 -6t20 -7.5t18 -7q76 -33 112 -33q64 0 78 64h121q-12 -81 -64 -147t-133 -66 q-48 0 -121 31.5t-112 31.5q-64 0 -80 -63h-119z" />
<glyph unicode="&#xf6;" d="M68 358q0 80 8 158t27 165t53.5 160t83 133t121.5 94t163 34q340 0 340 -387q0 -68 -5.5 -134.5t-20 -141t-36.5 -140t-58 -126t-82 -103.5t-111.5 -69t-142.5 -26q-340 0 -340 383zM242 381q0 -131 39.5 -193.5t126.5 -62.5q51 0 94 25.5t71.5 65.5t50.5 95t34 109 t19.5 113t10 101t2.5 79q0 239 -166 239q-59 0 -106.5 -32t-77 -85.5t-50 -114.5t-30.5 -129.5t-14 -118t-4 -91.5zM332 1286l26 195h179l-27 -195h-178zM639 1286l27 195h178l-27 -195h-178z" />
<glyph unicode="&#xf7;" horiz-adv-x="1124" d="M76 436l22 172h946l-22 -172h-946zM416 104l24 185h172l-24 -185h-172zM506 756l26 186h173l-27 -186h-172z" />
<glyph unicode="&#xf8;" horiz-adv-x="1026" d="M115 -66l80 142q-80 92 -80 282q0 80 8 158t27 165t53.5 160t83 133t121.5 94t163 34q107 0 181 -41l47 82h112l-82 -144q82 -97 82 -284q0 -68 -5.5 -134.5t-20 -141t-36.5 -140t-58 -126t-82 -103.5t-111.5 -69t-142.5 -26q-112 0 -183 39l-45 -80h-112zM289 381 q0 -63 10 -121l373 658q-40 34 -101 34q-59 0 -106.5 -32t-77 -85.5t-50 -114.5t-30.5 -129.5t-14 -118t-4 -91.5zM354 158q36 -33 101 -33q51 0 94 25.5t71.5 65.5t50.5 95t34 109t19.5 113t10 101t2.5 79q0 52 -10 104z" />
<glyph unicode="&#xf9;" d="M86 217q0 29 29 244t57 415l29 201h168q-111 -755 -111 -821q0 -131 123 -131q100 0 167 95t89 255l84 602h168l-152 -1077h-131v158q-14 -29 -34.5 -55.5t-55 -58t-86 -50.5t-111.5 -19q-64 0 -111 20t-72.5 55.5t-37.5 76.5t-12 90zM356 1475l4 6h185l137 -271h-141z " />
<glyph unicode="&#xfa;" d="M86 217q0 29 29 244t57 415l29 201h168q-111 -755 -111 -821q0 -131 123 -131q100 0 167 95t89 255l84 602h168l-152 -1077h-131v158q-14 -29 -34.5 -55.5t-55 -58t-86 -50.5t-111.5 -19q-64 0 -111 20t-72.5 55.5t-37.5 76.5t-12 90zM453 1210l176 271h184l2 -6 l-219 -265h-143z" />
<glyph unicode="&#xfb;" d="M86 217q0 29 29 244t57 415l29 201h168q-111 -755 -111 -821q0 -131 123 -131q100 0 167 95t89 255l84 602h168l-152 -1077h-131v158q-14 -29 -34.5 -55.5t-55 -58t-86 -50.5t-111.5 -19q-64 0 -111 20t-72.5 55.5t-37.5 76.5t-12 90zM297 1204l215 277h160l135 -277 h-158l-67 162l-115 -162h-170z" />
<glyph unicode="&#xfc;" d="M86 217q0 29 29 244t57 415l29 201h168q-111 -755 -111 -821q0 -131 123 -131q100 0 167 95t89 255l84 602h168l-152 -1077h-131v158q-14 -29 -34.5 -55.5t-55 -58t-86 -50.5t-111.5 -19q-64 0 -111 20t-72.5 55.5t-37.5 76.5t-12 90zM332 1286l26 195h179l-27 -195h-178 zM639 1286l27 195h178l-27 -195h-178z" />
<glyph unicode="&#xfd;" horiz-adv-x="839" d="M-45 -356l16 116h58q163 0 245 240l-178 1077h178l123 -860h9l331 860h181l-439 -1022q-33 -76 -63 -134.5t-69 -116t-79.5 -94.5t-90.5 -60t-105 -23q-73 0 -117 17zM432 1210l176 271h187l2 -6l-222 -265h-143z" />
<glyph unicode="&#xfe;" d="M-2 -373l258 1854h168l-76 -527q101 148 246 148q124 0 198 -100.5t74 -299.5q0 -143 -24 -264.5t-64.5 -205.5t-94 -143t-112.5 -86.5t-120 -27.5q-149 0 -215 144l-70 -492h-168zM276 356q0 -231 150 -231q62 0 111.5 45.5t78 112.5t47 151.5t25 154.5t6.5 130 q0 233 -151 233q-61 0 -109.5 -46.5t-77 -115.5t-47.5 -154t-26 -154.5t-7 -125.5z" />
<glyph unicode="&#xff;" horiz-adv-x="839" d="M-45 -356l16 116h58q163 0 245 240l-178 1077h178l123 -860h9l331 860h181l-439 -1022q-33 -76 -63 -134.5t-69 -116t-79.5 -94.5t-90.5 -60t-105 -23q-73 0 -117 17zM311 1286l29 195h176l-27 -195h-178zM618 1286l27 195h178l-26 -195h-179z" />
<glyph unicode="&#x152;" horiz-adv-x="1679" d="M82 473q0 76 8 158.5t27 177t48.5 181.5t76 168t104 141t138.5 95.5t175 35.5q200 0 289 -164l21 139h737l-25 -164h-557l-61 -440h467l-23 -164h-467l-65 -473h569l-24 -164h-750l21 139q-136 -164 -334 -164q-182 0 -278.5 125t-96.5 373zM268 481q0 -168 60 -254 t172 -86q67 0 124 31t96 81t70 119t49 140t29.5 149.5t16 141.5t4.5 121q0 168 -60 254t-172 86q-89 0 -159.5 -58.5t-112 -146t-69.5 -198t-38 -204.5t-10 -176z" />
<glyph unicode="&#x153;" horiz-adv-x="1585" d="M94 358q0 68 5.5 134.5t20 141.5t37 141t58.5 127t82 104.5t111.5 69.5t142.5 26q213 0 293 -156q116 156 311 156q332 0 332 -387q0 -115 -17 -226h-591q-7 -75 -7 -108q0 -256 175 -256q88 0 150.5 69.5t76.5 170.5h170q-17 -108 -65.5 -194t-135 -141t-196.5 -55 q-223 0 -304 160q-117 -160 -309 -160q-340 0 -340 383zM268 381q0 -131 39.5 -193.5t126.5 -62.5q51 0 94 25.5t71.5 65.5t50.5 95t34.5 109t20 113t10 101t2.5 79q0 239 -166 239q-51 0 -93.5 -24.5t-71 -63.5t-50.5 -92.5t-34.5 -106t-20.5 -110t-10.5 -98.5t-2.5 -76z M899 639h412q2 27 2 74q0 239 -158 239q-54 0 -98 -26t-74.5 -72.5t-50.5 -99t-33 -115.5z" />
<glyph unicode="&#x178;" horiz-adv-x="1120" d="M143 1405h197l256 -651h8l438 651h189l-569 -823l-82 -582h-181l82 582zM483 1614l29 194h176l-26 -194h-179zM791 1614l26 194h178l-26 -194h-178z" />
<glyph unicode="&#x2c6;" horiz-adv-x="559" d="M37 1204l215 277h160l135 -277h-158l-67 162l-115 -162h-170z" />
<glyph unicode="&#x2dc;" horiz-adv-x="559" d="M63 1268q14 83 58 141q55 72 137 72q11 0 23 -1.5t20.5 -3t21.5 -6t18 -6t20 -7.5t18 -7q76 -33 113 -33q63 0 79 64h119q-12 -82 -63 -147.5t-133 -65.5q-47 0 -120.5 31.5t-113.5 31.5q-64 0 -80 -63h-117z" />
<glyph unicode="&#x2000;" horiz-adv-x="918" />
<glyph unicode="&#x2001;" horiz-adv-x="1837" />
<glyph unicode="&#x2002;" horiz-adv-x="918" />
<glyph unicode="&#x2003;" horiz-adv-x="1837" />
<glyph unicode="&#x2004;" horiz-adv-x="612" />
<glyph unicode="&#x2005;" horiz-adv-x="459" />
<glyph unicode="&#x2006;" horiz-adv-x="306" />
<glyph unicode="&#x2007;" horiz-adv-x="306" />
<glyph unicode="&#x2008;" horiz-adv-x="229" />
<glyph unicode="&#x2009;" horiz-adv-x="367" />
<glyph unicode="&#x200a;" horiz-adv-x="102" />
<glyph unicode="&#x2010;" horiz-adv-x="559" d="M6 453l27 200h516l-27 -200h-516z" />
<glyph unicode="&#x2011;" horiz-adv-x="559" d="M6 453l27 200h516l-27 -200h-516z" />
<glyph unicode="&#x2012;" horiz-adv-x="559" d="M6 453l27 200h516l-27 -200h-516z" />
<glyph unicode="&#x2013;" d="M-10 477l20 154h932l-22 -154h-930z" />
<glyph unicode="&#x2014;" horiz-adv-x="1679" d="M-10 477l20 154h1680l-23 -154h-1677z" />
<glyph unicode="&#x2018;" horiz-adv-x="372" d="M174 930l29 203l131 272h112l-104 -254h68l-31 -221h-205z" />
<glyph unicode="&#x2019;" horiz-adv-x="372" d="M90 930l105 254h-68l31 221h204l-28 -203l-131 -272h-113z" />
<glyph unicode="&#x201a;" horiz-adv-x="372" d="M37 -254l104 254h-67l30 221h205l-28 -203l-131 -272h-113z" />
<glyph unicode="&#x201c;" horiz-adv-x="559" d="M111 930l28 203l131 272h113l-104 -254h67l-31 -221h-204zM387 930l29 203l131 272h112l-104 -254h68l-31 -221h-205z" />
<glyph unicode="&#x201d;" horiz-adv-x="559" d="M90 930l105 254h-68l31 221h204l-28 -203l-131 -272h-113zM367 930l104 254h-68l31 221h205l-29 -203l-131 -272h-112z" />
<glyph unicode="&#x201e;" horiz-adv-x="559" d="M37 -254l104 254h-67l30 221h205l-28 -203l-131 -272h-113zM313 -254l105 254h-68l31 221h205l-29 -203l-131 -272h-113z" />
<glyph unicode="&#x2022;" horiz-adv-x="587" d="M70 705q0 94 65.5 160.5t157.5 66.5q94 0 159.5 -66.5t65.5 -160.5t-66 -162t-159 -68q-92 0 -157.5 68t-65.5 162z" />
<glyph unicode="&#x2026;" horiz-adv-x="1679" d="M133 0l31 221h205l-31 -221h-205zM692 0l31 221h205l-31 -221h-205zM1249 0l31 221h205l-31 -221h-205z" />
<glyph unicode="&#x202f;" horiz-adv-x="367" />
<glyph unicode="&#x2039;" horiz-adv-x="559" d="M59 668l342 409h150l-289 -409l172 -410h-145z" />
<glyph unicode="&#x203a;" horiz-adv-x="559" d="M43 258l291 410l-174 409h145l232 -409l-344 -410h-150z" />
<glyph unicode="&#x205f;" horiz-adv-x="459" />
<glyph unicode="&#x20ac;" d="M8 498l21 133h114q0 15 9 71q2 19 10 72h-115l21 133h129q79 257 235.5 390t405.5 133q70 0 135 -21l-21 -145q-56 16 -110 16q-337 0 -471 -373h413l-20 -133h-432q-8 -53 -10 -72q-9 -56 -9 -71h432l-20 -133h-414q34 -373 369 -373q53 0 115 16l-21 -145 q-82 -21 -139 -21q-231 0 -360 136t-138 387h-129z" />
<glyph unicode="&#x2122;" horiz-adv-x="1679" d="M242 1305l14 100h555l-14 -100h-224l-102 -725h-106l102 725h-225zM782 578l117 827h162l78 -662h8l266 662h160l-117 -827h-106l96 688h-8l-277 -688h-96l-82 688h-8l-96 -688h-97z" />
<glyph unicode="&#x25fc;" horiz-adv-x="1075" d="M0 0v1075h1075v-1075h-1075z" />
<glyph unicode="&#xfb01;" horiz-adv-x="839" d="M-182 -348l16 117h90q47 0 75 25.5t34 72.5l139 1061h-94l20 149h95l24 172q6 49 22.5 91t45.5 78.5t75 57.5t105 21q71 0 137 -24l-16 -117h-90q-47 0 -76 -26t-35 -73l-25 -180h187l-21 -149h-186l-139 -1053q-14 -105 -74 -176.5t-172 -71.5q-68 0 -137 25zM500 0 l149 1077h168l-151 -1077h-166zM678 1280l27 201h167l-26 -201h-168z" />
<glyph unicode="&#xfb02;" horiz-adv-x="839" d="M-182 -348l16 117h90q47 0 75 25.5t34 72.5l139 1061h-94l20 149h95l24 172q6 49 22.5 91t45.5 78.5t75 57.5t105 21q71 0 137 -24l-16 -117h-90q-47 0 -76 -26t-35 -73l-25 -180h187l-21 -149h-186l-139 -1053q-14 -105 -74 -176.5t-172 -71.5q-68 0 -137 25zM500 0 l205 1481h167l-206 -1481h-166z" />
</font>
</defs>
</svg>
