<?xml version="1.0" standalone="no"?>
<!DOCTYPE svg PUBLIC "-//W3C//DTD SVG 1.1//EN" "http://www.w3.org/Graphics/SVG/1.1/DTD/svg11.dtd" >
<svg xmlns="http://www.w3.org/2000/svg" xmlns:xlink="http://www.w3.org/1999/xlink" version="1.1">
<metadata></metadata>
<defs>
<font id="archivo_narrowbold_italic" horiz-adv-x="933" >
<font-face units-per-em="2048" ascent="1638" descent="-410" />
<missing-glyph horiz-adv-x="466" />
<glyph horiz-adv-x="0" />
<glyph horiz-adv-x="682" />
<glyph unicode="&#xd;" horiz-adv-x="0" />
<glyph unicode=" "  horiz-adv-x="466" />
<glyph unicode="&#x09;" horiz-adv-x="466" />
<glyph unicode="&#xa0;" horiz-adv-x="466" />
<glyph unicode="!" horiz-adv-x="559" d="M70 0l41 281h282l-41 -281h-282zM182 403l70 1002h313l-215 -1002h-168z" />
<glyph unicode="&#x22;" horiz-adv-x="796" d="M172 834v270l43 301h250l-43 -301l-88 -270h-162zM543 834v270l43 301h250l-43 -301l-88 -270h-162z" />
<glyph unicode="#" d="M45 399v172h168l63 289h-151v172h190l91 398h180l-90 -398h153l90 398h181l-91 -398h127v-172h-165l-64 -289h150v-172h-189l-90 -399h-180l90 399h-154l-90 -399h-180l90 399h-129zM393 571h154l63 289h-153z" />
<glyph unicode="$" d="M49 416q0 21 3 45t6 37l3 14h234q-8 -35 -8 -51q0 -106 100 -131l41 291q-38 15 -58 23.5t-54.5 26.5t-54 32.5t-44.5 39t-38 50t-22.5 60.5t-9.5 75q0 101 51 176.5t134 114t188 43.5l31 219h100l-30 -221q78 -10 135 -41t88.5 -78.5t46 -100.5t14.5 -116h-231 q0 59 -17 96t-63 51l-39 -266q44 -16 66.5 -25t61 -27t59.5 -32.5t48 -38.5t40.5 -49t23.5 -59t10 -74q0 -93 -33 -164t-90 -113t-127.5 -63t-152.5 -23l-33 -237h-100l32 241q-146 17 -228.5 89t-82.5 186zM385 956q0 -66 76 -108l33 227q-47 -9 -78 -41t-31 -78zM487 322 q55 7 94.5 38.5t39.5 88.5q0 42 -25.5 72.5t-71.5 56.5z" />
<glyph unicode="%" horiz-adv-x="1492" d="M139 944q0 104 17 187.5t46.5 138.5t71 91.5t88 52.5t99.5 16q128 0 194 -58.5t66 -197.5q0 -66 -7.5 -127t-29 -128t-56 -116t-93.5 -81t-136 -32q-129 0 -194.5 58t-65.5 196zM160 0l1054 1405h177l-1057 -1405h-174zM319 954q0 -114 80 -114q58 0 87 52t42 152 q11 87 11 121q0 115 -78 115q-57 0 -85.5 -52t-43.5 -153q-13 -82 -13 -121zM829 229q0 104 17 187.5t46.5 138.5t71 91.5t88 52.5t99.5 16q128 0 194 -58.5t66 -197.5q0 -66 -7.5 -127t-29 -128t-55.5 -116t-93 -81t-136 -32q-129 0 -195 58t-66 196zM1010 240 q0 -115 80 -115q58 0 87 52.5t42 152.5q10 79 10 121q0 114 -78 114q-57 0 -85.5 -52t-43.5 -153q-12 -76 -12 -120z" />
<glyph unicode="&#x26;" horiz-adv-x="1212" d="M66 317q0 158 82.5 267.5t205.5 136.5v8q-168 87 -168 258q0 139 68 241t180 152t254 50q188 0 302 -89t114 -239q0 -21 -12 -115h-244q8 53 8 80q0 156 -180 156q-109 0 -173.5 -63t-64.5 -167q0 -82 47 -129t125 -47h84l-28 -207h-78q-52 0 -96 -11.5t-84 -39t-63 -80 t-23 -125.5q0 -172 198 -172q107 0 168.5 54t75.5 155l59 426h404l-29 -207h-160l-28 -213q-25 -195 -157.5 -308.5t-344.5 -113.5q-202 0 -322 91t-120 251z" />
<glyph unicode="'" horiz-adv-x="399" d="M172 834v270l43 301h250l-43 -301l-88 -270h-162z" />
<glyph unicode="(" horiz-adv-x="559" d="M70 375q0 100 16 215q35 252 147.5 489t286.5 426h162q-171 -250 -278 -553.5t-107 -586.5q0 -182 34.5 -361.5t94.5 -325.5h-162q-194 301 -194 697z" />
<glyph unicode=")" horiz-adv-x="559" d="M-96 -322q171 250 278 554t107 587q0 182 -34.5 361t-94.5 325h162q194 -301 194 -696q0 -100 -16 -215q-35 -252 -148 -489.5t-286 -426.5h-162z" />
<glyph unicode="*" horiz-adv-x="653" d="M96 1006l201 86l-176 90l98 135l156 -121l8 209h160l-49 -207l188 119l61 -135l-204 -90l180 -86l-101 -140l-155 123l-8 -209h-160l49 209l-188 -123z" />
<glyph unicode="+" horiz-adv-x="980" d="M51 416l31 213h315l58 418h211l-58 -418h318l-31 -213h-317l-58 -416h-211l58 416h-316z" />
<glyph unicode="," horiz-adv-x="466" d="M-12 -319l149 319h-104l39 281h282l-35 -256l-184 -344h-147z" />
<glyph unicode="-" horiz-adv-x="559" d="M27 432l34 242h494l-35 -242h-493z" />
<glyph unicode="." horiz-adv-x="466" d="M31 0l39 281h282l-39 -281h-282z" />
<glyph unicode="/" horiz-adv-x="466" d="M-86 -100l516 1605h174l-516 -1605h-174z" />
<glyph unicode="0" d="M68 408q0 122 24 294q28 210 72.5 354t106.5 225t134.5 115t167.5 34q83 0 143.5 -21.5t107.5 -70.5t70.5 -135.5t23.5 -209.5q0 -129 -23 -291q-29 -210 -74 -354t-107.5 -224.5t-135 -114.5t-166.5 -34q-83 0 -144 21.5t-107.5 70t-69.5 134t-23 207.5zM309 362 q0 -94 26 -137t85 -43q88 0 132.5 102.5t78.5 346.5q43 302 43 393q0 103 -24.5 151t-84.5 48q-61 0 -101 -50.5t-64 -143t-46 -255.5q-4 -31 -14 -97.5t-15.5 -106.5t-10.5 -98.5t-5 -109.5z" />
<glyph unicode="1" d="M25 0l26 207h311l125 876h-315l23 164q92 9 225 54t235 104h119l-168 -1198h287l-29 -207h-839z" />
<glyph unicode="2" d="M-8 0l8 49q17 101 64 195.5t107.5 168t130.5 143.5t136 134.5t120 127t87 134t33 144.5q0 51 -27.5 87t-85.5 36q-71 0 -114 -60t-54 -153l-10 -84h-248q0 138 50 251.5t154 185t245 71.5q157 0 250.5 -75t97.5 -229q0 -89 -26.5 -175.5t-71.5 -159.5t-99.5 -140.5 t-115.5 -127.5t-114.5 -110.5t-101.5 -99.5t-71 -84h483l-33 -229h-794z" />
<glyph unicode="3" d="M49 315q0 37 10 119h254q-10 -79 -10 -100q0 -73 32.5 -112.5t96.5 -39.5q81 0 132.5 69.5t51.5 201.5q0 157 -139 157h-67l28 207h72q68 0 120 73t52 202q0 131 -104 131q-66 0 -106.5 -56t-57.5 -180h-252q12 141 72.5 243t150 151t197.5 49q166 0 261 -82.5t95 -237.5 q0 -145 -61.5 -235t-167.5 -146v-8q74 -31 117.5 -99t43.5 -171q0 -143 -60 -252.5t-160 -166.5t-222 -57q-184 0 -281.5 90t-97.5 250z" />
<glyph unicode="4" d="M6 317l29 197q236 341 471 916h250q-86 -242 -250.5 -516.5t-261.5 -389.5h291l34 250q51 79 105.5 189t83.5 192h108l-90 -631h144l-29 -207h-141l-45 -317h-244l45 317h-500z" />
<glyph unicode="5" d="M49 344q0 42 6 92h254q-6 -40 -6 -74q0 -86 33 -134t94 -48q79 0 140 94.5t61 257.5q0 86 -31 133.5t-82 47.5q-98 0 -166 -119l-231 33l155 778h674l-32 -229h-459l-68 -332q94 69 209 69q128 0 206.5 -87.5t78.5 -256.5q0 -138 -36.5 -251.5t-99.5 -187.5 t-147.5 -114.5t-181.5 -40.5q-173 0 -272 98t-99 271z" />
<glyph unicode="6" d="M78 414q0 107 18 248q29 216 74.5 366.5t108.5 238t136.5 125.5t166.5 38q168 0 249.5 -93t81.5 -252q0 -60 -8 -112h-250q9 59 9 104q0 146 -97 146q-31 0 -56 -13.5t-44.5 -43.5t-34 -65t-27.5 -91.5t-22 -108t-21 -129.5q41 52 102.5 81.5t127.5 29.5q140 0 211 -92 t71 -250q0 -252 -125.5 -409t-308.5 -157q-178 0 -270 101.5t-92 337.5zM324 354q0 -79 28.5 -125.5t85.5 -46.5q51 0 89 37t57 92.5t28 106.5t9 94q0 79 -28 124.5t-85 45.5q-81 0 -132.5 -93t-51.5 -235z" />
<glyph unicode="7" d="M141 0q23 163 81 332t138 320t170.5 282t188.5 242h-567l32 229h832l-25 -166q-492 -633 -559 -1135q-3 -22 -6.5 -53.5t-5.5 -50.5h-279z" />
<glyph unicode="8" d="M43 305q0 134 58 248t173 168q-110 77 -110 242q0 126 46.5 231t141.5 170.5t221 65.5q171 0 259 -94t88 -234q0 -110 -54 -215.5t-147 -165.5q137 -76 137 -260q0 -98 -28 -185t-81.5 -154.5t-139.5 -107t-193 -39.5q-188 0 -279.5 90t-91.5 240zM297 334 q0 -75 32.5 -114.5t92.5 -39.5q82 0 133 74t51 207q0 155 -123 155q-49 0 -86.5 -26.5t-58.5 -69.5t-31 -90.5t-10 -95.5zM408 961q0 -142 104 -142q68 0 114 70.5t46 197.5q0 67 -27.5 102.5t-77.5 35.5q-56 0 -93.5 -44.5t-51.5 -101t-14 -118.5z" />
<glyph unicode="9" d="M78 319q0 61 8 113h250q-8 -52 -8 -104q0 -73 22.5 -109.5t73.5 -36.5q31 0 56 13.5t44.5 43.5t34 65t27.5 91.5t22 108t21 129.5q-41 -52 -102.5 -81.5t-127.5 -29.5q-140 0 -211 92t-71 250q0 252 125.5 409t308.5 157q178 0 270 -101.5t92 -337.5q0 -107 -18 -248 q-29 -216 -74.5 -366.5t-108 -238t-136 -125.5t-166.5 -38q-168 0 -250 92.5t-82 251.5zM371 893q0 -80 27.5 -125t84.5 -45q81 0 133 93t52 235q0 79 -29 125.5t-86 46.5q-51 0 -89 -36.5t-57 -92.5t-27.5 -107t-8.5 -94z" />
<glyph unicode=":" horiz-adv-x="559" d="M47 0l39 281h283l-39 -281h-283zM158 797l39 280h282l-39 -280h-282z" />
<glyph unicode=";" horiz-adv-x="559" d="M10 -319l150 319h-105l39 281h283l-35 -256l-184 -344h-148zM170 797l39 280h283l-39 -280h-283z" />
<glyph unicode="&#x3c;" horiz-adv-x="980" d="M51 403l35 261l903 423l-33 -241l-680 -311l592 -312l-32 -241z" />
<glyph unicode="=" horiz-adv-x="980" d="M20 197l31 211h844l-31 -211h-844zM82 631l31 213h843l-30 -213h-844z" />
<glyph unicode="&#x3e;" horiz-adv-x="980" d="M-6 -18l31 241l682 312l-594 311l32 241l785 -423l-35 -261z" />
<glyph unicode="?" horiz-adv-x="1026" d="M137 940q0 98 31 186t88 156t146.5 108t199.5 40q175 0 275 -84t100 -224q0 -105 -32 -189.5t-79 -140t-95 -103.5t-87.5 -106t-48.5 -122l-8 -58h-256l12 89q9 64 46 124.5t82 110t89.5 100t74.5 114t30 132.5q0 23 -5.5 44.5t-18.5 43.5t-40 35.5t-66 13.5 q-50 0 -87 -25t-56.5 -66.5t-29 -86.5t-9.5 -92h-256zM303 0l41 281h281l-41 -281h-281z" />
<glyph unicode="@" horiz-adv-x="1638" d="M68 397q0 250 60.5 446t174 324.5t274 195.5t361.5 67q116 0 210 -17t163.5 -47t121 -76.5t84.5 -101t53 -125.5t28 -144.5t8 -162.5q0 -102 -16 -200t-52.5 -191.5t-89 -164t-131.5 -113t-174 -42.5q-163 0 -223 113q-37 -55 -93 -84t-108 -29q-126 0 -195 87.5 t-69 258.5q0 137 21 250.5t56.5 191.5t83 131.5t100.5 78t109 24.5q148 0 203 -139l39 116h172q0 -1 -18 -117t-38.5 -248.5t-37.5 -248.5t-17 -125q0 -42 19 -62t61 -20q67 0 119 55t81 139.5t43.5 171.5t14.5 165q0 135 -24.5 232t-81 168.5t-152.5 106.5t-235 35 q-111 0 -207.5 -20.5t-183.5 -63.5t-155 -114.5t-117.5 -169t-76 -231t-26.5 -296.5q0 -583 569 -583q82 0 149.5 10t94.5 20l27 11l-17 -138q-29 -10 -99 -23t-136 -13q-727 0 -727 712zM676 420q0 -184 100 -184q44 0 79 35t55 86t33 116.5t17.5 120t4.5 102.5 q0 91 -21.5 136t-77.5 45q-54 0 -94 -54.5t-59.5 -135t-28 -148.5t-8.5 -119z" />
<glyph unicode="A" horiz-adv-x="1212" d="M-53 0l643 1405h301l252 -1405h-266l-46 276h-501l-121 -276h-262zM434 510h359l-62 385q-7 47 -13 115t-8 112l-3 45h-9q-49 -172 -94 -272z" />
<glyph unicode="B" horiz-adv-x="1212" d="M57 0l197 1405h584q158 0 255 -85.5t97 -225.5q0 -128 -76 -224.5t-184 -132.5l-2 -8q90 -32 145 -114t55 -197q0 -125 -67 -222.5t-170.5 -146.5t-220.5 -49h-613zM348 233h309q90 0 148.5 56t58.5 157q0 71 -44 114.5t-130 43.5h-289zM434 836h273q96 0 153.5 57 t57.5 137q0 69 -38.5 105t-107.5 36h-291z" />
<glyph unicode="C" horiz-adv-x="1212" d="M92 512q0 135 20.5 262t68.5 247.5t118.5 210t179.5 144t244 54.5q226 0 354.5 -132.5t128.5 -388.5v-26h-266v37q0 136 -57.5 210t-159.5 74q-72 0 -131 -32t-97.5 -87.5t-67 -123t-43.5 -147t-21.5 -150.5t-6.5 -142q0 -155 58 -238t174 -83q129 0 206.5 88.5 t108.5 230.5h256q-25 -114 -71 -209.5t-115 -172t-169.5 -120t-221.5 -43.5q-236 0 -363 134t-127 403z" />
<glyph unicode="D" horiz-adv-x="1212" d="M57 0l197 1405h432q236 0 365 -135.5t129 -397.5q0 -84 -11 -168.5t-35 -171t-59 -164t-87.5 -145.5t-116.5 -117t-148.5 -77.5t-181.5 -28.5h-484zM350 233h168q90 0 161 41.5t114.5 106t71.5 149.5t39 164.5t11 159.5q0 156 -69.5 236.5t-196.5 80.5h-168z" />
<glyph unicode="E" horiz-adv-x="1120" d="M57 0l197 1405h885l-33 -234h-625l-47 -335h537l-33 -234h-537l-53 -369h639l-33 -233h-897z" />
<glyph unicode="F" horiz-adv-x="1026" d="M57 0l199 1405h815l-31 -234h-559l-49 -354h475l-33 -233h-475l-82 -584h-260z" />
<glyph unicode="G" horiz-adv-x="1306" d="M92 512q0 129 21.5 254t72 246.5t124.5 213t188 148t254 56.5q237 0 370 -130.5t133 -384.5h-266v19q0 130 -60.5 200t-166.5 70q-68 0 -126 -24.5t-99 -65t-73 -97t-52 -117t-33 -129t-18 -129t-5 -120.5q0 -321 252 -321q141 0 223.5 89.5t108.5 248.5h-313l32 225h578 l-107 -764h-167l-25 156q-153 -181 -387 -181q-222 0 -340.5 134t-118.5 403z" />
<glyph unicode="H" horiz-adv-x="1212" d="M57 0l197 1405h260l-80 -569h438l78 569h260l-196 -1405h-260l86 602h-439l-84 -602h-260z" />
<glyph unicode="I" horiz-adv-x="466" d="M37 0l196 1405h261l-197 -1405h-260z" />
<glyph unicode="J" d="M4 264q0 23 21 178h247q-14 -98 -14 -118q0 -123 127 -123q121 0 143 153l148 1051h260l-152 -1071q-25 -175 -127.5 -267t-271.5 -92q-184 0 -282.5 74.5t-98.5 214.5z" />
<glyph unicode="K" horiz-adv-x="1212" d="M57 0l197 1405h262l-98 -692l590 692h307l-498 -576l313 -829h-286l-221 629l-254 -271l-50 -358h-262z" />
<glyph unicode="L" horiz-adv-x="1026" d="M57 0l197 1405h260l-162 -1159h588l-35 -246h-848z" />
<glyph unicode="M" horiz-adv-x="1398" d="M43 0l197 1405h362l64 -774q4 -41 7.5 -120.5t4.5 -138.5l2 -59h8q61 244 92 326l277 766h354l-197 -1405h-239l125 895q4 28 14 84.5t18 98.5l9 42h-8l-400 -1120h-225l-88 1120h-8q-13 -170 -21 -225l-127 -895h-221z" />
<glyph unicode="N" horiz-adv-x="1212" d="M57 0l197 1405h229l322 -774l45 -131l6 6q10 94 14 117l109 782h231l-196 -1405h-232l-321 774l-45 131l-8 -6q-7 -80 -13 -117l-108 -782h-230z" />
<glyph unicode="O" horiz-adv-x="1306" d="M92 512q0 129 21.5 254t72 246.5t124.5 213t188.5 148t255.5 56.5q251 0 386.5 -134.5t135.5 -404.5q0 -129 -22 -254t-73 -246t-125.5 -212.5t-189 -147.5t-254.5 -56q-251 0 -385.5 134t-134.5 403zM356 522q0 -155 61 -238t185 -83q95 0 169 46.5t117.5 117.5t72 165 t39 179.5t10.5 171.5q0 156 -61.5 239.5t-184.5 83.5q-80 0 -145.5 -32t-108.5 -87.5t-74.5 -123t-48 -147t-24 -150.5t-7.5 -142z" />
<glyph unicode="P" horiz-adv-x="1120" d="M57 0l197 1405h485q192 0 291.5 -99t99.5 -264q0 -221 -133.5 -359t-334.5 -138h-269l-78 -545h-258zM426 776h221q96 0 155.5 60.5t59.5 164.5q0 78 -45 124t-125 46h-211z" />
<glyph unicode="Q" horiz-adv-x="1306" d="M92 512q0 129 21.5 254t72 246.5t124.5 213t188.5 148t255.5 56.5q251 0 386.5 -134.5t135.5 -404.5q0 -129 -23.5 -255.5t-70.5 -245.5t-128.5 -214.5t-187.5 -146.5l230 -283h-318l-172 229q-248 2 -381 136t-133 401zM356 522q0 -155 61 -238t185 -83q95 0 169 46.5 t117.5 117.5t72 165t39 179.5t10.5 171.5q0 156 -61.5 239.5t-184.5 83.5q-80 0 -145.5 -32t-108.5 -87.5t-74.5 -123t-48 -147t-24 -150.5t-7.5 -142z" />
<glyph unicode="R" horiz-adv-x="1212" d="M57 0l197 1405h551q198 0 300.5 -93.5t102.5 -252.5q0 -151 -80 -263.5t-217 -158.5l189 -637h-281l-164 586h-258l-80 -586h-260zM430 817h277q103 0 162 55t59 150q0 149 -162 149h-285z" />
<glyph unicode="S" horiz-adv-x="1120" d="M63 352q0 70 11 125h270q-10 -40 -10 -98q0 -24 4.5 -46t18.5 -47t36.5 -43t62 -30t91.5 -12q104 0 163.5 53.5t59.5 128.5q0 58 -33 103t-85 75.5t-115.5 58t-127 60t-115.5 73t-85 105t-33 148.5q0 64 15.5 123t51.5 114.5t89.5 96.5t135.5 65.5t183 24.5 q103 0 181 -23.5t126.5 -62.5t78.5 -97t41.5 -119.5t11.5 -136.5h-265q0 95 -46.5 153t-141.5 58q-18 0 -37 -2t-47.5 -11t-49.5 -23.5t-36.5 -42.5t-15.5 -66q0 -51 32.5 -90t84.5 -65.5t115 -52t126.5 -59t115.5 -76.5t84.5 -114.5t32.5 -163.5q0 -215 -144 -338 t-368 -123q-65 0 -128.5 12.5t-125.5 41t-108.5 71t-75.5 107.5t-29 145z" />
<glyph unicode="T" horiz-adv-x="1026" d="M131 1171l33 234h950l-33 -234h-346l-164 -1171h-258l164 1171h-346z" />
<glyph unicode="U" horiz-adv-x="1212" d="M121 360q0 43 34.5 304t69.5 501l35 240h260q-137 -940 -137 -997q0 -101 50.5 -154t144.5 -53q101 0 163.5 67.5t81.5 196.5l131 940h260l-133 -948q-34 -235 -164.5 -358.5t-338.5 -123.5q-220 0 -338.5 98.5t-118.5 286.5z" />
<glyph unicode="V" horiz-adv-x="1120" d="M137 1405h266l146 -999h8l426 999h262l-620 -1405h-260z" />
<glyph unicode="W" horiz-adv-x="1585" d="M137 1405h258l43 -1061h8q34 138 54 197l286 864h297l45 -1061h9q30 127 53 197l285 864h229l-483 -1405h-277l-63 895q-2 25 -2 84l2 115h-11q-33 -140 -53 -199l-299 -895h-276z" />
<glyph unicode="X" horiz-adv-x="1120" d="M-59 0l510 733l-279 672h287l168 -428h8l280 428h291l-469 -672l310 -733h-291l-195 487h-8l-328 -487h-284z" />
<glyph unicode="Y" horiz-adv-x="1120" d="M137 1405h266l203 -617h8l367 617h264l-545 -875l-75 -530h-258l73 530z" />
<glyph unicode="Z" horiz-adv-x="1026" d="M-25 0l9 100l702 1071h-512l33 234h876l-8 -102l-704 -1070h569l-33 -233h-932z" />
<glyph unicode="[" horiz-adv-x="559" d="M-12 -330l254 1835h407l-26 -194h-170l-203 -1446h170l-27 -195h-405z" />
<glyph unicode="\" horiz-adv-x="466" d="M119 1505h166l118 -1605h-167z" />
<glyph unicode="]" horiz-adv-x="559" d="M-53 -330l26 195h168l203 1446h-170l27 194h407l-256 -1835h-405z" />
<glyph unicode="^" horiz-adv-x="980" d="M8 602l432 803h219l209 -803h-225l-129 553l-270 -553h-236z" />
<glyph unicode="_" d="M-90 -270l16 141h932l-18 -141h-930z" />
<glyph unicode="`" horiz-adv-x="559" d="M176 1475l4 6h246l137 -271h-203z" />
<glyph unicode="a" d="M45 356q0 188 35 335t93.5 234.5t129.5 132t150 44.5q162 0 225 -154l41 129h190q-127 -814 -127 -837q0 -58 49 -58h37l-24 -174q-59 -33 -121 -33q-67 0 -111 38t-59 106q-38 -71 -97.5 -107.5t-119.5 -36.5q-139 0 -215 96.5t-76 284.5zM289 389q0 -203 110 -203 q49 0 87.5 38.5t60.5 95t36.5 128.5t19.5 131.5t5 112.5q0 100 -24 149.5t-84 49.5q-48 0 -87 -41t-61 -101t-37 -132.5t-20.5 -129t-5.5 -98.5z" />
<glyph unicode="b" horiz-adv-x="1026" d="M47 0l205 1481h244l-72 -510q45 61 112.5 96t143.5 35q128 0 202 -96.5t74 -290.5q0 -62 -6 -128t-20.5 -139.5t-36 -140t-55 -128t-75.5 -106.5t-100 -71.5t-126 -26.5q-186 0 -250 168l-49 -143h-191zM348 385q0 -186 133 -186q56 0 99 38.5t66 94t37.5 128t19 128.5 t4.5 108q0 92 -30 137.5t-97 45.5q-55 0 -98 -37.5t-67.5 -92t-40 -125.5t-21 -129t-5.5 -110z" />
<glyph unicode="c" d="M74 352q0 77 5.5 148t20 148t37.5 141.5t60.5 123.5t86 100t117 65t150.5 24q175 0 254.5 -98t79.5 -302v-30h-250v30q0 99 -22.5 146t-80.5 47q-50 0 -89 -45.5t-60.5 -109t-35.5 -139.5t-18.5 -127.5t-4.5 -82.5q0 -109 23.5 -159t86.5 -50q62 0 105 60.5t63 156.5h244 q-16 -73 -38 -132t-57.5 -115t-80.5 -93.5t-110 -60.5t-144 -23q-342 0 -342 377z" />
<glyph unicode="d" horiz-adv-x="1026" d="M74 356q0 188 36 335t96.5 234.5t134 132t155.5 44.5q163 0 227 -141l76 520h241l-204 -1481h-199v156q-107 -181 -270 -181q-140 0 -216.5 97t-76.5 284zM322 381q0 -92 30 -137t99 -45q55 0 97.5 37.5t66.5 92t39.5 125t20.5 128t5 110.5q0 187 -125 187 q-58 0 -102 -38.5t-68 -94t-39 -128.5t-19.5 -129t-4.5 -108z" />
<glyph unicode="e" d="M68 352q0 80 6 153.5t21.5 150t39 140.5t61 122t86 97.5t116 63t147.5 23.5q334 0 334 -367q0 -134 -23 -258h-539q-4 -43 -4 -94q0 -107 26.5 -158t86.5 -51q58 0 97.5 56t58.5 143h252q-91 -398 -418 -398q-175 0 -261.5 93t-86.5 284zM344 655h283q4 59 4 80 q0 85 -23.5 126.5t-77.5 41.5q-129 0 -186 -248z" />
<glyph unicode="f" horiz-adv-x="559" d="M-174 -348l27 182h90q92 0 104 98l123 938h-107l29 207h107l18 131q8 57 27.5 106t53 91.5t88 67t124.5 24.5q94 0 172 -24l-27 -183h-98q-41 0 -66.5 -22.5t-31.5 -65.5l-17 -125h185l-29 -207h-184l-127 -954q-7 -57 -26 -106t-51.5 -91.5t-86 -67t-121.5 -24.5 q-91 0 -176 25z" />
<glyph unicode="g" horiz-adv-x="1026" d="M14 -49h250q0 -55 31 -86t98 -31q171 0 205 217l16 111q-44 -60 -108.5 -96.5t-134.5 -36.5q-131 0 -214 88.5t-83 265.5q0 60 6 124t20.5 135.5t36 136.5t55.5 124.5t76 103t100 69.5t126 26q182 0 249 -168l48 143h192l-137 -977q-35 -247 -151 -360t-318 -113 q-175 0 -269 93t-94 231zM324 401q0 -79 34 -120t99 -41t112 49.5t70 126t33 145.5t10 131q0 187 -133 187q-56 0 -98.5 -37t-66 -90t-38 -123.5t-18.5 -124t-4 -103.5z" />
<glyph unicode="h" horiz-adv-x="1026" d="M47 0l205 1481h244l-74 -516q111 137 266 137q127 0 193.5 -73t66.5 -204q0 -10 -0.5 -17t-1.5 -21.5t-3 -30t-6.5 -48t-9.5 -68.5t-13.5 -100t-18.5 -134.5t-24.5 -179t-30.5 -226.5h-242q100 723 100 743q0 71 -27.5 103.5t-90.5 32.5q-73 0 -128.5 -61.5t-70.5 -170.5 l-90 -647h-244z" />
<glyph unicode="i" horiz-adv-x="466" d="M47 0l150 1077h243l-149 -1077h-244zM221 1257l31 224h244l-31 -224h-244z" />
<glyph unicode="j" horiz-adv-x="466" d="M-184 -348l24 182h88q93 0 109 98l158 1145h243l-162 -1161q-8 -58 -26 -106t-50.5 -91t-85.5 -67.5t-122 -24.5q-95 0 -176 25zM221 1257l31 224h242l-31 -224h-242z" />
<glyph unicode="k" d="M47 0l205 1481h244l-113 -807l340 403h276l-376 -442l241 -635h-258l-155 440l-115 -112l-45 -328h-244z" />
<glyph unicode="l" horiz-adv-x="466" d="M45 0l205 1481h244l-205 -1481h-244z" />
<glyph unicode="m" horiz-adv-x="1492" d="M49 0l152 1077h198v-139q105 164 271 164q184 0 227 -176q113 176 283 176q117 0 178 -73t61 -204q0 -40 -43 -349q-36 -265 -65 -476h-244q31 221 67 482q35 250 35 278q0 119 -100 119q-64 0 -115 -61t-65 -171l-86 -647h-244q98 727 99 740q1 9 1 20q0 119 -98 119 q-66 0 -115.5 -61t-64.5 -171l-88 -647h-244z" />
<glyph unicode="n" horiz-adv-x="1026" d="M47 0l150 1077h198v-143q113 168 293 168q127 0 193.5 -73t66.5 -204q0 -10 -0.5 -17t-1.5 -21.5t-3 -30t-6.5 -48t-9.5 -68.5t-13.5 -100t-18.5 -134.5t-24.5 -179t-30.5 -226.5h-242q100 739 100 743q0 71 -27.5 103.5t-90.5 32.5q-73 0 -130 -61.5t-71 -170.5 l-88 -647h-244z" />
<glyph unicode="o" horiz-adv-x="1026" d="M74 369q0 72 6 140.5t21.5 143t39.5 138.5t63 122t89.5 99t121.5 65.5t156 24.5q381 0 381 -400q0 -72 -6 -140t-21.5 -142t-39.5 -137.5t-63 -121t-89.5 -98t-121.5 -64.5t-156 -24q-381 0 -381 394zM326 375q0 -97 33 -145t104 -48q46 0 84 25t62 63.5t42 92t27 101.5 t14.5 101.5t6.5 83t1 53.5q0 193 -137 193q-46 0 -84 -25t-62 -63.5t-42 -92t-27 -101.5t-14.5 -101.5t-6.5 -83t-1 -53.5z" />
<glyph unicode="p" horiz-adv-x="1026" d="M0 -352l197 1429h198v-157q103 182 271 182q140 0 216 -97t76 -284q0 -151 -23.5 -276.5t-63.5 -211t-94.5 -145t-114.5 -86.5t-125 -27q-162 0 -230 142l-65 -469h-242zM352 385q0 -92 31.5 -139t101.5 -47q56 0 99 38.5t66 94t37.5 128t19 128.5t4.5 108 q0 92 -30 137.5t-99 45.5q-68 0 -116.5 -54t-71.5 -138t-32.5 -158.5t-9.5 -143.5z" />
<glyph unicode="q" horiz-adv-x="1026" d="M74 362q0 62 6 128t20.5 139.5t36 140t55.5 128t76 106.5t100 71.5t126 26.5q182 0 249 -168l48 143h192l-197 -1429h-243l61 458q-43 -62 -110.5 -96.5t-143.5 -34.5q-128 0 -202 96.5t-74 290.5zM324 381q0 -92 30 -137t97 -45q55 0 98 37.5t67 92t40 125t21 128 t5 110.5q0 187 -133 187q-56 0 -98.5 -38.5t-66 -94t-38 -128.5t-18.5 -128.5t-4 -108.5z" />
<glyph unicode="r" horiz-adv-x="653" d="M47 0l150 1077h198v-164q41 83 93 136t128 53q28 0 53 -4t35 -8l11 -5l-31 -237h-78q-89 0 -151.5 -57.5t-81.5 -190.5l-84 -600h-242z" />
<glyph unicode="s" d="M45 254q0 21 3 45t6 37l3 14h250q-8 -35 -8 -51q0 -123 152 -123q50 0 91.5 28t41.5 83q0 43 -24.5 73.5t-63 49.5t-85.5 37t-94.5 41.5t-86 56t-63 89t-24.5 132.5q0 107 55.5 184.5t144 114.5t198.5 37q96 0 165.5 -28t107 -77.5t54.5 -107.5t17 -127h-248 q0 68 -23 100q-25 39 -98 39q-49 0 -84 -29t-35 -77q0 -35 19 -61.5t50.5 -42t72 -32t82 -30.5t82 -38.5t72 -55t50.5 -81.5t19 -116q0 -76 -22.5 -138t-60.5 -103.5t-91 -69t-111.5 -40t-124.5 -12.5q-180 0 -284.5 74.5t-104.5 204.5z" />
<glyph unicode="t" horiz-adv-x="559" d="M70 870l28 207h109l41 303h256l-55 -303h155l-29 -207h-153q-86 -602 -86 -620q0 -68 74 -68h67l-24 -182q-73 -25 -150 -25q-115 0 -166 61.5t-51 160.5q0 23 23 191t46 325l23 157h-108z" />
<glyph unicode="u" horiz-adv-x="1026" d="M78 252q0 10 0.5 17t1.5 21.5t3 30t6.5 48t9.5 68.5t13.5 100t18.5 134.5t24.5 179t30.5 226.5h242q-100 -739 -100 -743q0 -71 27.5 -103t90.5 -32q74 0 130.5 61t70.5 170l88 647h244l-150 -1077h-200v139q-118 -164 -291 -164q-127 0 -193.5 73t-66.5 204z" />
<glyph unicode="v" d="M90 1077h244l76 -463q5 -36 12.5 -117t12.5 -143l5 -63h9q73 229 114 323l199 463h248l-490 -1077h-248z" />
<glyph unicode="w" horiz-adv-x="1306" d="M86 1077h231l37 -444q5 -68 10 -156t7 -142l2 -54h8q31 190 84 350l153 446h246l27 -448q3 -47 5 -134t2 -151l1 -63h8q58 225 101 348l151 448h219l-407 -1077h-242l-35 514l-12 283h-12q-13 -164 -52 -281l-176 -516h-243z" />
<glyph unicode="x" d="M-51 0l399 557l-227 520h264l119 -305h10l203 305h264l-373 -520l242 -557h-264l-133 346h-11l-233 -346h-260z" />
<glyph unicode="y" d="M-14 -354l22 188h111q56 0 105 40.5t81 125.5l-205 1077h246l90 -506q6 -36 13.5 -106t11.5 -122l4 -52h8q53 186 90 278l203 508h242l-433 -1022q-40 -94 -82 -166t-95.5 -134t-119 -95t-139.5 -33q-44 0 -82 4.5t-54.5 8.5t-16.5 6z" />
<glyph unicode="z" horiz-adv-x="839" d="M-25 0l9 104l510 766h-383l28 207h715l-8 -102l-514 -768h422l-29 -207h-750z" />
<glyph unicode="{" horiz-adv-x="653" d="M35 496l26 188q64 0 114.5 30t60.5 93l57 395q11 75 40.5 130.5t69.5 88t97 52t112 26t125 6.5l-20 -157q-163 0 -180 -125q-10 -77 -37 -216.5t-35 -185.5q-20 -110 -78.5 -165.5t-173.5 -55.5l-2 -20q103 0 147.5 -45.5t44.5 -135.5q0 -44 -23.5 -242t-23.5 -223 q0 -102 146 -102l-21 -158q-63 0 -113 5.5t-99.5 21.5t-81.5 42.5t-52 70.5t-20 104q0 19 4 59q8 61 16 115t13 91t9.5 69.5t7.5 52.5t5.5 37t4 25.5t2 15t1 9.5t0.5 5q0 91 -143 99z" />
<glyph unicode="|" horiz-adv-x="471" d="M143 -354v1835h185v-1835h-185z" />
<glyph unicode="}" horiz-adv-x="653" d="M-57 -326l20 158q163 0 180 125q10 77 37 215.5t35 185.5q20 110 78.5 166t173.5 56l2 20q-104 0 -148.5 45t-44.5 135q0 44 24 242t24 223q0 103 -146 103l21 157q64 0 113.5 -5.5t99 -21t81.5 -42t52 -70.5t20 -104q0 -20 -4 -60q-8 -61 -16 -115t-13 -91t-9.5 -69.5 t-7.5 -52.5t-5.5 -37t-4 -25.5t-2 -15t-1 -9.5t-0.5 -5q0 -90 143 -98l-27 -188q-64 0 -114 -29.5t-60 -93.5l-57 -396q-11 -75 -40.5 -130.5t-69.5 -88t-97 -52t-112 -26t-125 -6.5z" />
<glyph unicode="~" horiz-adv-x="980" d="M41 403l35 246q4 6 12 16t35 36t56.5 46t75.5 36t93 16q44 0 91 -19.5t82.5 -43t83.5 -43t93 -19.5q41 0 84.5 15.5t75.5 37t58.5 43.5t40.5 38l14 15l-35 -245q-4 -6 -12 -16t-35 -36t-56.5 -46t-75.5 -36t-93 -16q-44 0 -91.5 19.5t-82.5 43t-83.5 43t-93.5 19.5 q-41 0 -84 -15.5t-75.5 -37.5t-58.5 -44t-40 -38z" />
<glyph unicode="&#xa1;" horiz-adv-x="559" d="M16 -328l213 1002h168l-67 -1002h-314zM190 797l41 280h283l-41 -280h-283z" />
<glyph unicode="&#xa2;" d="M74 516q0 107 10.5 201t40 193.5t76 172t126 123t183.5 58.5l31 217h98l-31 -219q144 -15 210.5 -112t66.5 -284v-30h-234v30q0 86 -15.5 134t-55.5 65l-101 -727q50 19 85 80t54 145h228q-20 -88 -48.5 -156.5t-74 -129.5t-114.5 -96.5t-158 -41.5l-33 -239h-99l33 243 q-278 30 -278 373zM307 555q0 -94 16.5 -146.5t57.5 -70.5l100 725q-50 -24 -87.5 -97t-54.5 -159.5t-24.5 -150.5t-7.5 -101z" />
<glyph unicode="&#xa3;" d="M-14 0l30 221h103l51 369h-127l29 207h125l32 225q29 202 133 305t271 103q161 0 249.5 -80t88.5 -234q0 -41 -10 -110h-242q12 82 12 96q0 59 -28.5 90t-79.5 31q-57 0 -94.5 -38t-47.5 -110l-39 -278h244l-29 -207h-245l-72 -369h498l-33 -221h-819z" />
<glyph unicode="&#xa4;" d="M0 356l102 103q-57 108 -57 241q0 131 55 238l-100 102l123 127l86 -86q119 101 258 101q137 0 256 -101l86 86l123 -127l-101 -100q58 -113 58 -240q0 -126 -60 -243l103 -101l-125 -125l-86 86q-117 -96 -254 -96q-139 0 -256 96l-86 -86zM217 700q0 -123 73.5 -208.5 t176.5 -85.5q102 0 175 86t73 208q0 124 -73 210.5t-175 86.5q-103 0 -176.5 -86.5t-73.5 -210.5z" />
<glyph unicode="&#xa5;" d="M37 313l22 166h283l20 144h-282l22 165h213l-174 617h260l121 -539h8l265 539h254l-349 -617h213l-22 -167h-283l-20 -142h282l-22 -166h-283l-45 -313h-244l46 313h-285z" />
<glyph unicode="&#xa6;" horiz-adv-x="471" d="M143 -354v762h185v-762h-185zM143 719v762h185v-762h-185z" />
<glyph unicode="&#xa7;" d="M16 -121q0 15 3 35.5t5.5 36t2.5 16.5h247q-4 -24 -4 -37q0 -51 30 -76.5t83 -25.5q61 0 98 36.5t37 96.5q0 50 -24.5 90t-63.5 68.5t-86.5 55.5t-95 58.5t-86.5 69.5t-63.5 96t-24.5 131q0 86 46 169.5t130 142.5q-72 78 -72 200q0 185 116.5 286.5t293.5 101.5 q153 0 248.5 -67t95.5 -183q0 -15 -2.5 -36t-5 -37t-2.5 -17h-248q2 12 2 34q0 53 -29 79t-82 26q-61 0 -98 -36.5t-37 -98.5q0 -39 15 -72t41 -57.5t59 -47t70 -44t74 -44t70 -52t59 -63.5t41 -82.5t15 -105.5q0 -89 -46.5 -170.5t-129.5 -140.5q72 -85 72 -203 q0 -124 -57 -213t-148 -130.5t-205 -41.5q-154 0 -249 67t-95 185zM326 584q0 -25 6 -48t14 -40.5t25 -37t29 -31t37 -29.5t38 -26t43.5 -26.5t42.5 -26.5q62 73 62 152q0 25 -6 48t-14.5 40.5t-25 36.5t-30 31t-37.5 29t-39 26.5t-43.5 26.5t-42.5 26q-59 -65 -59 -151z " />
<glyph unicode="&#xa8;" horiz-adv-x="559" d="M143 1257l29 224h205l-31 -224h-203zM500 1257l30 224h205l-30 -224h-205z" />
<glyph unicode="&#xa9;" horiz-adv-x="1236" d="M33 702q0 334 156.5 531t428.5 197t429 -197t157 -531q0 -333 -157 -530t-429 -197t-428.5 196.5t-156.5 530.5zM147 702q0 -283 126 -448.5t345 -165.5t345.5 166t126.5 448t-126.5 448.5t-345.5 166.5t-345 -166t-126 -449zM293 702q0 216 85.5 323.5t244.5 107.5 q138 0 221.5 -81t83.5 -243h-178q0 84 -34 127t-93 43q-74 0 -112 -64.5t-38 -181.5v-59q0 -117 39.5 -181.5t116.5 -64.5q59 0 93 42t34 126h172q0 -157 -83.5 -239.5t-221.5 -82.5q-159 0 -244.5 106.5t-85.5 321.5z" />
<glyph unicode="&#xaa;" horiz-adv-x="620" d="M143 997q0 246 81 374t194 128q107 0 151 -102l56 86h100q-86 -549 -86 -563q0 -39 33 -39h26l-16 -117q-41 -23 -82 -23q-45 0 -74.5 25.5t-40.5 71.5q-26 -48 -65.5 -72.5t-79.5 -24.5q-94 0 -145.5 65t-51.5 191zM307 1020q0 -137 74 -137q41 0 71 37.5t44 95.5 t20 109.5t6 97.5q0 68 -16 101.5t-57 33.5q-39 0 -69 -40.5t-44.5 -99.5t-21.5 -110t-7 -88z" />
<glyph unicode="&#xab;" d="M57 668l328 409h195l-279 -409l162 -410h-187zM432 668l328 409h194l-278 -409l162 -410h-187z" />
<glyph unicode="&#xac;" horiz-adv-x="980" d="M82 717l33 231h852l-80 -565h-228l48 334h-625z" />
<glyph unicode="&#xad;" horiz-adv-x="559" d="M27 432l34 242h494l-35 -242h-493z" />
<glyph unicode="&#xae;" horiz-adv-x="1236" d="M33 702q0 334 156.5 531t428.5 197t429 -197t157 -531q0 -333 -157 -530t-429 -197t-428.5 196.5t-156.5 530.5zM147 702q0 -283 126 -448.5t345 -165.5t345.5 166t126.5 448t-126.5 448.5t-345.5 166.5t-345 -166t-126 -449zM356 287v831h324q100 0 165.5 -58.5 t65.5 -150.5q0 -146 -129 -194v-8q19 -7 37 -19t38.5 -36.5t33 -67.5t12.5 -99q0 -72 15 -104.5t45 -42.5v-41q-9 -6 -35 -11t-45 -5q-156 0 -156 157q0 187 -121 187h-74v-338h-176zM532 782h84q51 0 83 27t32 68q0 38 -29 59.5t-79 21.5h-91v-176z" />
<glyph unicode="&#xaf;" horiz-adv-x="559" d="M4 1227l27 178h522l-27 -178h-522z" />
<glyph unicode="&#xb0;" horiz-adv-x="819" d="M115 1139q0 121 84.5 206t206.5 85q121 0 205.5 -84.5t84.5 -206.5t-84.5 -206.5t-205.5 -84.5q-122 0 -206.5 85t-84.5 206zM254 1139q0 -63 44.5 -107.5t107.5 -44.5t106 44.5t43 107.5t-43 106t-106 43t-107.5 -43t-44.5 -106z" />
<glyph unicode="&#xb1;" horiz-adv-x="1124" d="M53 0l29 211h844l-29 -211h-844zM143 649l31 213h315l50 357h211l-50 -357h318l-31 -213h-317l-49 -354h-211l49 354h-316z" />
<glyph unicode="&#xb2;" horiz-adv-x="559" d="M47 655l6 37q10 74 55 145t101 125.5t111 107.5t92 111.5t37 116.5q0 62 -56 62q-73 0 -96 -170h-162q0 129 73 221t202 92q96 0 153.5 -43t57.5 -133q0 -63 -21.5 -121.5t-62 -111.5t-80.5 -95.5t-94.5 -97.5t-86.5 -94h279l-23 -152h-485z" />
<glyph unicode="&#xb3;" horiz-adv-x="559" d="M92 850q0 29 8 76h168q-8 -47 -8 -66q0 -80 70 -80q40 0 67 37t27 109q0 84 -72 84h-41l21 137h43q32 0 60 39.5t28 105.5q0 70 -53 70q-70 0 -86 -135h-168q20 134 90.5 205t171.5 71q100 0 158.5 -50.5t58.5 -145.5q0 -82 -35 -133t-100 -89q92 -50 92 -163 q0 -126 -79.5 -204.5t-190.5 -78.5q-112 0 -171 56t-59 155z" />
<glyph unicode="&#xb4;" horiz-adv-x="559" d="M287 1210l176 271h246l2 -6l-222 -265h-202z" />
<glyph unicode="&#xb5;" horiz-adv-x="1021" d="M-2 -352l197 1429h241q-100 -739 -100 -743q0 -135 119 -135q73 0 129 61t71 170l88 647h244l-149 -1077h-201v139q-48 -77 -107.5 -120.5t-142.5 -43.5q-50 0 -98 23l-47 -350h-244z" />
<glyph unicode="&#xb6;" d="M90 883q0 128 38.5 229.5t103.5 164t147 95.5t174 33h489l-22 -156h-98l-226 -1603h-166l226 1603h-109l-225 -1603h-164l123 866q-130 17 -210.5 120t-80.5 251z" />
<glyph unicode="&#xb7;" horiz-adv-x="466" d="M123 569l39 269h248l-39 -269h-248z" />
<glyph unicode="&#xb8;" horiz-adv-x="559" d="M47 -356l14 100h146q40 0 61 13t21 48q0 37 -64 37h-67l47 181h139l-22 -91q64 -5 103.5 -33t39.5 -83q0 -56 -22 -95t-60.5 -58.5t-78.5 -27.5t-87 -8q-90 0 -170 17z" />
<glyph unicode="&#xb9;" horiz-adv-x="559" d="M80 655l20 142h152l67 477h-153l14 115q49 6 122.5 32.5t127.5 59.5h82l-96 -684h135l-21 -142h-450z" />
<glyph unicode="&#xba;" horiz-adv-x="612" d="M113 1008q0 70 8.5 134t31.5 131t59 116t97 80.5t140 31.5q256 0 256 -268q0 -70 -8.5 -134t-31.5 -131t-59 -115t-97 -79t-140 -31q-256 0 -256 265zM283 1012q0 -66 21.5 -97.5t70.5 -31.5q43 0 75 32.5t47.5 74.5t24.5 98t11 87.5t2 57.5q0 129 -93 129 q-36 0 -64.5 -21.5t-44.5 -58t-27 -74.5t-15.5 -82.5t-6 -68.5t-1.5 -45z" />
<glyph unicode="&#xbb;" d="M18 258l279 410l-164 409h186l222 -409l-330 -410h-193zM391 258l281 410l-164 409h186l221 -409l-329 -410h-195z" />
<glyph unicode="&#xbc;" horiz-adv-x="1400" d="M49 580l21 141h151l68 477h-154l15 115q49 6 122 32.5t127 59.5h82l-96 -684h135l-20 -141h-451zM184 -25l1012 1455h135l-1009 -1455h-138zM766 182l16 125q147 212 285 541h162q-51 -140 -140 -293t-151 -231h139l10 75q32 47 78 133t66 136h55l-47 -344h86l-20 -142 h-86l-27 -182h-162l27 182h-291z" />
<glyph unicode="&#xbd;" horiz-adv-x="1400" d="M49 580l21 141h151l68 477h-154l15 115q49 6 122 32.5t127 59.5h82l-96 -684h135l-20 -141h-451zM152 -25l1011 1455h135l-1009 -1455h-137zM784 0l7 37q7 55 33 107.5t61.5 94.5t76.5 83t80.5 79.5t71.5 76t52 80t20 85.5q0 62 -56 62q-73 0 -96 -170h-162q0 129 73 221 t202 92q96 0 153.5 -43t57.5 -133q0 -63 -21.5 -121.5t-62 -111.5t-80 -95.5t-94 -97.5t-86.5 -94h278l-22 -152h-486z" />
<glyph unicode="&#xbe;" horiz-adv-x="1400" d="M61 770q0 23 9 76h168q-9 -53 -9 -66q0 -80 70 -80q40 0 67 37t27 109q0 84 -71 84h-41l20 137h43q32 0 60 39.5t28 105.5q0 70 -53 70q-70 0 -86 -135h-168q21 136 92 207q66 69 170 69q100 0 158.5 -50.5t58.5 -145.5q0 -82 -35 -132.5t-100 -88.5q92 -50 92 -164 q0 -126 -79.5 -204.5t-190.5 -78.5q-112 0 -171 56t-59 155zM164 -25l1012 1455h135l-1010 -1455h-137zM778 182l17 125q145 209 284 541h162q-51 -140 -140 -293t-151 -231h140l10 75q31 46 77 132.5t66 136.5h55l-47 -344h86l-20 -142h-86l-27 -182h-162l27 182h-291z" />
<glyph unicode="&#xbf;" horiz-adv-x="1026" d="M98 -45q0 105 32 189.5t79 140t95 103.5t87.5 106t48.5 122l9 58h256l-13 -88q-7 -47 -28 -92t-50 -82t-62 -74t-65 -74t-58 -75.5t-42 -86t-16 -98.5q0 -23 5 -44.5t18 -43.5t40 -35.5t66 -13.5q50 0 87 25t56.5 66.5t29 86.5t9.5 92h256q0 -98 -31 -186t-88 -156 t-146.5 -107.5t-199.5 -39.5q-175 0 -275 83.5t-100 223.5zM451 797l41 280h280l-41 -280h-280z" />
<glyph unicode="&#xc0;" horiz-adv-x="1212" d="M-53 0l643 1405h301l252 -1405h-266l-46 276h-501l-121 -276h-262zM434 510h359l-62 385q-7 47 -13 115t-8 112l-3 45h-9q-49 -172 -94 -272zM510 1802l4 6h246l137 -270h-203z" />
<glyph unicode="&#xc1;" horiz-adv-x="1212" d="M-53 0l643 1405h301l252 -1405h-266l-46 276h-501l-121 -276h-262zM434 510h359l-62 385q-7 47 -13 115t-8 112l-3 45h-9q-49 -172 -94 -272zM627 1538l176 270h246l2 -6l-222 -264h-202z" />
<glyph unicode="&#xc2;" horiz-adv-x="1212" d="M-53 0l643 1405h301l252 -1405h-266l-46 276h-501l-121 -276h-262zM434 510h359l-62 385q-7 47 -13 115t-8 112l-3 45h-9q-49 -172 -94 -272zM479 1532l213 276h201l135 -276h-184l-70 141l-104 -141h-191z" />
<glyph unicode="&#xc3;" horiz-adv-x="1212" d="M-53 0l643 1405h301l252 -1405h-266l-46 276h-501l-121 -276h-262zM428 1559q0 56 27 112.5t81.5 96.5t122.5 40q50 0 132.5 -37.5t126.5 -37.5q69 0 90 75h133q0 -58 -28 -114.5t-83.5 -95.5t-124.5 -39q-49 0 -130.5 37.5t-125.5 37.5q-68 0 -90 -75h-131zM434 510h359 l-62 385q-7 47 -13 115t-8 112l-3 45h-9q-49 -172 -94 -272z" />
<glyph unicode="&#xc4;" horiz-adv-x="1212" d="M-53 0l643 1405h301l252 -1405h-266l-46 276h-501l-121 -276h-262zM434 510h359l-62 385q-7 47 -13 115t-8 112l-3 45h-9q-49 -172 -94 -272zM483 1585l29 223h205l-31 -223h-203zM840 1585l30 223h205l-31 -223h-204z" />
<glyph unicode="&#xc5;" horiz-adv-x="1212" d="M-53 0l643 1405h301l252 -1405h-266l-46 276h-501l-121 -276h-262zM434 510h359l-62 385q-7 47 -13 115t-8 112l-3 45h-9q-49 -172 -94 -272zM578 1673q0 82 57 139.5t139 57.5t139.5 -58.5t57.5 -138.5q0 -82 -57.5 -139t-139.5 -57q-80 0 -138 57t-58 139zM680 1673 q0 -40 27 -67t67 -27q39 0 66.5 27.5t27.5 66.5t-27.5 66.5t-66.5 27.5q-40 0 -67 -27t-27 -67z" />
<glyph unicode="&#xc6;" horiz-adv-x="1679" d="M-106 0l727 1405h1081l-33 -234h-711l35 -335h541l-33 -234h-485l37 -369h497l-32 -233h-705l-25 276h-491l-137 -276h-266zM412 510h354l-59 657h-9q-45 -174 -94 -272z" />
<glyph unicode="&#xc7;" horiz-adv-x="1212" d="M92 512q0 135 20.5 262t68.5 247.5t118.5 210t179.5 144t244 54.5q226 0 354.5 -132.5t128.5 -388.5v-26h-266v37q0 136 -57.5 210t-159.5 74q-72 0 -131 -32t-97.5 -87.5t-67 -123t-43.5 -147t-21.5 -150.5t-6.5 -142q0 -155 58 -238t174 -83q129 0 206.5 88.5 t108.5 230.5h256q-24 -110 -68.5 -204t-111 -169.5t-162 -121t-209.5 -50.5l-10 -43q64 -5 103.5 -33t39.5 -83q0 -56 -22 -95t-60 -58.5t-78 -27.5t-87 -8q-90 0 -170 17l14 100h145q40 0 61 13t21 48q0 37 -63 37h-68l35 142q-183 28 -280 160t-97 368z" />
<glyph unicode="&#xc8;" horiz-adv-x="1120" d="M57 0l197 1405h885l-33 -234h-625l-47 -335h537l-33 -234h-537l-53 -369h639l-33 -233h-897zM477 1802l4 6h246l137 -270h-202z" />
<glyph unicode="&#xc9;" horiz-adv-x="1120" d="M57 0l197 1405h885l-33 -234h-625l-47 -335h537l-33 -234h-537l-53 -369h639l-33 -233h-897zM596 1538l176 270h246l2 -6l-221 -264h-203z" />
<glyph unicode="&#xca;" horiz-adv-x="1120" d="M57 0l197 1405h885l-33 -234h-625l-47 -335h537l-33 -234h-537l-53 -369h639l-33 -233h-897zM449 1532l213 276h200l135 -276h-184l-70 141l-104 -141h-190z" />
<glyph unicode="&#xcb;" horiz-adv-x="1120" d="M57 0l197 1405h885l-33 -234h-625l-47 -335h537l-33 -234h-537l-53 -369h639l-33 -233h-897zM453 1585l28 223h205l-31 -223h-202zM809 1585l31 223h204l-30 -223h-205z" />
<glyph unicode="&#xcc;" horiz-adv-x="466" d="M37 0l196 1405h261l-197 -1405h-260zM137 1802l4 6h246l137 -270h-202z" />
<glyph unicode="&#xcd;" horiz-adv-x="466" d="M37 0l196 1405h261l-197 -1405h-260zM254 1538l176 270h246l2 -6l-221 -264h-203z" />
<glyph unicode="&#xce;" horiz-adv-x="466" d="M37 0l196 1405h261l-197 -1405h-260zM106 1532l213 276h201l135 -276h-184l-70 141l-104 -141h-191z" />
<glyph unicode="&#xcf;" horiz-adv-x="466" d="M37 0l196 1405h261l-197 -1405h-260zM111 1585l28 223h205l-31 -223h-202zM467 1585l31 223h204l-30 -223h-205z" />
<glyph unicode="&#xd0;" horiz-adv-x="1212" d="M47 639l23 174h100l84 592h432q236 0 365 -135.5t129 -397.5q0 -84 -11 -168.5t-35 -171t-59 -164t-87.5 -145.5t-116.5 -117t-148.5 -77.5t-181.5 -28.5h-484l88 639h-98zM350 233h168q90 0 161 41.5t114.5 106t71.5 149.5t39 164.5t11 159.5q0 156 -69.5 236.5 t-196.5 80.5h-168l-51 -358h254l-25 -174h-253z" />
<glyph unicode="&#xd1;" horiz-adv-x="1212" d="M57 0l197 1405h229l322 -774l45 -131l6 6q10 94 14 117l109 782h231l-196 -1405h-232l-321 774l-45 131l-8 -6q-7 -80 -13 -117l-108 -782h-230zM426 1559q0 56 27 112.5t81.5 96.5t122.5 40q50 0 132 -37.5t126 -37.5q70 0 91 75h133q0 -58 -28 -114.5t-83.5 -95.5 t-124.5 -39q-49 0 -130.5 37.5t-125.5 37.5q-68 0 -90 -75h-131z" />
<glyph unicode="&#xd2;" horiz-adv-x="1306" d="M92 512q0 129 21.5 254t72 246.5t124.5 213t188.5 148t255.5 56.5q251 0 386.5 -134.5t135.5 -404.5q0 -129 -22 -254t-73 -246t-125.5 -212.5t-189 -147.5t-254.5 -56q-251 0 -385.5 134t-134.5 403zM356 522q0 -155 61 -238t185 -83q95 0 169 46.5t117.5 117.5t72 165 t39 179.5t10.5 171.5q0 156 -61.5 239.5t-184.5 83.5q-80 0 -145.5 -32t-108.5 -87.5t-74.5 -123t-48 -147t-24 -150.5t-7.5 -142zM559 1802l4 6h246l137 -270h-203z" />
<glyph unicode="&#xd3;" horiz-adv-x="1306" d="M92 512q0 129 21.5 254t72 246.5t124.5 213t188.5 148t255.5 56.5q251 0 386.5 -134.5t135.5 -404.5q0 -129 -22 -254t-73 -246t-125.5 -212.5t-189 -147.5t-254.5 -56q-251 0 -385.5 134t-134.5 403zM356 522q0 -155 61 -238t185 -83q95 0 169 46.5t117.5 117.5t72 165 t39 179.5t10.5 171.5q0 156 -61.5 239.5t-184.5 83.5q-80 0 -145.5 -32t-108.5 -87.5t-74.5 -123t-48 -147t-24 -150.5t-7.5 -142zM676 1538l176 270h246l2 -6l-221 -264h-203z" />
<glyph unicode="&#xd4;" horiz-adv-x="1306" d="M92 512q0 129 21.5 254t72 246.5t124.5 213t188.5 148t255.5 56.5q251 0 386.5 -134.5t135.5 -404.5q0 -129 -22 -254t-73 -246t-125.5 -212.5t-189 -147.5t-254.5 -56q-251 0 -385.5 134t-134.5 403zM356 522q0 -155 61 -238t185 -83q95 0 169 46.5t117.5 117.5t72 165 t39 179.5t10.5 171.5q0 156 -61.5 239.5t-184.5 83.5q-80 0 -145.5 -32t-108.5 -87.5t-74.5 -123t-48 -147t-24 -150.5t-7.5 -142zM528 1532l213 276h201l135 -276h-184l-70 141l-104 -141h-191z" />
<glyph unicode="&#xd5;" horiz-adv-x="1306" d="M92 512q0 129 21.5 254t72 246.5t124.5 213t188.5 148t255.5 56.5q251 0 386.5 -134.5t135.5 -404.5q0 -129 -22 -254t-73 -246t-125.5 -212.5t-189 -147.5t-254.5 -56q-251 0 -385.5 134t-134.5 403zM356 522q0 -155 61 -238t185 -83q95 0 169 46.5t117.5 117.5t72 165 t39 179.5t10.5 171.5q0 156 -61.5 239.5t-184.5 83.5q-80 0 -145.5 -32t-108.5 -87.5t-74.5 -123t-48 -147t-24 -150.5t-7.5 -142zM475 1559q0 56 27.5 112.5t82 96.5t122.5 40q50 0 132 -37.5t126 -37.5q69 0 90 75h133q0 -58 -28 -114.5t-83.5 -95.5t-124.5 -39 q-49 0 -130.5 37.5t-125.5 37.5q-68 0 -90 -75h-131z" />
<glyph unicode="&#xd6;" horiz-adv-x="1306" d="M92 512q0 129 21.5 254t72 246.5t124.5 213t188.5 148t255.5 56.5q251 0 386.5 -134.5t135.5 -404.5q0 -129 -22 -254t-73 -246t-125.5 -212.5t-189 -147.5t-254.5 -56q-251 0 -385.5 134t-134.5 403zM356 522q0 -155 61 -238t185 -83q95 0 169 46.5t117.5 117.5t72 165 t39 179.5t10.5 171.5q0 156 -61.5 239.5t-184.5 83.5q-80 0 -145.5 -32t-108.5 -87.5t-74.5 -123t-48 -147t-24 -150.5t-7.5 -142zM532 1585l29 223h205l-31 -223h-203zM889 1585l31 223h204l-30 -223h-205z" />
<glyph unicode="&#xd7;" horiz-adv-x="980" d="M12 227l340 297l-256 299l168 148l256 -299l340 299l127 -148l-342 -299l258 -297l-168 -147l-258 299l-338 -299z" />
<glyph unicode="&#xd8;" horiz-adv-x="1306" d="M92 -76l125 195q-125 134 -125 393q0 129 21.5 254t72 246.5t124.5 213t188.5 148t255.5 56.5q165 0 278 -58l72 109h172l-127 -195q127 -139 127 -395q0 -129 -22 -254t-73 -246t-125.5 -212.5t-189 -147.5t-254.5 -56q-156 0 -278 58l-70 -109h-172zM356 522 q0 -93 21 -160l522 805q-52 37 -135 37q-80 0 -145.5 -32t-108.5 -87.5t-74.5 -123t-48 -147t-24 -150.5t-7.5 -142zM467 236q53 -35 135 -35q95 0 169 46.5t117.5 117.5t72 165t39 179.5t10.5 171.5q0 83 -23 157z" />
<glyph unicode="&#xd9;" horiz-adv-x="1212" d="M121 360q0 43 34.5 304t69.5 501l35 240h260q-137 -940 -137 -997q0 -101 50.5 -154t144.5 -53q101 0 163.5 67.5t81.5 196.5l131 940h260l-133 -948q-34 -235 -164.5 -358.5t-338.5 -123.5q-220 0 -338.5 98.5t-118.5 286.5zM508 1802l4 6h246l137 -270h-203z" />
<glyph unicode="&#xda;" horiz-adv-x="1212" d="M121 360q0 43 34.5 304t69.5 501l35 240h260q-137 -940 -137 -997q0 -101 50.5 -154t144.5 -53q101 0 163.5 67.5t81.5 196.5l131 940h260l-133 -948q-34 -235 -164.5 -358.5t-338.5 -123.5q-220 0 -338.5 98.5t-118.5 286.5zM627 1538l176 270h246l2 -6l-222 -264h-202z " />
<glyph unicode="&#xdb;" horiz-adv-x="1212" d="M121 360q0 43 34.5 304t69.5 501l35 240h260q-137 -940 -137 -997q0 -101 50.5 -154t144.5 -53q101 0 163.5 67.5t81.5 196.5l131 940h260l-133 -948q-34 -235 -164.5 -358.5t-338.5 -123.5q-220 0 -338.5 98.5t-118.5 286.5zM479 1532l213 276h201l135 -276h-184 l-70 141l-104 -141h-191z" />
<glyph unicode="&#xdc;" horiz-adv-x="1212" d="M121 360q0 43 34.5 304t69.5 501l35 240h260q-137 -940 -137 -997q0 -101 50.5 -154t144.5 -53q101 0 163.5 67.5t81.5 196.5l131 940h260l-133 -948q-34 -235 -164.5 -358.5t-338.5 -123.5q-220 0 -338.5 98.5t-118.5 286.5zM483 1585l29 223h205l-31 -223h-203z M840 1585l30 223h205l-31 -223h-204z" />
<glyph unicode="&#xdd;" horiz-adv-x="1120" d="M137 1405h266l203 -617h8l367 617h264l-545 -875l-75 -530h-258l73 530zM586 1538l176 270h246l2 -6l-222 -264h-202z" />
<glyph unicode="&#xde;" horiz-adv-x="1120" d="M57 0l197 1405h260l-35 -254h226q192 0 291.5 -99t99.5 -264q0 -221 -134 -359t-335 -138h-269l-41 -291h-260zM391 522h221q95 0 155 61t60 165q0 78 -44.5 124t-125.5 46h-211z" />
<glyph unicode="&#xdf;" horiz-adv-x="1026" d="M35 0l145 1065q31 223 159.5 331.5t313.5 108.5q170 0 272.5 -90.5t102.5 -249.5q0 -114 -68.5 -216t-173.5 -140v-8q86 -35 137.5 -126t51.5 -204q0 -116 -58 -224t-163.5 -177.5t-229.5 -69.5h-151l28 209h105q85 0 153 78.5t68 179.5q0 84 -45 140.5t-113 56.5h-106 l33 231h100q67 0 124.5 77t57.5 175q0 69 -36 110t-105 41q-84 0 -141 -57t-70 -160l-152 -1081h-239z" />
<glyph unicode="&#xe0;" d="M45 356q0 188 35 335t93.5 234.5t129.5 132t150 44.5q162 0 225 -154l41 129h190q-127 -814 -127 -837q0 -58 49 -58h37l-24 -174q-59 -33 -121 -33q-67 0 -111 38t-59 106q-38 -71 -97.5 -107.5t-119.5 -36.5q-139 0 -215 96.5t-76 284.5zM289 389q0 -203 110 -203 q49 0 87.5 38.5t60.5 95t36.5 128.5t19.5 131.5t5 112.5q0 100 -24 149.5t-84 49.5q-48 0 -87 -41t-61 -101t-37 -132.5t-20.5 -129t-5.5 -98.5zM293 1475l4 6h246l137 -271h-203z" />
<glyph unicode="&#xe1;" d="M45 356q0 188 35 335t93.5 234.5t129.5 132t150 44.5q162 0 225 -154l41 129h190q-127 -814 -127 -837q0 -58 49 -58h37l-24 -174q-59 -33 -121 -33q-67 0 -111 38t-59 106q-38 -71 -97.5 -107.5t-119.5 -36.5q-139 0 -215 96.5t-76 284.5zM289 389q0 -203 110 -203 q49 0 87.5 38.5t60.5 95t36.5 128.5t19.5 131.5t5 112.5q0 100 -24 149.5t-84 49.5q-48 0 -87 -41t-61 -101t-37 -132.5t-20.5 -129t-5.5 -98.5zM412 1210l176 271h246l2 -6l-222 -265h-202z" />
<glyph unicode="&#xe2;" d="M45 356q0 188 35 335t93.5 234.5t129.5 132t150 44.5q162 0 225 -154l41 129h190q-127 -814 -127 -837q0 -58 49 -58h37l-24 -174q-59 -33 -121 -33q-67 0 -111 38t-59 106q-38 -71 -97.5 -107.5t-119.5 -36.5q-139 0 -215 96.5t-76 284.5zM264 1204l213 277h201 l135 -277h-184l-70 142l-104 -142h-191zM289 389q0 -203 110 -203q49 0 87.5 38.5t60.5 95t36.5 128.5t19.5 131.5t5 112.5q0 100 -24 149.5t-84 49.5q-48 0 -87 -41t-61 -101t-37 -132.5t-20.5 -129t-5.5 -98.5z" />
<glyph unicode="&#xe3;" d="M45 356q0 188 35 335t93.5 234.5t129.5 132t150 44.5q162 0 225 -154l41 129h190q-127 -814 -127 -837q0 -58 49 -58h37l-24 -174q-59 -33 -121 -33q-67 0 -111 38t-59 106q-38 -71 -97.5 -107.5t-119.5 -36.5q-139 0 -215 96.5t-76 284.5zM211 1231q0 89 61 166 q70 84 170 84q49 0 133 -37q80 -39 125 -39q70 0 91 76h133q0 -58 -28 -114.5t-83.5 -96t-124.5 -39.5q-49 0 -130.5 38t-125.5 38q-68 0 -90 -76h-131zM289 389q0 -203 110 -203q49 0 87.5 38.5t60.5 95t36.5 128.5t19.5 131.5t5 112.5q0 100 -24 149.5t-84 49.5 q-48 0 -87 -41t-61 -101t-37 -132.5t-20.5 -129t-5.5 -98.5z" />
<glyph unicode="&#xe4;" d="M45 356q0 188 35 335t93.5 234.5t129.5 132t150 44.5q162 0 225 -154l41 129h190q-127 -814 -127 -837q0 -58 49 -58h37l-24 -174q-59 -33 -121 -33q-67 0 -111 38t-59 106q-38 -71 -97.5 -107.5t-119.5 -36.5q-139 0 -215 96.5t-76 284.5zM268 1257l29 224h205l-31 -224 h-203zM289 389q0 -203 110 -203q49 0 87.5 38.5t60.5 95t36.5 128.5t19.5 131.5t5 112.5q0 100 -24 149.5t-84 49.5q-48 0 -87 -41t-61 -101t-37 -132.5t-20.5 -129t-5.5 -98.5zM625 1257l30 224h205l-31 -224h-204z" />
<glyph unicode="&#xe5;" d="M45 356q0 188 35 335t93.5 234.5t129.5 132t150 44.5q162 0 225 -154l41 129h190q-127 -814 -127 -837q0 -58 49 -58h37l-24 -174q-59 -33 -121 -33q-67 0 -111 38t-59 106q-38 -71 -97.5 -107.5t-119.5 -36.5q-139 0 -215 96.5t-76 284.5zM289 389q0 -203 110 -203 q49 0 87.5 38.5t60.5 95t36.5 128.5t19.5 131.5t5 112.5q0 100 -24 149.5t-84 49.5q-48 0 -87 -41t-61 -101t-37 -132.5t-20.5 -129t-5.5 -98.5zM362 1346q0 82 57.5 139t139.5 57t139.5 -58t57.5 -138q0 -82 -57.5 -139.5t-139.5 -57.5q-80 0 -138.5 57.5t-58.5 139.5z M465 1346q0 -40 27 -67.5t67 -27.5q39 0 66.5 27.5t27.5 67.5q0 39 -27.5 66.5t-66.5 27.5q-40 0 -67 -27t-27 -67z" />
<glyph unicode="&#xe6;" horiz-adv-x="1492" d="M39 264q0 88 32.5 156t87 112t131.5 72t160 39.5t179 11.5l12 113q2 14 2 41q0 44 -21 68t-73 24q-129 0 -146 -143h-237q0 156 111 250t294 94q167 0 248 -90q111 90 266 90q334 0 334 -367q0 -140 -22 -258h-539q-4 -43 -4 -94q0 -107 26.5 -158t86.5 -51q58 0 97 56 t58 143h252q-91 -398 -418 -398q-218 0 -299 142q-142 -142 -325 -142q-41 0 -78.5 7t-78 26.5t-69.5 50.5t-48 84t-19 121zM295 274q0 -94 106 -94q80 0 130 67t63 169l8 61q-60 0 -111 -9.5t-97 -31t-72.5 -63t-26.5 -99.5zM885 655h282q4 59 4 80q0 85 -23 126.5 t-77 41.5q-129 0 -186 -248z" />
<glyph unicode="&#xe7;" d="M74 352q0 77 5.5 148t20 148t37.5 141.5t60.5 123.5t86 100t117 65t150.5 24q175 0 254.5 -98t79.5 -302v-30h-250v30q0 99 -22.5 146t-80.5 47q-50 0 -89 -45.5t-60.5 -109t-35.5 -139.5t-18.5 -127.5t-4.5 -82.5q0 -109 23.5 -159t86.5 -50q62 0 105 60.5t63 156.5h244 q-15 -68 -35 -124.5t-51.5 -110t-72 -91.5t-98 -63.5t-126.5 -32.5l-10 -45q63 -5 103 -33t40 -83q0 -56 -22 -95t-60.5 -58.5t-79 -27.5t-88.5 -8q-90 0 -170 17l14 100h148q82 0 82 61q0 37 -66 37h-65l35 142q-250 44 -250 368z" />
<glyph unicode="&#xe8;" d="M68 352q0 80 6 153.5t21.5 150t39 140.5t61 122t86 97.5t116 63t147.5 23.5q334 0 334 -367q0 -134 -23 -258h-539q-4 -43 -4 -94q0 -107 26.5 -158t86.5 -51q58 0 97.5 56t58.5 143h252q-91 -398 -418 -398q-175 0 -261.5 93t-86.5 284zM315 1475l4 6h246l137 -271h-202 zM344 655h283q4 59 4 80q0 85 -23.5 126.5t-77.5 41.5q-129 0 -186 -248z" />
<glyph unicode="&#xe9;" d="M68 352q0 80 6 153.5t21.5 150t39 140.5t61 122t86 97.5t116 63t147.5 23.5q334 0 334 -367q0 -134 -23 -258h-539q-4 -43 -4 -94q0 -107 26.5 -158t86.5 -51q58 0 97.5 56t58.5 143h252q-91 -398 -418 -398q-175 0 -261.5 93t-86.5 284zM344 655h283q4 59 4 80 q0 85 -23.5 126.5t-77.5 41.5q-129 0 -186 -248zM434 1210l176 271h246l2 -6l-221 -265h-203z" />
<glyph unicode="&#xea;" d="M68 352q0 80 6 153.5t21.5 150t39 140.5t61 122t86 97.5t116 63t147.5 23.5q334 0 334 -367q0 -134 -23 -258h-539q-4 -43 -4 -94q0 -107 26.5 -158t86.5 -51q58 0 97.5 56t58.5 143h252q-91 -398 -418 -398q-175 0 -261.5 93t-86.5 284zM287 1204l213 277h200l136 -277 h-185l-69 142l-105 -142h-190zM344 655h283q4 59 4 80q0 85 -23.5 126.5t-77.5 41.5q-129 0 -186 -248z" />
<glyph unicode="&#xeb;" d="M68 352q0 80 6 153.5t21.5 150t39 140.5t61 122t86 97.5t116 63t147.5 23.5q334 0 334 -367q0 -134 -23 -258h-539q-4 -43 -4 -94q0 -107 26.5 -158t86.5 -51q58 0 97.5 56t58.5 143h252q-91 -398 -418 -398q-175 0 -261.5 93t-86.5 284zM291 1257l28 224h205l-30 -224 h-203zM344 655h283q4 59 4 80q0 85 -23.5 126.5t-77.5 41.5q-129 0 -186 -248zM647 1257l31 224h205l-31 -224h-205z" />
<glyph unicode="&#xec;" horiz-adv-x="466" d="M47 0l150 1077h243l-149 -1077h-244zM90 1475l4 6h246l137 -271h-203z" />
<glyph unicode="&#xed;" horiz-adv-x="466" d="M47 0l150 1077h243l-149 -1077h-244zM207 1210l176 271h246l2 -6l-221 -265h-203z" />
<glyph unicode="&#xee;" horiz-adv-x="466" d="M47 0l150 1077h243l-149 -1077h-244zM59 1204l213 277h201l135 -277h-184l-70 142l-104 -142h-191z" />
<glyph unicode="&#xef;" horiz-adv-x="466" d="M47 0l150 1077h243l-149 -1077h-244zM63 1257l29 224h205l-31 -224h-203zM420 1257l31 224h204l-30 -224h-205z" />
<glyph unicode="&#xf0;" horiz-adv-x="1026" d="M68 373q0 174 36.5 314.5t99 230t143 137t171.5 47.5q58 0 107 -17l8 9q-18 50 -60 125l-264 -23l21 150l153 14q-43 58 -90 113l4 8h254q43 -43 88 -99l269 25l-21 -150l-156 -14q117 -221 117 -491q0 -391 -131 -584t-368 -193q-191 0 -286 98t-95 300zM319 375 q0 -193 138 -193q46 0 84 25t62 63.5t42 92t27 101.5t14.5 101.5t6.5 83t1 53.5q0 193 -137 193q-46 0 -84 -25t-62 -63.5t-42 -92t-27.5 -101.5t-15 -101t-6.5 -83t-1 -54z" />
<glyph unicode="&#xf1;" horiz-adv-x="1026" d="M47 0l150 1077h198v-143q113 168 293 168q127 0 193.5 -73t66.5 -204q0 -10 -0.5 -17t-1.5 -21.5t-3 -30t-6.5 -48t-9.5 -68.5t-13.5 -100t-18.5 -134.5t-24.5 -179t-30.5 -226.5h-242q100 739 100 743q0 71 -27.5 103.5t-90.5 32.5q-73 0 -130 -61.5t-71 -170.5 l-88 -647h-244zM289 1231q0 89 61 166q70 84 170 84q49 0 133 -37q80 -39 125 -39q69 0 90 76h133q0 -92 -66.5 -171t-168.5 -79q-49 0 -130.5 38t-125.5 38q-68 0 -90 -76h-131z" />
<glyph unicode="&#xf2;" horiz-adv-x="1026" d="M74 369q0 72 6 140.5t21.5 143t39.5 138.5t63 122t89.5 99t121.5 65.5t156 24.5q381 0 381 -400q0 -72 -6 -140t-21.5 -142t-39.5 -137.5t-63 -121t-89.5 -98t-121.5 -64.5t-156 -24q-381 0 -381 394zM326 375q0 -97 33 -145t104 -48q46 0 84 25t62 63.5t42 92t27 101.5 t14.5 101.5t6.5 83t1 53.5q0 193 -137 193q-46 0 -84 -25t-62 -63.5t-42 -92t-27 -101.5t-14.5 -101.5t-6.5 -83t-1 -53.5zM360 1475l5 6h245l138 -271h-203z" />
<glyph unicode="&#xf3;" horiz-adv-x="1026" d="M74 369q0 72 6 140.5t21.5 143t39.5 138.5t63 122t89.5 99t121.5 65.5t156 24.5q381 0 381 -400q0 -72 -6 -140t-21.5 -142t-39.5 -137.5t-63 -121t-89.5 -98t-121.5 -64.5t-156 -24q-381 0 -381 394zM326 375q0 -97 33 -145t104 -48q46 0 84 25t62 63.5t42 92t27 101.5 t14.5 101.5t6.5 83t1 53.5q0 193 -137 193q-46 0 -84 -25t-62 -63.5t-42 -92t-27 -101.5t-14.5 -101.5t-6.5 -83t-1 -53.5zM479 1210l176 271h246l2 -6l-221 -265h-203z" />
<glyph unicode="&#xf4;" horiz-adv-x="1026" d="M74 369q0 72 6 140.5t21.5 143t39.5 138.5t63 122t89.5 99t121.5 65.5t156 24.5q381 0 381 -400q0 -72 -6 -140t-21.5 -142t-39.5 -137.5t-63 -121t-89.5 -98t-121.5 -64.5t-156 -24q-381 0 -381 394zM326 375q0 -97 33 -145t104 -48q46 0 84 25t62 63.5t42 92t27 101.5 t14.5 101.5t6.5 83t1 53.5q0 193 -137 193q-46 0 -84 -25t-62 -63.5t-42 -92t-27 -101.5t-14.5 -101.5t-6.5 -83t-1 -53.5zM332 1204l213 277h200l136 -277h-185l-69 142l-105 -142h-190z" />
<glyph unicode="&#xf5;" horiz-adv-x="1026" d="M74 369q0 72 6 140.5t21.5 143t39.5 138.5t63 122t89.5 99t121.5 65.5t156 24.5q381 0 381 -400q0 -72 -6 -140t-21.5 -142t-39.5 -137.5t-63 -121t-89.5 -98t-121.5 -64.5t-156 -24q-381 0 -381 394zM279 1231q0 89 61 166q70 84 170 84q49 0 133 -37q80 -39 125 -39 q69 0 90 76h133q0 -92 -66.5 -171t-168.5 -79q-49 0 -130.5 38t-125.5 38q-68 0 -90 -76h-131zM326 375q0 -97 33 -145t104 -48q46 0 84 25t62 63.5t42 92t27 101.5t14.5 101.5t6.5 83t1 53.5q0 193 -137 193q-46 0 -84 -25t-62 -63.5t-42 -92t-27 -101.5t-14.5 -101.5 t-6.5 -83t-1 -53.5z" />
<glyph unicode="&#xf6;" horiz-adv-x="1026" d="M74 369q0 72 6 140.5t21.5 143t39.5 138.5t63 122t89.5 99t121.5 65.5t156 24.5q381 0 381 -400q0 -72 -6 -140t-21.5 -142t-39.5 -137.5t-63 -121t-89.5 -98t-121.5 -64.5t-156 -24q-381 0 -381 394zM326 375q0 -97 33 -145t104 -48q46 0 84 25t62 63.5t42 92t27 101.5 t14.5 101.5t6.5 83t1 53.5q0 193 -137 193q-46 0 -84 -25t-62 -63.5t-42 -92t-27 -101.5t-14.5 -101.5t-6.5 -83t-1 -53.5zM336 1257l29 224h204l-30 -224h-203zM692 1257l31 224h205l-31 -224h-205z" />
<glyph unicode="&#xf7;" horiz-adv-x="1124" d="M51 416l31 213h987l-31 -213h-987zM391 84l33 225h213l-33 -225h-213zM483 735l33 228h213l-33 -228h-213z" />
<glyph unicode="&#xf8;" horiz-adv-x="1026" d="M74 -66l88 146q-88 94 -88 289q0 72 6 140.5t21.5 143t39.5 138.5t63 122t89.5 99t121.5 65.5t156 24.5q101 0 185 -33l45 74h153l-90 -150q88 -105 88 -291q0 -72 -6 -140t-21.5 -142t-39.5 -137.5t-63 -121t-89.5 -98t-121.5 -64.5t-156 -24q-106 0 -185 31l-43 -72 h-153zM326 352l313 522q-35 21 -76 21q-46 0 -84 -25t-62 -63.5t-42 -92t-27 -101.5t-14.5 -101.5t-6.5 -83t-1 -53.5v-23zM387 201q32 -19 76 -19q46 0 84 25t62 63.5t42 92t27 101.5t14.5 101.5t6.5 83t1 53.5v19z" />
<glyph unicode="&#xf9;" horiz-adv-x="1026" d="M78 252q0 10 0.5 17t1.5 21.5t3 30t6.5 48t9.5 68.5t13.5 100t18.5 134.5t24.5 179t30.5 226.5h242q-100 -739 -100 -743q0 -71 27.5 -103t90.5 -32q74 0 130.5 61t70.5 170l88 647h244l-150 -1077h-200v139q-118 -164 -291 -164q-127 0 -193.5 73t-66.5 204zM352 1475 l4 6h246l137 -271h-202z" />
<glyph unicode="&#xfa;" horiz-adv-x="1026" d="M78 252q0 10 0.5 17t1.5 21.5t3 30t6.5 48t9.5 68.5t13.5 100t18.5 134.5t24.5 179t30.5 226.5h242q-100 -739 -100 -743q0 -71 27.5 -103t90.5 -32q74 0 130.5 61t70.5 170l88 647h244l-150 -1077h-200v139q-118 -164 -291 -164q-127 0 -193.5 73t-66.5 204zM471 1210 l176 271h246l2 -6l-221 -265h-203z" />
<glyph unicode="&#xfb;" horiz-adv-x="1026" d="M78 252q0 10 0.5 17t1.5 21.5t3 30t6.5 48t9.5 68.5t13.5 100t18.5 134.5t24.5 179t30.5 226.5h242q-100 -739 -100 -743q0 -71 27.5 -103t90.5 -32q74 0 130.5 61t70.5 170l88 647h244l-150 -1077h-200v139q-118 -164 -291 -164q-127 0 -193.5 73t-66.5 204zM324 1204 l213 277h200l135 -277h-184l-70 142l-104 -142h-190z" />
<glyph unicode="&#xfc;" horiz-adv-x="1026" d="M78 252q0 10 0.5 17t1.5 21.5t3 30t6.5 48t9.5 68.5t13.5 100t18.5 134.5t24.5 179t30.5 226.5h242q-100 -739 -100 -743q0 -71 27.5 -103t90.5 -32q74 0 130.5 61t70.5 170l88 647h244l-150 -1077h-200v139q-118 -164 -291 -164q-127 0 -193.5 73t-66.5 204zM328 1257 l28 224h205l-31 -224h-202zM684 1257l31 224h205l-31 -224h-205z" />
<glyph unicode="&#xfd;" d="M-14 -354l22 188h111q56 0 105 40.5t81 125.5l-205 1077h246l90 -506q6 -36 13.5 -106t11.5 -122l4 -52h8q53 186 90 278l203 508h242l-433 -1022q-40 -94 -82 -166t-95.5 -134t-119 -95t-139.5 -33q-44 0 -82 4.5t-54.5 8.5t-16.5 6zM449 1210l176 271h245l2 -6 l-221 -265h-202z" />
<glyph unicode="&#xfe;" horiz-adv-x="1026" d="M0 -352l252 1833h244l-72 -516q100 137 242 137q140 0 216 -97t76 -284q0 -151 -23.5 -276.5t-63.5 -211t-94.5 -145t-114.5 -86.5t-125 -27q-162 0 -230 142l-65 -469h-242zM352 385q0 -92 31.5 -139t101.5 -47q56 0 99 38.5t66 94t37.5 128t19 128.5t4.5 108 q0 92 -30 137.5t-99 45.5q-68 0 -116.5 -54t-71.5 -138t-32.5 -158.5t-9.5 -143.5z" />
<glyph unicode="&#xff;" d="M-14 -354l22 188h111q56 0 105 40.5t81 125.5l-205 1077h246l90 -506q6 -36 13.5 -106t11.5 -122l4 -52h8q53 186 90 278l203 508h242l-433 -1022q-40 -94 -82 -166t-95.5 -134t-119 -95t-139.5 -33q-44 0 -82 4.5t-54.5 8.5t-16.5 6zM305 1257l29 224h205l-31 -224h-203 zM662 1257l30 224h205l-31 -224h-204z" />
<glyph unicode="&#x152;" horiz-adv-x="1679" d="M82 475q0 77 7.5 159.5t26.5 177t46.5 181.5t72 167.5t99.5 139.5t131.5 94.5t165.5 35.5q211 0 315 -152l19 127h768l-33 -234h-508l-47 -335h420l-33 -234h-420l-53 -369h522l-31 -233h-782l18 125q-135 -150 -325 -150q-182 0 -280.5 125t-98.5 375zM346 477 q0 -144 49.5 -210t149.5 -66q127 0 202.5 106t108.5 344q29 212 29 277q0 147 -53.5 211.5t-161.5 64.5q-119 0 -191 -109t-104 -341q-29 -195 -29 -277z" />
<glyph unicode="&#x153;" horiz-adv-x="1585" d="M82 369q0 72 6 140.5t21.5 143t40 138.5t63.5 122t89.5 99t121.5 65.5t156 24.5q205 0 299 -125q118 125 297 125q333 0 333 -367q0 -140 -22 -258h-539q-4 -43 -4 -94q0 -107 26.5 -158t86.5 -51q58 0 97 56t58 143h252q-91 -398 -417 -398q-197 0 -281 121 q-118 -121 -303 -121q-381 0 -381 394zM334 375q0 -97 33 -145t104 -48q46 0 84 25t62 63.5t42 92t27.5 101.5t15 101t6.5 83t1 54q0 193 -138 193q-46 0 -84 -25t-62 -63.5t-42 -92t-27 -101.5t-14.5 -101.5t-6.5 -83t-1 -53.5zM975 655h282q5 74 5 80q0 85 -23.5 126.5 t-77.5 41.5q-129 0 -186 -248z" />
<glyph unicode="&#x178;" horiz-adv-x="1120" d="M137 1405h266l203 -617h8l367 617h264l-545 -875l-75 -530h-258l73 530zM442 1585l29 223h205l-31 -223h-203zM799 1585l30 223h205l-30 -223h-205z" />
<glyph unicode="&#x2c6;" horiz-adv-x="559" d="M96 1204l213 277h201l135 -277h-184l-70 142l-104 -142h-191z" />
<glyph unicode="&#x2dc;" horiz-adv-x="559" d="M86 1231q0 89 61 166q70 84 170 84q50 0 134 -37q80 -39 124 -39q70 0 91 76h133q0 -58 -28 -114.5t-83.5 -96t-124.5 -39.5q-49 0 -130.5 38t-125.5 38q-68 0 -90 -76h-131z" />
<glyph unicode="&#x2000;" horiz-adv-x="935" />
<glyph unicode="&#x2001;" horiz-adv-x="1870" />
<glyph unicode="&#x2002;" horiz-adv-x="935" />
<glyph unicode="&#x2003;" horiz-adv-x="1870" />
<glyph unicode="&#x2004;" horiz-adv-x="623" />
<glyph unicode="&#x2005;" horiz-adv-x="467" />
<glyph unicode="&#x2006;" horiz-adv-x="311" />
<glyph unicode="&#x2007;" horiz-adv-x="311" />
<glyph unicode="&#x2008;" horiz-adv-x="233" />
<glyph unicode="&#x2009;" horiz-adv-x="374" />
<glyph unicode="&#x200a;" horiz-adv-x="103" />
<glyph unicode="&#x2010;" horiz-adv-x="559" d="M27 432l34 242h494l-35 -242h-493z" />
<glyph unicode="&#x2011;" horiz-adv-x="559" d="M27 432l34 242h494l-35 -242h-493z" />
<glyph unicode="&#x2012;" horiz-adv-x="559" d="M27 432l34 242h494l-35 -242h-493z" />
<glyph unicode="&#x2013;" d="M-2 453l25 200h933l-26 -200h-932z" />
<glyph unicode="&#x2014;" horiz-adv-x="1679" d="M-2 453l25 200h1679l-27 -200h-1677z" />
<glyph unicode="&#x2018;" horiz-adv-x="466" d="M131 805l35 256l184 344h148l-150 -320h105l-39 -280h-283z" />
<glyph unicode="&#x2019;" horiz-adv-x="466" d="M143 805l150 319h-105l39 281h283l-35 -256l-184 -344h-148z" />
<glyph unicode="&#x201a;" horiz-adv-x="466" d="M-12 -319l149 319h-104l39 281h282l-35 -256l-184 -344h-147z" />
<glyph unicode="&#x201c;" horiz-adv-x="839" d="M115 805l35 256l184 344h147l-149 -320h104l-39 -280h-282zM489 805l35 256l185 344h147l-149 -320h104l-39 -280h-283z" />
<glyph unicode="&#x201d;" horiz-adv-x="839" d="M143 805l150 319h-105l39 281h283l-35 -256l-184 -344h-148zM518 805l150 319h-105l39 281h283l-35 -256l-184 -344h-148z" />
<glyph unicode="&#x201e;" horiz-adv-x="839" d="M-12 -319l149 319h-104l39 281h282l-35 -256l-184 -344h-147zM362 -319l150 319h-104l38 281h283l-35 -256l-184 -344h-148z" />
<glyph unicode="&#x2022;" horiz-adv-x="587" d="M70 705q0 103 71.5 177t173.5 74t175 -74t73 -177t-73 -178.5t-175 -75.5t-173.5 75t-71.5 179z" />
<glyph unicode="&#x2026;" horiz-adv-x="1679" d="M74 0l39 281h282l-39 -281h-282zM633 0l39 281h282l-39 -281h-282zM1192 0l39 281h282l-38 -281h-283z" />
<glyph unicode="&#x202f;" horiz-adv-x="374" />
<glyph unicode="&#x2039;" horiz-adv-x="559" d="M66 668l327 409h195l-279 -409l162 -410h-186z" />
<glyph unicode="&#x203a;" horiz-adv-x="559" d="M25 258l278 410l-164 409h187l221 -409l-330 -410h-192z" />
<glyph unicode="&#x205f;" horiz-adv-x="467" />
<glyph unicode="&#x20ac;" d="M12 465l23 166h100q0 21 8 71q1 7 11 72h-101l25 166h123q90 238 250 364t411 126q82 0 150 -21l-29 -205q-62 19 -129 19q-131 0 -233.5 -75t-165.5 -208h368l-24 -166h-400q-8 -53 -10 -72q-8 -50 -8 -71h399l-24 -166h-369q21 -138 97.5 -210.5t224.5 -72.5 q65 0 133 19l-29 -203q-84 -23 -154 -23q-228 0 -366 130.5t-160 359.5h-121z" />
<glyph unicode="&#x2122;" horiz-adv-x="1679" d="M195 1268l20 137h565l-20 -137h-207l-96 -690h-154l96 690h-204zM729 578l117 827h227l47 -580h8l211 580h213l-116 -827h-148l84 600h-8l-219 -600h-137l-50 600h-10l-84 -600h-135z" />
<glyph unicode="&#x25fc;" horiz-adv-x="1075" d="M0 0v1075h1075v-1075h-1075z" />
<glyph unicode="&#xfb01;" horiz-adv-x="1026" d="M-174 -348l27 182h90q92 0 104 98l123 938h-107l29 207h107l18 131q8 57 27.5 106t53 91.5t88 67t124.5 24.5q94 0 172 -24l-27 -183h-98q-41 0 -66.5 -22.5t-31.5 -65.5l-17 -125h185l-29 -207h-184l-127 -954q-7 -57 -26 -106t-51.5 -91.5t-86 -67t-121.5 -24.5 q-91 0 -176 25zM606 0l150 1077h243l-149 -1077h-244zM780 1257l31 224h244l-31 -224h-244z" />
<glyph unicode="&#xfb02;" horiz-adv-x="1026" d="M-174 -348l27 182h90q92 0 104 98l123 938h-107l29 207h107l18 131q8 57 27.5 106t53 91.5t88 67t124.5 24.5q94 0 172 -24l-27 -183h-98q-41 0 -66.5 -22.5t-31.5 -65.5l-17 -125h185l-29 -207h-184l-127 -954q-7 -57 -26 -106t-51.5 -91.5t-86 -67t-121.5 -24.5 q-91 0 -176 25zM602 0l205 1481h244l-205 -1481h-244z" />
</font>
</defs>
</svg>
