<?xml version="1.0" standalone="no"?>
<!DOCTYPE svg PUBLIC "-//W3C//DTD SVG 1.1//EN" "http://www.w3.org/Graphics/SVG/1.1/DTD/svg11.dtd" >
<svg xmlns="http://www.w3.org/2000/svg" xmlns:xlink="http://www.w3.org/1999/xlink" version="1.1">
<metadata></metadata>
<defs>
<font id="archivo_narrowregular" horiz-adv-x="933" >
<font-face units-per-em="2048" ascent="1638" descent="-410" />
<missing-glyph horiz-adv-x="466" />
<glyph horiz-adv-x="0" />
<glyph horiz-adv-x="682" />
<glyph unicode="&#xd;" horiz-adv-x="0" />
<glyph unicode=" "  horiz-adv-x="466" />
<glyph unicode="&#x09;" horiz-adv-x="466" />
<glyph unicode="&#xa0;" horiz-adv-x="466" />
<glyph unicode="!" horiz-adv-x="466" d="M123 1405h231q-4 -49 -53 -1055h-127q-37 812 -51 1055zM137 0v221h205v-221h-205z" />
<glyph unicode="&#x22;" horiz-adv-x="595" d="M76 1104v301h168v-301l-43 -270h-80q-8 48 -23 137.5t-22 132.5zM348 1104v301h168v-301l-45 -270h-80z" />
<glyph unicode="#" d="M18 367v155h166l70 318h-156v155h191l96 430h156l-97 -430h185l96 430h156l-97 -430h123v-155h-157l-70 -318h145v-155h-180l-82 -367h-155l81 367h-184l-82 -367h-155l82 367h-132zM340 522h184l70 318h-184z" />
<glyph unicode="$" d="M109 455q0 13 0.5 23t1 15.5t0.5 6.5h168v-21q0 -162 135 -192v366q-36 12 -59.5 21t-56 24.5t-53.5 31t-44 39t-36.5 49.5t-22.5 62t-9 78q0 127 75 207t206 97v219h100v-217q133 -10 209 -93t76 -200q0 -8 -1 -23t-1 -16h-166v18q0 62 -28 108t-89 60v-323 q39 -13 62.5 -21.5t59.5 -25t58.5 -32t48.5 -40.5t41 -53t25 -67t10 -85q0 -154 -82.5 -236.5t-222.5 -93.5v-241h-100v241q-154 13 -229.5 101.5t-75.5 212.5zM301 971q0 -50 29 -81.5t84 -55.5v284q-62 -12 -87.5 -54.5t-25.5 -92.5zM514 285q62 9 99.5 50.5t37.5 110.5 q0 63 -35.5 101.5t-101.5 68.5v-331z" />
<glyph unicode="%" horiz-adv-x="1492" d="M92 1059q0 204 65.5 287.5t196.5 83.5t196.5 -83.5t65.5 -287.5t-65.5 -286.5t-196.5 -82.5q-86 0 -141.5 32.5t-88 115.5t-32.5 221zM233 1044q0 -55 5.5 -95t18.5 -72.5t37 -49t60 -16.5q47 0 74.5 31t37 79.5t9.5 122.5v31q0 55 -5.5 95t-18.5 73t-37 49.5t-60 16.5 t-60 -16.5t-37 -49.5t-18.5 -73t-5.5 -95v-31zM256 0l856 1405h145l-858 -1405h-143zM895 344q0 204 65.5 287.5t196.5 83.5t196.5 -83.5t65.5 -287.5t-65.5 -286.5t-196.5 -82.5q-86 0 -141.5 32.5t-88 115.5t-32.5 221zM1036 330q0 -55 5.5 -95t18.5 -73t37 -49.5 t60 -16.5t60 16.5t37 49.5t18.5 73t5.5 95v30q0 55 -5.5 95t-18.5 73t-37 49.5t-60 16.5t-60 -16.5t-37 -49.5t-18.5 -73t-5.5 -95v-30z" />
<glyph unicode="&#x26;" horiz-adv-x="1120" d="M72 377q0 134 56.5 221t150.5 123v8q-183 104 -183 315q0 184 116 285t312 101q189 0 307.5 -106t118.5 -280v-36h-168v18q0 125 -71 187.5t-189 62.5q-108 0 -177 -59.5t-69 -182.5q0 -119 62 -182.5t154 -63.5h104v-149h-100q-244 0 -244 -250q0 -133 71 -196.5 t197 -63.5q262 0 262 262v397h312v-151h-144v-240q0 -196 -114 -309t-328 -113q-195 0 -315.5 108.5t-120.5 293.5z" />
<glyph unicode="'" horiz-adv-x="321" d="M72 1104v301h168v-301l-43 -270h-80q-8 48 -23 137.5t-22 132.5z" />
<glyph unicode="(" horiz-adv-x="559" d="M82 590q0 252 87 489t249 426h110q-121 -197 -196.5 -439t-75.5 -472t75.5 -475t196.5 -441h-110q-162 190 -249 425.5t-87 486.5z" />
<glyph unicode=")" horiz-adv-x="559" d="M31 -322q121 196 196.5 441t75.5 475t-75.5 472t-196.5 439h110q162 -189 249 -426t87 -489q0 -251 -87 -486.5t-249 -425.5h-110z" />
<glyph unicode="*" horiz-adv-x="653" d="M53 1055l168 78l-168 77l70 119l151 -106l-18 182h139l-18 -180l151 104l70 -119l-168 -77l168 -78l-70 -121l-151 106l18 -182h-139l18 182l-151 -106z" />
<glyph unicode="+" horiz-adv-x="980" d="M88 436v172h315v439h170v-439h318v-172h-318v-436h-170v436h-315z" />
<glyph unicode="," horiz-adv-x="466" d="M131 0v221h205v-203l-98 -272h-107l82 254h-82z" />
<glyph unicode="-" horiz-adv-x="559" d="M20 453v200h517v-200h-517z" />
<glyph unicode="." horiz-adv-x="466" d="M131 0v221h205v-221h-205z" />
<glyph unicode="/" horiz-adv-x="466" d="M2 -100l322 1605h143l-320 -1605h-145z" />
<glyph unicode="0" d="M82 702q0 169 17 295t48.5 208.5t80 133t106 71t133.5 20.5q94 0 162 -34t120 -115t77.5 -225t25.5 -354q0 -169 -17.5 -295t-48.5 -208t-80 -132.5t-106.5 -71t-132.5 -20.5q-76 0 -133.5 20.5t-106 71t-80 133t-48.5 208t-17 294.5zM254 631q0 -116 10 -203.5t33 -158 t66 -107.5t104 -37t104 37t66 107.5t33 158t10 203.5v143q0 116 -10 203.5t-33 158t-66 107.5t-104 37t-104 -37t-66 -107.5t-33 -158t-10 -203.5v-143z" />
<glyph unicode="1" d="M100 1149v106q91 9 218 51.5t221 98.5h65v-1255h307v-150h-809v150h334v999h-336z" />
<glyph unicode="2" d="M80 0v27q0 162 98 305q43 63 113.5 141.5t129.5 142.5t116 137t89.5 153t32.5 161q0 38 -9 72.5t-29.5 66t-59 50t-92.5 18.5q-102 0 -149.5 -74.5t-47.5 -193.5v-84h-174q-6 33 -6 82q0 109 30.5 193t83.5 133.5t120 74.5t145 25t143 -21t116 -64t79.5 -114.5 t28.5 -165.5q0 -99 -37 -195t-99.5 -178.5t-127 -153t-137.5 -152t-113 -142.5q-26 -41 -37 -72h557v-172h-764z" />
<glyph unicode="3" d="M72 397v17h172v-23q0 -130 54 -198t157 -68q104 0 164.5 65.5t60.5 198.5q0 250 -231 250h-117v149h121q87 0 144.5 63.5t57.5 182.5q0 123 -54.5 184.5t-137.5 61.5q-89 0 -142 -64t-53 -190v-18h-172v36q0 173 102 279.5t263 106.5q168 0 267 -101t99 -285 q0 -212 -182 -315v-8q94 -36 150.5 -123t56.5 -221q0 -185 -107 -293.5t-278 -108.5q-189 0 -292 113.5t-103 308.5z" />
<glyph unicode="4" d="M41 346v152q111 202 207.5 448t157.5 484h169q-52 -252 -175.5 -537t-200.5 -397h385v442q40 98 86 283h82v-725h143v-150h-143v-346h-168v346h-543z" />
<glyph unicode="5" d="M82 436h174q0 -142 62.5 -227.5t156.5 -85.5q98 0 157.5 86t59.5 250q0 143 -56 223t-147 80q-66 0 -121.5 -44t-86.5 -118l-160 27l47 778h639v-172h-494l-26 -428q108 108 248 108q146 0 238.5 -116t92.5 -338q0 -230 -104 -357t-287 -127q-180 0 -286.5 123.5 t-106.5 337.5z" />
<glyph unicode="6" d="M82 662q0 216 26 366.5t78 238t122 125.5t167 38q116 0 194 -61t112 -161t34 -235h-170q0 148 -45 227.5t-133 79.5q-50 0 -87 -24.5t-61 -67.5t-38.5 -111t-20 -146t-6.5 -181q96 133 248 133q115 0 195.5 -61.5t117.5 -162t37 -229.5q0 -207 -103 -331t-264 -124 q-98 0 -170 35t-125.5 113t-80.5 212.5t-27 326.5zM268 430q0 -134 53 -219.5t154 -85.5t153 85.5t52 219.5t-52 219.5t-153 85.5t-154 -85.5t-53 -219.5z" />
<glyph unicode="7" d="M68 1233v172h798v-109q-434 -654 -434 -1192q0 -55 2 -104h-190q0 571 411 1233h-587z" />
<glyph unicode="8" d="M82 385q0 247 180 336q-74 50 -112.5 133t-38.5 184q0 110 39 197t121 141t196 54t196 -54t121 -141t39 -197q0 -102 -39 -184.5t-114 -132.5q182 -89 182 -336q0 -87 -22.5 -159.5t-67.5 -129.5t-120.5 -89t-174.5 -32t-174.5 32t-120.5 89t-67.5 129.5t-22.5 159.5z M254 385q0 -122 55 -191t158 -69t158 69t55 191t-55 190t-158 68t-158 -68t-55 -190zM279 1036q0 -113 50.5 -178t137.5 -65t138.5 65t51.5 178t-51.5 178.5t-138.5 65.5t-137.5 -65t-50.5 -179z" />
<glyph unicode="9" d="M82 975q0 207 103 331t264 124q98 0 170 -35t125.5 -113t80.5 -212.5t27 -326.5q0 -216 -25.5 -366.5t-77 -238t-120 -125.5t-162.5 -38q-90 0 -158 34.5t-109 97t-61 144t-20 181.5h170q0 -148 47 -227.5t139 -79.5q60 0 100.5 35.5t62.5 108.5t31 163.5t11 220.5 q-97 -131 -248 -131q-115 0 -195.5 61.5t-117.5 162t-37 229.5zM254 975q0 -134 52 -219.5t153 -85.5t154 85.5t53 219.5t-53 219.5t-154 85.5t-153 -85.5t-52 -219.5z" />
<glyph unicode=":" horiz-adv-x="466" d="M131 0v221h205v-221h-205zM131 856v221h205v-221h-205z" />
<glyph unicode=";" horiz-adv-x="466" d="M131 0v221h205v-203l-98 -272h-107l82 254h-82zM131 856v221h205v-221h-205z" />
<glyph unicode="&#x3c;" horiz-adv-x="980" d="M90 410v219l803 403v-184l-637 -328l637 -327v-185z" />
<glyph unicode="=" horiz-adv-x="980" d="M88 217v170h803v-170h-803zM88 651v172h803v-172h-803z" />
<glyph unicode="&#x3e;" horiz-adv-x="980" d="M90 8v185l637 327l-637 328v184l803 -403v-219z" />
<glyph unicode="?" d="M88 1012q0 117 42.5 210t133.5 150.5t219 57.5q153 0 254 -102.5t101 -262.5q0 -80 -14.5 -145t-38.5 -107t-52 -77t-56.5 -64.5t-52.5 -59t-38.5 -70t-14.5 -89.5v-84h-178v114q0 55 14 102.5t37 82t50.5 66l55 63t50.5 65t37 80t14 100.5q0 22 -3 46t-14 59t-29.5 61 t-54 45t-81.5 19q-50 0 -87 -20.5t-57 -49.5t-32 -69.5t-15.5 -72t-3.5 -65.5l2 -55h-182q-6 47 -6 72zM379 0v221h205v-221h-205z" />
<glyph unicode="@" horiz-adv-x="1703" d="M92 537q0 191 41 343t112.5 254t171.5 169.5t213.5 97t243.5 29.5q162 0 293.5 -44.5t232 -135.5t155.5 -241.5t55 -351.5q0 -134 -25 -241.5t-64.5 -175t-91.5 -113t-103 -64t-103 -18.5q-83 0 -125.5 33t-57.5 94h-8q-39 -61 -101 -95t-138 -34q-32 0 -63 5.5 t-67.5 23.5t-63 46.5t-44.5 80t-18 118.5q0 79 25 137.5t66.5 94.5t106.5 58t135.5 30t161.5 8v127q0 78 -33.5 119t-121.5 41q-79 0 -114.5 -45t-35.5 -111v-22h-152q-2 12 -2 41q0 131 86.5 201.5t229.5 70.5q146 0 220.5 -71t74.5 -203v-537q0 -78 69 -78q34 0 65.5 13 t63.5 47.5t55.5 87t38.5 138.5t15 195q0 171 -45 298.5t-128 205.5t-194.5 116t-251.5 38q-313 0 -487 -197t-174 -585q0 -369 147 -552.5t451 -183.5q68 0 163 19.5t144 46.5v-123q-55 -23 -148.5 -39t-158.5 -16q-168 0 -299 50t-225 152.5t-143.5 265.5t-49.5 382z M696 328q0 -82 33 -116t100 -34q79 0 141 64t62 178v90q-81 0 -137.5 -7t-104 -26t-71 -56t-23.5 -93z" />
<glyph unicode="A" horiz-adv-x="1120" d="M-2 0l446 1405h232l446 -1405h-194l-97 313h-557l-96 -313h-180zM324 477h456l-190 625q-6 21 -14.5 59.5t-13.5 66.5l-5 29h-8q-19 -110 -33 -155z" />
<glyph unicode="B" horiz-adv-x="1120" d="M133 0v1405h533q158 0 260 -95t102 -249q0 -118 -60.5 -204t-154.5 -120v-8q108 -33 178 -129t70 -227q0 -171 -113.5 -272t-281.5 -101h-533zM313 164h328q103 0 167 61t64 172q0 99 -67 169.5t-176 70.5h-316v-473zM313 801h299q100 0 164 64.5t64 156.5 q0 107 -57.5 163t-157.5 56h-312v-440z" />
<glyph unicode="C" horiz-adv-x="1212" d="M86 702q0 728 553 728q223 0 356 -136t133 -397h-184q0 180 -81.5 273.5t-223.5 93.5q-184 0 -274.5 -126.5t-90.5 -383.5v-103q0 -257 90.5 -383.5t274.5 -126.5q145 0 228 92t83 271h178q0 -262 -132.5 -395.5t-356.5 -133.5q-553 0 -553 727z" />
<glyph unicode="D" horiz-adv-x="1212" d="M143 0v1405h437q253 0 392.5 -173.5t139.5 -508.5q0 -355 -139.5 -539t-392.5 -184h-437zM324 164h239q170 0 265.5 128.5t95.5 379.5v102q0 230 -95.5 348.5t-265.5 118.5h-239v-1077z" />
<glyph unicode="E" horiz-adv-x="1120" d="M143 0v1405h867v-164h-686v-440h596v-164h-596v-473h698v-164h-879z" />
<glyph unicode="F" horiz-adv-x="1026" d="M143 0v1405h811v-164h-630v-455h557v-163h-557v-623h-181z" />
<glyph unicode="G" horiz-adv-x="1306" d="M100 702q0 359 148 543.5t416 184.5q229 0 369.5 -129t140.5 -375h-185q0 169 -87 253.5t-238 84.5q-177 0 -276 -129.5t-99 -380.5v-103q0 -254 92.5 -382t271.5 -128q173 0 254.5 98.5t81.5 301.5v32h-364v158h549v-731h-119l-39 156q-123 -181 -363 -181 q-269 0 -411 183t-142 544z" />
<glyph unicode="H" horiz-adv-x="1212" d="M143 0v1405h181v-604h565v604h180v-1405h-180v637h-565v-637h-181z" />
<glyph unicode="I" horiz-adv-x="466" d="M143 0v1405h181v-1405h-181z" />
<glyph unicode="J" horiz-adv-x="839" d="M27 334v92h180v-102q0 -89 41.5 -136t118.5 -47t118 47t41 136v1081h181v-1071q0 -174 -89 -266.5t-251 -92.5t-251 92.5t-89 266.5z" />
<glyph unicode="K" horiz-adv-x="1120" d="M143 0v1405h181v-743l557 743h200l-422 -567l437 -838h-205l-342 686l-225 -250v-436h-181z" />
<glyph unicode="L" d="M143 0v1405h181v-1241h573v-164h-754z" />
<glyph unicode="M" horiz-adv-x="1398" d="M127 0v1405h274l248 -922q12 -45 23.5 -124t17.5 -135l6 -56h9q18 217 45 315l249 922h273v-1405h-180v1020l14 217h-8q-33 -168 -47 -217l-281 -1020h-162l-280 1020l-43 217h-9q13 -176 13 -217v-1020h-162z" />
<glyph unicode="N" horiz-adv-x="1212" d="M143 0v1405h156l522 -883q14 -24 35.5 -71t35.5 -82l15 -35l6 2q-6 141 -6 186v883h162v-1405h-149l-527 895q-16 26 -38.5 73t-36.5 81l-15 34l-6 -2q8 -129 8 -186v-895h-162z" />
<glyph unicode="O" horiz-adv-x="1306" d="M100 702q0 359 145 543.5t408 184.5t408 -184.5t145 -543.5t-145 -543t-408 -184t-408 184t-145 543zM289 651q0 -252 96 -381t268 -129t268.5 129t96.5 381v103q0 252 -96.5 381t-268.5 129t-268 -129t-96 -381v-103z" />
<glyph unicode="P" horiz-adv-x="1120" d="M143 0v1405h502q202 0 311 -111t109 -299t-113.5 -301.5t-306.5 -113.5h-321v-580h-181zM324 743h315q107 0 172.5 69t65.5 183q0 115 -62 180.5t-176 65.5h-315v-498z" />
<glyph unicode="Q" horiz-adv-x="1306" d="M100 702q0 359 145 543.5t408 184.5t408 -184.5t145 -543.5q0 -275 -86.5 -448.5t-247.5 -239.5l291 -268h-241l-244 229h-25q-263 0 -408 184t-145 543zM289 651q0 -252 96 -381t268 -129t268.5 129t96.5 381v103q0 252 -96.5 381t-268.5 129t-268 -129t-96 -381v-103z " />
<glyph unicode="R" horiz-adv-x="1212" d="M143 0v1405h566q202 0 310.5 -105.5t108.5 -283.5q0 -131 -65.5 -227t-183.5 -136l282 -653h-200l-261 621h-376v-621h-181zM324 784h378q107 0 172.5 64t65.5 168q0 105 -62 165t-176 60h-378v-457z" />
<glyph unicode="S" horiz-adv-x="1120" d="M84 397q0 8 1 23.5t1 17.5h186q0 -1 -0.5 -9t-1 -18.5t-0.5 -15.5q0 -124 77 -189t202 -65q142 0 218.5 60.5t76.5 173.5q0 71 -40.5 121.5t-105 79.5t-142.5 53.5t-155.5 55.5t-142 73t-105 117t-40.5 178q0 125 61 211.5t159.5 126t225.5 39.5q94 0 172 -23t139 -69.5 t95 -124t34 -179.5v-24h-186v30q0 104 -70.5 164t-179.5 60q-116 0 -188 -50t-72 -147q0 -54 25 -95t67 -67.5t97 -48t115.5 -41t120.5 -41t115 -52.5t97 -71.5t67 -103t25 -141.5q0 -115 -35.5 -199.5t-100.5 -134.5t-149.5 -73.5t-189.5 -23.5q-100 0 -182.5 23t-149 71.5 t-104 132t-37.5 195.5z" />
<glyph unicode="T" horiz-adv-x="1026" d="M39 1241v164h946v-164h-383v-1241h-180v1241h-383z" />
<glyph unicode="U" horiz-adv-x="1212" d="M143 457v948h181v-959q0 -148 74.5 -226.5t207.5 -78.5q134 0 208.5 78.5t74.5 226.5v959h180v-948q0 -234 -122 -358t-341 -124t-341 124t-122 358z" />
<glyph unicode="V" horiz-adv-x="1120" d="M16 1405h199l348 -1206h8l359 1206h174l-428 -1405h-232z" />
<glyph unicode="W" horiz-adv-x="1585" d="M20 1405h191l215 -971q8 -36 19 -98.5t17 -107.5l7 -44h8q15 127 35 250l162 971h250l174 -971l37 -250h8q23 158 43 250l215 971h164l-326 -1405h-233l-172 952l-39 283h-9q-22 -189 -38 -283l-168 -952h-234z" />
<glyph unicode="X" horiz-adv-x="1120" d="M8 0l449 729l-408 676h213l303 -502q309 500 309 502h193l-408 -660l453 -745h-213l-346 573l-352 -573h-193z" />
<glyph unicode="Y" horiz-adv-x="1120" d="M16 1405h199l356 -651h9l350 651h174l-453 -823v-582h-180v582z" />
<glyph unicode="Z" horiz-adv-x="1026" d="M41 0v78l668 1163h-625v164h883v-78l-670 -1163h684v-164h-940z" />
<glyph unicode="[" horiz-adv-x="466" d="M100 -330v1835h326v-133h-170v-1569h170v-133h-326z" />
<glyph unicode="\" horiz-adv-x="466" d="M2 1505h143l322 -1605h-145z" />
<glyph unicode="]" horiz-adv-x="466" d="M41 -197h170v1569h-170v133h326v-1835h-326v133z" />
<glyph unicode="^" horiz-adv-x="788" d="M8 602l279 803h219l280 -803h-184l-207 645l-202 -645h-185z" />
<glyph unicode="_" d="M0 -145h932v-109h-932v109z" />
<glyph unicode="`" horiz-adv-x="559" d="M55 1475l2 6h185l176 -271h-142z" />
<glyph unicode="a" d="M70 279q0 87 27.5 151.5t73.5 104t117 63.5t148.5 33t177.5 8v139q0 85 -37 129.5t-133 44.5q-87 0 -126 -49.5t-39 -120.5v-24h-166q-2 12 -2 45q0 144 94.5 221.5t251.5 77.5q161 0 243 -78t82 -223v-604q0 -36 17 -54t41 -18h65v-117q-43 -24 -110 -24q-65 0 -110 36 t-60 97h-11q-42 -67 -110 -104.5t-152 -37.5q-36 0 -70.5 6.5t-74.5 26t-69 51.5t-48.5 89t-19.5 131zM246 289q0 -89 36 -126.5t109 -37.5q88 0 155.5 70.5t67.5 195.5v98q-89 0 -151 -8t-114 -29t-77.5 -61.5t-25.5 -101.5z" />
<glyph unicode="b" d="M123 0v1481h168v-506h10q28 60 89 93.5t140 33.5q142 0 232 -141t90 -420q0 -288 -87.5 -427t-246.5 -139q-74 0 -135.5 38.5t-99.5 111.5h-11l-22 -125h-127zM291 500q0 -375 192 -375q98 0 145.5 88.5t47.5 286.5v78q0 198 -47 286t-146 88q-192 0 -192 -383v-69z" />
<glyph unicode="c" horiz-adv-x="839" d="M74 539q0 290 89.5 426.5t278.5 136.5q171 0 250.5 -107t79.5 -317h-174q0 145 -34 209.5t-122 64.5q-99 0 -145.5 -93t-46.5 -281v-78q0 -189 46 -282t146 -93q88 0 126 68t38 206h166q0 -69 -11.5 -130.5t-36.5 -116t-62.5 -93.5t-94 -61.5t-125.5 -22.5 q-190 0 -279 136.5t-89 427.5z" />
<glyph unicode="d" d="M82 541q0 279 89.5 420t231.5 141q79 0 140.5 -34t89.5 -93h10v506h168v-1481h-127l-22 125h-11q-38 -73 -99.5 -111.5t-135.5 -38.5q-159 0 -246.5 139t-87.5 427zM258 500q0 -198 47.5 -286.5t145.5 -88.5q192 0 192 375v69q0 383 -192 383q-99 0 -146 -88t-47 -286 v-78z" />
<glyph unicode="e" d="M86 539q0 288 101 425.5t305 137.5q180 0 267 -120t87 -386v-107h-584q1 -189 58.5 -276.5t177.5 -87.5q81 0 131.5 65.5t50.5 176.5h166q0 -180 -97 -286t-255 -106q-205 0 -306.5 135t-101.5 429zM264 639h406q0 154 -45 233.5t-133 79.5q-110 0 -163.5 -77t-64.5 -236 z" />
<glyph unicode="f" horiz-adv-x="466" d="M18 928v149h95v172q0 49 10.5 91t34 78.5t66.5 57.5t102 21q71 0 141 -24v-117h-90q-47 0 -71.5 -25.5t-24.5 -73.5v-180h186v-149h-186v-928h-168v928h-95z" />
<glyph unicode="g" d="M27 -117q0 79 37.5 142.5t101.5 87.5q-41 26 -64.5 69.5t-23.5 91.5q0 64 40.5 112.5t110.5 74.5q-125 101 -125 278q0 169 94.5 266t258.5 97q85 0 155 -39q66 35 95 82t38 106h148q0 -97 -48 -166.5t-132 -91.5q96 -99 96 -254q0 -166 -93 -263t-251 -99h-113 q-41 0 -69.5 -28t-28.5 -68t29 -68.5t69 -28.5h307q114 0 184 -73t70 -179q0 -133 -83 -219t-232 -86h-305q-127 0 -196.5 72.5t-69.5 183.5zM195 -100q0 -56 32 -91.5t92 -35.5h297q54 0 90.5 37t36.5 90q0 55 -32.5 90t-94.5 35h-297q-62 0 -93 -34.5t-31 -90.5zM272 739 q0 -108 47 -165.5t136 -57.5q88 0 136 59.5t48 163.5q0 108 -47.5 166t-136.5 58q-88 0 -135.5 -60t-47.5 -164z" />
<glyph unicode="h" d="M123 0v1481h168v-516h12q78 137 242 137q128 0 197 -76.5t69 -249.5v-776h-168v764q0 106 -38.5 147t-112.5 41q-83 0 -142 -80.5t-59 -214.5v-657h-168z" />
<glyph unicode="i" horiz-adv-x="372" d="M102 0v1077h168v-1077h-168zM102 1280v201h168v-201h-168z" />
<glyph unicode="j" horiz-adv-x="372" d="M-84 -231h90q96 0 96 98v1210h168v-1202q0 -49 -10.5 -91t-34 -78.5t-66.5 -57.5t-102 -21q-68 0 -141 25v117zM102 1280v201h168v-201h-168z" />
<glyph unicode="k" horiz-adv-x="839" d="M123 0v1481h168v-903l348 499h186l-317 -442l334 -635h-191l-245 492l-115 -125v-367h-168z" />
<glyph unicode="l" horiz-adv-x="372" d="M102 0v1481h168v-1481h-168z" />
<glyph unicode="m" horiz-adv-x="1398" d="M123 0v1077h127l22 -125h13q81 150 245 150q175 0 230 -156q42 75 112.5 115.5t149.5 40.5q254 0 254 -326v-776h-168v764q0 105 -36.5 146.5t-102.5 41.5q-78 0 -131.5 -80t-53.5 -215v-657h-168v764q0 105 -36.5 146.5t-102.5 41.5q-78 0 -132 -80t-54 -215v-657h-168z " />
<glyph unicode="n" d="M123 0v1077h127l22 -125h13q83 150 260 150q128 0 197 -76.5t69 -249.5v-776h-168v764q0 106 -38.5 147t-112.5 41q-83 0 -142 -80.5t-59 -214.5v-657h-168z" />
<glyph unicode="o" d="M82 539q0 287 97 425t288 138t288 -138t97 -425q0 -564 -385 -564t-385 564zM258 500q0 -375 209 -375t209 375v78q0 374 -209 374t-209 -374v-78z" />
<glyph unicode="p" d="M123 -354v1431h127l22 -125h11q38 73 99.5 111.5t135.5 38.5q159 0 246.5 -138.5t87.5 -426.5q0 -279 -90 -420.5t-232 -141.5q-78 0 -139.5 32t-89.5 87h-10v-448h-168zM291 500q0 -375 192 -375q98 0 145.5 88.5t47.5 286.5v78q0 198 -47 286t-146 88q-192 0 -192 -374 v-78z" />
<glyph unicode="q" d="M82 537q0 288 87.5 426.5t246.5 138.5q74 0 135.5 -38.5t99.5 -111.5h11l22 125h127v-1431h-168v448h-10q-28 -55 -90 -87t-140 -32q-142 0 -231.5 141t-89.5 421zM258 500q0 -198 47.5 -286.5t145.5 -88.5q192 0 192 375v78q0 374 -192 374q-99 0 -146 -88t-47 -286v-78 z" />
<glyph unicode="r" horiz-adv-x="559" d="M123 0v1077h127l22 -141h13q55 166 182 166q20 0 40 -4t30 -8l10 -5v-174h-55q-88 0 -144.5 -60.5t-56.5 -193.5v-657h-168z" />
<glyph unicode="s" horiz-adv-x="839" d="M68 291q0 13 0.5 23t1 15.5t0.5 6.5h176v-21q0 -96 49 -144t127 -48q69 0 115.5 42.5t46.5 117.5q0 54 -27 92.5t-70.5 60t-96 40t-105 41t-96 54.5t-70.5 88.5t-27 135.5q0 142 91 224.5t245 82.5q145 0 227 -84.5t82 -210.5q0 -8 -1 -23t-1 -16h-174v18q0 72 -34.5 120 t-114.5 48q-42 0 -72.5 -14t-45.5 -37.5t-21.5 -47t-6.5 -48.5q0 -42 21 -73t55.5 -48.5t79 -35t90.5 -31.5t90.5 -40t79 -58t55.5 -87t21 -127q0 -166 -93.5 -249t-250.5 -83q-90 0 -158.5 26.5t-108 72t-59.5 100.5t-20 117z" />
<glyph unicode="t" horiz-adv-x="466" d="M29 928v149h92l37 299h131v-299h145v-149h-145v-705q0 -98 96 -98h49v-117q-51 -28 -121 -28q-53 0 -91.5 21t-60 57t-31 78t-9.5 91v701h-92z" />
<glyph unicode="u" d="M123 301v776h168v-764q0 -106 38.5 -147t112.5 -41q83 0 142 80.5t59 214.5v657h168v-1077h-127l-22 125h-13q-83 -150 -260 -150q-128 0 -197 76.5t-69 249.5z" />
<glyph unicode="v" horiz-adv-x="839" d="M20 1077h185l219 -819h8l219 819h170l-309 -1077h-182z" />
<glyph unicode="w" horiz-adv-x="1212" d="M2 1077h184l136 -606q9 -39 19.5 -103t16.5 -108l7 -45h8q15 145 33 256l108 606h195l110 -606q8 -48 16.5 -112t12.5 -104l4 -40h8q16 133 43 256l135 606h170l-268 -1077h-186l-113 614q-9 49 -17 111t-12 99l-4 38h-8q-13 -135 -33 -248l-110 -614h-187z" />
<glyph unicode="x" horiz-adv-x="839" d="M12 0l314 545l-299 532h202l195 -368l201 368h188l-301 -518l315 -559h-202l-211 393l-217 -393h-185z" />
<glyph unicode="y" horiz-adv-x="839" d="M20 1077h185l237 -835h9l200 835h170l-274 -1022q-25 -95 -55 -167.5t-71.5 -134t-97.5 -94t-124 -32.5q-71 0 -121 17v116h59q162 0 213 240z" />
<glyph unicode="z" horiz-adv-x="839" d="M53 0v80l473 848h-440v149h672v-78l-475 -849h501v-150h-731z" />
<glyph unicode="{" horiz-adv-x="561" d="M41 504v172q61 0 106 26q52 34 52 97v403q0 75 17.5 130.5t46 88t71.5 52t86.5 26t99.5 6.5v-116q-162 0 -162 -146q0 -88 -14 -422q-3 -110 -44.5 -165.5t-135.5 -55.5v-20q94 0 135.5 -56t44.5 -166q14 -334 14 -421q0 -146 162 -146v-117q-56 0 -99.5 6.5t-86.5 26 t-71.5 52t-46 88t-17.5 130.5v404q0 63 -47 93t-111 30z" />
<glyph unicode="|" horiz-adv-x="436" d="M137 -354v1835h162v-1835h-162z" />
<glyph unicode="}" horiz-adv-x="561" d="M41 -209q162 0 162 146q0 87 14 421q3 110 44.5 166t135.5 56v20q-94 0 -135.5 55.5t-44.5 165.5q-14 334 -14 422q0 146 -162 146v116q56 0 99.5 -6.5t86.5 -26t71.5 -52t46 -88t17.5 -130.5v-403q0 -63 47 -93t111 -30v-172q-60 0 -106 -27q-52 -30 -52 -96v-404 q0 -75 -17.5 -130.5t-46 -88t-71.5 -52t-86.5 -26t-99.5 -6.5v117z" />
<glyph unicode="~" horiz-adv-x="980" d="M72 432v189q3 6 9.5 16t29 36t48 45.5t67.5 35.5t87 16q29 0 62.5 -10t55 -20.5t58.5 -30.5q107 -64 179 -64q39 0 78.5 15.5t67.5 37.5t50.5 44t33.5 38l11 15v-189q-3 -6 -9.5 -16t-29 -36t-48 -45.5t-67.5 -35.5t-87 -16q-67 0 -176 63q-110 62 -179 62 q-39 0 -78.5 -15.5t-67.5 -37.5t-50.5 -44t-33.5 -37z" />
<glyph unicode="&#xa1;" horiz-adv-x="559" d="M205 -328q14 243 51 1055h127q49 -1006 53 -1055h-231zM219 856v221h205v-221h-205z" />
<glyph unicode="&#xa2;" d="M98 702q0 269 81 406t251 154v219h100v-217q158 -13 231 -119t73 -303h-175q0 127 -29 191t-100 79v-819q73 15 105.5 81.5t32.5 188.5h166q0 -110 -29.5 -198.5t-100 -150.5t-174.5 -73v-241h-100v241q-170 19 -251 155t-81 406zM274 664q0 -164 37 -255t119 -114v813 q-156 -42 -156 -367v-77z" />
<glyph unicode="&#xa3;" d="M39 623v147h147v252q0 201 86 304.5t244 103.5q159 0 244.5 -93.5t85.5 -304.5v-26h-168v32q0 242 -162 242q-160 0 -160 -225v-285h273v-147h-275l-18 -461h510v-162h-785v162h125v461h-147z" />
<glyph unicode="&#xa4;" d="M-6 326l100 100q-71 123 -71 274q0 149 71 275l-100 100l98 99l86 -89q124 121 289 121q163 0 287 -121l88 89l98 -99l-100 -100q71 -126 71 -275q0 -151 -71 -274l100 -100l-98 -99l-88 88q-124 -118 -287 -118t-287 118l-88 -88zM162 700q0 -151 89 -256.5t216 -105.5 q126 0 214.5 105.5t88.5 256.5q0 152 -88.5 258.5t-214.5 106.5q-127 0 -216 -106.5t-89 -258.5z" />
<glyph unicode="&#xa5;" d="M4 1405h195l278 -600h8l273 600h170l-307 -649h262v-133h-326v-144h326v-133h-326v-346h-180v346h-326v133h326v144h-326v133h262z" />
<glyph unicode="&#xa6;" horiz-adv-x="436" d="M137 -354v778h162v-778h-162zM137 702v779h162v-779h-162z" />
<glyph unicode="&#xa7;" d="M139 567q0 92 41.5 162.5t102.5 112.5q-123 104 -123 280q0 143 88.5 225.5t247.5 82.5q145 0 227 -84.5t82 -210.5q0 -8 -1 -23t-1 -16h-174v18q0 72 -35 120t-115 48q-41 0 -71.5 -14t-45.5 -37.5t-21.5 -47t-6.5 -48.5q0 -62 27 -109.5t70.5 -80t95.5 -62t104.5 -63 t96 -75t70.5 -107t27 -149.5q0 -92 -41 -162t-102 -114q123 -107 123 -279q0 -143 -88.5 -225t-247.5 -82q-145 0 -227 84.5t-82 210.5q0 8 1 23t1 16h174v-18q0 -72 35 -120t114 -48q42 0 72 14t45 37.5t22 47t7 48.5q0 62 -27 109.5t-70.5 80t-96 61.5t-105 63t-96 75 t-70.5 106.5t-27 149.5zM303 610q0 -39 8 -72t26 -60.5t35.5 -48t48.5 -43t52 -36t59 -36t58 -35.5q72 59 72 167q0 39 -8 72t-26.5 61t-35 48t-49 43t-52.5 35.5t-60 36t-58 34.5q-70 -54 -70 -166z" />
<glyph unicode="&#xa8;" horiz-adv-x="559" d="M37 1286v195h178v-195h-178zM344 1286v195h178v-195h-178z" />
<glyph unicode="&#xa9;" horiz-adv-x="1236" d="M43 702q0 334 154 531t421 197t421.5 -197.5t154.5 -530.5t-154.5 -530t-421.5 -197t-421 197t-154 530zM137 702q0 -289 129 -459.5t352 -170.5t352.5 170.5t129.5 459.5t-129.5 460t-352.5 171t-352 -171t-129 -460zM297 713q0 430 326 430q131 0 209.5 -80.5 t78.5 -233.5h-118q0 102 -45.5 154.5t-124.5 52.5q-205 0 -205 -291v-61q0 -293 205 -293q80 0 127 52.5t47 152.5h114q0 -154 -78 -232.5t-210 -78.5q-326 0 -326 428z" />
<glyph unicode="&#xaa;" horiz-adv-x="620" d="M41 948q0 60 18.5 104.5t49.5 71.5t79 43.5t100 22.5t120 6v88q0 56 -24 85.5t-85 29.5q-57 0 -83 -33t-26 -80v-20h-120v34q0 99 64.5 152t170.5 53q111 0 167 -53.5t56 -151.5v-405q0 -23 10.5 -34t24.5 -11h47v-84q-25 -18 -78 -18q-44 0 -75 24t-43 64 q-63 -95 -178 -95q-25 0 -49 4t-51.5 17.5t-47.5 35.5t-33.5 60.5t-13.5 89.5zM168 954q0 -57 23 -80.5t71 -23.5q57 0 101.5 46t44.5 128v63q-118 0 -179 -28t-61 -105z" />
<glyph unicode="&#xab;" d="M111 668l288 409h146l-232 -409l232 -410h-146zM420 668l291 409h143l-229 -409l229 -410h-143z" />
<glyph unicode="&#xac;" horiz-adv-x="980" d="M80 737v191h811v-525h-172v334h-639z" />
<glyph unicode="&#xad;" horiz-adv-x="559" d="M20 453v200h517v-200h-517z" />
<glyph unicode="&#xae;" horiz-adv-x="1236" d="M43 702q0 334 154 531t421 197t421.5 -197.5t154.5 -530.5t-154.5 -530t-421.5 -197t-421 197t-154 530zM137 702q0 -289 129 -459.5t352 -170.5t352.5 170.5t129.5 459.5t-129.5 460t-352.5 171t-352 -171t-129 -460zM356 303v823h330q92 0 151.5 -57.5t59.5 -148.5 q0 -71 -36.5 -122t-92.5 -71v-8q14 -6 30.5 -17.5t39.5 -35.5t38 -67.5t15 -98.5q0 -81 13.5 -114t43.5 -44v-35q-25 -10 -59 -10q-117 0 -117 156q0 113 -40.5 161t-92.5 48h-166v-359h-117zM473 770h170q61 0 97 35.5t36 91.5q0 58 -34.5 89.5t-92.5 31.5h-176v-248z" />
<glyph unicode="&#xaf;" horiz-adv-x="559" d="M25 1227v147h512v-147h-512z" />
<glyph unicode="&#xb0;" horiz-adv-x="819" d="M129 1153q0 115 80.5 196t196.5 81q115 0 195.5 -80.5t80.5 -196.5q0 -115 -80 -195.5t-196 -80.5t-196.5 80.5t-80.5 195.5zM238 1153q0 -69 49.5 -118.5t118.5 -49.5t117 49.5t48 118.5t-48 117.5t-117 48.5t-118.5 -48.5t-49.5 -117.5z" />
<glyph unicode="&#xb1;" horiz-adv-x="1124" d="M160 0v170h803v-170h-803zM160 635v172h315v377h170v-377h318v-172h-318v-375h-170v375h-315z" />
<glyph unicode="&#xb2;" horiz-adv-x="559" d="M49 659v33q0 70 34 136.5t82.5 119t97 104t82.5 111t34 119.5q0 41 -21 71.5t-71 30.5t-73.5 -37.5t-23.5 -97.5v-63h-129q-4 34 -4 61q0 129 66 193.5t166 64.5t162.5 -55t62.5 -168q0 -48 -16 -96t-48.5 -95.5t-59 -80t-68.5 -78.5q-7 -8 -29.5 -31.5t-34 -37t-27 -35 t-24.5 -40.5h309v-129h-467z" />
<glyph unicode="&#xb3;" horiz-adv-x="559" d="M47 903v23h131v-27q0 -135 103 -135q53 0 82.5 33t29.5 100q0 127 -114 127h-72v117h74q43 0 71.5 31.5t28.5 91.5q0 62 -27 93.5t-67 31.5q-42 0 -69.5 -33t-27.5 -96v-27h-129v37q0 106 62.5 170.5t161.5 64.5q103 0 164 -61.5t61 -173.5q0 -66 -24.5 -109t-73.5 -74 q50 -26 80 -76.5t30 -119.5q0 -114 -64 -179t-169 -65q-116 0 -179 68t-63 188z" />
<glyph unicode="&#xb4;" horiz-adv-x="559" d="M139 1210l176 271h185l2 -6l-221 -265h-142z" />
<glyph unicode="&#xb5;" d="M123 -354v1431h168v-786q0 -92 40 -129t111 -37q83 0 142 80.5t59 214.5v657h168v-1077h-127l-22 125h-13q-83 -150 -260 -150q-55 0 -98 15v-344h-168z" />
<glyph unicode="&#xb6;" horiz-adv-x="901" d="M37 956q0 186 114.5 317.5t278.5 131.5h428v-125h-98v-1634h-135v1634h-109v-1634h-133v866q-149 20 -247.5 146t-98.5 298z" />
<glyph unicode="&#xb7;" horiz-adv-x="466" d="M129 590v227h207v-227h-207z" />
<glyph unicode="&#xb8;" horiz-adv-x="559" d="M74 -256h155q37 0 55.5 10.5t18.5 38.5q0 26 -15.5 37.5t-54.5 11.5h-67l29 181h112l-14 -97q166 -11 166 -133q0 -39 -14.5 -69.5t-36 -48.5t-51.5 -29t-56.5 -15t-54.5 -4q-89 0 -172 17v100z" />
<glyph unicode="&#xb9;" horiz-adv-x="559" d="M80 1307v88q49 6 117 31.5t114 56.5h60v-705h149v-119h-438v119h162v529h-164z" />
<glyph unicode="&#xba;" horiz-adv-x="612" d="M43 1122q0 383 262 383t262 -383t-262 -383t-262 383zM170 1096q0 -248 135 -248q137 0 137 248v53q0 248 -137 248q-135 0 -135 -248v-53z" />
<glyph unicode="&#xbb;" d="M80 258l229 410l-229 409h143l291 -409l-291 -410h-143zM389 258l232 410l-232 409h146l288 -409l-288 -410h-146z" />
<glyph unicode="&#xbc;" horiz-adv-x="1400" d="M63 1229v88q50 6 118.5 31.5t113.5 56.5h59v-705h150v-118h-438v118h161v529h-164zM236 -25l851 1455h127l-849 -1455h-129zM797 197v106q129 235 213 543h127q-30 -141 -93 -295t-112 -238h174v187q58 159 72 227h55v-414h82v-116h-82v-197h-127v197h-309z" />
<glyph unicode="&#xbd;" horiz-adv-x="1400" d="M63 1229v88q50 6 118.5 31.5t113.5 56.5h59v-705h150v-118h-438v118h161v529h-164zM213 -25l852 1455h127l-850 -1455h-129zM846 0v33q0 70 34 136.5t82.5 119t97 104t82.5 111t34 119.5q0 41 -21.5 71.5t-71.5 30.5t-73 -37.5t-23 -97.5v-64h-129q-4 35 -4 62 q0 129 65.5 193.5t165.5 64.5t163 -55t63 -168q0 -48 -16.5 -96t-49 -96t-59 -80.5t-68.5 -78.5q-7 -8 -29.5 -31.5t-34 -36.5t-26.5 -34.5t-24 -40.5h309v-129h-467z" />
<glyph unicode="&#xbe;" horiz-adv-x="1400" d="M55 827v23h131v-27q0 -135 103 -135q53 0 82.5 33t29.5 100q0 127 -114 127h-72v117h74q43 0 71.5 31.5t28.5 91.5q0 62 -27 93.5t-67 31.5q-42 0 -69 -33t-27 -96v-27h-129v37q0 106 62 171t161 65q103 0 164 -62t61 -174q0 -66 -24.5 -108.5t-73.5 -73.5q50 -26 80 -77 t30 -120q0 -114 -64 -179t-169 -65q-116 0 -179 68t-63 188zM219 -25l852 1455h127l-850 -1455h-129zM797 197v106q129 235 213 543h127q-30 -141 -93 -295t-112 -238h174v187q58 159 72 227h55v-414h82v-116h-82v-197h-127v197h-309z" />
<glyph unicode="&#xbf;" horiz-adv-x="1026" d="M143 4q0 77 14.5 140t38.5 106t52 79t56.5 67.5t52.5 63t38.5 73.5t14.5 92v84h178v-115q0 -56 -14 -104.5t-37 -83t-50.5 -66.5l-55 -64t-50.5 -66t-37 -81t-14 -102q0 -14 1.5 -29.5t6.5 -38t13 -43t23 -41.5t34.5 -36t49 -24.5t64.5 -9.5q58 0 98 28.5t57.5 75.5 t23.5 87.5t6 85.5l-2 55h182q6 -46 6 -71q0 -189 -99 -303.5t-286 -114.5q-158 0 -261.5 99.5t-103.5 256.5zM397 856v221h205v-221h-205z" />
<glyph unicode="&#xc0;" horiz-adv-x="1120" d="M-2 0l446 1405h232l446 -1405h-194l-97 313h-557l-96 -313h-180zM319 1802l3 6h184l176 -270h-141zM324 477h456l-190 625q-6 21 -14.5 59.5t-13.5 66.5l-5 29h-8q-19 -110 -33 -155z" />
<glyph unicode="&#xc1;" horiz-adv-x="1120" d="M-2 0l446 1405h232l446 -1405h-194l-97 313h-557l-96 -313h-180zM324 477h456l-190 625q-6 21 -14.5 59.5t-13.5 66.5l-5 29h-8q-19 -110 -33 -155zM438 1538l176 270h185l2 -6l-221 -264h-142z" />
<glyph unicode="&#xc2;" horiz-adv-x="1120" d="M-2 0l446 1405h232l446 -1405h-194l-97 313h-557l-96 -313h-180zM305 1530l176 276h160l174 -276h-164l-90 162l-92 -162h-164zM324 477h456l-190 625q-6 21 -14.5 59.5t-13.5 66.5l-5 29h-8q-19 -110 -33 -155z" />
<glyph unicode="&#xc3;" horiz-adv-x="1120" d="M-2 0l446 1405h232l446 -1405h-194l-97 313h-557l-96 -313h-180zM260 1595q0 81 44.5 147t129.5 66q45 0 121 -30.5t115 -30.5q61 0 69 61h119q0 -51 -16.5 -97.5t-57.5 -81t-100 -34.5q-45 0 -120.5 32t-114.5 32q-63 0 -68 -64h-121zM324 477h456l-190 625 q-6 21 -14.5 59.5t-13.5 66.5l-5 29h-8q-19 -110 -33 -155z" />
<glyph unicode="&#xc4;" horiz-adv-x="1120" d="M-2 0l446 1405h232l446 -1405h-194l-97 313h-557l-96 -313h-180zM317 1614v194h179v-194h-179zM324 477h456l-190 625q-6 21 -14.5 59.5t-13.5 66.5l-5 29h-8q-19 -110 -33 -155zM625 1614v194h178v-194h-178z" />
<glyph unicode="&#xc5;" horiz-adv-x="1120" d="M-2 0l446 1405h232l446 -1405h-194l-97 313h-557l-96 -313h-180zM324 477h456l-190 625q-6 21 -14.5 59.5t-13.5 66.5l-5 29h-8q-19 -110 -33 -155zM362 1677q0 82 57.5 139.5t139.5 57.5q84 0 140.5 -58t56.5 -139q0 -82 -57 -139t-140 -57q-80 0 -138.5 57t-58.5 139z M455 1677q0 -42 31 -73t73 -31t73.5 31t31.5 73t-31.5 73.5t-73.5 31.5q-41 0 -72.5 -31t-31.5 -74z" />
<glyph unicode="&#xc6;" horiz-adv-x="1679" d="M-2 0l573 1405h1020v-164h-751l100 -440h561v-164h-524l106 -473h521v-164h-676l-70 313h-559l-121 -313h-180zM362 477h461l-139 635q-6 21 -11.5 52.5t-8.5 53.5l-2 21h-9q-27 -82 -43 -127z" />
<glyph unicode="&#xc7;" horiz-adv-x="1212" d="M86 702q0 728 553 728q223 0 356 -136t133 -397h-184q0 180 -81.5 273.5t-223.5 93.5q-184 0 -274.5 -126.5t-90.5 -383.5v-103q0 -257 90.5 -383.5t274.5 -126.5q145 0 228 92t83 271h178q0 -262 -132.5 -395.5t-356.5 -133.5l-6 -49q166 -11 166 -133 q0 -39 -14.5 -69.5t-36 -48.5t-51.5 -29t-56.5 -15t-54.5 -4q-89 0 -172 17v100h155q37 0 55.5 10.5t18.5 38.5q0 26 -15.5 37.5t-54.5 11.5h-67l22 142q-442 68 -442 718z" />
<glyph unicode="&#xc8;" horiz-adv-x="1120" d="M143 0v1405h867v-164h-686v-440h596v-164h-596v-473h698v-164h-879zM319 1802l3 6h184l176 -270h-141z" />
<glyph unicode="&#xc9;" horiz-adv-x="1120" d="M143 0v1405h867v-164h-686v-440h596v-164h-596v-473h698v-164h-879zM438 1538l176 270h185l2 -6l-221 -264h-142z" />
<glyph unicode="&#xca;" horiz-adv-x="1120" d="M143 0v1405h867v-164h-686v-440h596v-164h-596v-473h698v-164h-879zM305 1530l176 276h160l174 -276h-164l-90 162l-92 -162h-164z" />
<glyph unicode="&#xcb;" horiz-adv-x="1120" d="M143 0v1405h867v-164h-686v-440h596v-164h-596v-473h698v-164h-879zM317 1614v194h179v-194h-179zM625 1614v194h178v-194h-178z" />
<glyph unicode="&#xcc;" horiz-adv-x="466" d="M-6 1802l2 6h184l176 -270h-141zM143 0v1405h181v-1405h-181z" />
<glyph unicode="&#xcd;" horiz-adv-x="466" d="M113 1538l176 270h182l2 -6l-219 -264h-141zM143 0v1405h181v-1405h-181z" />
<glyph unicode="&#xce;" horiz-adv-x="466" d="M-23 1530l179 276h159l174 -276h-163l-90 162l-93 -162h-166zM143 0v1405h181v-1405h-181z" />
<glyph unicode="&#xcf;" horiz-adv-x="466" d="M-8 1614v194h178v-194h-178zM143 0v1405h181v-1405h-181zM299 1614v194h178v-194h-178z" />
<glyph unicode="&#xd0;" horiz-adv-x="1212" d="M10 662v131h133v612h437q253 0 392.5 -173.5t139.5 -508.5q0 -355 -139.5 -539t-392.5 -184h-437v662h-133zM324 164h239q170 0 265.5 128.5t95.5 379.5v102q0 230 -95.5 348.5t-265.5 118.5h-239v-448h321v-131h-321v-498z" />
<glyph unicode="&#xd1;" horiz-adv-x="1212" d="M143 0v1405h156l522 -883q14 -24 35.5 -71t35.5 -82l15 -35l6 2q-6 141 -6 186v883h162v-1405h-149l-527 895q-16 26 -38.5 73t-36.5 81l-15 34l-6 -2q8 -129 8 -186v-895h-162zM307 1595q0 81 44.5 147t129.5 66q45 0 121 -30.5t115 -30.5q61 0 69 61h119 q0 -81 -44.5 -147t-129.5 -66q-46 0 -121 32t-114 32q-62 0 -70 -64h-119z" />
<glyph unicode="&#xd2;" horiz-adv-x="1306" d="M100 702q0 359 145 543.5t408 184.5t408 -184.5t145 -543.5t-145 -543t-408 -184t-408 184t-145 543zM289 651q0 -252 96 -381t268 -129t268.5 129t96.5 381v103q0 252 -96.5 381t-268.5 129t-268 -129t-96 -381v-103zM414 1802l2 6h184l176 -270h-141z" />
<glyph unicode="&#xd3;" horiz-adv-x="1306" d="M100 702q0 359 145 543.5t408 184.5t408 -184.5t145 -543.5t-145 -543t-408 -184t-408 184t-145 543zM289 651q0 -252 96 -381t268 -129t268.5 129t96.5 381v103q0 252 -96.5 381t-268.5 129t-268 -129t-96 -381v-103zM532 1538l177 270h184l2 -6l-221 -264h-142z" />
<glyph unicode="&#xd4;" horiz-adv-x="1306" d="M100 702q0 359 145 543.5t408 184.5t408 -184.5t145 -543.5t-145 -543t-408 -184t-408 184t-145 543zM289 651q0 -252 96 -381t268 -129t268.5 129t96.5 381v103q0 252 -96.5 381t-268.5 129t-268 -129t-96 -381v-103zM399 1530l176 276h160l174 -276h-164l-90 162 l-92 -162h-164z" />
<glyph unicode="&#xd5;" horiz-adv-x="1306" d="M100 702q0 359 145 543.5t408 184.5t408 -184.5t145 -543.5t-145 -543t-408 -184t-408 184t-145 543zM289 651q0 -252 96 -381t268 -129t268.5 129t96.5 381v103q0 252 -96.5 381t-268.5 129t-268 -129t-96 -381v-103zM354 1595q0 81 44.5 147t129.5 66q45 0 121 -30.5 t115 -30.5q62 0 70 61h118q0 -81 -44.5 -147t-129.5 -66q-45 0 -120.5 32t-114.5 32q-62 0 -70 -64h-119z" />
<glyph unicode="&#xd6;" horiz-adv-x="1306" d="M100 702q0 359 145 543.5t408 184.5t408 -184.5t145 -543.5t-145 -543t-408 -184t-408 184t-145 543zM289 651q0 -252 96 -381t268 -129t268.5 129t96.5 381v103q0 252 -96.5 381t-268.5 129t-268 -129t-96 -381v-103zM412 1614v194h178v-194h-178zM719 1614v194h178 v-194h-178z" />
<glyph unicode="&#xd7;" horiz-adv-x="980" d="M78 213l313 309l-313 312l112 120l316 -311l313 311l113 -120l-314 -312l314 -309l-113 -121q-312 306 -313 307l-316 -307z" />
<glyph unicode="&#xd8;" horiz-adv-x="1306" d="M100 702q0 359 145 543.5t408 184.5q196 0 326 -103l96 154h131l-147 -234q147 -189 147 -545q0 -359 -145 -543t-408 -184q-197 0 -325 101l-95 -152h-131l146 232q-148 187 -148 546zM289 651q0 -201 63 -327l533 852q-91 88 -232 88q-172 0 -268 -129t-96 -381v-103z M422 227q89 -86 231 -86q172 0 268.5 129t96.5 381v103q0 197 -64 325z" />
<glyph unicode="&#xd9;" horiz-adv-x="1212" d="M143 457v948h181v-959q0 -148 74.5 -226.5t207.5 -78.5q134 0 208.5 78.5t74.5 226.5v959h180v-948q0 -234 -122 -358t-341 -124t-341 124t-122 358zM365 1802l2 6h186l174 -270h-139z" />
<glyph unicode="&#xda;" horiz-adv-x="1212" d="M143 457v948h181v-959q0 -148 74.5 -226.5t207.5 -78.5q134 0 208.5 78.5t74.5 226.5v959h180v-948q0 -234 -122 -358t-341 -124t-341 124t-122 358zM483 1538l176 270h185l2 -6l-219 -264h-144z" />
<glyph unicode="&#xdb;" horiz-adv-x="1212" d="M143 457v948h181v-959q0 -148 74.5 -226.5t207.5 -78.5q134 0 208.5 78.5t74.5 226.5v959h180v-948q0 -234 -122 -358t-341 -124t-341 124t-122 358zM350 1530l176 276h160l176 -276h-164l-90 162l-94 -162h-164z" />
<glyph unicode="&#xdc;" horiz-adv-x="1212" d="M143 457v948h181v-959q0 -148 74.5 -226.5t207.5 -78.5q134 0 208.5 78.5t74.5 226.5v959h180v-948q0 -234 -122 -358t-341 -124t-341 124t-122 358zM362 1614v194h179v-194h-179zM670 1614v194h180v-194h-180z" />
<glyph unicode="&#xdd;" horiz-adv-x="1120" d="M16 1405h199l356 -651h9l350 651h174l-453 -823v-582h-180v582zM438 1538l176 270h185l2 -6l-221 -264h-142z" />
<glyph unicode="&#xde;" horiz-adv-x="1120" d="M143 0v1405h181v-279h321q202 0 311 -110.5t109 -298.5t-113.5 -302t-306.5 -114h-321v-301h-181zM324 465h315q107 0 172.5 69t65.5 183q0 115 -62 180.5t-176 65.5h-315v-498z" />
<glyph unicode="&#xdf;" horiz-adv-x="1026" d="M102 0v1057q0 116 32 204t90 140.5t132 78t164 25.5q169 0 277 -103.5t108 -279.5q0 -102 -54.5 -191t-139.5 -122v-8q104 -38 170.5 -141t66.5 -222q0 -195 -117 -316.5t-292 -121.5h-154v152h137q106 0 180 84t74 204q0 114 -74.5 195.5t-179.5 81.5h-137v149h121 q93 0 160 74t67 176q0 110 -58 175t-165 65q-111 0 -175.5 -76t-64.5 -219v-1061h-168z" />
<glyph unicode="&#xe0;" d="M70 279q0 87 27.5 151.5t73.5 104t117 63.5t148.5 32.5t177.5 8.5v139q0 85 -37 129.5t-133 44.5q-87 0 -126 -49.5t-39 -120.5v-24h-166q-2 12 -2 45q0 144 94.5 221.5t251.5 77.5q161 0 243 -78t82 -223v-604q0 -36 17 -54t41 -18h65v-117q-43 -24 -110 -24 q-65 0 -110 36t-60 97h-11q-42 -67 -110 -104.5t-152 -37.5q-36 0 -70.5 6.5t-74.5 26t-69 51.5t-48.5 89t-19.5 131zM217 1475l2 6h184l177 -271h-142zM246 289q0 -89 36 -126.5t109 -37.5q88 0 155.5 70.5t67.5 195.5v98q-89 0 -151 -8t-114 -29t-77.5 -61.5t-25.5 -101.5 z" />
<glyph unicode="&#xe1;" d="M70 279q0 87 27.5 151.5t73.5 104t117 63.5t148.5 32.5t177.5 8.5v139q0 85 -37 129.5t-133 44.5q-87 0 -126 -49.5t-39 -120.5v-24h-166q-2 12 -2 45q0 144 94.5 221.5t251.5 77.5q161 0 243 -78t82 -223v-604q0 -36 17 -54t41 -18h65v-117q-43 -24 -110 -24 q-65 0 -110 36t-60 97h-11q-42 -67 -110 -104.5t-152 -37.5q-36 0 -70.5 6.5t-74.5 26t-69 51.5t-48.5 89t-19.5 131zM246 289q0 -89 36 -126.5t109 -37.5q88 0 155.5 70.5t67.5 195.5v98q-89 0 -151 -8t-114 -29t-77.5 -61.5t-25.5 -101.5zM336 1210l176 271h184l2 -6 l-221 -265h-141z" />
<glyph unicode="&#xe2;" d="M70 279q0 87 27.5 151.5t73.5 104t117 63.5t148.5 32.5t177.5 8.5v139q0 85 -37 129.5t-133 44.5q-87 0 -126 -49.5t-39 -120.5v-24h-166q-2 12 -2 45q0 144 94.5 221.5t251.5 77.5q161 0 243 -78t82 -223v-604q0 -36 17 -54t41 -18h65v-117q-43 -24 -110 -24 q-65 0 -110 36t-60 97h-11q-42 -67 -110 -104.5t-152 -37.5q-36 0 -70.5 6.5t-74.5 26t-69 51.5t-48.5 89t-19.5 131zM213 1202l174 277h162l174 -277h-164l-90 162l-92 -162h-164zM246 289q0 -89 36 -126.5t109 -37.5q88 0 155.5 70.5t67.5 195.5v98q-89 0 -151 -8 t-114 -29t-77.5 -61.5t-25.5 -101.5z" />
<glyph unicode="&#xe3;" d="M70 279q0 87 27.5 151.5t73.5 104t117 63.5t148.5 32.5t177.5 8.5v139q0 85 -37 129.5t-133 44.5q-87 0 -126 -49.5t-39 -120.5v-24h-166q-2 12 -2 45q0 144 94.5 221.5t251.5 77.5q161 0 243 -78t82 -223v-604q0 -36 17 -54t41 -18h65v-117q-43 -24 -110 -24 q-65 0 -110 36t-60 97h-11q-42 -67 -110 -104.5t-152 -37.5q-36 0 -70.5 6.5t-74.5 26t-69 51.5t-48.5 89t-19.5 131zM168 1268q0 83 41 141q49 72 133 72q39 0 121 -31q80 -33 115 -33q61 0 69 64h119q0 -81 -44.5 -147t-129.5 -66q-45 0 -121 31.5t-115 31.5 q-61 0 -69 -63h-119zM246 289q0 -89 36 -126.5t109 -37.5q88 0 155.5 70.5t67.5 195.5v98q-89 0 -151 -8t-114 -29t-77.5 -61.5t-25.5 -101.5z" />
<glyph unicode="&#xe4;" d="M70 279q0 87 27.5 151.5t73.5 104t117 63.5t148.5 32.5t177.5 8.5v139q0 85 -37 129.5t-133 44.5q-87 0 -126 -49.5t-39 -120.5v-24h-166q-2 12 -2 45q0 144 94.5 221.5t251.5 77.5q161 0 243 -78t82 -223v-604q0 -36 17 -54t41 -18h65v-117q-43 -24 -110 -24 q-65 0 -110 36t-60 97h-11q-42 -67 -110 -104.5t-152 -37.5q-36 0 -70.5 6.5t-74.5 26t-69 51.5t-48.5 89t-19.5 131zM223 1286v195h178v-195h-178zM246 289q0 -89 36 -126.5t109 -37.5q88 0 155.5 70.5t67.5 195.5v98q-89 0 -151 -8t-114 -29t-77.5 -61.5t-25.5 -101.5z M530 1286v195h181v-195h-181z" />
<glyph unicode="&#xe5;" d="M70 279q0 87 27.5 151.5t73.5 104t117 63.5t148.5 32.5t177.5 8.5v139q0 85 -37 129.5t-133 44.5q-87 0 -126 -49.5t-39 -120.5v-24h-166q-2 12 -2 45q0 144 94.5 221.5t251.5 77.5q161 0 243 -78t82 -223v-604q0 -36 17 -54t41 -18h65v-117q-43 -24 -110 -24 q-65 0 -110 36t-60 97h-11q-42 -67 -110 -104.5t-152 -37.5q-36 0 -70.5 6.5t-74.5 26t-69 51.5t-48.5 89t-19.5 131zM246 289q0 -89 36 -126.5t109 -37.5q88 0 155.5 70.5t67.5 195.5v98q-89 0 -151 -8t-114 -29t-77.5 -61.5t-25.5 -101.5zM270 1350q0 81 57.5 137.5 t139.5 56.5t139.5 -57.5t57.5 -136.5q0 -83 -57.5 -141t-139.5 -58q-81 0 -139 57.5t-58 141.5zM362 1350q0 -43 31 -75t74 -32q41 0 72.5 32t31.5 75q0 42 -31 72t-73 30q-43 0 -74 -30t-31 -72z" />
<glyph unicode="&#xe6;" horiz-adv-x="1492" d="M82 279q0 87 27.5 151.5t73.5 104t117.5 63.5t149 32.5t177.5 8.5v139q0 85 -37 129.5t-133 44.5q-88 0 -127 -49.5t-39 -120.5v-24h-166q-2 12 -2 45q0 144 94.5 221.5t251.5 77.5q198 0 276 -123q100 123 287 123q180 0 267 -120t87 -386v-107h-583q1 -189 58 -276.5 t177 -87.5q81 0 132 65.5t51 176.5h165q0 -180 -97 -286t-255 -106q-230 0 -327 164q-58 -77 -139 -120.5t-173 -43.5q-45 0 -84 6.5t-83 26t-74.5 51.5t-51 88.5t-20.5 131.5zM258 289q0 -89 36 -126.5t109 -37.5q88 0 156 66t68 184v114q-89 0 -151 -8t-114.5 -29 t-78 -61.5t-25.5 -101.5zM805 639h405q0 154 -45 233.5t-133 79.5q-110 0 -163 -77t-64 -236z" />
<glyph unicode="&#xe7;" horiz-adv-x="839" d="M74 539q0 290 89.5 426.5t278.5 136.5q171 0 250.5 -107t79.5 -317h-174q0 145 -34 209.5t-122 64.5q-99 0 -145.5 -93t-46.5 -281v-78q0 -189 46 -282t146 -93q88 0 126 68t38 206h166q0 -68 -11 -128.5t-35.5 -114.5t-61 -93t-90.5 -62.5t-121 -25.5l-7 -49 q166 -11 166 -133q0 -39 -14.5 -69.5t-36 -48.5t-51.5 -29t-56.5 -15t-54.5 -4q-89 0 -172 17v100h156q37 0 55.5 10.5t18.5 38.5q0 26 -15.5 37.5t-54.5 11.5h-68l23 146q-138 32 -203 166.5t-65 384.5z" />
<glyph unicode="&#xe8;" d="M86 539q0 288 101 425.5t305 137.5q180 0 267 -120t87 -386v-107h-584q1 -189 58.5 -276.5t177.5 -87.5q81 0 131.5 65.5t50.5 176.5h166q0 -180 -97 -286t-255 -106q-205 0 -306.5 135t-101.5 429zM250 1475l2 6h184l176 -271h-141zM264 639h406q0 154 -45 233.5 t-133 79.5q-110 0 -163.5 -77t-64.5 -236z" />
<glyph unicode="&#xe9;" d="M86 539q0 288 101 425.5t305 137.5q180 0 267 -120t87 -386v-107h-584q1 -189 58.5 -276.5t177.5 -87.5q81 0 131.5 65.5t50.5 176.5h166q0 -180 -97 -286t-255 -106q-205 0 -306.5 135t-101.5 429zM264 639h406q0 154 -45 233.5t-133 79.5q-110 0 -163.5 -77t-64.5 -236 zM369 1210l176 271h184l2 -6l-219 -265h-143z" />
<glyph unicode="&#xea;" d="M86 539q0 288 101 425.5t305 137.5q180 0 267 -120t87 -386v-107h-584q1 -189 58.5 -276.5t177.5 -87.5q81 0 131.5 65.5t50.5 176.5h166q0 -180 -97 -286t-255 -106q-205 0 -306.5 135t-101.5 429zM213 1202l174 277h162l174 -277h-164l-90 162l-92 -162h-164zM264 639 h406q0 154 -45 233.5t-133 79.5q-110 0 -163.5 -77t-64.5 -236z" />
<glyph unicode="&#xeb;" d="M86 539q0 288 101 425.5t305 137.5q180 0 267 -120t87 -386v-107h-584q1 -189 58.5 -276.5t177.5 -87.5q81 0 131.5 65.5t50.5 176.5h166q0 -180 -97 -286t-255 -106q-205 0 -306.5 135t-101.5 429zM223 1286v195h178v-195h-178zM264 639h406q0 154 -45 233.5t-133 79.5 q-110 0 -163.5 -77t-64.5 -236zM530 1286v195h181v-195h-181z" />
<glyph unicode="&#xec;" horiz-adv-x="466" d="M-6 1475l2 6h184l176 -271h-141zM150 0v1077h167v-1077h-167z" />
<glyph unicode="&#xed;" horiz-adv-x="466" d="M113 1210l176 271h182l2 -6l-219 -265h-141zM150 0v1077h167v-1077h-167z" />
<glyph unicode="&#xee;" horiz-adv-x="466" d="M-23 1202l179 277h159l174 -277h-163l-90 162l-93 -162h-166zM150 0v1077h167v-1077h-167z" />
<glyph unicode="&#xef;" horiz-adv-x="466" d="M-8 1286v195h178v-195h-178zM150 0v1077h167v-1077h-167zM299 1286v195h178v-195h-178z" />
<glyph unicode="&#xf0;" d="M82 539q0 286 97.5 424.5t264.5 138.5q48 0 103 -25q-42 76 -115 172l-242 -20v123l146 12q-4 5 -39.5 46t-56.5 63l4 8h180q70 -75 92 -101l240 23v-123l-146 -14q242 -332 242 -727q0 -564 -385 -564t-385 564zM258 500q0 -375 209 -375t209 375v78q0 374 -209 374 t-209 -374v-78z" />
<glyph unicode="&#xf1;" d="M123 0v1077h127l22 -125h13q83 150 260 150q128 0 197 -76.5t69 -249.5v-776h-168v764q0 106 -38.5 147t-112.5 41q-83 0 -142 -80.5t-59 -214.5v-657h-168zM168 1268q0 83 41 141q49 72 133 72q39 0 121 -31q80 -33 115 -33q61 0 69 64h119q0 -81 -44.5 -147t-129.5 -66 q-45 0 -121 31.5t-115 31.5q-61 0 -69 -63h-119z" />
<glyph unicode="&#xf2;" d="M82 539q0 287 97 425t288 138t288 -138t97 -425q0 -564 -385 -564t-385 564zM225 1475l2 6h187l176 -271h-141zM258 500q0 -375 209 -375t209 375v78q0 374 -209 374t-209 -374v-78z" />
<glyph unicode="&#xf3;" d="M82 539q0 287 97 425t288 138t288 -138t97 -425q0 -564 -385 -564t-385 564zM258 500q0 -375 209 -375t209 375v78q0 374 -209 374t-209 -374v-78zM344 1210l176 271h185l2 -6l-220 -265h-143z" />
<glyph unicode="&#xf4;" d="M82 539q0 287 97 425t288 138t288 -138t97 -425q0 -564 -385 -564t-385 564zM213 1202l174 277h162l174 -277h-164l-90 162l-92 -162h-164zM258 500q0 -375 209 -375t209 375v78q0 374 -209 374t-209 -374v-78z" />
<glyph unicode="&#xf5;" d="M82 539q0 287 97 425t288 138t288 -138t97 -425q0 -564 -385 -564t-385 564zM168 1268q0 83 41 141q49 72 133 72q39 0 121 -31q80 -33 115 -33q61 0 69 64h119q0 -81 -44.5 -147t-129.5 -66q-45 0 -121 31.5t-115 31.5q-61 0 -69 -63h-119zM258 500q0 -375 209 -375 t209 375v78q0 374 -209 374t-209 -374v-78z" />
<glyph unicode="&#xf6;" d="M82 539q0 287 97 425t288 138t288 -138t97 -425q0 -564 -385 -564t-385 564zM223 1286v195h178v-195h-178zM258 500q0 -375 209 -375t209 375v78q0 374 -209 374t-209 -374v-78zM530 1286v195h181v-195h-181z" />
<glyph unicode="&#xf7;" horiz-adv-x="1124" d="M88 436v172h946v-172h-946zM475 104v185h172v-185h-172zM475 756v186h172v-186h-172z" />
<glyph unicode="&#xf8;" horiz-adv-x="1026" d="M127 -66l96 179q-96 140 -96 426q0 287 97 425t288 138q130 0 215 -64l57 105h113l-98 -178q98 -137 98 -426q0 -564 -385 -564q-132 0 -217 64l-55 -105h-113zM303 500q0 -120 21 -203l323 594q-52 61 -135 61q-209 0 -209 -374v-78zM377 186q49 -61 135 -61 q209 0 209 375v78q0 113 -23 200z" />
<glyph unicode="&#xf9;" d="M123 301v776h168v-764q0 -106 38.5 -147t112.5 -41q83 0 142 80.5t59 214.5v657h168v-1077h-127l-22 125h-13q-83 -150 -260 -150q-128 0 -197 76.5t-69 249.5zM225 1475l2 6h187l176 -271h-141z" />
<glyph unicode="&#xfa;" d="M123 301v776h168v-764q0 -106 38.5 -147t112.5 -41q83 0 142 80.5t59 214.5v657h168v-1077h-127l-22 125h-13q-83 -150 -260 -150q-128 0 -197 76.5t-69 249.5zM344 1210l176 271h185l2 -6l-220 -265h-143z" />
<glyph unicode="&#xfb;" d="M123 301v776h168v-764q0 -106 38.5 -147t112.5 -41q83 0 142 80.5t59 214.5v657h168v-1077h-127l-22 125h-13q-83 -150 -260 -150q-128 0 -197 76.5t-69 249.5zM213 1202l174 277h162l174 -277h-164l-90 162l-92 -162h-164z" />
<glyph unicode="&#xfc;" d="M123 301v776h168v-764q0 -106 38.5 -147t112.5 -41q83 0 142 80.5t59 214.5v657h168v-1077h-127l-22 125h-13q-83 -150 -260 -150q-128 0 -197 76.5t-69 249.5zM223 1286v195h178v-195h-178zM530 1286v195h181v-195h-181z" />
<glyph unicode="&#xfd;" horiz-adv-x="839" d="M20 1077h185l237 -835h9l200 835h170l-274 -1022q-25 -95 -55 -167.5t-71.5 -134t-97.5 -94t-124 -32.5q-71 0 -121 17v116h59q162 0 213 240zM299 1210l174 271h184l2 -6l-219 -265h-141z" />
<glyph unicode="&#xfe;" d="M123 -354v1835h168v-498l8 -2q33 56 91 88.5t128 32.5q159 0 246.5 -138.5t87.5 -426.5q0 -279 -90 -420.5t-232 -141.5q-78 0 -139.5 32t-89.5 87h-10v-448h-168zM291 500q0 -375 192 -375q98 0 145.5 88.5t47.5 286.5v78q0 198 -47 286t-146 88q-192 0 -192 -374v-78z " />
<glyph unicode="&#xff;" horiz-adv-x="839" d="M20 1077h185l237 -835h9l200 835h170l-274 -1022q-25 -95 -55 -167.5t-71.5 -134t-97.5 -94t-124 -32.5q-71 0 -121 17v116h59q162 0 213 240zM176 1286v195h178v-195h-178zM483 1286v195h181v-195h-181z" />
<glyph unicode="&#x152;" horiz-adv-x="1679" d="M100 702q0 360 119.5 544t339.5 184q197 0 311 -164v139h723v-164h-542v-440h450v-164h-450v-473h555v-164h-736v139q-112 -164 -311 -164q-220 0 -339.5 183.5t-119.5 543.5zM289 651q0 -252 76.5 -381t214.5 -129t214 129t76 381v103q0 252 -76 381t-214 129 t-214.5 -129t-76.5 -381v-103z" />
<glyph unicode="&#x153;" horiz-adv-x="1585" d="M109 539q0 287 97 425t288 138q205 0 299 -158q101 158 319 158q180 0 267 -120t87 -386v-107h-583q1 -189 58 -276.5t177 -87.5q81 0 131.5 65.5t50.5 176.5h166q0 -180 -97 -286t-255 -106q-224 0 -321 156q-93 -156 -299 -156q-385 0 -385 564zM285 500 q0 -375 209 -375q208 0 208 375v78q0 374 -208 374q-209 0 -209 -374v-78zM885 639h405q0 154 -45 233.5t-133 79.5q-110 0 -163 -77t-64 -236z" />
<glyph unicode="&#x178;" horiz-adv-x="1120" d="M16 1405h199l356 -651h9l350 651h174l-453 -823v-582h-180v582zM317 1614v194h179v-194h-179zM625 1614v194h178v-194h-178z" />
<glyph unicode="&#x2c6;" horiz-adv-x="559" d="M20 1202l177 277h159l174 -277h-163l-91 162l-92 -162h-164z" />
<glyph unicode="&#x2dc;" horiz-adv-x="559" d="M-20 1268q0 84 40 141q49 72 134 72q38 0 120 -31q80 -33 115 -33q62 0 70 64h119q0 -81 -45 -147t-130 -66q-45 0 -120.5 31.5t-114.5 31.5q-62 0 -70 -63h-118z" />
<glyph unicode="&#x2000;" horiz-adv-x="937" />
<glyph unicode="&#x2001;" horiz-adv-x="1874" />
<glyph unicode="&#x2002;" horiz-adv-x="937" />
<glyph unicode="&#x2003;" horiz-adv-x="1874" />
<glyph unicode="&#x2004;" horiz-adv-x="624" />
<glyph unicode="&#x2005;" horiz-adv-x="468" />
<glyph unicode="&#x2006;" horiz-adv-x="312" />
<glyph unicode="&#x2007;" horiz-adv-x="312" />
<glyph unicode="&#x2008;" horiz-adv-x="234" />
<glyph unicode="&#x2009;" horiz-adv-x="374" />
<glyph unicode="&#x200a;" horiz-adv-x="104" />
<glyph unicode="&#x2010;" horiz-adv-x="559" d="M20 453v200h517v-200h-517z" />
<glyph unicode="&#x2011;" horiz-adv-x="559" d="M20 453v200h517v-200h-517z" />
<glyph unicode="&#x2012;" horiz-adv-x="559" d="M20 453v200h517v-200h-517z" />
<glyph unicode="&#x2013;" d="M0 477v154h932v-154h-932z" />
<glyph unicode="&#x2014;" horiz-adv-x="1679" d="M0 477v154h1679v-154h-1679z" />
<glyph unicode="&#x2018;" horiz-adv-x="372" d="M84 930v203l98 272h107l-82 -254h82v-221h-205z" />
<glyph unicode="&#x2019;" horiz-adv-x="372" d="M84 930l82 254h-82v221h205v-203l-99 -272h-106z" />
<glyph unicode="&#x201a;" horiz-adv-x="372" d="M76 0v221h205v-203l-99 -272h-106l82 254h-82z" />
<glyph unicode="&#x201c;" horiz-adv-x="559" d="M45 930v203l98 272h107l-82 -254h82v-221h-205zM305 930v203l98 272h107l-82 -254h82v-221h-205z" />
<glyph unicode="&#x201d;" horiz-adv-x="559" d="M49 930l82 254h-82v221h205v-203l-98 -272h-107zM309 930l82 254h-82v221h205v-203l-98 -272h-107z" />
<glyph unicode="&#x201e;" horiz-adv-x="559" d="M49 0v221h205v-203l-98 -272h-107l82 254h-82zM309 0v221h205v-203l-98 -272h-107l82 254h-82z" />
<glyph unicode="&#x2022;" horiz-adv-x="587" d="M70 705q0 94 65.5 160.5t157.5 66.5q94 0 159.5 -66.5t65.5 -160.5t-66 -162t-159 -68q-92 0 -157.5 68t-65.5 162z" />
<glyph unicode="&#x2026;" horiz-adv-x="1679" d="M178 0v221h205v-221h-205zM737 0v221h205v-221h-205zM1294 0v221h205v-221h-205z" />
<glyph unicode="&#x202f;" horiz-adv-x="374" />
<glyph unicode="&#x2039;" horiz-adv-x="559" d="M59 668l289 409h146l-232 -409l232 -410h-146z" />
<glyph unicode="&#x203a;" horiz-adv-x="559" d="M66 258l231 410l-231 409h145l289 -409l-289 -410h-145z" />
<glyph unicode="&#x205f;" horiz-adv-x="468" />
<glyph unicode="&#x20ac;" d="M39 498v133h115q-2 23 -2 71q0 47 2 72h-115v133h129q43 251 190.5 387t378.5 136q69 0 137 -21v-145q-59 16 -112 16q-154 0 -266.5 -94t-153.5 -279h414v-133h-432q-2 -25 -2 -72q0 -48 2 -71h432v-133h-414q41 -185 153.5 -279t266.5 -94q53 0 112 16v-145 q-79 -21 -137 -21q-231 0 -378.5 136t-190.5 387h-129z" />
<glyph unicode="&#x2122;" horiz-adv-x="1679" d="M164 1305v100h555v-100h-223v-725h-107v725h-225zM807 578v827h162l172 -662h8l172 662h160v-827h-107v688h-8l-180 -688h-96l-179 688h-8v-688h-96z" />
<glyph unicode="&#x25fc;" horiz-adv-x="1075" d="M0 0v1075h1075v-1075h-1075z" />
<glyph unicode="&#xfb01;" horiz-adv-x="839" d="M18 928v149h95v172q0 49 10.5 91t34 78.5t66.5 57.5t102 21q71 0 141 -24v-117h-90q-47 0 -71.5 -25.5t-24.5 -73.5v-180h186v-149h-186v-928h-168v928h-95zM569 0v1077h168v-1077h-168zM569 1280v201h168v-201h-168z" />
<glyph unicode="&#xfb02;" horiz-adv-x="839" d="M18 928v149h95v172q0 49 10.5 91t34 78.5t66.5 57.5t102 21q71 0 141 -24v-117h-90q-47 0 -71.5 -25.5t-24.5 -73.5v-180h186v-149h-186v-928h-168v928h-95zM569 0v1481h168v-1481h-168z" />
</font>
</defs>
</svg>
