<svg enable-background="new 0 0 491.5 216.1" viewBox="0 0 491.5 216.1" xmlns="http://www.w3.org/2000/svg"><path d="m65.4 9v11.2c0 .8-.1 1.5-.4 2.2-.9 2.7-3.5 4.5-6.3 4.5h-49.2c-2.8 0-5.4-1.8-6.3-4.5-.3-.7-.4-1.5-.4-2.2v-11.2c0-3.7 3-6.7 6.7-6.7h49.2c3.7 0 6.7 3 6.7 6.7z" fill="#b0b0b0"/><path d="m58.7 2.2h-6.7c3.7 0 6.7 3 6.7 6.7v11.2c0 .8-.1 1.5-.4 2.2-.9 2.7-3.5 4.5-6.3 4.5h6.7c2.8 0 5.4-1.8 6.3-4.5.3-.7.4-1.5.4-2.2v-11.1c0-3.7-3-6.7-6.7-6.8z" fill="#cacaca"/><path d="m9.5 26.8h49.2c3.7 0 6.7 3 6.7 6.7v11.2c0 3.7-3 6.7-6.7 6.7h-49.2c-3.7 0-6.7-3-6.7-6.7v-11.2c0-3.7 3-6.7 6.7-6.7z" fill="#b0b0b0"/><path d="m58.7 26.8h-6.7c3.7 0 6.7 3 6.7 6.7v11.2c0 3.7-3 6.7-6.7 6.7h6.7c3.7 0 6.7-3 6.7-6.7v-11.2c0-3.7-3-6.7-6.7-6.7z" fill="#cacaca"/><path d="m9.5 51.4h49.2c3.7 0 6.7 3 6.7 6.7v11.2c0 3.7-3 6.7-6.7 6.7h-49.2c-3.7 0-6.7-3-6.7-6.7v-11.2c0-3.7 3-6.7 6.7-6.7z" fill="#b0b0b0"/><path d="m58.7 51.4h-6.7c3.7 0 6.7 3 6.7 6.7v11.2c0 3.7-3 6.7-6.7 6.7h6.7c3.7 0 6.7-3 6.7-6.7v-11.2c0-3.7-3-6.7-6.7-6.7z" fill="#cacaca"/><circle cx="34.1" cy="89.4" fill="#e8ecf7" r="4.5"/><path d="m34.1 85c-2.5 0-4.5 2-4.5 4.4 0 2.5 2 4.5 4.4 4.5 1.3 0 2.6-.6 3.4-1.6-1.5-1.7-1.5-4.2 0-5.9-.8-.9-2-1.4-3.3-1.4z" fill="#fff"/><path d="m13.5 1.6c-15.1.8-10.3 15.1-10.3 20.8.9 2.7 3.5 4.5 6.3 4.5-3.7 0-6.7 3-6.7 6.7v11.2c0 3.7 3 6.7 6.7 6.7-3.7 0-6.7 3-6.7 6.7v11.2c0 3.7 3 6.7 6.7 6.7h6.7c-3.7 0-6.7-3-6.7-6.7v-11.3c0-3.7 3-6.7 6.7-6.7-3.7 0-6.7-3-6.7-6.7v-11.2c0-3.7 3-6.7 6.7-6.7-2.8 0-5.4-1.8-6.3-4.5v-15.3s.6-3.5 3.4-3.5c4 0 .2-1.9.2-1.9z" fill="#969696"/><circle cx="11.8" cy="11.2" fill="#6f6f6f" r="2.2"/><circle cx="11.8" cy="17.9" fill="#6f6f6f" r="2.2"/><circle cx="11.8" cy="35.8" fill="#6f6f6f" r="2.2"/><circle cx="11.8" cy="42.5" fill="#6f6f6f" r="2.2"/><path d="m9.5 73.8h17.9v4.5h-17.9z" fill="#333"/><g fill="#6f6f6f"><circle cx="11.8" cy="60.3" r="2.2"/><circle cx="11.8" cy="67.1" r="2.2"/><path d="m56.5 9h-6.7c-1.2 0-2.2 1-2.2 2.2s1 2.2 2.2 2.2h6.7c1.2 0 2.3-.9 2.3-2.2 0-1.2-.9-2.3-2.2-2.3h-.1z"/><path d="m56.5 15.6h-6.7c-1.2.1-2.2 1.2-2.1 2.4.1 1.1 1 2 2.1 2.1h6.7c1.2.1 2.3-.8 2.4-2.1.1-1.2-.8-2.2-2-2.4z"/><path d="m56.5 33.5h-6.7c-1.2.1-2.2 1.2-2.1 2.4.1 1.1 1 2 2.1 2.1h6.7c1.2-.1 2.2-1.2 2.1-2.4-.1-1.1-1-2-2.1-2.1z"/><path d="m56.5 40.2h-6.7c-1.2-.1-2.3.9-2.4 2.1s.9 2.3 2.1 2.4h7c1.2-.1 2.2-1.2 2.1-2.4-.1-1.1-1-2-2.1-2.1z"/><path d="m18.5 78.2c-1.2-.1-2.2-1.2-2.1-2.4.1-1.1 1-2 2.1-2.1 1.2-.1 2.3.9 2.4 2.1s-.9 2.3-2.1 2.4z"/><path d="m49.8 62.6h6.7c1.2.1 2.3-.8 2.4-2.1.1-1.2-.8-2.2-2-2.4h-7.1c-1.2.1-2.2 1.2-2.1 2.4 0 1.2.9 2 2.1 2.1z"/><path d="m49.8 69.3h6.7c1.2.1 2.3-.8 2.4-2.1.1-1.2-.8-2.2-2-2.4h-7.1c-1.2.1-2.2 1.2-2.1 2.4 0 1.1.9 2 2.1 2.1z"/><path d="m63.2 20.1c0 2.5-2 4.5-4.5 4.5h-49.2c-2.5 0-4.5-2-4.5-4.5v-11.1c0-2.5 2-4.5 4.4-4.5h49.2c2.5 0 4.5 2 4.5 4.5v11.1zm4.4-.3v-10.8c0-4.9-4-8.9-8.9-8.9h-49.2c-4.9 0-8.9 3.9-8.9 8.9v10.9c0 1.6.4 3.2 1.2 4.7.6.8 1.2 1.6 1.9 2.3-2 1.7-3.1 4.1-3.1 6.7v11.2c0 2.6 1.1 5 3.1 6.7-2 1.7-3.1 4.1-3.1 6.7v11.2c0 4.9 4 8.9 8.9 8.9 1.2.1 2.3-.9 2.4-2.1s-.9-2.3-2.1-2.4h-.3c-2.5 0-4.5-2-4.5-4.5v-11.2c0-2.5 2-4.5 4.5-4.5h49.2c2.5 0 4.5 2 4.5 4.5v11.2c0 2.5-2 4.5-4.5 4.5h-31.3c-1.2-.1-2.3.9-2.4 2.1s.9 2.3 2.1 2.4h4.8v4.9c-1.9.7-3.4 2.2-4.1 4.1-.2.7-.4 1.5-.4 2.2 0 .8.2 1.5.4 2.2 1.2 3.5 5 5.3 8.5 4.1 2-.7 3.5-2.2 4.1-4.2.1 0 .3.1.4.1h58.1c1.2-.1 2.2-1.2 2.1-2.4-.1-1.1-1-2-2.1-2.1h-58.1c-.1 0-.3 0-.4.1-.7-1.9-2.2-3.5-4.1-4.1v-4.9h22.4c4.9 0 8.9-4 8.9-8.9v-11.3c0-2.6-1.1-5-3.1-6.7 2-1.7 3.1-4.1 3.1-6.7v-11.2c0-2.6-1.1-5-3.1-6.7.8-.6 3.1-2.2 3.1-7zm-8.9 29.4h-49.2c-2.5 0-4.5-2-4.5-4.5v-11.2c0-2.5 2-4.5 4.4-4.5h49.2c2.5 0 4.5 2 4.5 4.5v11.2c.1 2.5-1.9 4.5-4.4 4.5zm-24.6 42.4c-1.2 0-2.2-1-2.2-2.2s1-2.2 2.2-2.2 2.2 1 2.2 2.2c0 1.2-1 2.2-2.2 2.2z"/></g><path d="m195.6 9v11.2c0 .8-.1 1.5-.4 2.2-.9 2.7-3.5 4.5-6.3 4.5h-49.2c-2.8 0-5.4-1.8-6.3-4.5-.3-.7-.4-1.5-.4-2.2v-11.2c0-3.7 3-6.7 6.7-6.7h49.2c3.7 0 6.7 3 6.7 6.7z" fill="#cfb894"/><path d="m188.9 2.2h-6.7c3.7 0 6.7 3 6.7 6.7v11.2c0 .8-.1 1.5-.4 2.2-.9 2.7-3.5 4.5-6.3 4.5h6.7c2.8 0 5.4-1.8 6.3-4.5.3-.7.4-1.5.4-2.2v-11.1c0-3.7-3-6.7-6.7-6.8z" fill="#e0cfbe"/><path d="m139.7 26.8h49.2c3.7 0 6.7 3 6.7 6.7v11.2c0 3.7-3 6.7-6.7 6.7h-49.2c-3.7 0-6.7-3-6.7-6.7v-11.2c0-3.7 3-6.7 6.7-6.7z" fill="#cfb894"/><path d="m188.9 26.8h-6.7c3.7 0 6.7 3 6.7 6.7v11.2c0 3.7-3 6.7-6.7 6.7h6.7c3.7 0 6.7-3 6.7-6.7v-11.2c0-3.7-3-6.7-6.7-6.7z" fill="#e0cfbe"/><path d="m139.7 51.4h49.2c3.7 0 6.7 3 6.7 6.7v11.2c0 3.7-3 6.7-6.7 6.7h-49.2c-3.7 0-6.7-3-6.7-6.7v-11.2c0-3.7 3-6.7 6.7-6.7z" fill="#cfb894"/><path d="m188.9 51.4h-6.7c3.7 0 6.7 3 6.7 6.7v11.2c0 3.7-3 6.7-6.7 6.7h6.7c3.7 0 6.7-3 6.7-6.7v-11.2c0-3.7-3-6.7-6.7-6.7z" fill="#e0cfbe"/><circle cx="164.3" cy="89.4" fill="#e8ecf7" r="4.5"/><path d="m164.3 85c-2.5 0-4.5 2-4.5 4.4 0 2.5 2 4.5 4.4 4.5 1.3 0 2.6-.6 3.4-1.6-1.5-1.7-1.5-4.2 0-5.9-.8-.9-2-1.4-3.3-1.4z" fill="#fff"/><path d="m143.6 1.6c-15.1.9-10.3 15.1-10.2 20.8.9 2.7 3.5 4.5 6.3 4.5-3.7 0-6.7 3-6.7 6.7v11.2c0 3.7 3 6.7 6.7 6.7-3.7 0-6.7 3-6.7 6.7v11.2c0 3.7 3 6.7 6.7 6.7h6.7c-3.7 0-6.7-3-6.7-6.7v-11.3c0-3.7 3-6.7 6.7-6.7-3.7 0-6.7-3-6.7-6.7v-11.2c0-3.7 3-6.7 6.7-6.7-2.8 0-5.4-1.8-6.3-4.5v-15.3s.5-3.5 3.4-3.5c4 0 .1-1.9.1-1.9z" fill="#927347"/><circle cx="141.9" cy="11.2" fill="#6f6f6f" r="2.2"/><circle cx="141.9" cy="17.9" fill="#6f6f6f" r="2.2"/><circle cx="141.9" cy="35.8" fill="#6f6f6f" r="2.2"/><circle cx="141.9" cy="42.5" fill="#6f6f6f" r="2.2"/><path d="m139.7 73.8h17.9v4.5h-17.9z" fill="#333"/><circle cx="141.9" cy="60.3" fill="#6f6f6f" r="2.2"/><circle cx="141.9" cy="67.1" fill="#6f6f6f" r="2.2"/><path d="m186.6 9h-6.7c-1.2 0-2.2 1-2.2 2.2s1 2.2 2.2 2.2h6.7c1.2 0 2.3-.9 2.3-2.2 0-1.2-.9-2.3-2.2-2.3h-.1z" fill="#6f6f6f"/><path d="m186.6 15.6h-6.7c-1.2.1-2.2 1.2-2.1 2.4.1 1.1 1 2 2.1 2.1h6.7c1.2.1 2.3-.8 2.4-2.1.1-1.2-.8-2.2-2-2.4z" fill="#6f6f6f"/><path d="m186.6 33.5h-6.7c-1.2.1-2.2 1.2-2.1 2.4.1 1.1 1 2 2.1 2.1h6.7c1.2-.1 2.2-1.2 2.1-2.4-.1-1.1-1-2-2.1-2.1z" fill="#6f6f6f"/><path d="m186.6 40.2h-6.7c-1.2.1-2.2 1.2-2.1 2.4.1 1.1 1 2 2.1 2.1h6.7c1.2-.1 2.2-1.2 2.1-2.4-.1-1.1-1-2-2.1-2.1z" fill="#6f6f6f"/><path d="m148.7 78.2c-1.2-.1-2.2-1.2-2.1-2.4.1-1.1 1-2 2.1-2.1 1.2.1 2.2 1.2 2.1 2.4s-1 2.1-2.1 2.1z" fill="#6f6f6f"/><path d="m179.9 62.6h6.7c1.2.1 2.3-.8 2.4-2.1.1-1.2-.8-2.2-2-2.4h-7.1c-1.2.1-2.2 1.2-2.1 2.4s1 2 2.1 2.1z" fill="#6f6f6f"/><path d="m179.9 69.3h6.7c1.2.1 2.3-.8 2.4-2.1.1-1.2-.8-2.2-2-2.4h-7.1c-1.2.1-2.2 1.2-2.1 2.4.1 1.1 1 2 2.1 2.1z" fill="#6f6f6f"/><path d="m193.3 20.1c0 2.5-2 4.5-4.4 4.5h-49.2c-2.5 0-4.5-2-4.5-4.5v-11.1c0-2.5 2-4.5 4.5-4.5h49.2c2.5 0 4.5 2 4.5 4.5zm4.5-.3v-10.8c0-4.9-4-8.9-8.9-8.9h-49.2c-4.9 0-8.9 4-8.9 8.9v10.9c0 1.6.4 3.2 1.2 4.7.6.8 1.2 1.6 1.9 2.3-2 1.7-3.1 4.1-3.1 6.7v11.2c0 2.6 1.1 5 3.1 6.7-2 1.7-3.1 4.1-3.1 6.7v11.2c0 4.9 4 8.9 8.9 8.9 1.2-.1 2.2-1.2 2.1-2.4-.1-1.1-1-2-2.1-2.1-2.5 0-4.5-2-4.5-4.5v-11.2c0-2.5 2-4.5 4.4-4.5h49.2c2.5 0 4.5 2 4.5 4.5v11.2c0 2.5-2 4.5-4.4 4.5h-31.3c-1.2.1-2.2 1.2-2.1 2.4.1 1.1 1 2 2.1 2.1h4.5v4.9c-1.9.7-3.4 2.2-4.1 4.1h-58.6c-1.2.1-2.2 1.2-2.1 2.4.1 1.1 1 2 2.1 2.1h58.6c1.2 3.5 5 5.3 8.5 4.1 2-.7 3.5-2.2 4.1-4.2.1 0 .3.1.4.1h58.1c1.2.1 2.3-.9 2.4-2.1s-.9-2.3-2.1-2.4h-58.4c-.1 0-.3 0-.4.1-.7-1.9-2.2-3.5-4.1-4.1v-4.9h22.4c4.9 0 8.9-4 8.9-8.9v-11.4c0-2.6-1.1-5-3.1-6.7 2-1.7 3.1-4.1 3.1-6.7v-11.2c0-2.6-1.1-5-3.1-6.7.8-.6 3.1-2.2 3.1-7zm-8.9 29.4h-49.2c-2.5 0-4.5-2-4.5-4.5v-11.2c0-2.5 2-4.5 4.5-4.5h49.2c2.5 0 4.5 2 4.5 4.5v11.2c0 2.5-2 4.5-4.5 4.5zm-24.6 42.4c-1.2 0-2.2-1-2.2-2.2s1-2.2 2.2-2.2 2.2 1 2.2 2.2c0 1.2-1 2.2-2.2 2.2z" fill="#6f6f6f"/><path d="m325.5 9v11.2c0 .8-.1 1.5-.4 2.2-.9 2.7-3.5 4.5-6.3 4.5h-49.2c-2.8 0-5.4-1.8-6.3-4.5-.3-.7-.4-1.5-.4-2.2v-11.2c0-3.7 3-6.7 6.7-6.7h49.2c3.7 0 6.7 3 6.7 6.7z" fill="#b0b0b0"/><path d="m318.8 2.2h-6.8c3.7 0 6.7 3 6.7 6.7v11.2c0 .8-.1 1.5-.4 2.2-.9 2.7-3.5 4.5-6.3 4.5h6.7c2.8 0 5.4-1.8 6.3-4.5.3-.7.4-1.5.4-2.2v-11.1c.1-3.7-2.9-6.7-6.6-6.8z" fill="#cacaca"/><path d="m269.6 26.8h49.2c3.7 0 6.7 3 6.7 6.7v11.2c0 3.7-3 6.7-6.7 6.7h-49.2c-3.7 0-6.7-3-6.7-6.7v-11.2c0-3.7 3-6.7 6.7-6.7z" fill="#b0b0b0"/><path d="m318.8 26.8h-6.8c3.7 0 6.7 3 6.7 6.7v11.2c0 3.7-3 6.7-6.7 6.7h6.7c3.7 0 6.7-3 6.7-6.7v-11.2c.1-3.7-2.9-6.7-6.6-6.7z" fill="#cacaca"/><path d="m269.6 51.4h49.2c3.7 0 6.7 3 6.7 6.7v11.2c0 3.7-3 6.7-6.7 6.7h-49.2c-3.7 0-6.7-3-6.7-6.7v-11.2c0-3.7 3-6.7 6.7-6.7z" fill="#b0b0b0"/><path d="m318.8 51.4h-6.8c3.7 0 6.7 3 6.7 6.7v11.2c0 3.7-3 6.7-6.7 6.7h6.7c3.7 0 6.7-3 6.7-6.7v-11.2c.1-3.7-2.9-6.7-6.6-6.7z" fill="#cacaca"/><circle cx="294.2" cy="89.4" fill="#e8ecf7" r="4.5"/><path d="m294.2 85c-2.5 0-4.5 2-4.5 4.4 0 2.5 2 4.5 4.4 4.5 1.3 0 2.6-.6 3.4-1.6-1.5-1.7-1.5-4.2 0-5.9-.8-.9-2-1.4-3.3-1.4z" fill="#fff"/><path d="m273.5 1.6c-15.1.9-10.3 15.1-10.3 20.8.9 2.7 3.5 4.5 6.3 4.5-3.7 0-6.7 3-6.7 6.7v11.2c0 3.7 3 6.7 6.7 6.7-3.7 0-6.7 3-6.7 6.7v11.2c0 3.7 3 6.7 6.7 6.7h6.7c-3.7 0-6.7-3-6.7-6.7v-11.3c0-3.7 3-6.7 6.7-6.7-3.7 0-6.7-3-6.7-6.7v-11.2c0-3.7 3-6.7 6.7-6.7-2.8 0-5.4-1.8-6.3-4.5v-15.3s.5-3.5 3.3-3.5c4.2 0 .3-1.9.3-1.9z" fill="#969696"/><circle cx="271.8" cy="11.2" fill="#6f6f6f" r="2.2"/><circle cx="271.8" cy="17.9" fill="#6f6f6f" r="2.2"/><circle cx="271.8" cy="35.8" fill="#6f6f6f" r="2.2"/><circle cx="271.8" cy="42.5" fill="#6f6f6f" r="2.2"/><path d="m269.6 73.8h17.9v4.5h-17.9z" fill="#333"/><circle cx="271.8" cy="60.3" fill="#6f6f6f" r="2.2"/><circle cx="271.8" cy="67.1" fill="#6f6f6f" r="2.2"/><path d="m316.5 9h-6.7c-1.2 0-2.2 1-2.2 2.2s1 2.2 2.2 2.2h6.7c1.2 0 2.3-.9 2.3-2.2 0-1.2-.9-2.3-2.2-2.3h-.1z" fill="#6f6f6f"/><path d="m316.5 15.6h-6.7c-1.2.1-2.2 1.2-2.1 2.4.1 1.1 1 2 2.1 2.1h6.7c1.2 0 2.2-1.1 2.2-2.3 0-1.1-.9-2.1-2-2.2z" fill="#6f6f6f"/><path d="m316.5 33.5h-6.7c-1.2.1-2.2 1.2-2.1 2.4.1 1.1 1 2 2.1 2.1h6.7c1.2-.1 2.2-1.2 2.1-2.4-.1-1.1-1-2-2.1-2.1z" fill="#6f6f6f"/><path d="m316.5 40.2h-6.7c-1.2-.1-2.3.9-2.4 2.1s.9 2.3 2.1 2.4h7c1.2-.1 2.2-1.2 2.1-2.4-.1-1.1-1-2-2.1-2.1z" fill="#6f6f6f"/><path d="m278.6 78.2c-1.2-.1-2.2-1.2-2.1-2.4.1-1.1 1-2 2.1-2.1 1.2-.1 2.3.9 2.4 2.1s-.9 2.3-2.1 2.4z" fill="#6f6f6f"/><path d="m309.8 62.6h6.7c1.2 0 2.2-1.1 2.2-2.3 0-1.1-.9-2.1-2-2.2h-6.9c-1.2.1-2.2 1.2-2.1 2.4.1 1.1 1 2 2.1 2.1z" fill="#6f6f6f"/><path d="m309.8 69.3h6.7c1.2 0 2.2-1.1 2.2-2.3 0-1.1-.9-2.1-2-2.2h-6.9c-1.2.1-2.2 1.2-2.1 2.4.1 1.1 1 2 2.1 2.1z" fill="#6f6f6f"/><path d="m323.2 20.1c0 2.5-2 4.5-4.5 4.5h-49.2c-2.5 0-4.5-2-4.5-4.5v-11.1c0-2.5 2-4.5 4.5-4.5h49.2c2.5 0 4.5 2 4.5 4.5zm4.5-.3v-10.8c0-4.9-4-8.9-8.9-8.9h-49.2c-4.9 0-8.9 4-8.9 8.9v10.9c0 1.6.4 3.2 1.2 4.7.6.8 1.2 1.6 1.9 2.3-2 1.7-3.1 4.1-3.1 6.7v11.2c0 2.6 1.1 5 3.1 6.7-2 1.7-3.1 4.1-3.1 6.7v11.2c0 4.9 4 8.9 8.9 8.9 1.2.1 2.3-.9 2.4-2.1s-.9-2.3-2.1-2.4h-.3c-2.5 0-4.5-2-4.5-4.5v-11.2c0-2.5 2-4.5 4.4-4.5h49.2c2.5 0 4.5 2 4.5 4.5v11.2c0 2.5-2 4.5-4.5 4.5h-31.3c-1.2-.1-2.3.9-2.4 2.1s.9 2.3 2.1 2.4h4.8v4.9c-1.9.7-3.4 2.2-4.1 4.1h-58.5c-1.2-.1-2.3.9-2.4 2.1s.9 2.3 2.1 2.4h58.8c1.2 3.5 5 5.3 8.5 4.1 2-.7 3.5-2.2 4.1-4.2.1 0 .3.1.4.1h58.2c1.2-.1 2.2-1.2 2.1-2.4-.1-1.1-1-2-2.1-2.1h-58.1c-.1 0-.3 0-.4.1-.7-1.9-2.2-3.5-4.1-4.1v-4.9h22.3c4.9 0 8.9-4 8.9-8.9v-11.4c0-2.6-1.1-5-3.1-6.7 2-1.7 3.1-4.1 3.1-6.7v-11.2c0-2.6-1.1-5-3.1-6.7.9-.6 3.2-2.2 3.2-7zm-8.9 29.4h-49.2c-2.5 0-4.5-2-4.5-4.5v-11.2c0-2.5 2-4.5 4.5-4.5h49.2c2.5 0 4.5 2 4.5 4.5v11.2c-.1 2.5-2.1 4.5-4.5 4.5zm-24.6 42.4c-1.2 0-2.2-1-2.2-2.2s1-2.2 2.2-2.2 2.2 1 2.2 2.2c0 1.2-1 2.2-2.2 2.2z" fill="#6f6f6f"/><path d="m198.1 116v11.2c0 .8-.1 1.5-.4 2.2-.9 2.7-3.5 4.5-6.3 4.5h-49.2c-2.8 0-5.4-1.8-6.3-4.5-.3-.7-.4-1.5-.4-2.2v-11.2c0-3.7 3-6.7 6.7-6.7h49.2c3.6 0 6.6 3 6.7 6.7z" fill="#b0b0b0"/><path d="m191.3 109.3h-6.7c3.7 0 6.7 3 6.7 6.7v11.2c0 .8-.1 1.5-.4 2.2-.9 2.7-3.5 4.5-6.3 4.5h6.7c2.8 0 5.4-1.8 6.3-4.5.3-.7.4-1.5.4-2.2v-11.2c0-3.7-3-6.7-6.7-6.7z" fill="#cacaca"/><path d="m142.2 133.8h49.2c3.7 0 6.7 3 6.7 6.7v11.2c0 3.7-3 6.7-6.7 6.7h-49.2c-3.7 0-6.7-3-6.7-6.7v-11.2c-.1-3.6 3-6.7 6.7-6.7z" fill="#b0b0b0"/><path d="m191.3 133.9h-6.7c3.7 0 6.7 3 6.7 6.7v11.1c0 3.7-3 6.7-6.7 6.7h6.7c3.7 0 6.7-3 6.7-6.7v-11.1c0-3.7-3-6.7-6.7-6.7z" fill="#cacaca"/><path d="m142.2 158.4h49.2c3.7 0 6.7 3 6.7 6.7v11.2c0 3.7-3 6.7-6.7 6.7h-49.2c-3.7 0-6.7-3-6.7-6.7v-11.2c-.1-3.7 3-6.7 6.7-6.7z" fill="#b0b0b0"/><path d="m191.3 158.4h-6.7c3.7 0 6.7 3 6.7 6.7v11.2c0 3.7-3 6.7-6.7 6.7h6.7c3.7 0 6.7-3 6.7-6.7v-11.2c0-3.7-3-6.7-6.7-6.7z" fill="#cacaca"/><circle cx="166.7" cy="196.4" fill="#e8ecf7" r="4.5"/><path d="m166.7 192c-2.5 0-4.5 2-4.5 4.5s2 4.5 4.5 4.5c1.3 0 2.5-.6 3.4-1.5-1.5-1.7-1.5-4.2 0-5.9-.8-1.1-2.1-1.6-3.4-1.6z" fill="#fff"/><path d="m146.1 108.6c-15.1.9-10.2 15.1-10.2 20.8.9 2.7 3.5 4.5 6.3 4.5-3.7 0-6.7 3-6.7 6.7v11.2c0 3.7 3 6.7 6.7 6.7-3.7 0-6.7 3-6.7 6.7v11.2c0 3.7 3 6.7 6.7 6.7h6.7c-3.7 0-6.7-3-6.7-6.7v-11.2c0-3.7 3-6.7 6.7-6.7-3.7 0-6.7-3-6.7-6.7v-11.2c0-3.7 3-6.7 6.7-6.7-2.8 0-5.4-1.8-6.3-4.5v-15.3s.5-3.5 3.4-3.5c4 0 .1-2 .1-2z" fill="#969696"/><circle cx="144.4" cy="118.2" fill="#6f6f6f" r="2.2"/><circle cx="144.4" cy="124.9" fill="#6f6f6f" r="2.2"/><circle cx="144.4" cy="142.8" fill="#6f6f6f" r="2.2"/><circle cx="144.4" cy="149.5" fill="#6f6f6f" r="2.2"/><path d="m142.2 180.8h17.9v4.5h-17.9z" fill="#333"/><circle cx="144.4" cy="167.4" fill="#6f6f6f" r="2.2"/><circle cx="144.4" cy="174.1" fill="#6f6f6f" r="2.2"/><path d="m189.1 116h-6.7c-1.2.1-2.2 1.2-2.1 2.4.1 1.1 1 2 2.1 2.1h6.7c1.2 0 2.2-1.1 2.2-2.3 0-1.1-.9-2.1-2-2.2z" fill="#6f6f6f"/><path d="m189.1 122.7h-6.7c-1.2 0-2.2 1-2.2 2.2s1 2.2 2.2 2.2h6.7c1.2 0 2.3-.9 2.3-2.2s-.9-2.3-2.2-2.3h-.1z" fill="#6f6f6f"/><path d="m189.1 140.6h-6.7c-1.2.1-2.2 1.2-2.1 2.4.1 1.1 1 2 2.1 2.1h6.7c1.2-.1 2.2-1.2 2.1-2.4s-1-2.1-2.1-2.1z" fill="#6f6f6f"/><path d="m189.1 147.3h-6.7c-1.2-.1-2.3.9-2.4 2.1s.9 2.3 2.1 2.4h7c1.2-.1 2.2-1.2 2.1-2.4s-1-2.1-2.1-2.1z" fill="#6f6f6f"/><path d="m151.1 185.3c-1.2-.1-2.2-1.2-2.1-2.4.1-1.1 1-2 2.1-2.1 1.2-.1 2.3.9 2.4 2.1s-.9 2.3-2.1 2.4c-.1 0-.2 0-.3 0z" fill="#6f6f6f"/><path d="m182.4 169.6h6.7c1.2 0 2.3-.9 2.3-2.1 0-1.2-.9-2.3-2.2-2.3h-6.9c-1.2.1-2.2 1.2-2.1 2.4.2 1.1 1.1 1.9 2.2 2z" fill="#6f6f6f"/><path d="m182.4 176.3h6.7c1.2 0 2.2-1.1 2.2-2.3 0-1.1-.9-2.1-2-2.2h-6.9c-1.2.1-2.2 1.2-2.1 2.4s1 2.1 2.1 2.1z" fill="#6f6f6f"/><path d="m195.8 127.2c0 2.5-2 4.5-4.5 4.5h-49.2c-2.5 0-4.5-2-4.5-4.4v-11.3c0-2.5 2-4.5 4.4-4.5h49.2c2.5 0 4.5 2 4.5 4.5v11.2zm4.5-.3v-10.9c0-4.9-4-8.9-8.9-8.9h-49.2c-4.9 0-8.9 4-8.9 8.9v10.9c0 1.6.4 3.2 1.2 4.7.6.8 1.2 1.6 1.9 2.3-2 1.7-3.1 4.1-3.1 6.7v11.1c0 2.6 1.1 5 3.1 6.7-2 1.7-3.1 4.1-3.1 6.7v11.2c0 4.9 4 8.9 8.9 8.9 1.2-.1 2.2-1.2 2.1-2.4-.1-1.1-1-2-2.1-2.1-2.5 0-4.5-2-4.5-4.5v-11.1c0-2.5 2-4.5 4.5-4.5h49.2c2.5 0 4.5 2 4.5 4.5v11.2c0 2.5-2 4.5-4.5 4.5h-31.3c-1.2-.1-2.3.9-2.4 2.1s.9 2.3 2.1 2.4h.3 4.5v4.9c-1.9.7-3.4 2.2-4.1 4.1h-58.6c-1.2.1-2.2 1.2-2.1 2.4.1 1.1 1 2 2.1 2.1h58.5c1.2 3.5 5 5.3 8.5 4.1 2-.7 3.5-2.2 4.1-4.2.1 0 .3.1.4.1h58.1c1.2-.1 2.2-1.2 2.1-2.4-.1-1.1-1-2-2.1-2.1h-58.1l-.4.1c-.7-1.9-2.2-3.5-4.1-4.1v-4.9h22.4c4.9 0 8.9-4 8.9-8.9v-11.2c0-2.6-1.1-5-3.1-6.7 2-1.7 3.1-4.1 3.1-6.7v-11.2c0-2.6-1.1-5-3.1-6.7.8-.8 3.2-2.4 3.2-7.1zm-9 29.3h-49.2c-2.5 0-4.5-2-4.5-4.5v-11.2c0-2.5 2-4.5 4.4-4.5h49.2c2.5 0 4.5 2 4.5 4.5v11.1c.1 2.6-1.9 4.6-4.4 4.6zm-24.6 42.5c-1.2 0-2.2-1-2.2-2.2s1-2.2 2.2-2.2 2.2 1 2.2 2.2c.1 1.2-.9 2.2-2.2 2.2z" fill="#6f6f6f"/><path d="m328.2 116v11.2c0 .8-.1 1.5-.4 2.2-.9 2.7-3.5 4.5-6.3 4.5h-49.2c-2.8 0-5.4-1.8-6.3-4.5-.3-.7-.4-1.5-.4-2.2v-11.2c0-3.7 3-6.7 6.7-6.7h49.2c3.7 0 6.7 3 6.7 6.7z" fill="#b0b0b0"/><path d="m321.5 109.3h-6.7c3.7 0 6.7 3 6.7 6.7v11.2c0 .8-.1 1.5-.4 2.2-.9 2.7-3.5 4.5-6.3 4.5h6.7c2.8 0 5.4-1.8 6.3-4.5.3-.7.4-1.5.4-2.2v-11.2c0-3.7-3-6.7-6.7-6.7z" fill="#cacaca"/><path d="m272.3 133.8h49.2c3.7 0 6.7 3 6.7 6.7v11.2c0 3.7-3 6.7-6.7 6.7h-49.2c-3.7 0-6.7-3-6.7-6.7v-11.2c0-3.6 3-6.7 6.7-6.7z" fill="#b0b0b0"/><path d="m321.5 133.9h-6.7c3.7 0 6.7 3 6.7 6.7v11.1c0 3.7-3 6.7-6.7 6.7h6.7c3.7 0 6.7-3 6.7-6.7v-11.1c0-3.7-3-6.7-6.7-6.7z" fill="#cacaca"/><path d="m272.3 158.4h49.2c3.7 0 6.7 3 6.7 6.7v11.2c0 3.7-3 6.7-6.7 6.7h-49.2c-3.7 0-6.7-3-6.7-6.7v-11.2c0-3.7 3-6.7 6.7-6.7z" fill="#b0b0b0"/><path d="m321.5 158.4h-6.7c3.7 0 6.7 3 6.7 6.7v11.2c0 3.7-3 6.7-6.7 6.7h6.7c3.7 0 6.7-3 6.7-6.7v-11.2c0-3.7-3-6.7-6.7-6.7z" fill="#cacaca"/><circle cx="296.9" cy="196.4" fill="#e8ecf7" r="4.5"/><path d="m296.9 192c-2.5 0-4.5 2-4.5 4.4 0 2.5 2 4.5 4.4 4.5 1.3 0 2.5-.6 3.4-1.5-1.5-1.7-1.5-4.2 0-5.9-.8-1-2-1.5-3.3-1.5z" fill="#fff"/><path d="m276.3 108.6c-15.1.9-10.3 15.1-10.2 20.8.9 2.7 3.5 4.5 6.3 4.5-3.7 0-6.7 3-6.7 6.7v11.2c0 3.7 3 6.7 6.7 6.7-3.7 0-6.7 3-6.7 6.7v11.2c0 3.7 3 6.7 6.7 6.7h6.8c-3.7 0-6.7-3-6.7-6.7v-11.2c0-3.7 3-6.7 6.7-6.7-3.7 0-6.7-3-6.7-6.7v-11.2c0-3.7 3-6.7 6.7-6.7-2.8 0-5.4-1.8-6.3-4.5v-15.3s.5-3.5 3.4-3.5c3.8 0 0-2 0-2z" fill="#969696"/><circle cx="274.5" cy="118.2" fill="#6f6f6f" r="2.2"/><circle cx="274.5" cy="124.9" fill="#6f6f6f" r="2.2"/><circle cx="274.5" cy="142.8" fill="#6f6f6f" r="2.2"/><circle cx="274.5" cy="149.5" fill="#6f6f6f" r="2.2"/><path d="m272.3 180.8h17.9v4.5h-17.9z" fill="#333"/><circle cx="274.5" cy="167.4" fill="#6f6f6f" r="2.2"/><circle cx="274.5" cy="174.1" fill="#6f6f6f" r="2.2"/><path d="m319.3 116h-6.7c-1.2.1-2.2 1.2-2.1 2.4.1 1.1 1 2 2.1 2.1h6.7c1.2.1 2.3-.8 2.4-2.1.1-1.2-.8-2.2-2-2.4z" fill="#6f6f6f"/><path d="m319.3 122.7h-6.7c-1.2 0-2.2 1-2.2 2.2s1 2.2 2.2 2.2h6.7c1.2 0 2.3-.9 2.3-2.2 0-1.2-.9-2.3-2.2-2.3h-.1z" fill="#6f6f6f"/><path d="m319.3 140.6h-6.7c-1.2.1-2.2 1.2-2.1 2.4.1 1.1 1 2 2.1 2.1h6.7c1.2-.1 2.2-1.2 2.1-2.4s-1-2.1-2.1-2.1z" fill="#6f6f6f"/><path d="m319.3 147.3h-6.7c-1.2.1-2.2 1.2-2.1 2.4.1 1.1 1 2 2.1 2.1h6.7c1.2-.1 2.2-1.2 2.1-2.4s-1-2.1-2.1-2.1z" fill="#6f6f6f"/><path d="m281.3 185.3c-1.2.1-2.3-.9-2.4-2.1s.9-2.3 2.1-2.4h.3c1.2.1 2.2 1.2 2.1 2.4-.1 1.1-1 2-2.1 2.1z" fill="#6f6f6f"/><path d="m312.5 169.6h6.7c1.2.1 2.3-.8 2.4-2.1.1-1.2-.8-2.2-2-2.4h-7.1c-1.2.1-2.2 1.2-2.1 2.4s1 2.1 2.1 2.1z" fill="#6f6f6f"/><path d="m312.5 176.3h6.7c1.2.1 2.3-.8 2.4-2.1.1-1.2-.8-2.2-2-2.4h-7.1c-1.2.1-2.2 1.2-2.1 2.4s1 2.1 2.1 2.1z" fill="#6f6f6f"/><path d="m326 127.2c0 2.5-2 4.5-4.5 4.5h-49.2c-2.5 0-4.5-2-4.5-4.4v-11.3c0-2.5 2-4.5 4.5-4.5h49.2c2.5 0 4.5 2 4.5 4.5zm4.4-.3v-10.9c0-4.9-4-8.9-8.9-8.9h-49.2c-4.9 0-8.9 4-8.9 8.9v10.9c0 1.6.4 3.2 1.2 4.7.6.8 1.2 1.6 1.9 2.3-2 1.7-3.1 4.1-3.1 6.7v11.1c0 2.6 1.1 5 3.1 6.7-2 1.7-3.1 4.1-3.1 6.7v11.2c0 4.9 4 8.9 8.9 8.9 1.2-.1 2.2-1.2 2.1-2.4-.1-1.1-1-2-2.1-2.1-2.5 0-4.5-2-4.5-4.5v-11.1c0-2.5 2-4.5 4.5-4.5h49.2c2.5 0 4.5 2 4.5 4.5v11.2c0 2.5-2 4.5-4.4 4.5h-31.3c-1.2.1-2.2 1.2-2.1 2.4.1 1.1 1 2 2.1 2.1h4.5v4.9c-1.9.7-3.4 2.2-4.1 4.1h-58.6c-1.2.1-2.2 1.2-2.1 2.4.1 1.1 1 2 2.1 2.1h58.5c1.2 3.5 5 5.3 8.5 4.1 2-.7 3.5-2.2 4.1-4.2.1 0 .3.1.4.1h58.1c1.2.1 2.3-.9 2.4-2.1s-.9-2.3-2.1-2.4h-58.4c-.1 0-.3 0-.4.1-.7-1.9-2.2-3.5-4.1-4.1v-4.9h22.4c4.9 0 8.9-4 8.9-8.9v-11.2c0-2.6-1.1-5-3.1-6.7 2-1.7 3.1-4.1 3.1-6.7v-11.2c0-2.6-1.1-5-3.1-6.7.8-.8 3.1-2.4 3.1-7.1zm-8.9 29.3h-49.2c-2.5 0-4.5-2-4.4-4.5v-11.1c0-2.5 2-4.5 4.4-4.5h49.2c2.5 0 4.5 2 4.5 4.5v11.1c0 2.4-2 4.4-4.5 4.5zm-24.6 42.5c-1.2 0-2.2-1-2.2-2.2s1-2.2 2.2-2.2 2.2 1 2.2 2.2c0 1.2-1 2.2-2.2 2.2z" fill="#6f6f6f"/><path d="m64.9 116v11.2c0 .8-.1 1.5-.4 2.2-.9 2.7-3.5 4.5-6.3 4.5h-49.3c-2.8 0-5.4-1.8-6.3-4.5-.3-.7-.4-1.5-.4-2.2v-11.2c0-3.7 3-6.7 6.7-6.7h49.2c3.7 0 6.7 3 6.8 6.7z" fill="#b0b0b0"/><path d="m58.1 109.3h-6.7c3.7 0 6.7 3 6.7 6.7v11.2c0 .8-.1 1.5-.4 2.2-.9 2.7-3.5 4.5-6.3 4.5h6.7c2.8 0 5.4-1.8 6.3-4.5.3-.7.4-1.5.4-2.2v-11.2c0-3.7-3-6.7-6.7-6.7z" fill="#cacaca"/><path d="m8.9 133.8h49.2c3.7 0 6.7 3 6.7 6.7v11.2c0 3.7-3 6.7-6.7 6.7h-49.2c-3.7 0-6.7-3-6.7-6.7v-11.2c0-3.6 3-6.7 6.7-6.7z" fill="#b0b0b0"/><path d="m58.1 133.9h-6.7c3.7 0 6.7 3 6.7 6.7v11.1c0 3.7-3 6.7-6.7 6.7h6.7c3.7 0 6.7-3 6.8-6.7v-11.1c0-3.7-3-6.7-6.8-6.7z" fill="#cacaca"/><path d="m8.9 158.4h49.2c3.7 0 6.7 3 6.7 6.7v11.2c0 3.7-3 6.7-6.7 6.7h-49.2c-3.7 0-6.7-3-6.7-6.7v-11.2c0-3.7 3-6.7 6.7-6.7z" fill="#b0b0b0"/><path d="m58.1 158.4h-6.7c3.7 0 6.7 3 6.7 6.7v11.2c0 3.7-3 6.7-6.7 6.7h6.7c3.7 0 6.7-3 6.7-6.7v-11.2c0-3.7-3-6.6-6.7-6.7z" fill="#cacaca"/><circle cx="33.5" cy="196.4" fill="#e8ecf7" r="4.5"/><path d="m33.5 192c-2.5 0-4.5 2-4.5 4.4 0 2.5 2 4.5 4.4 4.5 1.3 0 2.5-.6 3.4-1.5-1.5-1.7-1.5-4.2 0-5.9-.8-1-2-1.5-3.3-1.5z" fill="#fff"/><path d="m12.9 108.6c-15.1.9-10.3 15.1-10.3 20.8.9 2.7 3.5 4.5 6.3 4.5-3.7 0-6.7 3-6.7 6.7v11.2c0 3.7 3 6.7 6.7 6.7-3.7 0-6.7 3-6.7 6.7v11.2c0 3.7 3 6.7 6.7 6.7h6.7c-3.7 0-6.7-3-6.7-6.7v-11.2c0-3.7 3-6.7 6.7-6.7-3.7 0-6.7-3-6.7-6.7v-11.2c0-3.7 3-6.7 6.7-6.7-2.8 0-5.4-1.8-6.3-4.5v-15.3s.6-3.5 3.4-3.5c4.1 0 .2-2 .2-2z" fill="#969696"/><circle cx="11.2" cy="118.2" fill="#6f6f6f" r="2.2"/><circle cx="11.2" cy="124.9" fill="#6f6f6f" r="2.2"/><circle cx="11.2" cy="142.8" fill="#6f6f6f" r="2.2"/><circle cx="11.2" cy="149.5" fill="#6f6f6f" r="2.2"/><path d="m8.9 180.8h17.9v4.5h-17.9z" fill="#333"/><circle cx="11.2" cy="167.4" fill="#6f6f6f" r="2.2"/><circle cx="11.2" cy="174.1" fill="#6f6f6f" r="2.2"/><path d="m55.9 116h-6.7c-1.2.1-2.2 1.2-2.1 2.4.1 1.1 1 2 2.1 2.1h6.7c1.2.1 2.3-.7 2.5-2s-.7-2.3-2-2.5h-.1z" fill="#6f6f6f"/><path d="m55.9 122.7h-6.7c-1.2 0-2.2 1-2.2 2.2s1 2.2 2.2 2.2h6.7c1.2 0 2.3-.9 2.3-2.2s-.9-2.3-2.2-2.3h-.1z" fill="#6f6f6f"/><path d="m55.9 140.6h-6.7c-1.2-.1-2.3.9-2.4 2.1s.9 2.3 2.1 2.4h7c1.2.1 2.3-.9 2.4-2.1s-.9-2.3-2.1-2.4z" fill="#6f6f6f"/><path d="m55.9 147.3h-6.7c-1.2-.1-2.3.9-2.4 2.1s.9 2.3 2.1 2.4h7c1.2-.1 2.2-1.2 2.1-2.4s-1-2.1-2.1-2.1z" fill="#6f6f6f"/><path d="m17.9 185.3c-1.2.1-2.3-.9-2.4-2.1s.9-2.3 2.1-2.4h.3c1.2.1 2.2 1.2 2.1 2.4-.1 1.1-1 2-2.1 2.1z" fill="#6f6f6f"/><path d="m49.2 169.6h6.7c1.2.1 2.3-.7 2.5-2s-.7-2.3-2-2.5h-.1-7.1c-1.2.1-2.2 1.2-2.1 2.4s1 2.1 2.1 2.1z" fill="#6f6f6f"/><path d="m49.2 176.3h6.7c1.2.1 2.3-.7 2.5-2s-.7-2.3-2-2.5h-.1-7.1c-1.2.1-2.2 1.2-2.1 2.4s1 2.1 2.1 2.1z" fill="#6f6f6f"/><path d="m62.6 127.2c0 2.5-2 4.5-4.5 4.5h-49.2c-2.5 0-4.5-2-4.5-4.4v-11.3c0-2.5 2-4.5 4.5-4.5h49.2c2.5 0 4.5 2 4.5 4.5zm4.5-.3v-10.9c0-4.9-4-8.9-8.9-8.9h-49.3c-4.9-.1-8.9 3.9-8.9 8.9v10.9c0 1.6.4 3.2 1.2 4.7 0 0 1.1 1.4 1.9 2.3-2 1.7-3.1 4.1-3.1 6.7v11.1c0 2.6 1.1 5 3.1 6.7-2 1.7-3.1 4.1-3.1 6.7v11.2c0 4.9 4 8.9 8.9 8.9 1.2.1 2.3-.9 2.4-2.1s-.9-2.3-2.1-2.4h-.3c-2.5 0-4.5-2-4.5-4.5v-11.1c0-2.5 2-4.5 4.5-4.5h49.2c2.5 0 4.5 2 4.5 4.5v11.2c0 2.5-2 4.5-4.5 4.5h-31.2c-1.2-.1-2.3.9-2.4 2.1s.9 2.3 2.1 2.4h.3 4.5v4.9c-1.9.7-3.4 2.2-4.1 4.1-.2.7-.4 1.4-.4 2.1 0 .8.1 1.6.4 2.4 1.2 3.5 5 5.3 8.5 4.1 2-.7 3.5-2.2 4.2-4.2.1 0 .3.1.4.1h58.1c1.2.1 2.3-.9 2.4-2.1s-.9-2.3-2.1-2.4h-58.6l-.4.1c-.7-1.9-2.2-3.5-4.1-4.1v-4.9h22.4c4.9 0 8.9-4 8.9-8.9v-11.2c0-2.6-1.1-5-3.1-6.7 2-1.7 3.1-4.1 3.1-6.7v-11.2c0-2.6-1.1-5-3.1-6.7.8-.8 3.2-2.4 3.2-7.1zm-9 29.3h-49.2c-2.5 0-4.5-2-4.5-4.5v-11.2c0-2.5 2-4.5 4.5-4.5h49.2c2.5 0 4.5 2 4.5 4.5v11.1c0 2.6-2 4.6-4.5 4.6zm-24.6 42.5c-1.2 0-2.2-1-2.2-2.2s1-2.2 2.2-2.2 2.2 1 2.2 2.2c.1 1.2-.9 2.2-2.2 2.2z" fill="#6f6f6f"/><path d="m455.8 9v11.2c0 .8-.1 1.5-.4 2.2-.9 2.7-3.5 4.5-6.3 4.5h-49.1c-2.8 0-5.4-1.8-6.3-4.5-.3-.7-.4-1.5-.4-2.2v-11.2c0-3.7 3-6.7 6.7-6.7h49.2c3.6 0 6.6 3 6.6 6.7z" fill="#b0b0b0"/><path d="m449.1 2.2h-6.7c3.7 0 6.7 3 6.7 6.7v11.2c0 .8-.1 1.5-.4 2.2-.9 2.7-3.5 4.5-6.3 4.5h6.7c2.8 0 5.4-1.8 6.3-4.5.3-.7.4-1.5.4-2.2v-11.1c0-3.7-2.9-6.7-6.7-6.8z" fill="#cacaca"/><path d="m400 26.8h49.2c3.7 0 6.7 3 6.7 6.7v11.2c0 3.7-3 6.7-6.7 6.7h-49.2c-3.7 0-6.7-3-6.7-6.7v-11.2c0-3.7 3-6.7 6.7-6.7z" fill="#b0b0b0"/><path d="m449.1 26.8h-6.7c3.7 0 6.7 3 6.7 6.7v11.2c0 3.7-3 6.7-6.7 6.7h6.7c3.7 0 6.7-3 6.7-6.7v-11.2c.1-3.7-2.9-6.7-6.7-6.7z" fill="#cacaca"/><path d="m400 51.4h49.2c3.7 0 6.7 3 6.7 6.7v11.2c0 3.7-3 6.7-6.7 6.7h-49.2c-3.7 0-6.7-3-6.7-6.7v-11.2c0-3.7 3-6.7 6.7-6.7z" fill="#b0b0b0"/><path d="m449.1 51.4h-6.7c3.7 0 6.7 3 6.7 6.7v11.2c0 3.7-3 6.7-6.7 6.7h6.7c3.7 0 6.7-3 6.7-6.7v-11.2c0-3.7-3-6.7-6.7-6.7z" fill="#cacaca"/><circle cx="424.5" cy="89.4" fill="#e8ecf7" r="4.5"/><path d="m424.5 85c-2.5 0-4.5 2-4.5 4.4 0 2.5 2 4.5 4.4 4.5 1.3 0 2.6-.6 3.4-1.6-1.5-1.7-1.5-4.2 0-5.9-.7-.9-2-1.4-3.3-1.4z" fill="#fff"/><path d="m403.9 1.6c-15.1.9-10.3 15.1-10.3 20.8.9 2.7 3.5 4.5 6.3 4.5-3.7 0-6.7 3-6.7 6.7v11.2c0 3.7 3 6.7 6.7 6.7-3.7 0-6.7 3-6.7 6.7v11.2c0 3.7 3 6.7 6.7 6.7h6.7c-3.7 0-6.7-3-6.7-6.7v-11.3c0-3.7 3-6.7 6.7-6.7-3.7 0-6.7-3-6.7-6.7v-11.2c0-3.7 3-6.7 6.7-6.7-2.8 0-5.4-1.8-6.3-4.5v-15.3s.5-3.5 3.3-3.5c4.2 0 .3-1.9.3-1.9z" fill="#969696"/><circle cx="402.2" cy="11.2" fill="#6f6f6f" r="2.2"/><circle cx="402.2" cy="17.9" fill="#6f6f6f" r="2.2"/><circle cx="402.2" cy="35.8" fill="#6f6f6f" r="2.2"/><circle cx="402.2" cy="42.5" fill="#6f6f6f" r="2.2"/><path d="m400 73.8h17.9v4.5h-17.9z" fill="#333"/><circle cx="402.2" cy="60.4" fill="#6f6f6f" r="2.2"/><circle cx="402.2" cy="67.1" fill="#6f6f6f" r="2.2"/><path d="m446.9 9h-6.7c-1.2 0-2.2 1-2.2 2.2s1 2.2 2.2 2.2h6.7c1.2 0 2.3-.9 2.3-2.2 0-1.2-.9-2.3-2.2-2.3h-.1z" fill="#6f6f6f"/><path d="m446.9 15.6h-6.7c-1.2.1-2.2 1.2-2.1 2.4.1 1.1 1 2 2.1 2.1h6.7c1.2 0 2.2-1.1 2.2-2.3 0-1.1-.9-2.1-2-2.2z" fill="#6f6f6f"/><path d="m446.9 33.5h-6.7c-1.2.1-2.2 1.2-2.1 2.4.1 1.1 1 2 2.1 2.1h6.7c1.2-.1 2.2-1.2 2.1-2.4-.1-1.1-1-2-2.1-2.1z" fill="#6f6f6f"/><path d="m446.9 40.2h-6.7c-1.2-.1-2.3.9-2.4 2.1s.9 2.3 2.1 2.4h7c1.2-.1 2.2-1.2 2.1-2.4-.1-1.1-1-2-2.1-2.1z" fill="#6f6f6f"/><path d="m409 78.2c-1.2-.1-2.2-1.2-2.1-2.4.1-1.1 1-2 2.1-2.1 1.2-.1 2.3.9 2.4 2.1s-.9 2.3-2.1 2.4c-.1.1-.3.1-.3 0z" fill="#6f6f6f"/><path d="m440.2 62.6h6.7c1.2 0 2.2-1.1 2.2-2.3 0-1.1-.9-2.1-2-2.2h-6.9c-1.2.1-2.2 1.2-2.1 2.4s1 2 2.1 2.1z" fill="#6f6f6f"/><path d="m440.2 69.3h6.7c1.2 0 2.2-1.1 2.2-2.3 0-1.1-.9-2.1-2-2.2h-6.9c-1.2.1-2.2 1.2-2.1 2.4.1 1.1 1 2 2.1 2.1z" fill="#6f6f6f"/><path d="m453.6 20.1c0 2.5-2 4.5-4.5 4.5h-49.1c-2.5 0-4.5-2-4.5-4.5v-11.1c0-2.5 2-4.5 4.4-4.5h49.2c2.5 0 4.5 2 4.5 4.5zm4.5-.3v-10.8c0-4.9-4-8.9-8.9-8.9h-49.2c-4.9 0-8.9 4-8.9 8.9v10.9c0 1.6.4 3.2 1.2 4.7.6.8 1.2 1.6 1.9 2.3-2 1.7-3.1 4.1-3.1 6.7v11.2c0 2.6 1.1 5 3.1 6.7-2 1.7-3.1 4.1-3.1 6.7v11.2c0 4.9 4 8.9 8.9 8.9 1.2.1 2.3-.9 2.4-2.1s-.9-2.3-2.1-2.4h-.3c-2.5 0-4.5-2-4.5-4.5v-11.2c0-2.5 2-4.5 4.4-4.5h49.2c2.5 0 4.5 2 4.5 4.5v11.2c0 2.5-2 4.5-4.5 4.5h-31.3c-1.2-.1-2.3.9-2.4 2.1s.9 2.3 2.1 2.4h4.8v4.9c-1.9.7-3.4 2.2-4.1 4.1h-58.5c-1.2-.1-2.3.9-2.4 2.1s.9 2.3 2.1 2.4h.3 58.5c1.2 3.5 5 5.3 8.5 4.1 2-.7 3.5-2.2 4.1-4.2.1 0 .3.1.4.1h58.1c1.2-.1 2.2-1.2 2.1-2.4-.1-1.1-1-2-2.1-2.1h-58.1c-.1 0-.3 0-.4.1-.7-1.9-2.2-3.5-4.1-4.1v-4.9h22.3c4.9 0 8.9-4 8.9-8.9v-11.4c0-2.6-1.1-5-3.1-6.7 2-1.7 3.1-4.1 3.1-6.7v-11.2c0-2.6-1.1-5-3.1-6.7 1-.6 3.2-2.2 3.3-7zm-9 29.4h-49.1c-2.5 0-4.5-2-4.5-4.5v-11.2c0-2.5 2-4.5 4.4-4.5h49.2c2.5 0 4.5 2 4.5 4.5v11.2c0 2.5-2 4.5-4.5 4.5zm-24.6 42.4c-1.2 0-2.2-1-2.2-2.2s1-2.2 2.2-2.2 2.2 1 2.2 2.2c.1 1.2-.9 2.2-2.2 2.2z" fill="#6f6f6f"/><path d="m455.5 116v11.2c0 .8-.1 1.5-.4 2.2-.9 2.7-3.5 4.5-6.3 4.5h-49.2c-2.8 0-5.4-1.8-6.3-4.5-.3-.7-.4-1.5-.4-2.2v-11.2c0-3.7 3-6.7 6.7-6.7h49.2c3.7 0 6.7 3 6.7 6.7z" fill="#b0b0b0"/><path d="m448.8 109.3h-6.7c3.7 0 6.7 3 6.7 6.7v11.2c0 .8-.1 1.5-.4 2.2-.9 2.7-3.5 4.5-6.3 4.5h6.7c2.8 0 5.4-1.8 6.3-4.5.3-.7.4-1.5.4-2.2v-11.2c0-3.7-3-6.7-6.7-6.7z" fill="#cacaca"/><path d="m399.6 133.9h49.2c3.7 0 6.7 3 6.7 6.7v11.2c0 3.7-3 6.7-6.7 6.7h-49.2c-3.7 0-6.7-3-6.7-6.7v-11.2c0-3.7 3-6.7 6.7-6.7z" fill="#b0b0b0"/><path d="m448.8 133.9h-6.7c3.7 0 6.7 3 6.7 6.7v11.1c0 3.7-3 6.7-6.7 6.7h6.7c3.7 0 6.7-3 6.7-6.7v-11.1c0-3.7-3-6.7-6.7-6.7z" fill="#cacaca"/><path d="m399.6 158.4h49.2c3.7 0 6.7 3 6.7 6.7v11.2c0 3.7-3 6.7-6.7 6.7h-49.2c-3.7 0-6.7-3-6.7-6.7v-11.2c0-3.6 3-6.7 6.7-6.7z" fill="#b0b0b0"/><path d="m448.8 158.5h-6.7c3.7 0 6.7 3 6.7 6.7v11.2c0 3.7-3 6.7-6.7 6.7h6.7c3.7 0 6.7-3 6.7-6.7v-11.2c0-3.7-3-6.7-6.7-6.7z" fill="#cacaca"/><circle cx="424.2" cy="196.4" fill="#e8ecf7" r="4.5"/><path d="m424.2 192c-2.5 0-4.5 2-4.5 4.4 0 2.5 2 4.5 4.4 4.5 1.3 0 2.5-.6 3.4-1.5-1.5-1.7-1.5-4.2 0-5.9-.8-1-2-1.5-3.3-1.5z" fill="#fff"/><path d="m403.6 108.6c-15.1.9-10.3 15.1-10.2 20.8.9 2.7 3.5 4.5 6.3 4.5-3.7 0-6.7 3-6.7 6.7v11.2c0 3.7 3 6.7 6.7 6.7-3.7 0-6.7 3-6.7 6.7v11.2c0 3.7 3 6.7 6.7 6.7h6.7c-3.7 0-6.7-3-6.7-6.7v-11.2c0-3.7 3-6.7 6.7-6.7-3.7 0-6.7-3-6.7-6.7v-11.2c0-3.7 3-6.7 6.7-6.7-2.8 0-5.4-1.8-6.3-4.5v-15.3s.5-3.5 3.4-3.5c4 0 .1-2 .1-2z" fill="#969696"/><circle cx="401.9" cy="118.2" fill="#6f6f6f" r="2.2"/><circle cx="401.9" cy="124.9" fill="#6f6f6f" r="2.2"/><circle cx="401.9" cy="142.8" fill="#6f6f6f" r="2.2"/><circle cx="401.9" cy="149.5" fill="#6f6f6f" r="2.2"/><path d="m399.6 180.8h17.9v4.5h-17.9z" fill="#333"/><circle cx="401.9" cy="167.4" fill="#6f6f6f" r="2.2"/><circle cx="401.9" cy="174.1" fill="#6f6f6f" r="2.2"/><path d="m446.6 116h-6.7c-1.2.1-2.2 1.2-2.1 2.4.1 1.1 1 2 2.1 2.1h6.7c1.2.1 2.3-.8 2.4-2.1.1-1.2-.8-2.2-2-2.4z" fill="#6f6f6f"/><path d="m446.6 122.7h-6.7c-1.2 0-2.2 1-2.2 2.2s1 2.2 2.2 2.2h6.7c1.2 0 2.3-.9 2.3-2.2 0-1.2-.9-2.3-2.2-2.3h-.1z" fill="#6f6f6f"/><path d="m446.6 140.6h-6.7c-1.2.1-2.2 1.2-2.1 2.4.1 1.1 1 2 2.1 2.1h6.7c1.2-.1 2.2-1.2 2.1-2.4s-1-2-2.1-2.1z" fill="#6f6f6f"/><path d="m446.6 147.3h-6.7c-1.2.1-2.2 1.2-2.1 2.4.1 1.1 1 2 2.1 2.1h6.7c1.2-.1 2.2-1.2 2.1-2.4s-1-2-2.1-2.1z" fill="#6f6f6f"/><path d="m408.6 185.3c-1.2.1-2.3-.9-2.4-2.1s.9-2.3 2.1-2.4h.3c1.2.1 2.2 1.2 2.1 2.4-.1 1.1-1 2-2.1 2.1z" fill="#6f6f6f"/><path d="m439.9 169.6h6.7c1.2.1 2.3-.8 2.4-2.1.1-1.2-.8-2.2-2-2.4h-7.1c-1.2.1-2.2 1.2-2.1 2.4s1 2.1 2.1 2.1z" fill="#6f6f6f"/><path d="m439.9 176.3h6.7c1.2.1 2.3-.8 2.4-2.1.1-1.2-.8-2.2-2-2.4h-7.1c-1.2.1-2.2 1.2-2.1 2.4s1 2.1 2.1 2.1z" fill="#6f6f6f"/><path d="m453.3 127.2c0 2.5-2 4.5-4.5 4.5h-49.2c-2.5 0-4.5-2-4.5-4.5v-11.2c0-2.5 2-4.5 4.5-4.5h49.2c2.5 0 4.5 2 4.5 4.5zm4.5-.3v-10.9c0-4.9-4-8.9-8.9-8.9h-49.2c-4.9 0-8.9 4-8.9 8.9v10.9c0 1.6.4 3.2 1.2 4.7.6.8 1.2 1.6 1.9 2.3-2 1.7-3.1 4.1-3.1 6.7v11.1c0 2.6 1.1 5 3.1 6.7-2 1.7-3.1 4.1-3.1 6.7v11.2c0 4.9 4 8.9 8.9 8.9 1.2-.1 2.2-1.2 2.1-2.4-.1-1.1-1-2-2.1-2.1-2.5 0-4.5-2-4.5-4.5v-11.1c0-2.5 2-4.5 4.5-4.5h49.2c2.5 0 4.5 2 4.5 4.5v11.2c0 2.5-2 4.5-4.4 4.5h-31.3c-1.2.1-2.2 1.2-2.1 2.4.1 1.1 1 2 2.1 2.1h4.5v4.9c-1.9.7-3.4 2.2-4.1 4.1h-58.5c-1.2.1-2.2 1.2-2.1 2.4.1 1.1 1 2 2.1 2.1h58.4c1.2 3.5 5 5.3 8.5 4.1 2-.7 3.5-2.2 4.1-4.2.1 0 .3.1.4.1h58.1c1.2.1 2.3-.9 2.4-2.1s-.9-2.3-2.1-2.4h-58.5l-.4.1c-.7-1.9-2.2-3.5-4.1-4.1v-4.9h22.4c4.9 0 8.9-4 8.9-8.9v-11.2c0-2.6-1.1-5-3.1-6.7 2-1.7 3.1-4.1 3.1-6.7v-11.2c0-2.6-1.1-5-3.1-6.7.8-.8 3.2-2.4 3.2-7.1zm-9 29.3h-49.2c-2.5 0-4.5-2-4.4-4.5v-11.1c0-2.5 2-4.5 4.5-4.5h49.2c2.5 0 4.5 2 4.5 4.5v11.1c-.1 2.5-2.1 4.5-4.6 4.5zm-24.6 42.5c-1.2 0-2.2-1-2.2-2.2s1-2.2 2.2-2.2 2.2 1 2.2 2.2c0 1.2-1 2.2-2.2 2.2z" fill="#6f6f6f"/></svg>