<?xml version="1.0" encoding="utf-8"?>
<!-- Generator: Adobe Illustrator 28.0.0, SVG Export Plug-In . SVG Version: 6.00 Build 0)  -->
<svg version="1.1" id="Layer_1" xmlns="http://www.w3.org/2000/svg" xmlns:xlink="http://www.w3.org/1999/xlink" x="0px" y="0px"
	 viewBox="0 0 71.4 37.9" style="enable-background:new 0 0 71.4 37.9;" xml:space="preserve">
<style type="text/css">
	.st0{fill:#FFFFFF;}
	.st1{fill:#DCDCDC;}
	.st2{fill:#007194;}
	.st3{fill:#C8C8C8;}
</style>
<rect y="0" class="st0" width="71.4" height="37.9"/>
<path class="st1" d="M6.3,11.8h59.5c0.6,0,1,0.5,1,1V25c0,0.6-0.5,1-1,1H6.3c-0.6,0-1-0.5-1-1V12.8C5.3,12.3,5.8,11.8,6.3,11.8z"/>
<path class="st0" d="M51.6,22.6H11c-0.6,0-1-0.4-1-1v-5.4c0-0.6,0.4-1,1-1h40.7c0.6,0,1,0.4,1,1v5.4C52.6,22.2,52.2,22.6,51.6,22.6z
	"/>
<path class="st2" d="M62,22.6h-6.9c-0.6,0-1-0.4-1-1v-5.4c0-0.6,0.4-1,1-1H62c0.6,0,1,0.4,1,1v5.4C63,22.2,62.6,22.6,62,22.6z"/>
<path class="st0" d="M60.8,20.7l-1.2-1c0.5-0.7,0.4-1.7-0.2-2.3c-0.3-0.4-0.8-0.5-1.3-0.5c-0.5,0-0.9,0.2-1.3,0.5
	c-0.3,0.3-0.5,0.8-0.5,1.3s0.2,0.9,0.5,1.3c0.4,0.4,0.8,0.5,1.3,0.5c0.4,0,0.9-0.2,1.2-0.5l1.2,1c0,0,0.1,0,0.1,0
	c0.1,0,0.1,0,0.2-0.1C60.9,20.9,60.9,20.8,60.8,20.7z M58.1,20.1c-0.4,0-0.8-0.2-1-0.4c-0.3-0.3-0.4-0.6-0.4-1c0-0.4,0.2-0.8,0.4-1
	c0.3-0.3,0.6-0.4,1-0.4s0.8,0.2,1,0.4c0.3,0.3,0.4,0.6,0.4,1c0,0.4-0.2,0.8-0.4,1C58.8,19.9,58.5,20.1,58.1,20.1z"/>
<g>
	<path class="st3" d="M12.4,19.7c0,0.2,0.1,0.4,0.2,0.6c0.2,0.3,0.5,0.4,1,0.4c0.2,0,0.4,0,0.6-0.1c0.3-0.1,0.5-0.3,0.5-0.7
		c0-0.2-0.1-0.4-0.2-0.5c-0.1-0.1-0.4-0.2-0.7-0.3L13.2,19c-0.4-0.1-0.6-0.2-0.8-0.3C12.1,18.6,12,18.3,12,18c0-0.4,0.1-0.7,0.4-1
		s0.6-0.4,1.1-0.4c0.4,0,0.8,0.1,1.1,0.3s0.5,0.6,0.5,1h-0.5c0-0.2-0.1-0.4-0.2-0.5c-0.2-0.2-0.5-0.3-0.9-0.3
		c-0.3,0-0.6,0.1-0.7,0.2s-0.2,0.3-0.2,0.5c0,0.2,0.1,0.4,0.3,0.5c0.1,0.1,0.4,0.1,0.8,0.2l0.6,0.1c0.3,0.1,0.5,0.2,0.7,0.3
		c0.3,0.2,0.4,0.5,0.4,0.9c0,0.5-0.2,0.8-0.5,1c-0.3,0.2-0.7,0.3-1.2,0.3c-0.5,0-0.9-0.1-1.2-0.4c-0.3-0.3-0.4-0.6-0.4-1.1H12.4z"/>
	<path class="st3" d="M17.9,18c0.2,0.1,0.4,0.2,0.5,0.4c0.1,0.2,0.2,0.3,0.2,0.6c0,0.1,0,0.4,0,0.7h-2.3c0,0.3,0.1,0.6,0.2,0.8
		c0.1,0.2,0.4,0.3,0.6,0.3c0.3,0,0.5-0.1,0.7-0.3c0.1-0.1,0.2-0.2,0.2-0.4h0.5c0,0.1-0.1,0.2-0.1,0.4s-0.2,0.3-0.3,0.3
		c-0.2,0.2-0.4,0.3-0.6,0.3c-0.1,0-0.3,0-0.4,0c-0.4,0-0.7-0.1-1-0.4c-0.3-0.3-0.4-0.7-0.4-1.2c0-0.5,0.1-0.9,0.4-1.2
		c0.3-0.3,0.6-0.5,1.1-0.5C17.5,17.8,17.7,17.9,17.9,18z M18.1,19.2c0-0.2-0.1-0.4-0.1-0.5c-0.1-0.3-0.4-0.4-0.7-0.4
		c-0.2,0-0.4,0.1-0.6,0.3c-0.2,0.2-0.2,0.4-0.3,0.7H18.1z"/>
	<path class="st3" d="M21,19.1c0.1,0,0.2-0.1,0.2-0.2c0,0,0-0.1,0-0.2c0-0.2-0.1-0.3-0.2-0.4c-0.1-0.1-0.3-0.1-0.5-0.1
		c-0.3,0-0.5,0.1-0.6,0.2c-0.1,0.1-0.1,0.2-0.1,0.4h-0.5c0-0.4,0.1-0.7,0.4-0.8s0.5-0.2,0.8-0.2c0.4,0,0.7,0.1,0.9,0.2
		c0.2,0.1,0.3,0.4,0.3,0.7v1.8c0,0.1,0,0.1,0,0.1s0.1,0,0.1,0c0,0,0,0,0.1,0s0.1,0,0.1,0v0.4c-0.1,0-0.1,0-0.2,0s-0.1,0-0.2,0
		c-0.2,0-0.3-0.1-0.4-0.2c0-0.1-0.1-0.2-0.1-0.3c-0.1,0.1-0.3,0.3-0.5,0.4s-0.4,0.2-0.7,0.2c-0.3,0-0.5-0.1-0.7-0.3
		c-0.2-0.2-0.3-0.4-0.3-0.7c0-0.3,0.1-0.5,0.3-0.7c0.2-0.2,0.4-0.3,0.7-0.3L21,19.1z M19.9,20.6c0.1,0.1,0.2,0.1,0.4,0.1
		c0.2,0,0.4,0,0.5-0.1c0.3-0.1,0.4-0.4,0.4-0.7v-0.4c-0.1,0-0.1,0.1-0.2,0.1s-0.2,0-0.3,0.1l-0.3,0c-0.2,0-0.3,0.1-0.4,0.1
		c-0.2,0.1-0.2,0.2-0.2,0.4C19.7,20.4,19.8,20.5,19.9,20.6z"/>
	<path class="st3" d="M22.7,17.9h0.5v0.5c0-0.1,0.1-0.2,0.3-0.4s0.3-0.2,0.6-0.2c0,0,0,0,0,0s0.1,0,0.1,0v0.6c0,0-0.1,0-0.1,0
		s-0.1,0-0.1,0c-0.3,0-0.5,0.1-0.6,0.3s-0.2,0.4-0.2,0.6V21h-0.5V17.9z"/>
	<path class="st3" d="M26.7,18.1c0.2,0.2,0.4,0.5,0.4,0.9h-0.5c0-0.2-0.1-0.4-0.2-0.5s-0.3-0.2-0.5-0.2c-0.3,0-0.6,0.2-0.7,0.5
		C25,19,25,19.3,25,19.6c0,0.3,0.1,0.6,0.2,0.8s0.3,0.3,0.6,0.3c0.2,0,0.4-0.1,0.5-0.2c0.1-0.1,0.2-0.3,0.3-0.5h0.5
		c-0.1,0.4-0.2,0.7-0.4,0.9s-0.5,0.3-0.9,0.3c-0.4,0-0.7-0.2-1-0.5s-0.4-0.7-0.4-1.1c0-0.6,0.1-1,0.4-1.3s0.6-0.5,1-0.5
		C26.2,17.8,26.5,17.9,26.7,18.1z"/>
	<path class="st3" d="M27.6,16.7h0.5v1.6c0.1-0.2,0.2-0.3,0.3-0.3c0.2-0.1,0.4-0.2,0.6-0.2c0.5,0,0.8,0.2,0.9,0.5
		c0.1,0.2,0.1,0.4,0.1,0.7v2h-0.5v-2c0-0.2,0-0.4-0.1-0.5c-0.1-0.2-0.3-0.3-0.5-0.3c-0.2,0-0.4,0.1-0.6,0.2s-0.3,0.4-0.3,0.9V21
		h-0.5V16.7z"/>
	<path class="st3" d="M31.1,20.4h0.6V21h-0.6V20.4z"/>
	<path class="st3" d="M32.8,20.4h0.6V21h-0.6V20.4z"/>
	<path class="st3" d="M34.4,20.4H35V21h-0.6V20.4z"/>
</g>
</svg>
