<?xml version="1.0" encoding="utf-8"?>
<!-- Generator: Adobe Illustrator 28.0.0, SVG Export Plug-In . SVG Version: 6.00 Build 0)  -->
<svg version="1.1" id="Layer_1" xmlns="http://www.w3.org/2000/svg" xmlns:xlink="http://www.w3.org/1999/xlink" x="0px" y="0px"
	 viewBox="0 0 71.4 37.9" style="enable-background:new 0 0 71.4 37.9;" xml:space="preserve">
<style type="text/css">
	.st0{fill:#FFFFFF;}
	.st1{fill-rule:evenodd;clip-rule:evenodd;fill:#F0F0F0;}
	.st2{fill-rule:evenodd;clip-rule:evenodd;fill:#EE592F;}
	.st3{opacity:0.349;}
	.st4{fill-rule:evenodd;clip-rule:evenodd;}
	.st5{opacity:0.102;}
	.st6{fill-rule:evenodd;clip-rule:evenodd;fill:#F0CE4C;}
	.st7{fill:#918191;}
	.st8{fill:#91DEB6;}
</style>
<rect y="0" class="st0" width="71.4" height="37.9"/>
<g id="Calendar">
	<g>
		<path class="st1" d="M48,5.1H27c-2.1,0-3.8,1.7-3.8,3.8v21c0,2.1,1.7,3.8,3.8,3.8h21c2.1,0,3.8-1.7,3.8-3.8v-21
			C51.8,6.8,50.1,5.1,48,5.1z"/>
	</g>
</g>
<g id="Top_Bar">
	<g>
		<path class="st2" d="M48,5.1H27c-2.1,0-3.8,1.7-3.8,3.8v3.8h28.7V8.9C51.8,6.8,50.1,5.1,48,5.1z"/>
	</g>
</g>
<g id="Dots" class="st3">
	<g>
		<path class="st4" d="M27.9,7.5c-0.8,0-1.4,0.6-1.4,1.4s0.6,1.4,1.4,1.4c0.8,0,1.4-0.6,1.4-1.4S28.7,7.5,27.9,7.5z M47,7.5
			c-0.8,0-1.4,0.6-1.4,1.4s0.6,1.4,1.4,1.4s1.4-0.6,1.4-1.4S47.8,7.5,47,7.5z"/>
	</g>
</g>
<g id="Bottom_Shadow_1_" class="st5">
	<g>
		<rect x="23.1" y="12.7" class="st4" width="28.7" height="1.9"/>
	</g>
</g>
<g id="Dates">
	<g>
		<path class="st6" d="M26.5,20.8h2.9V18h-2.9V20.8z M31.3,20.8h2.9V18h-2.9V20.8z M36,20.8h2.9V18H36V20.8z M40.8,20.8h2.9V18h-2.9
			V20.8z M45.6,18v2.9h2.9V18H45.6z M26.5,25.6h2.9v-2.9h-2.9V25.6z M31.3,25.6h2.9v-2.9h-2.9V25.6z M36,25.6h2.9v-2.9H36V25.6z
			 M40.8,25.6h2.9v-2.9h-2.9V25.6z M45.6,25.6h2.9v-2.9h-2.9V25.6z M26.5,30.4h2.9v-2.9h-2.9V30.4z M31.3,30.4h2.9v-2.9h-2.9V30.4z
			 M36,30.4h2.9v-2.9H36V30.4z M40.8,30.4h2.9v-2.9h-2.9V30.4z"/>
	</g>
</g>
<g>
	<path class="st7" d="M14.4,16.7v-3c0-0.3,0.2-0.6,0.6-0.6h0c0.3,0,0.6,0.2,0.6,0.6v3c0,0.3-0.2,0.6-0.6,0.6h0
		C14.6,17.2,14.4,17,14.4,16.7z"/>
	<path class="st7" d="M17.1,16.7v-3.9c0-0.3,0.2-0.6,0.6-0.6h0c0.3,0,0.6,0.2,0.6,0.6v3.9c0,0.3-0.2,0.6-0.6,0.6h0
		C17.4,17.2,17.1,17,17.1,16.7z"/>
	<path class="st7" d="M19.8,16.7v-2.6c0-0.3,0.2-0.6,0.6-0.6h0c0.3,0,0.6,0.2,0.6,0.6v2.6c0,0.3-0.2,0.6-0.6,0.6h0
		C20.1,17.2,19.8,17,19.8,16.7z"/>
	<path class="st8" d="M25.8,20.3c-0.5-0.6-1.3-1-2.4-1c0-0.3-0.2-0.5-0.5-0.5H12.7c-0.3,0-0.5,0.2-0.5,0.5v5.9
		c0,1.2,0.7,2.2,1.7,2.7l0,0c-0.1,0.1-0.1,0.2-0.1,0.4c0,0.6,0.4,1,1,1h6c0.6,0,1-0.4,1-1c0-0.1,0-0.3-0.1-0.4
		c0.9-0.4,1.5-1.3,1.7-2.2c0.9-0.2,1.6-0.7,2.2-1.5c0.5-0.7,0.7-1.4,0.7-1.5v0C26.5,21.8,26.3,20.9,25.8,20.3z M24.7,22.5
		c0,0.1-0.1,0.5-0.5,1c-0.2,0.3-0.5,0.6-0.9,0.7v-3.3c0.4,0,0.9,0.1,1.2,0.4C24.8,21.5,24.9,21.9,24.7,22.5z"/>
</g>
</svg>
