<svg xmlns="http://www.w3.org/2000/svg" viewBox="0 0 100.73 100.73">
  <title>Halcyon</title>
  <g>
    <path d="M323.73,384.15a13.52,13.52,0,0,1,13.51,13.51v49.71a13.52,13.52,0,0,1-13.51,13.51H274a13.52,13.52,0,0,1-13.51-13.51V397.66A13.52,13.52,0,0,1,274,384.15h49.71m0-12H274a25.51,25.51,0,0,0-25.51,25.51v49.71A25.51,25.51,0,0,0,274,472.88h49.71a25.51,25.51,0,0,0,25.51-25.51V397.66a25.51,25.51,0,0,0-25.51-25.51Z" transform="translate(-248.51 -372.15)"/>
    <path d="M279.46,396.47l-7.69-2.26v12.44l4.3,1.33a6.78,6.78,0,0,1,4.85,6.48v15.91a6.79,6.79,0,0,1-4.85,6.48l-4.3,1.32v12.45l7.69-2.26a18.85,18.85,0,0,0,13.46-18V414.46A18.85,18.85,0,0,0,279.46,396.47Z" transform="translate(-248.51 -372.15)"/>
    <path d="M318.43,396.47l7.69-2.26v12.44L321.81,408a6.79,6.79,0,0,0-4.84,6.48v15.91a6.8,6.8,0,0,0,4.84,6.48l4.31,1.32v12.45l-7.69-2.26a18.85,18.85,0,0,1-13.46-18V414.46A18.85,18.85,0,0,1,318.43,396.47Z" transform="translate(-248.51 -372.15)"/>
  </g>
</svg>
